<?xml version="1.0" encoding="utf-8"?>
<!-- Generator: Adobe Illustrator 19.1.0, SVG Export Plug-In . SVG Version: 6.00 Build 0)  -->
<!DOCTYPE svg PUBLIC "-//W3C//DTD SVG 1.1//EN" "http://www.w3.org/Graphics/SVG/1.1/DTD/svg11.dtd">
<svg version="1.1" id="レイヤー_1" xmlns="http://www.w3.org/2000/svg" xmlns:xlink="http://www.w3.org/1999/xlink" x="0px"
	 y="0px" viewBox="0 0 20 20" style="enable-background:new 0 0 20 20;" xml:space="preserve">
<style type="text/css">
	.st0{clip-path:url(#SVGID_2_);fill:#999999;}
</style>
<g>
	<defs>
		<path id="SVGID_1_" d="M15.9,15.4c-0.1-0.2-0.2-0.4-0.3-0.6c-0.1-0.2-0.3-0.3-0.4-0.4c-0.2-0.1-0.3-0.2-0.5-0.3
			C14.4,14.1,14.2,14,14,14h-1v-3c0-0.1,0-0.3-0.1-0.4s-0.1-0.2-0.2-0.3c-0.1-0.1-0.2-0.2-0.3-0.2S12.1,10,12,10H6V8h2
			c0.1,0,0.3,0,0.4-0.1c0.1-0.1,0.2-0.1,0.3-0.2c0.1-0.1,0.2-0.2,0.2-0.3C9,7.3,9,7.1,9,7V5h2c0.3,0,0.5-0.1,0.8-0.2
			c0.2-0.1,0.5-0.3,0.6-0.4c0.2-0.2,0.3-0.4,0.4-0.6C13,3.5,13,3.3,13,3V2.6c0.7,0.3,1.4,0.7,2,1.2c0.6,0.5,1.1,1.1,1.6,1.7
			c0.4,0.6,0.8,1.3,1,2.1C17.9,8.4,18,9.2,18,10c0,0.5,0,1-0.1,1.5c-0.1,0.5-0.2,1-0.4,1.4c-0.2,0.5-0.4,0.9-0.7,1.3
			C16.5,14.7,16.2,15,15.9,15.4z M9,17.9c-1-0.1-1.9-0.4-2.8-0.9c-0.9-0.5-1.6-1-2.2-1.7c-0.6-0.7-1.1-1.5-1.5-2.4C2.2,12,2,11,2,10
			c0-0.2,0-0.3,0-0.5s0-0.3,0-0.5c0-0.1,0-0.3,0.1-0.4c0-0.1,0.1-0.3,0.1-0.4L7,13v1c0,0.3,0.1,0.5,0.2,0.8c0.1,0.2,0.2,0.5,0.4,0.6
			c0.2,0.2,0.4,0.3,0.6,0.4C8.5,16,8.7,16,9,16V17.9z M10,0C8.6,0,7.3,0.3,6.1,0.8C4.9,1.3,3.8,2,2.9,2.9C2,3.8,1.3,4.9,0.8,6.1
			C0.3,7.3,0,8.6,0,10s0.3,2.7,0.8,3.9c0.5,1.2,1.2,2.3,2.1,3.2c0.9,0.9,2,1.6,3.2,2.1C7.3,19.8,8.6,20,10,20s2.7-0.3,3.9-0.8
			c1.2-0.5,2.3-1.2,3.2-2.1c0.9-0.9,1.6-2,2.1-3.2c0.5-1.2,0.8-2.5,0.8-3.9s-0.3-2.7-0.8-3.9c-0.5-1.2-1.2-2.3-2.1-3.2
			c-0.9-0.9-2-1.6-3.2-2.1C12.7,0.3,11.4,0,10,0z"/>
	</defs>
	<clipPath id="SVGID_2_">
		<use xlink:href="#SVGID_1_"  style="overflow:visible;"/>
	</clipPath>
	<rect x="-10" y="-10" class="st0" width="40" height="40"/>
</g>
</svg>
