<?xml version="1.0" encoding="utf-8"?>
<!-- Generator: Adobe Illustrator 19.1.0, SVG Export Plug-In . SVG Version: 6.00 Build 0)  -->
<!DOCTYPE svg PUBLIC "-//W3C//DTD SVG 1.1//EN" "http://www.w3.org/Graphics/SVG/1.1/DTD/svg11.dtd">
<svg version="1.1" id="レイヤー_1" xmlns="http://www.w3.org/2000/svg" xmlns:xlink="http://www.w3.org/1999/xlink" x="0px"
	 y="0px" viewBox="0 0 60.9 50.4" style="enable-background:new 0 0 60.9 50.4;" xml:space="preserve">
<style type="text/css">
	.st0{fill:#FF73B9;}
</style>
<path class="st0" d="M14,30.2c-1.6,0-2.9-1.3-3-2.9c0-0.6,0.2-1.2,0.5-1.7c-2.8-0.6-4.8-1.8-6.2-3C1.4,19.3,0,14.6,0,12.3
	c0-2.8,1-5.2,2.9-7C6.9,1.6,13.4,2,14.1,2c1.7,0.1,2.9,1.6,2.8,3.2c-0.1,1.6-1.6,2.9-3.2,2.8c-1.2-0.1-5,0.1-6.7,1.7
	c-0.4,0.4-1,1.1-1,2.6c0,0.7,0.8,3.7,3.2,5.7c1.9,1.6,4.5,2.2,7.5,1.7c0.8-0.1,1.6,0.1,2.3,0.5c0.7,0.5,1.1,1.2,1.2,2
	c0.1,0.6,0.4,3.6-1.5,5.9C17.8,29,16.5,30.1,14,30.2C14.1,30.2,14.1,30.2,14,30.2z"/>
<path class="st0" d="M46.8,30.2C46.8,30.2,46.8,30.2,46.8,30.2c-2.4-0.1-3.8-1.2-4.6-2.1c-1.9-2.2-1.6-5.3-1.5-5.9
	c0.1-0.8,0.5-1.5,1.2-2c0.7-0.5,1.5-0.7,2.3-0.5c3,0.5,5.6-0.1,7.5-1.7c2.4-2,3.2-5.1,3.2-5.7c0-1.5-0.6-2.2-1-2.6
	C52.1,8,48.2,7.9,47.2,8c-1.7,0.1-3.1-1.1-3.2-2.8s1.1-3.1,2.8-3.2C47.5,2,54,1.6,58,5.3c1.9,1.8,2.9,4.2,2.9,7
	c0,2.3-1.4,7-5.3,10.3c-1.4,1.2-3.5,2.4-6.2,3c0.3,0.5,0.5,1.1,0.5,1.7C49.8,28.9,48.4,30.2,46.8,30.2z"/>
<rect x="25.4" y="29.2" class="st0" width="10" height="6.7"/>
<path class="st0" d="M13.6,48.4c0-8.2,7.6-14.7,16.9-14.7c9.3,0,16.9,6.5,16.9,14.7H13.6z"/>
<path class="st0" d="M11.2,50.4l0.8-6.9c0.3-1.3,1.6-2.4,2.9-2.4h30.8c1.4,0,2.7,1.1,2.9,2.4l0.8,6.9H11.2z"/>
<path class="st0" d="M35.4,0h-9.8H11.6c0,0,0.1,27.4,12.8,30.7h11.9C49.1,27.4,49.2,0,49.2,0H35.4z M37.4,12.5l-3.3,3.4l0.7,4.7
	c0,0.1,0,0.3-0.2,0.4c-0.1,0.1-0.3,0.1-0.4,0l-4.2-2.1l-4.2,2.1c-0.1,0-0.1,0-0.2,0c-0.1,0-0.2,0-0.2-0.1c-0.1-0.1-0.2-0.2-0.2-0.4
	l0.7-4.7l-3.3-3.4c-0.1-0.1-0.1-0.3-0.1-0.4c0-0.1,0.2-0.2,0.3-0.3l4.6-0.8l2.2-4.2c0.1-0.1,0.2-0.2,0.3-0.2c0.1,0,0.3,0.1,0.3,0.2
	l2.2,4.2l4.6,0.8c0.1,0,0.3,0.1,0.3,0.3C37.6,12.2,37.5,12.4,37.4,12.5z"/>
</svg>
