<?xml version="1.0" encoding="utf-8"?>
<!-- Generator: Adobe Illustrator 19.1.0, SVG Export Plug-In . SVG Version: 6.00 Build 0)  -->
<!DOCTYPE svg PUBLIC "-//W3C//DTD SVG 1.1//EN" "http://www.w3.org/Graphics/SVG/1.1/DTD/svg11.dtd">
<svg version="1.1" id="レイヤー_1" xmlns="http://www.w3.org/2000/svg" xmlns:xlink="http://www.w3.org/1999/xlink" x="0px"
	 y="0px" viewBox="0 0 52.3 43.2" style="enable-background:new 0 0 52.3 43.2;" xml:space="preserve">
<style type="text/css">
	.st0{fill:#FF73B9;}
</style>
<g>
	<path class="st0" d="M38.4,7.4C39,8.8,38.2,10,36.7,10h-21c-1.6,0-2.4-1.2-1.8-2.6l1.9-4.7C16.4,1.2,18.1,0,19.7,0h13
		c1.6,0,3.3,1.2,3.9,2.6L38.4,7.4z"/>
</g>
<path class="st0" d="M46.7,7h-41C2.6,7,0,9.6,0,12.7v24.8c0,3.1,2.6,5.7,5.7,5.7h41c3.1,0,5.7-2.6,5.7-5.7V12.7
	C52.3,9.6,49.8,7,46.7,7z M26.2,36c-6,0-10.9-4.9-10.9-10.9c0-6,4.9-10.9,10.9-10.9c6,0,10.9,4.9,10.9,10.9
	C37.1,31.1,32.2,36,26.2,36z"/>
</svg>
