<?xml version="1.0" encoding="utf-8"?>
<!-- Generator: Adobe Illustrator 19.1.0, SVG Export Plug-In . SVG Version: 6.00 Build 0)  -->
<!DOCTYPE svg PUBLIC "-//W3C//DTD SVG 1.1//EN" "http://www.w3.org/Graphics/SVG/1.1/DTD/svg11.dtd">
<svg version="1.1" id="レイヤー_1" xmlns="http://www.w3.org/2000/svg" xmlns:xlink="http://www.w3.org/1999/xlink" x="0px"
	 y="0px" viewBox="0 0 58.5 55.4" style="enable-background:new 0 0 58.5 55.4;" xml:space="preserve">
<style type="text/css">
	.st0{fill-rule:evenodd;clip-rule:evenodd;fill:#FFD400;}
</style>
<path class="st0" d="M36.4,40.6c1.4,7.8-2.8,14.9-2.8,14.9c9.7-0.3,13.8-7.6,15.5-14.9H36.4z"/>
<path class="st0" d="M36.2,0c-12.4,0-1.4,0-13.8,0C10,0,0,3.9,0,22.4c0,0.4,0,0.8,0,1.2C0,42.1,10,46,22.4,46c12.4,0,1.4,0,13.8,0
	c12.4,0,22.4-3.9,22.4-22.4c0-0.4,0-0.8,0-1.2C58.5,3.9,48.5,0,36.2,0z M44.9,35.1H13.6c-1.1,0-2-0.9-2-2c0-1.1,0.9-2,2-2h31.3
	c1.1,0,2,0.9,2,2C46.9,34.2,46,35.1,44.9,35.1z M44.9,25.4H13.6c-1.1,0-2-0.9-2-2c0-1.1,0.9-2,2-2h31.3c1.1,0,2,0.9,2,2
	C46.9,24.5,46,25.4,44.9,25.4z M44.9,15.6H13.6c-1.1,0-2-0.9-2-2c0-1.1,0.9-2,2-2h31.3c1.1,0,2,0.9,2,2C46.9,14.7,46,15.6,44.9,15.6
	z"/>
</svg>
