<?xml version="1.0" encoding="UTF-8"?>
<svg width="24px" height="25px" viewBox="0 0 24 25" version="1.1" xmlns="http://www.w3.org/2000/svg" xmlns:xlink="http://www.w3.org/1999/xlink">
    <!-- Generator: Sketch 61.2 (89653) - https://sketch.com -->
    <title>desc-icon-1</title>
    <desc>Created with Sketch.</desc>
    <g id="Page-1" stroke="none" stroke-width="1" fill="none" fill-rule="evenodd" fill-opacity="0.330000013">
        <path d="M11.929,18.3898898 C10.6015381,18.4602063 9.56124126,19.5570669 9.56124126,20.8863898 C9.56124126,22.2157128 10.6015381,23.3125733 11.929,23.3828898 C12.8524563,23.4318059 13.7274883,22.9669631 14.2039186,22.1743859 C14.6803488,21.3818088 14.6803488,20.3909709 14.2039186,19.5983937 C13.7274883,18.8058165 12.8524563,18.3409737 11.929,18.3898898 Z M14.129,14.6128898 C14.129,13.2418898 14.672,12.7758898 15.759,11.8708898 C18.32,9.74988981 19.277,8.94788981 19.277,6.77088981 C19.277,3.87088981 16.897,1.15788981 12.5,1.15788981 C6.757,1.15788981 5,5.16788981 5,7.08188981 C5,8.68188981 6.6,8.81488981 7.276,8.81488981 C7.976,8.81488981 9.423,8.63388981 9.552,7.59888981 C9.63,6.79888981 9.811,5.11588981 12.294,5.11588981 C13.717,5.11588981 14.648,5.73688981 14.648,6.82288981 C14.648,7.85788981 13.924,8.37488981 11.932,9.87488981 C10.4677614,10.9744257 9.65095258,12.7337927 9.756,14.5618898 C9.756,16.0618898 10.17,16.8128898 12.032,16.8128898 C14.102,16.8118898 14.127,15.3888898 14.127,14.6128898 L14.129,14.6128898 Z" id="desc-icon-1" fill="#1880BB" fill-rule="nonzero" transform="translate(12.138500, 12.272147) rotate(-11.000000) translate(-12.138500, -12.272147) "></path>
    </g>
</svg>