<svg xmlns="http://www.w3.org/2000/svg" width="43.443" height="38.738" viewBox="0 0 43.443 38.738">
  <g id="float-compose" transform="translate(-4778.202 -865)">
    <g id="グループ_4" data-name="グループ 4" transform="translate(4505 363)">
      <path id="ic_mode_edit_24px" d="M3,22v5H8L22.744,12.253l-5-5ZM26.61,8.387a1.328,1.328,0,0,0,0-1.88l-3.12-3.12a1.328,1.328,0,0,0-1.88,0l-2.44,2.44,5,5,2.44-2.44Z" transform="translate(278 499.002)" fill="#fff"/>
      <path id="ic_add_24px" d="M17,11.857H11.857V17H10.143V11.857H5V10.143h5.143V5h1.714v5.143H17Z" transform="translate(292 511)" fill="#fff"/>
    </g>
    <path id="パス_12" data-name="パス 12" d="M-19.413-5.679v.441a5.273,5.273,0,0,1-.036.549h.6a4.841,4.841,0,0,1-.036-.558v-.432h.369a4.1,4.1,0,0,1,.711.045V-6.2a3.9,3.9,0,0,1-.72.045h-1.962c.009-.171.009-.261.018-.513a9.129,9.129,0,0,0,2.619-.477l-.4-.45a3.537,3.537,0,0,1-1.116.342,11.766,11.766,0,0,1-1.485.144h-.2A3.807,3.807,0,0,1-21-6.453a2.511,2.511,0,0,1-.8,2.133,2.5,2.5,0,0,1,.441.423,2.973,2.973,0,0,0,.828-1.782Zm2.529-.477c.018-.2.018-.279.036-.522a9.412,9.412,0,0,0,2.16-.306c.441-.126.441-.126.576-.162l-.414-.45a4.382,4.382,0,0,1-1.323.36,11.572,11.572,0,0,1-1.305.117c-.081,0-.135,0-.252-.009a2.778,2.778,0,0,1,.027.423,4.076,4.076,0,0,1-.135,1.089,1.53,1.53,0,0,1-.432.693,1.842,1.842,0,0,1,.441.369,2.437,2.437,0,0,0,.549-1.125h1.287v.459a4.482,4.482,0,0,1-.036.531h.6a4.379,4.379,0,0,1-.036-.54v-.45h.693a4.2,4.2,0,0,1,.729.045V-6.2a4.26,4.26,0,0,1-.729.045ZM-19.071-.648a4.137,4.137,0,0,1-1.071.513A6.248,6.248,0,0,1-21.663.18a1.72,1.72,0,0,1,.324.531,7.06,7.06,0,0,0,2.736-1Zm2.331.36A6.979,6.979,0,0,0-13.986.738,1.929,1.929,0,0,1-13.68.2,6.44,6.44,0,0,1-16.3-.621Zm-2.8-4.212c-.414,0-.711-.009-1-.036a7.906,7.906,0,0,1,.045,1.017v1.782a6.93,6.93,0,0,1-.045,1.026,9.534,9.534,0,0,1,.972-.036h3.87a9.231,9.231,0,0,1,.963.036,6.356,6.356,0,0,1-.045-1.008V-3.51a7.477,7.477,0,0,1,.045-1.026c-.3.027-.585.036-1.017.036Zm-.4.459h4.608v.648h-4.608Zm0,1.08h4.608v.648h-4.608Zm0,1.08h4.608v.666h-4.608Zm8.082-2.475h1.638c.369,0,.711.009.909.027-.018-.216-.027-.468-.027-.828V-6.363c0-.351.009-.585.027-.855a7.9,7.9,0,0,1-.918.036h-1.287a8.252,8.252,0,0,1-.936-.036c.027.288.036.549.036.99V-.387A6.81,6.81,0,0,1-12.465.621h.666a6.327,6.327,0,0,1-.054-1.008Zm0-2.385h2.007V-6h-2.007Zm0,1.179h2.007v.756h-2.007Zm6.66-.666a8.421,8.421,0,0,1,.045-.99,8.433,8.433,0,0,1-.945.036H-7.551a7.9,7.9,0,0,1-.918-.036c.018.27.027.54.027.855v1.206c0,.333-.009.567-.027.828.2-.018.54-.027.918-.027h1.8V-.288c0,.207-.063.261-.324.261a10.215,10.215,0,0,1-1.143-.09,1.708,1.708,0,0,1,.162.576c.4.027.72.036,1.071.036.621,0,.792-.162.792-.747ZM-7.92-6.741h2.169V-6H-7.92Zm0,1.179h2.169v.756H-7.92Zm.693,2.583A5.092,5.092,0,0,1-7.2-3.528a6.459,6.459,0,0,1-.657.027H-9.873a6.185,6.185,0,0,1-.621-.027,5.573,5.573,0,0,1,.027.567v1.8a5.568,5.568,0,0,1-.045.837h.585v-.711h2.16a5.205,5.205,0,0,1,.567.027,4.583,4.583,0,0,1-.027-.54Zm-2.7-.045h2.169v1.512H-9.927Zm8.55-3.033a12.593,12.593,0,0,1-1.926-.1l-.009.621a1.6,1.6,0,0,1,.2-.009h.144c.333.009,1.179.027,1.323.027a1,1,0,0,0,.171-.018l-.081.135A8.956,8.956,0,0,1-3.573-2.826l.5.5a2.978,2.978,0,0,1,.693-.747A3.381,3.381,0,0,1-.369-4.023c.423,0,.639.216.711.711A6.987,6.987,0,0,0-1-2.592,1.861,1.861,0,0,0-1.917-1.17c0,.927.783,1.386,2.394,1.386A13.962,13.962,0,0,0,2.664.036a3.542,3.542,0,0,1,.36-.045L2.943-.7a7.541,7.541,0,0,1-2.4.351c-1.269,0-1.827-.261-1.827-.855,0-.54.468-.963,1.692-1.539a2.365,2.365,0,0,1,.009.27,12.943,12.943,0,0,1-.054,1.3l.612-.009a1.956,1.956,0,0,1-.018-.324c0-.081,0-.207.009-.405.009-.18.009-.378.009-.5,0-.225,0-.315-.018-.549a14.943,14.943,0,0,1,2.4-.792l-.288-.63a1.98,1.98,0,0,1-.612.261c-.4.144-.909.333-1.566.594a1.092,1.092,0,0,0-1.188-1,2.4,2.4,0,0,0-1.359.441c-.09.063-.09.063-.414.315A.069.069,0,0,1-2.088-3.8v-.009a.009.009,0,0,0,.009-.009c.009-.009.054-.045.117-.09.036-.027.216-.234.306-.342a6.636,6.636,0,0,0,.81-1.278,29.06,29.06,0,0,0,2.97-.234,2.805,2.805,0,0,1,.36-.045L2.43-6.417A12.667,12.667,0,0,1-.4-6.075a1.532,1.532,0,0,0-.189.009c.045-.081.162-.324.279-.612a1.911,1.911,0,0,1,.234-.486L-.8-7.29a3.82,3.82,0,0,1-.432,1.233ZM6-5.751H5.445A3.424,3.424,0,0,1,4.8-5.8v.585a4.935,4.935,0,0,1,.648-.036H6V-3.24a5.72,5.72,0,0,1-1.287.4l.171.6c.288-.126.657-.27,1.116-.45v2.5c0,.162-.072.216-.288.216a5.626,5.626,0,0,1-.783-.063,1.657,1.657,0,0,1,.126.567c.189.009.351.018.468.018.828,0,1.053-.135,1.053-.621V-2.925c.351-.144.486-.207.891-.4l-.009-.54c-.4.2-.54.261-.882.405V-5.247h.5a3.486,3.486,0,0,1,.558.036V-5.8a2.351,2.351,0,0,1-.522.045h-.54v-.855A5.314,5.314,0,0,1,6.642-7.5h-.7A5.4,5.4,0,0,1,6-6.588Zm5.742,2.025a1.9,1.9,0,0,1-.54.045H8.46a4.09,4.09,0,0,1-.729-.054v.594a4.944,4.944,0,0,1,.585-.036A5.451,5.451,0,0,0,9.585-1.188,7.294,7.294,0,0,1,6.948.054,1.548,1.548,0,0,1,7.29.576,7.645,7.645,0,0,0,10-.8,7.269,7.269,0,0,0,12.564.558a2.322,2.322,0,0,1,.342-.567,6.742,6.742,0,0,1-2.457-1.17,7.5,7.5,0,0,0,1.4-1.764,3.608,3.608,0,0,1,.252-.4Zm-.4.549a5.845,5.845,0,0,1-1.323,1.638A4.775,4.775,0,0,1,8.856-3.177ZM10.6-6.7v1.728c0,.414.189.5,1.035.5,1.026,0,1.116-.09,1.215-1.323a1.788,1.788,0,0,1-.531-.279c-.009.7-.045.954-.144,1.017a1.441,1.441,0,0,1-.576.072c-.378,0-.441-.027-.441-.189V-6.624a4.717,4.717,0,0,1,.027-.639,5.023,5.023,0,0,1-.6.027H9.09a4.989,4.989,0,0,1-.612-.027,1.955,1.955,0,0,1,.027.4A3.673,3.673,0,0,1,8.28-5.337a1.888,1.888,0,0,1-.936.972,1.366,1.366,0,0,1,.414.405,2.435,2.435,0,0,0,.9-.855A3.576,3.576,0,0,0,9.072-6.7Zm4.239,1.575h-.594a3.75,3.75,0,0,1-.666-.045v.576a3.832,3.832,0,0,1,.657-.045h.531a6.6,6.6,0,0,1-1.386,2.79,1.278,1.278,0,0,1,.342.477,5.8,5.8,0,0,0,.765-1.3,5.659,5.659,0,0,0,.387-1.143c-.027.54-.036.972-.036,1.386V-.369A5.742,5.742,0,0,1,14.787.648h.639a5.615,5.615,0,0,1-.054-1.026v-2.2c0-.36-.018-.837-.036-1.332a4.044,4.044,0,0,0,.675,1.35,1.679,1.679,0,0,1,.306-.477,3.784,3.784,0,0,1-.936-1.593h.351a5.908,5.908,0,0,1,.684.036v-.558a4.223,4.223,0,0,1-.675.036h-.369V-6.588A6.006,6.006,0,0,0,16.407-7l-.378-.459a6.018,6.018,0,0,1-2.466.774,1.855,1.855,0,0,1,.261.495c.477-.1.648-.135,1.017-.234Zm3.816-1.656H17.343a6.6,6.6,0,0,1-.945-.054v.576a8.726,8.726,0,0,1,.927-.045h3.393a8.988,8.988,0,0,1,.927.045v-.576a6.461,6.461,0,0,1-.936.054H19.215V-6.93a2.6,2.6,0,0,1,.045-.594h-.648a3.773,3.773,0,0,1,.045.585ZM20.151-3.96a5.887,5.887,0,0,1,.63.027,4.749,4.749,0,0,1-.027-.549V-5.22a4.86,4.86,0,0,1,.027-.549,6.681,6.681,0,0,1-.684.027h-2.25a6.291,6.291,0,0,1-.666-.027,4.989,4.989,0,0,1,.027.531v.783a4.818,4.818,0,0,1-.027.522,6.531,6.531,0,0,1,.666-.027ZM17.73-5.292h2.493v.882H17.73ZM16.47-.333a7.707,7.707,0,0,1-.045.99h.621a7.118,7.118,0,0,1-.045-1V-2.925h3.888V-.162c0,.153-.054.189-.261.189a5.768,5.768,0,0,1-.855-.072,1.808,1.808,0,0,1,.117.558c.279.009.531.018.747.018.576,0,.783-.162.783-.621V-2.646a6.8,6.8,0,0,1,.036-.792,5.5,5.5,0,0,1-.828.036H17.28c-.306,0-.648-.018-.837-.036.018.252.027.531.027.819Zm3.663-1.512a4.532,4.532,0,0,1,.027-.513,5.732,5.732,0,0,1-.666.027H18.36a6.127,6.127,0,0,1-.63-.027,5.268,5.268,0,0,1,.027.558V-.738a3.95,3.95,0,0,1-.036.63h.5V-.621h1.3c.153,0,.351.009.639.027a3.556,3.556,0,0,1-.027-.486ZM18.225-1.89h1.449v.819H18.225Z" transform="translate(4800 903)" fill="#fff"/>
  </g>
</svg>
