<svg xmlns="http://www.w3.org/2000/svg" xmlns:xlink="http://www.w3.org/1999/xlink" width="23.533" height="20.215" viewBox="0 0 23.533 20.215">
  <defs>
    <clipPath id="clip-path">
      <rect id="長方形_263" data-name="長方形 263" width="23.533" height="20.215" fill="none"/>
    </clipPath>
  </defs>
  <g id="グループ_91" data-name="グループ 91" transform="translate(0 0)">
    <g id="グループ_90" data-name="グループ 90" transform="translate(0 0)" clip-path="url(#clip-path)">
      <path id="パス_363" data-name="パス 363" d="M14.374,3.119a5.042,5.042,0,1,0-3.49,6.758c-.418,3.891-2.38,6.451-5.9,8.991l-.036.03-.033.028.011.025a.764.764,0,0,0-.2.484.783.783,0,0,0,.78.78c.064,0,.1-.053.158-.066l.042.066c3.116-.78,9.467-6.307,9.467-12.746a10.49,10.49,0,0,0-.8-4.35" transform="translate(8.359 0)" fill="#fff"/>
      <path id="パス_364" data-name="パス 364" d="M9.644,3.119a5.008,5.008,0,1,0-4.635,6.9,5.054,5.054,0,0,0,1.146-.144c-.418,3.891-2.38,6.451-5.9,8.991l-.036.03-.036.028.014.025a.764.764,0,0,0-.2.484.781.781,0,0,0,.78.78c.061,0,.1-.053.158-.066l.042.066c3.113-.78,9.467-6.307,9.467-12.746a10.49,10.49,0,0,0-.8-4.35" transform="translate(0 0)" fill="#fff"/>
    </g>
  </g>
</svg>
