<?xml version="1.0" encoding="UTF-8"?>
<svg width="75px" height="58px" viewBox="0 0 75 58" version="1.1" xmlns="http://www.w3.org/2000/svg" xmlns:xlink="http://www.w3.org/1999/xlink">
    <title>qna-3_best</title>
    <g id="qna-3_best" stroke="none" stroke-width="1" fill="none" fill-rule="evenodd">
        <g fill-rule="nonzero">
            <path d="M28.35,54.92 C26.6364762,54.32643 24.9825358,53.573117 23.41,52.67 L23.11,53.2 C24.7012125,54.118351 26.375246,54.8850584 28.11,55.49 L28.35,54.92 Z" id="Path" fill="#66AA1C"></path>
            <path d="M25.58,52.22 C25.7449742,52.7446823 26.1021777,53.1876146 26.58,53.46 C26.8210981,53.6082616 27.0797658,53.7258379 27.35,53.81 C27.481099,53.5330267 27.5881594,53.245302 27.67,52.95 C27.8451952,52.4029315 27.8659579,51.8181153 27.73,51.26 C27.6515464,51.0035493 27.5223175,50.765496 27.35,50.56 C27.2004384,50.3825125 27.0290859,50.2245994 26.84,50.09 C26.6401602,49.9418559 26.4215967,49.8208053 26.19,49.73 C26.0305032,49.9878244 25.8933373,50.2588109 25.78,50.54 C25.5410549,51.0658011 25.4711743,51.6527976 25.58,52.22 L25.58,52.22 Z" id="Path" fill="#66AA1C"></path>
            <path d="M24.05,55.31 C24.6110442,55.1421215 25.2089558,55.1421215 25.77,55.31 C26.0606411,55.3863103 26.3422535,55.4935912 26.61,55.63 C26.5256669,55.9224024 26.4082405,56.2042257 26.26,56.47 C25.9965361,57.0145688 25.5507583,57.4497328 25,57.7 C24.6963469,57.8106824 24.3709112,57.8483644 24.05,57.81 C23.7460325,57.794595 23.4460641,57.7339273 23.16,57.63 C22.842208,57.5195097 22.5371407,57.3753571 22.25,57.2 C22.3663495,56.9177475 22.5139355,56.6494093 22.69,56.4 C23.0222727,55.9071249 23.4965962,55.5269685 24.05,55.31 L24.05,55.31 Z" id="Path" fill="#66AA1C"></path>
            <path d="M23.41,52.67 C21.8438271,51.7654324 20.3671857,50.7140369 19,49.53 L18.6,49.98 C20.0035838,51.191139 21.5167666,52.2691144 23.12,53.2 L23.41,52.67 Z" id="Path" fill="#66AA1C"></path>
            <path d="M21.21,49.49 C21.2759638,50.0517103 21.5596078,50.5651418 22,50.92 C22.2107739,51.108846 22.4422475,51.2732258 22.69,51.41 C22.8730242,51.1648913 23.0336693,50.9038431 23.17,50.63 C23.4374882,50.1019871 23.5518026,49.5096304 23.5,48.92 C23.4702361,48.6534589 23.3887106,48.3952948 23.26,48.16 C23.1412399,47.9583092 23.0003704,47.7704831 22.84,47.6 C22.6730095,47.414516 22.4811965,47.2529893 22.27,47.12 C22.063065,47.3435254 21.8757099,47.5844106 21.71,47.84 C21.3720542,48.3228076 21.1969005,48.900815 21.21,49.49 L21.21,49.49 Z" id="Path" fill="#66AA1C"></path>
            <path d="M19.11,52.24 C19.6935846,52.1862729 20.2796719,52.3118631 20.79,52.6 C21.0624008,52.7293005 21.3204807,52.8868298 21.56,53.07 C21.4162716,53.3400081 21.245388,53.5946582 21.05,53.83 C20.6866595,54.3007542 20.1702181,54.6297203 19.59,54.76 C19.2723173,54.8135201 18.9464071,54.7895056 18.64,54.69 C18.3438316,54.6167258 18.0605736,54.4987017 17.8,54.34 C17.5086468,54.1744583 17.2369244,53.9765371 16.99,53.75 C17.1586518,53.4944239 17.3566685,53.2594889 17.58,53.05 C17.9920479,52.625713 18.5274654,52.3422566 19.11,52.24 L19.11,52.24 Z" id="Path" fill="#66AA1C"></path>
            <path d="M19,49.53 C17.6297931,48.3402137 16.3742867,47.024443 15.25,45.6 L14.77,45.97 C15.9190357,47.4199393 17.2012978,48.7591164 18.6,49.97 L19,49.53 Z" id="Path" fill="#66AA1C"></path>
            <path d="M17.42,45.99 C17.3815587,46.5375581 17.5491972,47.0797082 17.89,47.51 C18.0598928,47.7344007 18.2544449,47.9390158 18.47,48.12 C18.7003413,47.9161085 18.9081924,47.6881428 19.09,47.44 C19.4476531,47.0027265 19.682367,46.478072 19.77,45.92 C19.7974874,45.649966 19.7667986,45.3771768 19.68,45.12 C19.6063715,44.8984285 19.5056057,44.6868204 19.38,44.49 C19.2520676,44.2780263 19.093713,44.0859792 18.91,43.92 C18.6654164,44.0987277 18.4377909,44.2995738 18.23,44.52 C17.8123368,44.9127865 17.5289393,45.4271004 17.42,45.99 Z" id="Path" fill="#66AA1C"></path>
            <path d="M14.85,48.28 C15.4296506,48.3485906 15.9777355,48.5810063 16.43,48.95 C16.6720301,49.1317981 16.8963585,49.3360374 17.1,49.56 C16.9081338,49.8001236 16.6901236,50.0181338 16.45,50.21 C16.0058399,50.6069102 15.4354399,50.8336531 14.84,50.85 C14.5188143,50.8428334 14.2037567,50.7606444 13.92,50.61 C13.6460001,50.4730271 13.3906032,50.3016424 13.16,50.1 C12.9062702,49.8833594 12.678124,49.6384377 12.48,49.37 C12.6920542,49.1483557 12.9305024,48.953567 13.19,48.79 C13.6779652,48.453842 14.2574677,48.2758021 14.85,48.28 Z" id="Path" fill="#66AA1C"></path>
            <path d="M15.24,45.6 C14.1220876,44.169936 13.13795,42.6401711 12.3,41.03 L11.76,41.31 C12.6180243,42.9502755 13.6220828,44.5099131 14.76,45.97 L15.24,45.6 Z" id="Path" fill="#66AA1C"></path>
            <path d="M14.37,41.83 C14.229769,42.3596012 14.2903181,42.9223514 14.54,43.41 C14.663358,43.6647924 14.8178732,43.9032832 15,44.12 C15.2613307,43.9618604 15.5059197,43.777581 15.73,43.57 C16.1845585,43.2113484 16.5307245,42.7336393 16.73,42.19 C16.7984169,41.9291898 16.8187488,41.6580976 16.79,41.39 C16.7550913,41.1574239 16.694729,40.9293884 16.61,40.71 C16.5221108,40.4790282 16.4044503,40.2605158 16.26,40.06 C15.9826037,40.1877968 15.7180659,40.3418314 15.47,40.52 C14.9729304,40.8280896 14.5874729,41.2871344 14.37,41.83 Z" id="Path" fill="#66AA1C"></path>
            <path d="M11.41,43.59 C11.9752212,43.7742802 12.4729466,44.1223399 12.84,44.59 C13.0426631,44.815723 13.2234719,45.0601497 13.38,45.32 C13.1470144,45.5185187 12.8920122,45.6896386 12.62,45.83 C12.1066917,46.1379464 11.4999285,46.2514928 10.91,46.15 C10.5961667,46.0796927 10.302216,45.9395534 10.05,45.74 C9.8076862,45.5577618 9.59223817,45.3423138 9.41,45.1 C9.20261176,44.8350249 9.02174395,44.5503256 8.87,44.25 C9.12284902,44.0764617 9.39459066,43.9322038 9.68,43.82 C10.2199161,43.5693835 10.8233581,43.4891571 11.41,43.59 L11.41,43.59 Z" id="Path" fill="#66AA1C"></path>
            <path d="M12.3,41.03 C11.4769045,39.4302445 10.807245,37.7560957 10.3,36.03 L9.72,36.2 C10.2268428,37.9745289 10.8963477,39.6985039 11.72,41.35 L12.3,41.03 Z" id="Path" fill="#66AA1C"></path>
            <path d="M12.17,37.17 C11.9184561,37.6570908 11.857831,38.2205477 12,38.75 C12.0770201,39.0243923 12.1843477,39.2893575 12.32,39.54 C12.6059393,39.4342304 12.8806293,39.3002353 13.14,39.14 C13.65869,38.8564866 14.0880907,38.4340117 14.38,37.92 C14.5044943,37.6807898 14.5793275,37.4188736 14.6,37.15 C14.6262581,36.9174054 14.6262581,36.6825946 14.6,36.45 C14.5584299,36.2046356 14.4844495,35.9658806 14.38,35.74 C14.085867,35.8213128 13.7983661,35.9249468 13.52,36.05 C12.95789,36.2626786 12.4828067,36.6568218 12.17,37.17 L12.17,37.17 Z" id="Path" fill="#66AA1C"></path>
            <path d="M8.92,38.34 C9.43594563,38.6157535 9.86,39.0363414 10.14,39.55 C10.3006327,39.8041504 10.4314931,40.0759372 10.53,40.36 C10.2652014,40.5127556 9.98323585,40.6335979 9.69,40.72 C9.14374645,40.9161796 8.54625355,40.9161796 8,40.72 C7.7063215,40.5858957 7.44401463,40.3917204 7.23,40.15 C7.02737448,39.9201532 6.85590028,39.664623 6.72,39.39 C6.56530096,39.0945732 6.44453248,38.782588 6.36,38.46 C6.63904152,38.3378853 6.93085095,38.2473238 7.23,38.19 C7.79537495,38.0653329 8.38542061,38.1177038 8.92,38.34 Z" id="Path" fill="#66AA1C"></path>
            <path d="M10.29,35.99 C9.78788911,34.2491857 9.45303815,32.4644302 9.29,30.66 L8.69,30.71 C8.84861766,32.5544203 9.18347911,34.3794152 9.69,36.16 L10.29,35.99 Z" id="Path" fill="#66AA1C"></path>
            <path d="M10.9,32.17 C10.7142806,32.3879019 10.586965,32.649415 10.53,32.93 C10.4688602,33.1818165 10.4452721,33.4412864 10.46,33.7 C10.4823004,33.981756 10.5359657,34.2601445 10.62,34.53 C10.9206095,34.4845131 11.2155773,34.4074192 11.5,34.3 C12.0495145,34.1257752 12.5406821,33.804095 12.92,33.37 C13.2225768,32.9674465 13.377889,32.4732713 13.36,31.97 C13.3674331,31.7213853 13.3439193,31.4728111 13.29,31.23 C12.983235,31.2444248 12.6785334,31.2879536 12.38,31.36 C11.8135175,31.4669622 11.2954353,31.7505072 10.9,32.17 L10.9,32.17 Z" id="Path" fill="#66AA1C"></path>
            <path d="M7.49,32.7 C7.73112287,32.8857548 7.93761546,33.1125581 8.1,33.37 C8.243209,33.6067337 8.36055001,33.8581787 8.45,34.12 C8.55741924,34.4044227 8.6345131,34.6993905 8.68,35 C8.39008238,35.0916126 8.09205398,35.1552367 7.79,35.19 C7.2008498,35.2867145 6.59663307,35.1658712 6.09,34.85 C5.59175227,34.4605751 5.23942684,33.9144707 5.09,33.3 C4.99896163,32.9734296 4.94199103,32.6383084 4.92,32.3 C5.2185789,32.2323803 5.52386209,32.1988327 5.83,32.2 C6.42164574,32.1915612 7.00143892,32.3661977 7.49,32.7 L7.49,32.7 Z" id="Path" fill="#66AA1C"></path>
            <path d="M9.28,30.66 C9.11017361,28.8539836 9.11017361,27.0360164 9.28,25.23 L8.68,25.17 C8.50002763,27.0122817 8.50002763,28.8677183 8.68,30.71 L9.28,30.66 Z" id="Path" fill="#66AA1C"></path>
            <path d="M10.6,27.02 C10.1932643,27.3872674 9.93977249,27.8942511 9.89,28.44 C9.87210713,28.6395998 9.87210713,28.8404002 9.89,29.04 C9.88259772,29.123169 9.88259772,29.206831 9.89,29.29 C10.1945356,29.2981593 10.499172,29.2780734 10.8,29.23 C11.3712326,29.1612247 11.9134805,28.9401809 12.37,28.59 C12.5714693,28.4111703 12.7347349,28.1934828 12.85,27.95 C12.9516805,27.7369925 13.0256172,27.5118217 13.07,27.28 C13.1059091,27.1088742 13.1259938,26.9348069 13.13,26.76 C13.13,26.62 13.13,26.54 13.13,26.54 C12.8238774,26.5141651 12.5161226,26.5141651 12.21,26.54 C11.6368524,26.5314298 11.0748828,26.6989735 10.6,27.02 L10.6,27.02 Z" id="Path" fill="#66AA1C"></path>
            <path d="M7.15,26.92 C7.52603228,27.3690009 7.76241734,27.9182486 7.83,28.5 C7.87040748,28.7109256 7.89049941,28.9252394 7.89000908,29.14 L7.89000908,29.41 C7.58412798,29.4412212 7.27587202,29.4412212 6.97,29.41 C6.37566045,29.3849418 5.80915671,29.151259 5.37,28.75 C5.14843772,28.5180023 4.97809147,28.2420414 4.87,27.94 C4.77067424,27.6521736 4.70686866,27.3532948 4.68,27.05 C4.65613876,26.8139348 4.65613876,26.5760652 4.68,26.34 C4.67460478,26.2434086 4.67460478,26.1465914 4.68,26.05 C4.98535835,26.0429344 5.29055817,26.0697652 5.59,26.13 C6.18121927,26.2193653 6.72808852,26.4963054 7.15,26.92 L7.15,26.92 Z" id="Path" fill="#66AA1C"></path>
            <path d="M9.29,25.23 C9.45151626,23.4253591 9.78639434,21.640459 10.29,19.9 L9.72,19.73 C9.18903499,21.5046583 8.83070492,23.3264486 8.65,25.17 L9.29,25.23 Z" id="Path" fill="#66AA1C"></path>
            <path d="M11.28,21.92 C11.0307203,22.0571427 10.8154228,22.2485183 10.65,22.48 C10.5009644,22.6942386 10.3862527,22.9304098 10.31,23.18 C10.2381287,23.3663662 10.1910591,23.5613688 10.17,23.76 L10.17,24 C10.4688036,24.0689771 10.7735298,24.1091608 11.08,24.12 C11.653866,24.1583858 12.227435,24.0409078 12.74,23.78 C13.1705645,23.5167525 13.4985869,23.1146605 13.67,22.64 C13.7419194,22.4798625 13.7955904,22.3121406 13.83,22.14 L13.83,21.93 C13.5376453,21.8305408 13.236182,21.7601994 12.93,21.72 C12.3728408,21.6065534 11.7939203,21.6767256 11.28,21.92 L11.28,21.92 Z" id="Path" fill="#66AA1C"></path>
            <path d="M7.91,21.13 C8.07139065,21.3895995 8.18012268,21.678419 8.23,21.98 C8.27837581,22.2538813 8.2984814,22.5320085 8.29,22.81 C8.29,23.07 8.29,23.29 8.22,23.45 C8.20992271,23.5378049 8.19320822,23.6247203 8.17,23.71 C7.86605538,23.6875341 7.56480141,23.6373251 7.27,23.56 C6.68622807,23.426128 6.16887908,23.0894968 5.81,22.61 C5.49236552,22.0634717 5.36900937,21.4255442 5.46,20.8 C5.47816889,20.5641332 5.51495007,20.3300712 5.57,20.1 C5.57,19.92 5.66,19.82 5.66,19.82 C5.9624154,19.8672051 6.25793549,19.9511597 6.54,20.07 C7.0965632,20.2708555 7.57584778,20.6416888 7.91,21.13 Z" id="Path" fill="#66AA1C"></path>
            <path d="M10.33,19.92 C10.8401426,18.1949084 11.5096953,16.5210267 12.33,14.92 L11.8,14.64 C10.9440843,16.2829644 10.247568,18.0041634 9.72,19.78 L10.33,19.92 Z" id="Path" fill="#66AA1C"></path>
            <path d="M12.91,17.02 C12.6399083,17.1105333 12.3937748,17.2609482 12.19,17.46 C12.0064581,17.641134 11.8483486,17.84634 11.72,18.07 C11.6189581,18.2447564 11.5352272,18.4289643 11.47,18.62 C11.4423752,18.6952944 11.419005,18.7720822 11.4,18.85 C11.6809492,18.9719544 11.972068,19.0689941 12.27,19.14 C12.8240186,19.2848765 13.4059814,19.2848765 13.96,19.14 C14.4338083,18.9618977 14.8348786,18.6311906 15.1,18.2 C15.1982295,18.051723 15.2819494,17.8943296 15.35,17.73 C15.3832048,17.6661383 15.4100023,17.5991445 15.43,17.53 C15.1640554,17.3811149 14.8864797,17.2540321 14.6,17.15 C14.0642466,16.9304782 13.4730243,16.8849995 12.91,17.02 Z" id="Path" fill="#66AA1C"></path>
            <path d="M9.76,15.61 C9.86782088,15.8974528 9.91876478,16.2031162 9.91,16.51 C9.9087429,16.7895946 9.87518709,17.0681078 9.81,17.34 C9.74,17.58 9.68,17.8 9.62,17.95 C9.59344701,18.0326594 9.55999603,18.1129418 9.52,18.19 C9.22800017,18.1299882 8.94310598,18.0394924 8.67,17.92 C8.12089327,17.6808388 7.6768872,17.2510409 7.42,16.71 C7.21504632,16.1137887 7.21504632,15.4662113 7.42,14.87 C7.51,14.6 7.6,14.37 7.67,14.2 C7.70763884,14.1041269 7.75105171,14.0106223 7.8,13.92 C8.08814354,14.0247879 8.36328357,14.1623579 8.62,14.33 C9.12403243,14.6275287 9.5225795,15.0750201 9.76,15.61 L9.76,15.61 Z" id="Path" fill="#66AA1C"></path>
            <path d="M12.37,14.92 C13.2220917,13.3108252 14.2266999,11.7871693 15.37,10.37 L14.86,9.92 C13.7170843,11.3729866 12.7127022,12.9297789 11.86,14.57 L12.37,14.92 Z" id="Path" fill="#66AA1C"></path>
            <path d="M15.46,12.54 C15.1738991,12.570955 14.8994788,12.6704324 14.66,12.83 C14.4468455,12.9760374 14.252103,13.1472766 14.08,13.34 C13.9514246,13.4922126 13.8375811,13.6562811 13.74,13.83 C13.6956147,13.9008549 13.655542,13.9743215 13.62,14.05 C13.8737424,14.2190288 14.1413689,14.3662234 14.42,14.49 C14.9357485,14.7396371 15.5089163,14.8466744 16.08,14.8 C16.5799904,14.7202907 17.0382296,14.4735466 17.38,14.1 C17.5017942,13.9705765 17.6153505,13.833641 17.72,13.69 L17.84,13.51 C17.6071798,13.3101969 17.3560727,13.1327478 17.09,12.98 C16.606524,12.6654201 16.0361023,12.5114412 15.46,12.54 Z" id="Path" fill="#66AA1C"></path>
            <path d="M12.63,10.56 C12.6851171,10.8574684 12.6851171,11.1625316 12.63,11.46 C12.5719345,11.7331882 12.4812861,11.9984188 12.36,12.25 C12.273763,12.4451286 12.1769527,12.6354109 12.07,12.82 L11.93,13.04 C11.6485245,12.9119683 11.3833191,12.7508308 11.14,12.56 C10.6530618,12.2115998 10.3001441,11.7069276 10.14,11.13 C10.0528861,10.5077634 10.1760681,9.87425551 10.49,9.33 C10.6019133,9.11995543 10.7254379,8.91630675 10.86,8.72 C10.9015733,8.64354701 10.9483501,8.5700406 11,8.5 C11.2627923,8.65982989 11.507546,8.84758619 11.73,9.06 C12.1819532,9.45150821 12.4972355,9.97697857 12.63,10.56 L12.63,10.56 Z" id="Path" fill="#66AA1C"></path>
            <path d="M15.34,10.32 C16.468956,8.8992964 17.7313865,7.58998524 19.11,6.41 L18.71,5.92 C17.3043058,7.12990009 16.0153157,8.46911056 14.86,9.92 L15.34,10.32 Z" id="Path" fill="#66AA1C"></path>
            <path d="M18.81,8.61 C18.5228326,8.58880695 18.2347715,8.63681713 17.97,8.75 C17.7332167,8.84923878 17.5111506,8.98045964 17.31,9.14 C17.1472851,9.26216022 16.9995922,9.40313979 16.87,9.56 C16.8149629,9.61918874 16.7647995,9.68272893 16.72,9.75 C16.9367793,9.96550782 17.1709003,10.1628384 17.42,10.34 C17.8850162,10.6717296 18.4308003,10.8720807 19,10.92 C19.505803,10.9338549 20.0018447,10.7790617 20.41,10.48 C20.5534989,10.3751678 20.6904233,10.2616207 20.82,10.14 L20.97,9.98 C20.7759256,9.74210951 20.5618078,9.52130053 20.33,9.32 C19.9115791,8.92793521 19.3792046,8.67926023 18.81,8.61 Z" id="Path" fill="#66AA1C"></path>
            <path d="M16.41,6.13 C16.3956833,6.43605159 16.3279988,6.73724774 16.21,7.02 C16.1040295,7.27622527 15.966284,7.51811991 15.8,7.74 C15.6763617,7.91738556 15.5428163,8.08765599 15.4,8.25 C15.3445861,8.31752571 15.284434,8.38101962 15.22,8.44 C14.9774383,8.25513396 14.7530864,8.04752477 14.55,7.82 C14.1340982,7.38972811 13.8827685,6.8268912 13.84,6.23 C13.8683068,5.59983252 14.1078238,4.99751767 14.52,4.52 C14.6682589,4.33618592 14.828615,4.1624669 15,4 C15.0675284,3.930241 15.1411544,3.86665488 15.22,3.81 C15.4500061,4.01496659 15.6547816,4.24659794 15.83,4.5 C16.1852479,4.97135738 16.3876535,5.54018689 16.41,6.13 L16.41,6.13 Z" id="Path" fill="#66AA1C"></path>
            <path d="M19.11,6.41 C20.4877292,5.23157699 21.9744244,4.18687227 23.55,3.29 L23.25,2.77 C21.6424648,3.67727009 20.1226123,4.7317933 18.71,5.92 L19.11,6.41 Z" id="Path" fill="#66AA1C"></path>
            <path d="M22.84,5.39 C22.5609723,5.32014482 22.2690277,5.32014482 21.99,5.39 C21.7351243,5.44000319 21.4891006,5.52762807 21.26,5.65 C21.0828608,5.73934354 20.9153226,5.84656798 20.76,5.97 L20.57,6.13 C20.7419266,6.38337527 20.9360229,6.62097587 21.15,6.84 C21.5324761,7.26599427 22.0231777,7.58045796 22.57,7.75 C23.0556147,7.84532255 23.559171,7.77489509 24,7.55 C24.164277,7.48183792 24.3216599,7.39812361 24.47,7.3 L24.64,7.18 C24.4981624,6.91027025 24.334271,6.65272667 24.15,6.41 C23.8298169,5.94224407 23.3719712,5.58575356 22.84,5.39 L22.84,5.39 Z" id="Path" fill="#66AA1C"></path>
            <path d="M21,2.5 C20.9361338,2.79777205 20.8137669,3.07989572 20.64,3.33 C20.4892841,3.56641435 20.3076799,3.78164899 20.1,3.97 C19.9461329,4.1206803 19.7824402,4.2609883 19.61,4.39 C19.5443788,4.44586273 19.4741257,4.49604355 19.4,4.54 C19.1932381,4.31523599 19.0090227,4.07073192 18.85,3.81 C18.5273687,3.30546406 18.3895494,2.70471356 18.46,2.11 C18.6122948,1.49676553 18.9640607,0.951528329 19.46,0.56 C19.68,0.38 19.88,0.24 20.03,0.14 C20.112776,0.0864430214 20.1997225,0.0396256249 20.29,1.33226763e-15 C20.474484,0.24391697 20.6289288,0.509159096 20.75,0.79 C21.0089472,1.32018974 21.0963273,1.91786955 21,2.5 Z" id="Path" fill="#66AA1C"></path>
            <path d="M26.72,2.77 C26.2074554,2.96178205 25.6473351,2.98628731 25.12,2.84 C24.8282882,2.7788883 24.5435055,2.68842792 24.27,2.57 C24.3335253,2.27642048 24.4308404,1.99118662 24.56,1.72 C24.7892451,1.17765291 25.2039772,0.734563138 25.73,0.47 C26.2781837,0.265318032 26.8818163,0.265318032 27.43,0.47 C27.7143179,0.554775791 27.9865513,0.675768406 28.24,0.83 C28.1426774,1.11281761 28.0152811,1.38437279 27.86,1.64 C27.6038542,2.12390591 27.2061439,2.51812759 26.72,2.77 L26.72,2.77 Z" id="Path" fill="#66AA1C"></path>
            <path d="M28.24,0.81 C26.5584692,1.39099677 24.9347747,2.12751799 23.39,3.01" id="Path" fill="#66AA1C"></path>
            <path d="M46.84,54.92 C48.5535238,54.32643 50.2074642,53.573117 51.78,52.67 L52.08,53.2 C50.4887875,54.118351 48.814754,54.8850584 47.08,55.49 L46.84,54.92 Z" id="Path" fill="#66AA1C"></path>
            <path d="M49.61,52.22 C49.4450258,52.7446823 49.0878223,53.1876146 48.61,53.46 C48.3689019,53.6082616 48.1102342,53.7258379 47.84,53.81 C47.7037185,53.5352407 47.5964714,53.2470142 47.52,52.95 C47.3448048,52.4029315 47.3240421,51.8181153 47.46,51.26 C47.5384536,51.0035493 47.6676825,50.765496 47.84,50.56 C47.9895616,50.3825125 48.1609141,50.2245994 48.35,50.09 C48.5498398,49.9418559 48.7684033,49.8208053 49,49.73 C49.1594968,49.9878244 49.2966627,50.2588109 49.41,50.54 C49.6489451,51.0658011 49.7188257,51.6527976 49.61,52.22 Z" id="Path" fill="#66AA1C"></path>
            <path d="M51.14,55.31 C50.5789558,55.1421215 49.9810442,55.1421215 49.42,55.31 C49.1293589,55.3863103 48.8477465,55.4935912 48.58,55.63 C48.6643331,55.9224024 48.7817595,56.2042257 48.93,56.47 C49.1990495,57.0033338 49.6441838,57.4272712 50.19,57.67 C50.5091197,57.7887482 50.8526984,57.8265418 51.19,57.78 C51.4939675,57.764595 51.7939359,57.7039273 52.08,57.6 C52.397792,57.4895097 52.7028593,57.3453571 52.99,57.17 C52.8722668,56.8864262 52.7212046,56.6178711 52.54,56.37 C52.1965307,55.8781225 51.7066008,55.5071756 51.14,55.31 Z" id="Path" fill="#66AA1C"></path>
            <path d="M51.78,52.67 C53.3496391,51.7659682 54.8296491,50.7145584 56.2,49.53 L56.6,49.98 C55.1964162,51.191139 53.6832334,52.2691144 52.08,53.2 L51.78,52.67 Z" id="Path" fill="#66AA1C"></path>
            <path d="M54,49.49 C53.9416994,50.0471888 53.669194,50.5599294 53.24,50.92 C53.0292261,51.108846 52.7977525,51.2732258 52.55,51.41 C52.3669758,51.1648913 52.2063307,50.9038431 52.07,50.63 C51.7852331,50.1070066 51.6535378,49.5143776 51.69,48.92 C51.7197639,48.6534589 51.8012894,48.3952948 51.93,48.16 C52.0487601,47.9583092 52.1896296,47.7704831 52.35,47.6 C52.5169905,47.414516 52.7088035,47.2529893 52.92,47.12 C53.126935,47.3435254 53.3142901,47.5844106 53.48,47.84 C53.8250437,48.3203794 54.0072673,48.8985892 54,49.49 L54,49.49 Z" id="Path" fill="#66AA1C"></path>
            <path d="M56.08,52.24 C55.4964154,52.1862729 54.9103281,52.3118631 54.4,52.6 C54.1259746,52.7262747 53.8675708,52.8840017 53.63,53.07 C53.7737284,53.3400081 53.944612,53.5946582 54.14,53.83 C54.5033405,54.3007542 55.0197819,54.6297203 55.6,54.76 C55.9176827,54.8135201 56.2435929,54.7895056 56.55,54.69 C56.8461684,54.6167258 57.1294264,54.4987017 57.39,54.34 C57.6813532,54.1744583 57.9530756,53.9765371 58.2,53.75 C58.0313482,53.4944239 57.8333315,53.2594889 57.61,53.05 C57.1979521,52.625713 56.6625346,52.3422566 56.08,52.24 L56.08,52.24 Z" id="Path" fill="#66AA1C"></path>
            <path d="M56.2,49.53 C57.5875886,48.3425766 58.8599067,47.0267318 60,45.6 L60.48,45.97 C59.3309643,47.4199393 58.0487022,48.7591164 56.65,49.97 L56.2,49.53 Z" id="Path" fill="#66AA1C"></path>
            <path d="M57.77,45.99 C57.8084413,46.5375581 57.6408028,47.0797082 57.3,47.51 C57.1301072,47.7344007 56.9355551,47.9390158 56.72,48.12 C56.4896587,47.9161085 56.2818076,47.6881428 56.1,47.44 C55.7423469,47.0027265 55.507633,46.478072 55.42,45.92 C55.3925126,45.649966 55.4232014,45.3771768 55.51,45.12 C55.5836285,44.8984285 55.6843943,44.6868204 55.81,44.49 C55.9379324,44.2780263 56.096287,44.0859792 56.28,43.92 C56.5245836,44.0987277 56.7522091,44.2995738 56.96,44.52 C57.3776632,44.9127865 57.6610607,45.4271004 57.77,45.99 L57.77,45.99 Z" id="Path" fill="#66AA1C"></path>
            <path d="M60.34,48.28 C59.7603494,48.3485906 59.2122645,48.5810063 58.76,48.95 C58.5179699,49.1317981 58.2936415,49.3360374 58.09,49.56 C58.2818662,49.8001236 58.4998764,50.0181338 58.74,50.21 C59.1841601,50.6069102 59.7545601,50.8336531 60.35,50.85 C60.6711857,50.8428334 60.9862433,50.7606444 61.27,50.61 C61.5439999,50.4730271 61.7993968,50.3016424 62.03,50.1 C62.2804366,49.8799451 62.508237,49.6353947 62.71,49.37 C62.4979458,49.1483557 62.2594976,48.953567 62,48.79 C61.5120348,48.453842 60.9325323,48.2758021 60.34,48.28 L60.34,48.28 Z" id="Path" fill="#66AA1C"></path>
            <path d="M60,45.6 C61.1179124,44.169936 62.10205,42.6401711 62.94,41.03 L63.48,41.31 C62.6219757,42.9502755 61.6179172,44.5099131 60.48,45.97 L60,45.6 Z" id="Path" fill="#66AA1C"></path>
            <path d="M60.82,41.83 C60.960231,42.3596012 60.8996819,42.9223514 60.65,43.41 C60.526642,43.6647924 60.3721268,43.9032832 60.19,44.12 C59.9286693,43.9618604 59.6840803,43.777581 59.46,43.57 C59.0054415,43.2113484 58.6592755,42.7336393 58.46,42.19 C58.3915831,41.9291898 58.3712512,41.6580976 58.4,41.39 C58.4349087,41.1574239 58.495271,40.9293884 58.58,40.71 C58.6678892,40.4790282 58.7855497,40.2605158 58.93,40.06 C59.2073963,40.1877968 59.4719341,40.3418314 59.72,40.52 C60.2143401,40.8312311 60.5989609,41.2892795 60.82,41.83 L60.82,41.83 Z" id="Path" fill="#66AA1C"></path>
            <path d="M63.78,43.59 C63.2147788,43.7742802 62.7170534,44.1223399 62.35,44.59 C62.1473369,44.815723 61.9665281,45.0601497 61.81,45.32 C62.0429856,45.5185187 62.2979878,45.6896386 62.57,45.83 C63.0833083,46.1379464 63.6900715,46.2514928 64.28,46.15 C64.5938333,46.0796927 64.887784,45.9395534 65.14,45.74 C65.3823138,45.5577618 65.5977618,45.3423138 65.78,45.1 C65.9873882,44.8350249 66.1682561,44.5503256 66.32,44.25 C66.067151,44.0764617 65.7954093,43.9322038 65.51,43.82 C64.9700839,43.5693835 64.3666419,43.4891571 63.78,43.59 Z" id="Path" fill="#66AA1C"></path>
            <path d="M62.89,41.03 C63.7130955,39.4302445 64.382755,37.7560957 64.89,36.03 L65.47,36.2 C64.9470626,37.9762522 64.2608007,39.7002759 63.42,41.35 L62.89,41.03 Z" id="Path" fill="#66AA1C"></path>
            <path d="M63,37.17 C63.2415106,37.6609356 63.2914243,38.2242473 63.14,38.75 C63.0629799,39.0243923 62.9556523,39.2893575 62.82,39.54 C62.5340607,39.4342304 62.2593707,39.3002353 62,39.14 C61.4997195,38.8491808 61.0882759,38.4273647 60.81,37.92 C60.6855057,37.6807898 60.6106725,37.4188736 60.59,37.15 C60.5637419,36.9174054 60.5637419,36.6825946 60.59,36.45 C60.6315701,36.2046356 60.7055505,35.9658806 60.81,35.74 C61.104133,35.8213128 61.3916339,35.9249468 61.67,36.05 C62.2247043,36.2664642 62.6922947,36.6602245 63,37.17 Z" id="Path" fill="#66AA1C"></path>
            <path d="M66.27,38.34 C65.7540544,38.6157535 65.3299905,39.0363414 65.05,39.55 C64.888916,39.8053858 64.75486,40.0768493 64.65,40.36 C64.9197439,40.5124598 65.2046088,40.6364598 65.5,40.73 C66.0593388,40.9299242 66.6706612,40.9299242 67.23,40.73 C67.5236785,40.5958957 67.7859854,40.4017204 68,40.16 C68.2026255,39.9301532 68.3740997,39.674623 68.51,39.4 C68.664699,39.1045732 68.7854675,38.792588 68.87,38.47 C68.5909585,38.3478853 68.2991491,38.2573238 68,38.2 C67.4229557,38.0636293 66.8176076,38.1126171 66.27,38.34 Z" id="Path" fill="#66AA1C"></path>
            <path d="M64.9,35.99 C65.4021109,34.2491857 65.7369618,32.4644302 65.9,30.66 L66.5,30.71 C66.3413823,32.5544203 66.0065209,34.3794152 65.5,36.16 L64.9,35.99 Z" id="Path" fill="#66AA1C"></path>
            <path d="M64.29,32.17 C64.4757194,32.3879019 64.603035,32.649415 64.66,32.93 C64.7211398,33.1818165 64.7447279,33.4412864 64.73,33.7 C64.7076996,33.981756 64.6540343,34.2601445 64.57,34.53 C64.2693905,34.4845131 63.9744227,34.4074192 63.69,34.3 C63.1404855,34.1257752 62.6493179,33.804095 62.27,33.37 C61.9674232,32.9674465 61.812111,32.4732713 61.83,31.97 C61.8163285,31.7212233 61.8399225,31.4718004 61.9,31.23 C62.206765,31.2444248 62.5114666,31.2879536 62.81,31.36 C63.3764825,31.4669622 63.8945647,31.7505072 64.29,32.17 Z" id="Path" fill="#66AA1C"></path>
            <path d="M67.7,32.7 C67.4564588,32.8831137 67.2495289,33.1103975 67.09,33.37 C66.7882288,33.868426 66.5909019,34.4229825 66.51,35 C66.7999176,35.0916126 67.097946,35.1552367 67.4,35.19 C67.9891502,35.2867145 68.5933669,35.1658712 69.1,34.85 C69.5982477,34.4605751 69.9505732,33.9144707 70.1,33.3 C70.1910384,32.9734296 70.248009,32.6383084 70.27,32.3 C69.9714211,32.2323803 69.6661379,32.1988327 69.36,32.2 C68.7683543,32.1915612 68.1885611,32.3661977 67.7,32.7 Z" id="Path" fill="#66AA1C"></path>
            <path d="M65.91,30.66 C66.0798264,28.8539836 66.0798264,27.0360164 65.91,25.23 L66.51,25.17 C66.6899724,27.0122817 66.6899724,28.8677183 66.51,30.71 L65.91,30.66 Z" id="Path" fill="#66AA1C"></path>
            <path d="M64.59,27.02 C64.9967357,27.3872674 65.2502275,27.8942511 65.3,28.44 C65.3178929,28.6395998 65.3178929,28.8404002 65.3,29.04 C65.3074023,29.123169 65.3074023,29.206831 65.3,29.29 C64.9954644,29.2981593 64.690828,29.2780734 64.39,29.23 C63.8187674,29.1612247 63.2765195,28.9401809 62.82,28.59 C62.6185307,28.4111703 62.4552651,28.1934828 62.34,27.95 C62.2338031,27.7388304 62.159656,27.5130189 62.12,27.28 C62.0840909,27.1088742 62.0640062,26.9348069 62.06,26.76 C62.06,26.62 62.06,26.54 62.06,26.54 C62.3661226,26.5141651 62.6738774,26.5141651 62.98,26.54 C63.5531476,26.5314298 64.1151172,26.6989735 64.59,27.02 L64.59,27.02 Z" id="Path" fill="#66AA1C"></path>
            <path d="M68,26.92 C67.6261605,27.3714024 67.3870294,27.918978 67.31,28.5 C67.2938382,28.7130272 67.2938382,28.9269728 67.31,29.14 L67.31,29.41 C67.615872,29.4412212 67.924128,29.4412212 68.23,29.41 C68.8243396,29.3849418 69.3908433,29.151259 69.83,28.75 C70.0515623,28.5180023 70.2219085,28.2420414 70.33,27.94 C70.4293258,27.6521736 70.4931313,27.3532948 70.52,27.05 C70.5438612,26.8139348 70.5438612,26.5760652 70.52,26.34 C70.5253952,26.2434086 70.5253952,26.1465914 70.52,26.05 C70.2146417,26.0429344 69.9094418,26.0697652 69.61,26.13 C69.0010176,26.2089761 68.4351025,26.4866611 68,26.92 L68,26.92 Z" id="Path" fill="#66AA1C"></path>
            <path d="M65.9,25.23 C65.7384837,23.4253591 65.4036057,21.640459 64.9,19.9 L65.47,19.73 C66.000965,21.5046583 66.3592951,23.3264486 66.54,25.17 L65.9,25.23 Z" id="Path" fill="#66AA1C"></path>
            <path d="M63.91,21.92 C64.1592797,22.0571427 64.3745772,22.2485183 64.54,22.48 C64.6890356,22.6942386 64.8037473,22.9304098 64.88,23.18 C64.9518713,23.3663662 64.9989409,23.5613688 65.02,23.76 C65.02,23.91 65.02,24 65.02,24 C64.7209875,24.0678166 64.416371,24.1079858 64.11,24.12 C63.536134,24.1583858 62.962565,24.0409078 62.45,23.78 C62.0194355,23.5167525 61.6914131,23.1146605 61.52,22.64 C61.4480806,22.4798625 61.3944096,22.3121406 61.36,22.14 L61.36,21.93 C61.6523547,21.8305408 61.953818,21.7601994 62.26,21.72 C62.8171592,21.6065534 63.3960797,21.6767256 63.91,21.92 L63.91,21.92 Z" id="Path" fill="#66AA1C"></path>
            <path d="M67.27,21.13 C67.11583,21.3921211 67.0107766,21.6801707 66.96,21.98 C66.9116242,22.2538813 66.8915186,22.5320085 66.9,22.81 C66.9,23.07 66.9,23.29 66.97,23.45 C66.963553,23.5365468 66.963553,23.6234532 66.97,23.71 C67.2739446,23.6875341 67.5751986,23.6373251 67.87,23.56 C68.4537719,23.426128 68.9711209,23.0894968 69.33,22.61 C69.6476345,22.0634717 69.7709906,21.4255442 69.68,20.8 C69.6618311,20.5641332 69.6250499,20.3300712 69.57,20.1 C69.52,19.92 69.48,19.82 69.48,19.82 C69.1775846,19.8672051 68.8820645,19.9511597 68.6,20.07 C68.0603821,20.2819339 67.5969781,20.6512633 67.27,21.13 L67.27,21.13 Z" id="Path" fill="#66AA1C"></path>
            <path d="M64.86,19.92 C64.3498574,18.1949084 63.6803047,16.5210267 62.86,14.92 L63.39,14.64 C64.2459157,16.2829644 64.942432,18.0041634 65.47,19.78 L64.86,19.92 Z" id="Path" fill="#66AA1C"></path>
            <path d="M62.28,17.02 C62.5500917,17.1105333 62.7962252,17.2609482 63,17.46 C63.1805038,17.6438004 63.3382986,17.8485978 63.47,18.07 C63.5710419,18.2447564 63.6547728,18.4289643 63.72,18.62 C63.7476248,18.6952944 63.770995,18.7720822 63.79,18.85 C63.5090508,18.9719544 63.217932,19.0689941 62.92,19.14 C62.3659814,19.2848765 61.7840186,19.2848765 61.23,19.14 C60.7561917,18.9618977 60.3551214,18.6311906 60.09,18.2 C59.9917705,18.051723 59.9080506,17.8943296 59.84,17.73 C59.8067952,17.6661383 59.7799977,17.5991445 59.76,17.53 C60.0259446,17.3811149 60.3035203,17.2540321 60.59,17.15 C61.1257534,16.9304782 61.7169757,16.8849995 62.28,17.02 Z" id="Path" fill="#66AA1C"></path>
            <path d="M65.42,15.61 C65.3199109,15.8992197 65.2724939,16.2040433 65.28,16.51 C65.2812571,16.7895946 65.3148129,17.0681078 65.38,17.34 C65.45,17.58 65.51,17.8 65.57,17.95 C65.596553,18.0326594 65.630004,18.1129418 65.67,18.19 C65.9639271,18.113928 66.2488795,18.0066518 66.52,17.87 C67.0691067,17.6308388 67.5131128,17.2010409 67.77,16.66 C67.9804627,16.0647215 67.9804627,15.4152785 67.77,14.82 C67.7033023,14.5908074 67.6197409,14.366863 67.52,14.15 C67.4833411,14.0633623 67.4398716,13.9797671 67.39,13.9 C67.1018565,14.0047879 66.8267164,14.1423579 66.57,14.31 C66.0625235,14.615269 65.6610811,15.0690735 65.42,15.61 Z" id="Path" fill="#66AA1C"></path>
            <path d="M62.82,14.92 C61.9679083,13.3108252 60.9633001,11.7871693 59.82,10.37 L60.3,9.99 C61.4429157,11.4429866 62.4472978,12.9997789 63.3,14.64 L62.82,14.92 Z" id="Path" fill="#66AA1C"></path>
            <path d="M59.73,12.54 C60.0161009,12.570955 60.2905212,12.6704324 60.53,12.83 C60.7431545,12.9760374 60.937897,13.1472766 61.11,13.34 C61.2385754,13.4922126 61.3524189,13.6562811 61.45,13.83 C61.4943853,13.9008549 61.534458,13.9743215 61.57,14.05 C61.3162576,14.2190288 61.0486311,14.3662234 60.77,14.49 C60.2542515,14.7396371 59.6810837,14.8466744 59.11,14.8 C58.6100096,14.7202907 58.1517704,14.4735466 57.81,14.1 C57.6882058,13.9705765 57.5746495,13.833641 57.47,13.69 L57.35,13.51 C57.5828202,13.3101969 57.8339273,13.1327478 58.1,12.98 C58.583476,12.6654201 59.1538977,12.5114412 59.73,12.54 Z" id="Path" fill="#66AA1C"></path>
            <path d="M62.56,10.56 C62.5048829,10.8574684 62.5048829,11.1625316 62.56,11.46 C62.6194633,11.7315207 62.7065847,11.9962357 62.82,12.25 C62.93,12.48 63.04,12.68 63.12,12.82 L63.26,13.04 C63.5375201,12.9103913 63.7992352,12.7493359 64.04,12.56 C64.5293036,12.2139462 64.8828715,11.7083441 65.04,11.13 C65.1271139,10.5077634 65.0039319,9.87425551 64.69,9.33 C64.5780867,9.11995543 64.4545621,8.91630675 64.32,8.72 L64.14,8.5 C63.8772077,8.65982989 63.632454,8.84758619 63.41,9.06 C62.9764878,9.45857954 62.6791549,9.98328467 62.56,10.56 Z" id="Path" fill="#66AA1C"></path>
            <path d="M59.85,10.32 C58.7184216,8.90159544 57.4562204,7.59252204 56.08,6.41 L56.48,5.95 C57.8856942,7.15990009 59.1746843,8.49911056 60.33,9.95 L59.85,10.32 Z" id="Path" fill="#66AA1C"></path>
            <path d="M56.38,8.61 C56.6671674,8.58880695 56.9552285,8.63681713 57.22,8.75 C57.4567833,8.84923878 57.6788494,8.98045964 57.88,9.14 C58.0427149,9.26216022 58.1904078,9.40313979 58.32,9.56 C58.3750371,9.61918874 58.4252005,9.68272893 58.47,9.75 C58.2532207,9.96550782 58.0190997,10.1628384 57.77,10.34 C57.3078461,10.6700569 56.7657353,10.8703272 56.2,10.92 C55.694197,10.9338549 55.1981553,10.7790617 54.79,10.48 C54.6445001,10.377762 54.5073976,10.2640672 54.38,10.14 L54.23,9.98 C54.4220906,9.74357539 54.6327606,9.52287344 54.86,9.32 C55.2807224,8.93134926 55.8119365,8.68321637 56.38,8.61 L56.38,8.61 Z" id="Path" fill="#66AA1C"></path>
            <path d="M58.78,6.13 C58.7943167,6.43605159 58.8620012,6.73724774 58.98,7.02 C59.0859705,7.27622527 59.223716,7.51811991 59.39,7.74 C59.5136383,7.91738556 59.6471837,8.08765599 59.79,8.25 C59.8454139,8.31752571 59.905566,8.38101962 59.97,8.44 C60.2125617,8.25513396 60.4369136,8.04752477 60.64,7.82 C61.0559018,7.38972811 61.3072315,6.8268912 61.35,6.23 C61.3216932,5.59983252 61.0821762,4.99751767 60.67,4.52 C60.5217411,4.33618592 60.361385,4.1624669 60.19,4 C60.1320036,3.93154555 60.0684545,3.86799635 60,3.81 C59.7699939,4.01496659 59.5652184,4.24659794 59.39,4.5 C59.0240087,4.96774611 58.8110145,5.53689449 58.78,6.13 Z" id="Path" fill="#66AA1C"></path>
            <path d="M56.08,6.41 C54.7022708,5.23157699 53.2155756,4.18687227 51.64,3.29 L51.94,2.77 C53.5475352,3.67727009 55.0673877,4.7317933 56.48,5.92 L56.08,6.41 Z" id="Path" fill="#66AA1C"></path>
            <path d="M52.35,5.39 C52.6290277,5.32014482 52.9209723,5.32014482 53.2,5.39 C53.4544219,5.44164583 53.7002127,5.52918778 53.93,5.65 C54.1071392,5.73934354 54.2746774,5.84656798 54.43,5.97 L54.62,6.13 C54.4344265,6.37811347 54.2269248,6.60904278 54,6.82 C53.6175239,7.24599427 53.1268223,7.56045796 52.58,7.73 C52.0838814,7.84085313 51.5647143,7.77728165 51.11,7.55 C50.945723,7.48183792 50.7883401,7.39812361 50.64,7.3 L50.47,7.18 C50.6199431,6.90592916 50.7975345,6.64791901 51,6.41 C51.330622,5.93560947 51.8033337,5.57844949 52.35,5.39 Z" id="Path" fill="#66AA1C"></path>
            <path d="M54.24,2.5 C54.3038662,2.79777205 54.4262331,3.07989572 54.6,3.33 C54.7507159,3.56641435 54.9323201,3.78164899 55.14,3.97 C55.2938671,4.1206803 55.4575598,4.2609883 55.63,4.39 C55.6956212,4.44586273 55.7658743,4.49604355 55.84,4.54 C56.0467619,4.31523599 56.2309773,4.07073192 56.39,3.81 C56.7126313,3.30546406 56.8504506,2.70471356 56.78,2.11 C56.6277052,1.49676553 56.2759393,0.951528329 55.78,0.56 C55.56,0.38 55.36,0.24 55.21,0.14 C55.1432869,0.0885818111 55.0731218,0.0418051315 55,8.8817842e-16 C54.815516,0.24391697 54.6610712,0.509159096 54.54,0.79 C54.2639575,1.31471151 54.1590544,1.91265899 54.24,2.5 L54.24,2.5 Z" id="Path" fill="#66AA1C"></path>
            <path d="M48.47,2.77 C48.9825446,2.96178205 49.5426649,2.98628731 50.07,2.84 C50.3617118,2.7788883 50.6464945,2.68842792 50.92,2.57 C50.8564747,2.27642048 50.7591596,1.99118662 50.63,1.72 C50.4007549,1.17765291 49.9860228,0.734563138 49.46,0.47 C48.9118163,0.265318032 48.3081837,0.265318032 47.76,0.47 C47.4939047,0.552329035 47.2387243,0.666488662 47,0.81 C47.0961878,1.09159355 47.2201306,1.36292768 47.37,1.62 C47.6162896,2.10267507 47.9987422,2.50251188 48.47,2.77 L48.47,2.77 Z" id="Path" fill="#66AA1C"></path>
            <path d="M47,0.81 C48.6815308,1.39099677 50.3052253,2.12751799 51.85,3.01" id="Path" fill="#66AA1C"></path>
            <path d="M19.8,17.08 L24.36,17.08 C25.2949787,17.0187512 26.2159491,17.3317373 26.92,17.95 C27.3721684,18.3933088 27.6155802,19.0072879 27.59,19.64 C27.6133573,20.5386038 27.1088189,21.3677676 26.3,21.76 C27.4149854,22.0265825 28.1857559,23.0445023 28.14,24.19 C28.14,25.99 26.68,26.88 24.47,26.88 L19.8,26.88 L19.8,17.08 Z M23.89,21.08 C24.89,21.08 25.45,20.77 25.45,20.02 C25.45,19.27 24.94,19.02 24.03,19.02 L21.9,19.02 L21.9,21.09 L23.89,21.08 Z M24.47,25.03 C25.47,25.03 26,24.7 26,23.94 C26,23.18 25.5,22.87 24.4,22.87 L21.9,22.87 L21.9,25.03 L24.47,25.03 Z" id="Shape" fill="#CC0000"></path>
            <polygon id="Path" fill="#CC0000" points="29.91 17.08 37.31 17.08 37.31 19 32.05 19 32.05 21 36.68 21 36.68 22.92 32.05 22.92 32.05 24.92 37.38 24.92 37.38 26.92 29.91 26.92"></polygon>
            <path d="M38.62,25.45 L39.89,23.92 C40.6910224,24.6573105 41.7317157,25.0799812 42.82,25.11 C43.7,25.11 44.24,24.76 44.24,24.16 C44.24,23.56 43.9,23.33 42.24,22.91 C40.29,22.41 39,21.92 39,19.92 C39,18.11 40.44,16.92 42.44,16.92 C43.7603373,16.8992216 45.0469295,17.3375112 46.08,18.16 L45,19.81 C44.2743393,19.2267897 43.3884879,18.8780293 42.46,18.81 C41.63,18.81 41.19,19.19 41.19,19.69 C41.19,20.19 41.61,20.55 43.31,20.98 C45.31,21.5 46.42,22.22 46.42,23.98 C46.42,25.98 44.93,26.98 42.82,26.98 C41.2790991,27.0061455 39.7830295,26.4611487 38.62,25.45 L38.62,25.45 Z" id="Path" fill="#CC0000"></path>
            <polygon id="Path" fill="#CC0000" points="50.53 19.07 47.53 19.07 47.53 17.07 55.66 17.07 55.66 19.07 52.66 19.07 52.66 26.92 50.53 26.92"></polygon>
            <path d="M21,31.15 L22.13,31.15 L24.53,36.78 L23.28,36.78 L22.77,35.53 L20.41,35.53 L19.89,36.78 L18.64,36.78 L21,31.15 Z M22.29,34.44 L21.55,32.62 L20.81,34.44 L22.29,34.44 Z" id="Shape" fill="#CC0000"></path>
            <polygon id="Path" fill="#CC0000" points="25.44 31.19 26.57 31.19 29.2 34.63 29.2 31.19 30.41 31.19 30.41 36.78 29.36 36.78 26.65 33.22 26.65 36.78 25.44 36.78"></polygon>
            <path d="M31.37,35.97 L32.1,35.1 C32.5591788,35.5149815 33.1513318,35.7525519 33.77,35.77 C34.28,35.77 34.58,35.57 34.58,35.23 C34.58,34.89 34.39,34.76 33.45,34.52 C32.33,34.23 31.6,33.92 31.6,32.79 C31.614805,32.2913916 31.8416877,31.8227982 32.2236429,31.5019558 C32.6055981,31.1811135 33.1063199,31.0385191 33.6,31.11 C34.355012,31.0962503 35.0909779,31.3474694 35.68,31.82 L35.04,32.74 C34.6186473,32.4159326 34.1104418,32.2244853 33.58,32.19 C33.11,32.19 32.86,32.41 32.86,32.7 C32.86,32.99 33.1,33.18 34.07,33.43 C35.2,33.73 35.84,34.14 35.84,35.13 C35.84,36.12 35,36.86 33.84,36.86 C32.9336676,36.8868345 32.0509164,36.5687582 31.37,35.97 L31.37,35.97 Z" id="Path" fill="#CC0000"></path>
            <polygon id="Path" fill="#CC0000" points="36.45 31.19 37.77 31.19 38.93 34.98 40.18 31.17 41.24 31.17 42.49 34.98 43.65 31.19 44.94 31.19 43 36.82 42 36.82 40.73 33.16 39.43 36.82 38.36 36.82"></polygon>
            <polygon id="Path" fill="#CC0000" points="45.85 31.19 50.08 31.19 50.08 32.28 47.08 32.28 47.08 33.42 49.72 33.42 49.72 34.51 47.08 34.51 47.08 35.69 50.08 35.69 50.08 36.78 45.85 36.78"></polygon>
            <path d="M51.21,31.19 L53.77,31.19 C54.3661246,31.1529207 54.9525309,31.3543855 55.4,31.75 C55.7320664,32.0988233 55.9056992,32.5690786 55.88,33.05 C55.9208969,33.832724 55.4274517,34.5441074 54.68,34.78 L56.05,36.78 L54.61,36.78 L53.4,34.99 L52.45,34.99 L52.45,36.78 L51.21,36.78 L51.21,31.19 Z M53.69,33.92 C54.29,33.92 54.69,33.6 54.69,33.12 C54.69,32.64 54.32,32.32 53.69,32.32 L52.45,32.32 L52.45,33.92 L53.69,33.92 Z" id="Shape" fill="#CC0000"></path>
            <path d="M1,53.61 C3.66666667,54.6233333 6.33333333,55.52 9,56.3 C10.24,51.9866667 11.4766667,47.6766667 12.71,43.37 C9.92333333,42.57 7.17,41.63 4.45,40.55 L4.38,47.76 L0,53.16 L1,53.61 Z" id="Path" fill="#AA0000"></path>
            <path d="M9,56.3 C7.82,54.7133333 6.68666667,53.09 5.6,51.43 L6.72,50.03 C7.96666667,50.45 9.22666667,50.84 10.5,51.2 C10,52.92 9.53,54.6 9,56.3 Z" id="Path" fill="#5B0000"></path>
            <path d="M74,53.61 C71.3333333,54.6233333 68.6666667,55.52 66,56.3 C64.76,51.9866667 63.5233333,47.6766667 62.29,43.37 C65.0833333,42.57 67.8366667,41.63 70.55,40.55 L70.62,47.76 L75,53.16 L74,53.61 Z" id="Path" fill="#AA0000"></path>
            <path d="M66,56.3 C67.1866667,54.7133333 68.32,53.09 69.4,51.43 L68.28,50.03 C67.0333333,50.45 65.7733333,50.84 64.5,51.2 C65,52.92 65.47,54.6 66,56.3 Z" id="Path" fill="#5B0000"></path>
            <path d="M69.4,51.43 C48.7109468,58.4396825 26.2890532,58.4396825 5.6,51.43 L9.92,38.69 C27.807918,44.7465088 47.192082,44.7465088 65.08,38.69 L69.4,51.43 Z" id="Path" fill="#CC0000"></path>
            <path d="M12.75,46.51 C13.17,46.25 13.91,45.67 14.55,45.19 C15.19,44.71 15.55,44.81 16,45.46 C16.4167608,46.0517968 16.8006734,46.6660569 17.15,47.3 C17.51,47.95 18.15,48.97 18.49,49.7 L17.49,50.37 C17.16,49.66 16.69,48.69 16.37,48.08 C16.0730308,47.4701819 15.7390751,46.8790803 15.37,46.31 C15.16,46.03 15.03,46 14.76,46.21 C14.49,46.42 13.69,47.12 13.29,47.45 L12.66,48.02 L12,46.92 C12.2571276,46.796796 12.5074848,46.6599341 12.75,46.51 L12.75,46.51 Z M18.07,46.42 L17.35,46.56 C17.2748933,46.0969749 17.1577421,45.6417587 17,45.2 L17.7,45.09 C17.8487533,45.5258659 17.972291,45.9699338 18.07,46.42 Z M19.18,46.23 L18.47,46.39 C18.3543497,45.9299877 18.1970329,45.4814676 18,45.05 L18.7,44.92 C18.8870926,45.3462575 19.0474041,45.7837743 19.18,46.23 Z" id="Shape" fill="#FFFFFF"></path>
            <path d="M25.85,46.64 C25.7292499,46.7712093 25.6189155,46.911635 25.52,47.06 C25.0794159,47.7311875 24.5699902,48.3545637 24,48.92 C24.641201,49.6937441 25.226037,50.5125145 25.75,51.37 L24.75,51.98 C24.2990631,51.1425814 23.7806834,50.3432734 23.2,49.59 C22.2656443,50.3224017 21.2094789,50.8843359 20.08,51.25 L19.43,50.33 C20.666545,50.0308078 21.8210794,49.4603722 22.81,48.66 C23.3744409,48.1998517 23.8461644,47.6364985 24.2,47 L21.68,46.62 C21.37,46.57 20.95,46.55 20.79,46.53 L20.96,45.53 C21.2458961,45.6083611 21.5364812,45.6684822 21.83,45.71 L24.45,46.12 C24.7118983,46.1588786 24.9781017,46.1588786 25.24,46.12 L25.85,46.64 Z" id="Path" fill="#FFFFFF"></path>
            <path d="M32.07,50.59 C31.2292851,50.0822406 30.3537759,49.6344611 29.45,49.25 L29.28,51.37 C29.28,51.59 29.28,52.12 29.28,52.37 L28.11,52.28 C28.1865775,51.9508037 28.2400412,51.6166553 28.27,51.28 L28.62,46.97 C28.6450002,46.6671818 28.6450002,46.3628182 28.62,46.06 L29.79,46.15 C29.7248974,46.4468407 29.6781422,46.7474099 29.65,47.05 L29.56,48.16 C30.5928926,48.5604672 31.5955025,49.0350359 32.56,49.58 L32.07,50.59 Z" id="Path" fill="#FFFFFF"></path>
            <path d="M40.53,47.37 C40.4214114,47.4931617 40.3211874,47.6234528 40.23,47.76 C39.7493553,48.5515063 39.1293524,49.2494331 38.4,49.82 L37.63,49.19 C38.1946042,48.8327923 38.6727923,48.3546042 39.03,47.79 L35.1,47.79 C34.78,47.79 34.53,47.79 34.18,47.79 L34.18,46.79 C34.4838938,46.8423169 34.7916371,46.8690772 35.1,46.87 L39.17,46.87 C39.4248541,46.8824011 39.680249,46.8622383 39.93,46.81 L40.53,47.37 Z M37.45,48.37 C37.45,50.24 37.39,51.78 35.32,52.87 L34.45,52.14 C34.7380702,52.0498906 35.0086288,51.9112293 35.25,51.73 C36.1122863,51.1238455 36.557612,50.0821705 36.4,49.04 C36.4193016,48.8137442 36.4193016,48.5862558 36.4,48.36 L37.45,48.37 Z" id="Shape" fill="#FFFFFF"></path>
            <path d="M44.29,48.09 L43.58,48.93 C42.9550198,48.3796999 42.2861286,47.881376 41.58,47.44 L42.24,46.64 C42.9592566,47.0704309 43.6445835,47.5551744 44.29,48.09 Z M44.46,50.53 C45.5874572,49.7541331 46.468926,48.671384 47,47.41 L47.66,48.41 C47.0619629,49.6114112 46.1712974,50.6430701 45.07,51.41 C44.2485186,51.9914317 43.326221,52.4152817 42.35,52.66 L41.65,51.66 C42.65307,51.4759389 43.6087605,51.091622 44.46,50.53 L44.46,50.53 Z" id="Shape" fill="#FFFFFF"></path>
            <path d="M54.52,46.48 C54.7955099,46.4482423 55.0669701,46.3879178 55.33,46.3 L55.49,47.3 C55.32,47.3 55.06,47.35 54.66,47.41 L54.11,47.49 L54.11,47.74 C54.39,49.58 54.11,50.74 52.45,51.84 L51.54,51.21 C52.9,50.49 53.43,49.75 53.15,47.92 L53.15,47.64 L51.38,47.92 L51.54,48.92 C51.59,49.24 51.66,49.54 51.69,49.69 L50.69,49.85 C50.683716,49.5854333 50.6603339,49.3215496 50.62,49.06 L50.46,48.06 L49.83,48.16 L49.03,48.31 L48.87,47.31 C49.144517,47.3125453 49.4187773,47.2924774 49.69,47.25 L50.32,47.16 L50.21,46.42 C50.21,46.14 50.1,45.89 50.06,45.75 L51.12,45.59 C51.1211051,45.8212534 51.1411723,46.0520268 51.18,46.28 L51.29,47.01 L53,46.72 L52.88,45.92 C52.851142,45.6891814 52.8009267,45.4615387 52.73,45.24 L53.79,45.08 C53.79,45.23 53.79,45.48 53.85,45.77 L53.97,46.56 L54.52,46.48 Z" id="Path" fill="#FFFFFF"></path>
            <path d="M56.71,47.12 C56.98,47.12 57.52,46.97 57.9,46.88 L61.84,45.92 C62.18,45.84 62.5,45.73 62.69,45.67 L63,46.86 L62.13,47.03 L58.15,47.92 C57.73,48.02 57.25,48.15 56.98,48.24 L56.71,47.12 Z" id="Path" fill="#FFFFFF"></path>
        </g>
    </g>
</svg>