<?xml version="1.0" encoding="UTF-8"?>
<svg width="23px" height="19px" viewBox="0 0 23 19" version="1.1" xmlns="http://www.w3.org/2000/svg" xmlns:xlink="http://www.w3.org/1999/xlink">
    <title>qna-3_upload_01</title>
    <g id="qna-3_upload_01" stroke="none" stroke-width="1" fill="none" fill-rule="evenodd">
        <g id="media-upload" transform="translate(1.000000, 1.000000)" fill-rule="nonzero">
            <path d="M17.74,2.11 L18.16,2.11 C18.7122847,2.11 19.16,2.55771525 19.16,3.11 L19.16,13.78 C19.16,14.3322847 18.7122847,14.78 18.16,14.78 L1,14.78 C0.44771525,14.78 0,14.3322847 0,13.78 L0,3.1 C0,2.54771525 0.44771525,2.1 1,2.1 L5.44,2.1 L5.77,0.39 C5.8198462,0.168304712 6.01291445,0.00809914667 6.24,0 L12.92,0 C13.1470856,0.00809914667 13.3401538,0.168304712 13.39,0.39 L13.72,2.1 L17.72,2.1 L17.74,2.11 Z" id="Path" stroke="#FFFFFF" stroke-width="1.3" stroke-linecap="round" stroke-linejoin="round"></path>
            <path d="M9.55,7.39 C7.9064912,7.41762788 6.5912612,8.76266964 6.60042281,10.4063848 C6.60968056,12.0501 7.93989995,13.3803194 9.58361516,13.3895756 C11.2273304,13.3987388 12.5723721,12.0835088 12.6,10.44 C12.6136672,9.6269769 12.2967195,8.84323124 11.7217441,8.26825587 C11.1467688,7.6932805 10.3630231,7.37633283 9.55,7.39 Z M11.81,10.44 C11.81,11.6881635 10.7981635,12.7 9.55,12.7 C8.30183647,12.7 7.29,11.6881635 7.29,10.44 C7.29,9.19183647 8.30183647,8.18 9.55,8.18 C10.1545702,8.17197402 10.7371472,8.40653261 11.1674902,8.83123785 C11.5978331,9.25594309 11.8400533,9.83537651 11.84,10.44 L11.81,10.44 Z" id="Shape" stroke="#FFFFFF" stroke-width="0.5" fill="#FFFFFF"></path>
            <path d="M4.12,4.86 L2.55,4.86 C2.3003877,4.89114054 2.05521574,4.77546191 1.92053967,4.56300394 C1.7858636,4.35054597 1.7858636,4.07945403 1.92053967,3.86699606 C2.05521574,3.65453809 2.3003877,3.53885946 2.55,3.57 L4.12,3.57 C4.3696123,3.53885946 4.61478426,3.65453809 4.74946033,3.86699606 C4.8841364,4.07945403 4.8841364,4.35054597 4.74946033,4.56300394 C4.61478426,4.77546191 4.3696123,4.89114054 4.12,4.86 L4.12,4.86 Z" id="Path" fill="#FFFFFF"></path>
            <line x1="0.01" y1="6.02" x2="19.15" y2="6.02" id="Path" stroke="#FFFFFF" stroke-width="1.3" fill="#FFFFFF" stroke-linecap="round" stroke-linejoin="round"></line>
            <circle id="Oval" fill="#FFFFFF" cx="18.01" cy="13.64" r="3.5"></circle>
            <rect id="Rectangle" fill="#000000" x="15.92" y="13.22" width="4.17" height="1"></rect>
            <rect id="Rectangle" fill="#000000" transform="translate(18.010000, 13.645000) rotate(-90.000000) translate(-18.010000, -13.645000) " x="15.925" y="13.225" width="4.17" height="1"></rect>
        </g>
    </g>
</svg>