<svg xmlns="http://www.w3.org/2000/svg" width="26.189" height="23.221" viewBox="0 0 26.189 23.221">
  <g id="Q" opacity="0.996">
    <path id="パス_55" data-name="パス 55" d="M12.9-2.093l-1.455,1.7,2.3,1.847a7.375,7.375,0,0,1-2.881.586,6.7,6.7,0,0,1-3.26-.748A6.562,6.562,0,0,1,5.365-.685,8.509,8.509,0,0,1,4.084-3.456a12.153,12.153,0,0,1-.407-3.123A12.153,12.153,0,0,1,4.084-9.7a8.509,8.509,0,0,1,1.281-2.771,6.562,6.562,0,0,1,2.241-1.979,6.7,6.7,0,0,1,3.26-.748,6.7,6.7,0,0,1,3.26.748,6.562,6.562,0,0,1,2.241,1.979A8.509,8.509,0,0,1,17.646-9.7a12.153,12.153,0,0,1,.407,3.123,11.819,11.819,0,0,1-.582,3.709,7.52,7.52,0,0,1-1.8,3.005Zm6.112,7.77,1.4-1.759-2.736-2.17A10.17,10.17,0,0,0,20.033-2a13.327,13.327,0,0,0,.786-4.574,13.583,13.583,0,0,0-.626-4.119,10.4,10.4,0,0,0-1.877-3.5A9.172,9.172,0,0,0,15.2-16.635a9.777,9.777,0,0,0-4.336-.909,9.777,9.777,0,0,0-4.336.909A9.172,9.172,0,0,0,3.415-14.2a10.4,10.4,0,0,0-1.877,3.5A13.583,13.583,0,0,0,.912-6.578a13.583,13.583,0,0,0,.626,4.119,10.4,10.4,0,0,0,1.877,3.5A9.015,9.015,0,0,0,6.529,3.464a9.913,9.913,0,0,0,4.336.894,9.649,9.649,0,0,0,4.977-1.231Z" transform="translate(-0.912 17.544)" fill="#db2a00"/>
    <circle id="楕円形_19" data-name="楕円形 19" cx="1.641" cy="1.641" r="1.641" transform="translate(22.906 17.993)" fill="#cc0000"/>
  </g>
</svg>
