<svg xmlns="http://www.w3.org/2000/svg" xmlns:xlink="http://www.w3.org/1999/xlink" width="70" height="70" viewBox="0 0 70 70">
  <defs>
    <clipPath id="clip-path">
      <rect id="長方形_199" data-name="長方形 199" width="8.225" height="37.045" transform="translate(0 -0.001)" fill="none"/>
    </clipPath>
  </defs>
  <g id="質問を書く" transform="translate(-285 -139)">
    <g id="楕円形_56" data-name="楕円形 56" transform="translate(285 139)" fill="#cc0000" stroke="#fff" stroke-width="1">
      <circle cx="35" cy="35" r="35" stroke="none"/>
      <circle cx="35" cy="35" r="34.5" fill="none"/>
    </g>
    <g id="グループ_62" data-name="グループ 62" transform="translate(324.595 144.607) rotate(17)">
      <g id="グループ_61" data-name="グループ 61" clip-path="url(#clip-path)">
        <path id="パス_314" data-name="パス 314" d="M7.459,28.131H.76a.76.76,0,0,1-.76-.76V.76A.76.76,0,0,1,.76,0h6.7a.76.76,0,0,1,.76.76V27.371a.76.76,0,0,1-.76.76" fill="#fff"/>
        <path id="パス_315" data-name="パス 315" d="M3.968,36.9.224,30.123a.274.274,0,0,1,.24-.406H7.951a.274.274,0,0,1,.239.406L4.447,36.9a.274.274,0,0,1-.479,0" fill="#fff"/>
      </g>
    </g>
    <path id="パス_316" data-name="パス 316" d="M313.341,165.872H301.157v32.541h28.3v-27.1" transform="translate(5 -12)" fill="none" stroke="#fff" stroke-width="1"/>
    <text id="質問する" transform="translate(321 200)" fill="#fff" font-size="9" font-family="HiraKakuProN-W3, Hiragino Kaku Gothic ProN"><tspan x="-18" y="0">質問する</tspan></text>
  </g>
</svg>
