<?xml version="1.0" encoding="utf-8"?>
<!-- Generator: Adobe Illustrator 19.1.0, SVG Export Plug-In . SVG Version: 6.00 Build 0)  -->
<!DOCTYPE svg PUBLIC "-//W3C//DTD SVG 1.1//EN" "http://www.w3.org/Graphics/SVG/1.1/DTD/svg11.dtd">
<svg version="1.1" id="レイヤー_1" xmlns="http://www.w3.org/2000/svg" xmlns:xlink="http://www.w3.org/1999/xlink" x="0px"
	 y="0px" viewBox="0 0 204.1 204.1" style="enable-background:new 0 0 204.1 204.1;" xml:space="preserve">
<style type="text/css">
	.st0{fill:#FFF7CC;}
	.st1{fill:none;stroke:#FFF7CC;stroke-width:17;stroke-miterlimit:10;}
</style>
<g>
	<path class="st0" d="M63.5,107c-3.5-0.9-5.6-4.5-4.8-8c0.3-1.4,1.1-2.6,2.1-3.5c-5.6-2.8-9.3-6.7-11.6-10.1
		c-6.5-9.4-6.8-20.3-5.4-25.3c1.6-6,5.2-10.6,10.3-13.3c10.7-5.6,24.6-1,26.1-0.5c3.5,1.2,5.3,5.1,4.1,8.6c-1.2,3.5-5,5.3-8.5,4.1
		c-2.5-0.9-10.7-2.8-15.4-0.3c-1.1,0.6-2.7,1.8-3.6,4.9c-0.4,1.4-0.5,8.4,3.5,14.2c3.2,4.7,8.3,7.4,15.2,8.1
		c1.8,0.2,3.5,1.1,4.6,2.5c1.1,1.4,1.6,3.2,1.4,5c-0.2,1.3-1.3,8.1-6.7,11.8c-2.2,1.5-5.8,3-10.9,1.8
		C63.7,107.1,63.6,107.1,63.5,107z"/>
	<path class="st0" d="M134.3,126.3c-0.1,0-0.1,0-0.2-0.1c-5-1.5-7.4-4.7-8.5-7.1c-2.8-6-0.4-12.4,0.2-13.6c0.7-1.7,2.1-3,3.7-3.6
		c1.7-0.7,3.6-0.6,5.2,0.2c6.3,2.9,12,3.1,17.2,0.7c6.4-3,9.8-9,10.2-10.5c0.9-3.2,0.1-5-0.6-6.1c-2.9-4.7-11.3-7.1-13.4-7.5
		c-3.6-0.7-6-4.2-5.3-7.9c0.7-3.6,4.2-6,7.9-5.3c1.6,0.3,15.9,3.3,22.3,13.6c3.1,4.9,3.8,10.7,2.2,16.7c-1.4,5-7.2,14.3-17.5,19.1
		c-3.7,1.7-8.9,3.2-15.2,2.8c0.4,1.3,0.5,2.7,0,4C141.4,125.2,137.8,127.2,134.3,126.3z"/>
	<rect x="86.4" y="114.3" transform="matrix(0.965 0.2623 -0.2623 0.965 35.3689 -21.3148)" class="st0" width="22.3" height="15"/>
	<path class="st0" d="M51.8,146.1c4.8-17.8,24.9-27.3,45-21.9c20.1,5.5,32.6,23.9,27.8,41.7L51.8,146.1z"/>
	<path class="st0" d="M45.7,148.9l5.8-14.3c1.3-2.7,4.8-4.3,7.8-3.5l66.5,18.1c2.9,0.8,5.1,3.9,4.9,7l-2.2,15.3L45.7,148.9z"/>
	<path class="st0" d="M127.2,54.4L106,48.6l-29.9-8.1c0,0-15.8,59.3,9.7,73.8l25.7,7c29.3,0.4,45.7-58.7,45.7-58.7L127.2,54.4z
		 M124.4,82.5l-9.1,5.3l-1.3,10.4c0,0.3-0.2,0.6-0.5,0.7c-0.3,0.1-0.6,0.1-0.9-0.2l-7.9-7l-10.3,2c-0.1,0-0.3,0-0.4,0
		c-0.2,0-0.3-0.1-0.4-0.3c-0.2-0.2-0.2-0.6-0.1-0.9l4.2-9.7l-5.1-9.2c-0.2-0.3-0.1-0.6,0-0.9c0.2-0.3,0.5-0.4,0.8-0.4l10.5,1
		l7.2-7.7c0.2-0.2,0.5-0.3,0.8-0.2c0.3,0.1,0.5,0.3,0.6,0.6l2.3,10.3l9.5,4.4c0.3,0.1,0.5,0.4,0.5,0.7
		C124.9,82.1,124.7,82.4,124.4,82.5z"/>
</g>
<circle class="st1" cx="102" cy="102" r="93.5"/>
</svg>
