<?xml version="1.0" encoding="UTF-8"?>
<svg width="19px" height="19px" viewBox="0 0 19 19" version="1.1" xmlns="http://www.w3.org/2000/svg" xmlns:xlink="http://www.w3.org/1999/xlink">
    <!-- Generator: Sketch 47.1 (45422) - http://www.bohemiancoding.com/sketch -->
    <title>ico_star</title>
    <desc>Created with Sketch.</desc>
    <defs></defs>
    <g id="Page-1" stroke="none" stroke-width="1" fill="none" fill-rule="evenodd">
        <g id="ico_star" fill="#E3BA1B">
            <path d="M18.9997139,7.7036977 C19.017067,6.67969877 18.2428749,5.82108802 17.2379124,5.74978759 L13.1437259,5.24095683 L11.2517913,1.2720769 C10.9866537,0.517603724 10.2880132,0.0102804577 9.5,0 C8.70706461,0.00458467445 8.00398563,0.519215326 7.74820871,1.28225351 L5.86628434,5.24095683 L1.7620876,5.74978759 C0.757125056,5.82108802 -0.0170670249,6.67969877 0.000286067591,7.7036977 C-0.00347885449,8.28346615 0.245824949,8.83508709 0.680982113,9.20983675 C0.96126872,9.53548844 2.22255845,11.0619807 3.42378677,12.5477665 C3.23359228,14.3388508 3.03338757,16.1808182 2.99334662,16.5471763 C2.94556856,16.7123749 2.92195852,16.883821 2.92327497,17.0560071 C2.91377402,18.1136938 3.74489839,18.9813456 4.78517886,18.9997406 C5.13881408,19.0059898 5.48545362,18.8992016 5.77619222,18.6944421 L9.5,16.3945271 C10.6311567,17.0967135 12.9635416,18.5316163 13.1337157,18.643559 C13.7073959,19.0636604 14.4658981,19.1163305 15.0904394,18.7794333 C15.7149806,18.4425361 16.0973033,17.774469 16.076725,17.0560071 C16.077337,16.8872098 16.0537313,16.7192241 16.0066534,16.5573529 C15.9566022,16.1706415 15.736377,14.094612 15.5762132,12.5477665 C16.7774415,11.0619807 18.0387313,9.52531182 18.3190179,9.20983675 C18.7541751,8.83508709 19.0034789,8.28346615 18.9997139,7.7036977 Z" id="シェイプ_7"></path>
        </g>
    </g>
</svg>