<svg id="ico_favorite.svg" xmlns="http://www.w3.org/2000/svg" width="19.85" height="19.69" viewBox="0 0 19.85 19.69">
  <defs>
    <style>
      .cls-1 {
        fill: #4a75bc;
        fill-rule: evenodd;
      }
    </style>
  </defs>
  <path id="シェイプ_5_のコピー" data-name="シェイプ 5 のコピー" class="cls-1" d="M1152.25,1512.37a4.453,4.453,0,0,1-4.29-2.81,0.922,0.922,0,0,1,1.74-.61,2.58,2.58,0,0,0,2.56,1.59,2.656,2.656,0,0,0,2.55-1.61,0.923,0.923,0,0,1,1.75.59,4.467,4.467,0,0,1-4.29,2.85h-0.02Zm0.02,4.54a9.941,9.941,0,0,1-5.62-1.73,0.92,0.92,0,1,1,1.05-1.51,8.007,8.007,0,1,0-2.51-2.75,0.912,0.912,0,0,1-.37,1.24,0.926,0.926,0,0,1-1.25-.36,9.781,9.781,0,0,1-1.22-4.74A9.925,9.925,0,1,1,1152.27,1516.91Zm-1.66-11.51a1.2,1.2,0,1,1-1.2-1.18A1.195,1.195,0,0,1,1150.61,1505.4Zm5.68,0a1.2,1.2,0,1,1-1.2-1.18A1.189,1.189,0,0,1,1156.29,1505.4Z" transform="translate(-1142.34 -1497.22)"/>
</svg>
