<svg id="ico_point-d.svg" xmlns="http://www.w3.org/2000/svg" width="17.25" height="18.81" viewBox="0 0 17.25 18.81">
  <defs>
    <style>
      .cls-1 {
        fill: #aaa;
        fill-rule: evenodd;
      }
    </style>
  </defs>
  <path id="シェイプ_6" data-name="シェイプ 6" class="cls-1" d="M1129.01,1570.59a1.059,1.059,0,0,1-.42-0.09,0.915,0.915,0,0,1-.41-1.22c2.47-4.88,1.69-8.08,1.24-9.02a3.345,3.345,0,0,0-.46,1.1,0.917,0.917,0,0,1-1.79-.16,6.363,6.363,0,0,1-.03-0.79,3.555,3.555,0,0,0-.18-1.39,0.193,0.193,0,0,0-.18.05,2.722,2.722,0,0,0-.4,1.5v0.15a0.918,0.918,0,0,1-.92.89h0a0.918,0.918,0,0,1-.92-0.89v-0.17a4.177,4.177,0,0,0-.48-2.21,3.083,3.083,0,0,0-.43,1.71,0.92,0.92,0,0,1-.92.9h-0.01a0.913,0.913,0,0,1-.91-0.91v-5.92a0.619,0.619,0,0,0-.49-0.53,0.644,0.644,0,0,0-.52.54v8.8a0.912,0.912,0,0,1-.46.79,0.923,0.923,0,0,1-.91,0c-1.89-1.04-2.92-1.04-3.09-.91a2.42,2.42,0,0,0,.86.93c0.08,0.06.18,0.13,0.3,0.22a21.036,21.036,0,0,1,2.83,2.4,11.564,11.564,0,0,1,1.74,2.31h2.59a0.91,0.91,0,1,1,0,1.82h-3.14a0.936,0.936,0,0,1-.83-0.52,10.245,10.245,0,0,0-1.68-2.35,19.523,19.523,0,0,0-2.6-2.2c-0.14-.1-0.25-0.18-0.34-0.25-1.73-1.33-1.72-2.43-1.4-3.11a1.834,1.834,0,0,1,1.14-1,4.987,4.987,0,0,1,3.15.42v-7.46a0.915,0.915,0,0,1,.01-0.17,2.472,2.472,0,0,1,2.35-2.07,2.436,2.436,0,0,1,2.32,2.08,0.86,0.86,0,0,1,.01.16v2.59a1.843,1.843,0,0,1,1.75.47,2,2,0,0,1,.36.49,1.969,1.969,0,0,1,1.16-.36,1.81,1.81,0,0,1,1.84,1.31,2.2,2.2,0,0,1,.93-0.2,1.469,1.469,0,0,1,1.22.82c0.86,1.37,1.74,5.42-1.06,10.95A0.918,0.918,0,0,1,1129.01,1570.59Z" transform="translate(-1114.5 -1551.78)"/>
</svg>
