<svg id="ico_star.svg" xmlns="http://www.w3.org/2000/svg" width="19" height="18.66" viewBox="0 0 19 18.66">
  <defs>
    <style>
      .cls-1 {
        fill: #e3ba1b;
        fill-rule: evenodd;
      }
    </style>
  </defs>
  <path id="シェイプ_7" data-name="シェイプ 7" class="cls-1" d="M1161.9,1532.91a1.892,1.892,0,0,0-1.76-1.92l-4.09-.5-1.89-3.9a1.884,1.884,0,0,0-1.75-1.25,1.86,1.86,0,0,0-1.75,1.26l-1.88,3.89-4.1.5a1.892,1.892,0,0,0-1.76,1.92,1.923,1.923,0,0,0,.68,1.48c0.28,0.32,1.54,1.82,2.74,3.28-0.19,1.76-.39,3.57-0.43,3.93a1.725,1.725,0,0,0-.07.5,1.893,1.893,0,0,0,1.86,1.91,1.687,1.687,0,0,0,.99-0.3l3.72-2.26c1.13,0.69,3.46,2.1,3.63,2.21a1.856,1.856,0,0,0,2.94-1.56,1.706,1.706,0,0,0-.07-0.49c-0.05-.38-0.27-2.42-0.43-3.94,1.2-1.46,2.46-2.97,2.74-3.28A1.923,1.923,0,0,0,1161.9,1532.91Z" transform="translate(-1142.91 -1525.34)"/>
</svg>
