<svg id="ico_star-d.svg" xmlns="http://www.w3.org/2000/svg" width="19" height="18.69" viewBox="0 0 19 18.69">
  <defs>
    <style>
      .cls-1 {
        fill: #afafaf;
        fill-rule: evenodd;
      }
    </style>
  </defs>
  <path id="シェイプ_7_のコピー" data-name="シェイプ 7 のコピー" class="cls-1" d="M1191,1532.58a1.9,1.9,0,0,0-1.76-1.92l-4.1-.51-1.89-3.89a1.843,1.843,0,0,0-3.49,0l-1.89,3.9-4.09.5a1.921,1.921,0,0,0-1.08,3.39c0.28,0.32,1.53,1.83,2.73,3.29-0.18,1.76-.38,3.57-0.43,3.92a2.286,2.286,0,0,0-.06.51,1.878,1.878,0,0,0,1.86,1.9,1.783,1.783,0,0,0,.99-0.29l3.71-2.26c1.14,0.68,3.47,2.1,3.64,2.2a1.781,1.781,0,0,0,1.07.35,1.878,1.878,0,0,0,1.86-1.9,2.268,2.268,0,0,0-.06-0.5c-0.05-.37-0.27-2.41-0.43-3.93,1.2-1.46,2.45-2.97,2.73-3.29A1.927,1.927,0,0,0,1191,1532.58Z" transform="translate(-1172 -1525)"/>
</svg>
