<svg id="ico_star-half.svg" xmlns="http://www.w3.org/2000/svg" width="11" height="19" viewBox="0 0 11 19">
  <defs>
    <style>
      .cls-1 {
        fill: #e3ba1b;
        fill-rule: evenodd;
      }
    </style>
  </defs>
  <path id="シェイプ_8_のコピー" data-name="シェイプ 8 のコピー" class="cls-1" d="M1114,1532.71a1.936,1.936,0,0,1,1.81-1.96l4.21-.51,1.95-3.96a1.919,1.919,0,0,1,1.8-1.28,1.231,1.231,0,0,1,1.23,1.24v13.72a1.259,1.259,0,0,1-.6,1.07s-4.14,2.47-4.37,2.62a1.9,1.9,0,0,1-1.11.35,1.929,1.929,0,0,1-1.91-1.94,1.824,1.824,0,0,1,.07-0.5c0.05-.38.28-2.46,0.44-4.01-1.24-1.48-2.53-3.02-2.82-3.34A1.965,1.965,0,0,1,1114,1532.71Z" transform="translate(-1114 -1525)"/>
</svg>
