<svg id="ico_point.svg" xmlns="http://www.w3.org/2000/svg" width="16" height="18" viewBox="0 0 16 18">
  <defs>
    <style>
      .cls-1 {
        fill: #4a75bc;
        fill-rule: evenodd;
      }
    </style>
  </defs>
  <path id="シェイプ_8" data-name="シェイプ 8" class="cls-1" d="M1159.36,1559.45a1.259,1.259,0,0,0-1.05-.63,1.135,1.135,0,0,0-1.05.76c-0.27-1.22-.74-1.92-1.59-1.92a1.158,1.158,0,0,0-1.1.66,3.421,3.421,0,0,0-.66-1.47,1.232,1.232,0,0,0-.88-0.38,1.1,1.1,0,0,0-1.08.71c-0.02-1.66-.04-2.95-0.04-3.2a1.756,1.756,0,0,0-1.66-1.98,1.454,1.454,0,0,0-1.12.43,2.164,2.164,0,0,0-.58,1.5c0,0.47-.02,2.06-0.04,3.77-0.02,1.34-.04,2.75-0.05,3.76-2.94-.89-3.63-0.44-3.91-0.26a1.212,1.212,0,0,0-.55.91,2.78,2.78,0,0,0,1.49,2.31,2.1,2.1,0,0,1,.22.16,25.319,25.319,0,0,1,2.73,2.44,5.778,5.778,0,0,1,1.3,2.26,0.823,0.823,0,0,0,.79.62l7.13,0.1h0.02a0.82,0.82,0,0,0,.76-0.52C1160.4,1564.55,1160.29,1560.82,1159.36,1559.45Z" transform="translate(-1144 -1552)"/>
</svg>
