<svg id="ico_favorite-d.svg" xmlns="http://www.w3.org/2000/svg" width="19.84" height="19.69" viewBox="0 0 19.84 19.69">
  <defs>
    <style>
      .cls-1 {
        fill: #aaa;
        fill-rule: evenodd;
      }
    </style>
  </defs>
  <path id="シェイプ_5" data-name="シェイプ 5" class="cls-1" d="M1122.9,1512.15a4.453,4.453,0,0,1-4.29-2.81,0.92,0.92,0,0,1,1.74-.6,2.608,2.608,0,0,0,2.56,1.59,2.664,2.664,0,0,0,2.55-1.62,0.923,0.923,0,0,1,1.75.59,4.453,4.453,0,0,1-4.29,2.85h-0.02Zm0.02,4.54a9.941,9.941,0,0,1-5.62-1.73,0.906,0.906,0,0,1-.23-1.27,0.917,0.917,0,0,1,1.28-.24,8,8,0,1,0-3.51-6.6,7.976,7.976,0,0,0,1,3.85,0.912,0.912,0,0,1-.37,1.24,0.926,0.926,0,0,1-1.25-.36,9.772,9.772,0,0,1-1.22-4.73A9.925,9.925,0,1,1,1122.92,1516.69Zm-1.66-11.5a1.2,1.2,0,1,1-1.2-1.19A1.193,1.193,0,0,1,1121.26,1505.19Zm5.68,0a1.2,1.2,0,1,1-1.2-1.19A1.187,1.187,0,0,1,1126.94,1505.19Z" transform="translate(-1113 -1497)"/>
</svg>
