<svg id="ico_balloon.svg" xmlns="http://www.w3.org/2000/svg" width="17.41" height="17.72" viewBox="0 0 17.41 17.72">
  <defs>
    <style>
      .cls-1 {
        fill: #666;
        fill-rule: evenodd;
      }
    </style>
  </defs>
  <path id="シェイプ_2" data-name="シェイプ 2" class="cls-1" d="M1154.56,1592.39a0.863,0.863,0,0,1-.47-0.14l-2.02-1.47-2.03,1.46a0.8,0.8,0,0,1-.47.15,0.807,0.807,0,0,1-.81-0.81,0.746,0.746,0,0,1,.04-0.26c0.04-.11.55-1.67,0.77-2.35-0.59-.43-1.96-1.42-2.02-1.46a0.823,0.823,0,0,1,.47-1.49h2.51l0.76-2.33a0.81,0.81,0,0,1,.78-0.58,0.822,0.822,0,0,1,.78.6l0.76,2.31h2.5a0.819,0.819,0,0,1,.46,1.49c-0.07.05-1.42,1.03-2.01,1.46,0.22,0.68.73,2.24,0.76,2.33a0.79,0.79,0,0,1,.05.28A0.807,0.807,0,0,1,1154.56,1592.39Zm-6.23-5.45c0.59,0.43,2.05,1.49,2.05,1.49a0.446,0.446,0,0,1,.17.51c-0.47,1.42-.69,2.09-0.79,2.4l2.04-1.49a0.45,0.45,0,0,1,.54,0s1.42,1.03,2.02,1.46c-0.1-.31-0.32-0.98-0.78-2.37a0.461,0.461,0,0,1,.17-0.51s1.46-1.06,2.06-1.49h-2.53a0.462,0.462,0,0,1-.44-0.32l-0.77-2.36-0.77,2.36a0.462,0.462,0,0,1-.44.32h-2.53Zm-0.25-.18h0Zm3.89-2.79h0Zm0.2-.02v0Zm-6.56,14.05a0.463,0.463,0,0,1-.34-0.15,0.447,0.447,0,0,1,.03-0.64c0.13-.13,3.3-2.99,3.59-3.23a0.464,0.464,0,0,1,.49-0.07c2.28,1.04,5.59.3,6.86-.33,1.29-.64,3.72-2.62,3.72-5.54,0-2.75-2.11-6.85-7.93-6.85a7.589,7.589,0,0,0-5.57,2.25,6.8,6.8,0,0,0-2.06,4.55,6.982,6.982,0,0,0,1.93,4.21,0.447,0.447,0,0,1,0,.64,0.459,0.459,0,0,1-.65,0,7.764,7.764,0,0,1-2.2-4.84,7.628,7.628,0,0,1,2.32-5.2,8.512,8.512,0,0,1,6.23-2.52c6.49,0,8.85,4.64,8.85,7.76,0,3.37-2.77,5.63-4.23,6.35a10.415,10.415,0,0,1-7.37.47c-0.66.58-2.57,2.31-3.36,3.02A0.465,0.465,0,0,1,1145.61,1598Z" transform="translate(-1143.47 -1580.28)"/>
</svg>
