<?xml version="1.0" encoding="UTF-8" standalone="no"?>
<svg width="375px" height="370px" viewBox="0 0 375 370" version="1.1" xmlns="http://www.w3.org/2000/svg" xmlns:xlink="http://www.w3.org/1999/xlink">
    <!-- Generator: Sketch 3.8.3 (29802) - http://www.bohemiancoding.com/sketch -->
    <title>Page 1</title>
    <desc>Created with Sketch.</desc>
    <defs></defs>
    <g id="SPデザイン" stroke="none" stroke-width="1" fill="none" fill-rule="evenodd">
        <g id="3IW_Win" transform="translate(0.000000, -165.000000)">
            <g id="Page-1" transform="translate(-3.000000, 165.000000)">
                <rect id="Rectangle-44" fill="#FFB131" x="3.00791557" y="0" width="380" height="370"></rect>
                <polygon id="Fill-1" fill="#FFC15A" points="294.790588 370 321.70314 370 379.200592 291.894881 379.200592 226"></polygon>
                <polygon id="Fill-2" fill="#FFC15A" points="377.667062 0 251.071961 370 264.464183 370 379.201966 94.646 379.201966 0"></polygon>
                <polygon id="Fill-3" fill="#FFC15A" points="296.18054 0 224.437779 370 233.349276 370 323.447782 0"></polygon>
                <polygon id="Fill-4" fill="#FFC15A" points="234.402259 0 204.24525 370 211.405002 370 256.305251 0"></polygon>
                <polygon id="Fill-5" fill="#FFC15A" points="179.384029 0 186.260146 370 192.937913 370 199.81403 0"></polygon>
                <polygon id="Fill-6" fill="#FFC15A" points="122.892 0 167.791318 370 174.952001 370 144.796855 0"></polygon>
                <polygon id="Fill-7" fill="#FFC15A" points="55.7543824 0 145.852041 370 154.764384 370 83.0232299 0"></polygon>
                <polygon id="Fill-8" fill="#FFC15A" points="2.84217094e-14 0 2.84217094e-14 94.6410667 114.737647 370 128.12799 370 1.53303922 0"></polygon>
                <polygon id="Fill-9" fill="#FFC15A" points="2.84217094e-14 291.893754 57.4992157 370 84.4112255 370 2.84217094e-14 226"></polygon>
            </g>
        </g>
    </g>
</svg>