<?xml version="1.0" encoding="UTF-8" standalone="no"?>
<svg width="375px" height="395px" viewBox="0 0 375 395" version="1.1" xmlns="http://www.w3.org/2000/svg" xmlns:xlink="http://www.w3.org/1999/xlink">
    <!-- Generator: Sketch 3.8.3 (29802) - http://www.bohemiancoding.com/sketch -->
    <title>Page 1</title>
    <desc>Created with Sketch.</desc>
    <defs></defs>
    <g id="SPデザイン" stroke="none" stroke-width="1" fill="none" fill-rule="evenodd">
        <g id="1IW_LP" transform="translate(0.000000, -165.000000)">
            <g id="Page-1" transform="translate(-3.000000, 165.000000)">
                <rect id="Rectangle-44" fill="#F95061" x="3" y="0" width="375" height="394.393587"></rect>
                <polygon id="Fill-1" fill="#FF5D6C" points="294.014824 394.393587 320.856941 394.393587 378.203914 312.02045 378.203914 242.524773"></polygon>
                <polygon id="Fill-2" fill="#FF5D6C" points="376.673051 4.63914504 250.411245 394.392807 263.768208 394.392807 378.203914 104.338132 378.203914 4.63914504"></polygon>
                <polygon id="Fill-3" fill="#FF5D6C" points="295.400124 4.63914504 223.847154 394.392807 232.735075 394.392807 322.595232 4.63914504"></polygon>
                <polygon id="Fill-4" fill="#FF5D6C" points="233.788101 4.63914504 203.707763 394.392807 210.849312 394.392807 255.635407 4.63914504"></polygon>
                <polygon id="Fill-5" fill="#FF5D6C" points="178.911966 4.63914504 185.771123 394.392807 192.43242 394.392807 199.291576 4.63914504"></polygon>
                <polygon id="Fill-6" fill="#FF5D6C" points="122.5686 4.63914504 167.353767 394.392807 174.496245 394.392807 144.417764 4.63914504"></polygon>
                <polygon id="Fill-7" fill="#FF5D6C" points="55.6076603 4.63914504 145.467817 394.392807 154.356668 394.392807 82.804626 4.63914504"></polygon>
                <polygon id="Fill-8" fill="#FF5D6C" points="0 4.63914504 0 104.332935 114.435706 394.392807 127.790811 394.392807 1.5290049 4.63914504"></polygon>
                <polygon id="Fill-9" fill="#FF5D6C" points="0 312.016812 57.347902 394.392548 84.1890907 394.392548 0 242.521135"></polygon>
            </g>
        </g>
    </g>
</svg>