<?xml version="1.0" encoding="UTF-8" standalone="no"?>
<svg width="646px" height="166px" viewBox="0 0 646 166" version="1.1" xmlns="http://www.w3.org/2000/svg" xmlns:xlink="http://www.w3.org/1999/xlink">
    <!-- Generator: Sketch 3.8.3 (29802) - http://www.bohemiancoding.com/sketch -->
    <title>Group 3</title>
    <desc>Created with Sketch.</desc>
    <defs></defs>
    <g id="PCデザイン" stroke="none" stroke-width="1" fill="none" fill-rule="evenodd">
        <g id="1IW_LP" transform="translate(-280.000000, -277.000000)">
            <g id="Page-1" transform="translate(258.000000, 241.000000)">
                <g transform="translate(-14.000000, -7.000000)" id="Group-3">
                    <g transform="translate(36.000000, 43.000000)">
                        <polygon id="Fill-1-Copy-2" fill="#E4E700" points="52.1252977 52 42 66.5798515 50.6803585 72.9559521 60.8056562 58.3761007"></polygon>
                        <polygon id="Fill-1-Copy-3" fill="#E4E700" points="637.125298 145 627 159.579851 635.680358 165.955952 645.805656 151.376101"></polygon>
                        <polygon id="Fill-2-Copy-2" fill="#45FFC0" points="0 59.6248571 12.1090733 72.509377 19.7814593 64.8845199 7.67238603 52"></polygon>
                        <polygon id="Fill-2-Copy-3" fill="#45FFC0" points="585 152.624857 597.109073 165.509377 604.781459 157.88452 592.672386 145"></polygon>
                        <polygon id="Fill-3-Copy" fill="#8BA5FF" points="32 21.0121045 47.9050546 28.3392448 52.2639993 18.3243837 36.3616255 11"></polygon>
                        <polygon id="Fill-3-Copy-2" fill="#8BA5FF" points="617 114.012104 632.905055 121.339245 637.263999 111.324384 621.361625 104"></polygon>
                        <polygon id="Fill-1-Copy-7" fill="#E4E700" points="562.45081 62.1219032 549.202654 81.5177535 560.560221 90 573.808376 70.6041497"></polygon>
                        <polygon id="Fill-1-Copy-8" fill="#E4E700" transform="translate(54.302861, 118.939048) scale(-1, 1) translate(-54.302861, -118.939048) " points="55.2481557 105 42 124.39585 53.3575664 132.878097 66.6057221 113.482246"></polygon>
                        <polygon id="Fill-2-Copy-7" fill="#45FFC0" points="535.644381 17.3669677 551.488151 34.5074866 561.526865 24.363996 545.683095 7.22347712"></polygon>
                        <polygon id="Fill-2-Copy-8" fill="#45FFC0" transform="translate(28.941242, 147.642005) scale(-1, 1) translate(-28.941242, -147.642005) " points="16 144.143491 31.84377 161.284009 41.8824837 151.140519 26.0387137 134"></polygon>
                        <polygon id="Fill-3-Copy-6" fill="#8BA5FF" points="605.130532 13.3192906 625.941045 23.0667231 631.644381 9.74376521 610.837376 0"></polygon>
                        <polygon id="Fill-3-Copy-7" fill="#8BA5FF" transform="translate(98.256925, 137.533362) scale(-1, 1) translate(-98.256925, -137.533362) " points="85 139.319291 105.810513 149.066723 111.513849 135.743765 90.7068439 126"></polygon>
                    </g>
                </g>
            </g>
        </g>
    </g>
</svg>