<?xml version="1.0" encoding="UTF-8" standalone="no"?>
<svg width="334px" height="159px" viewBox="0 0 334 159" version="1.1" xmlns="http://www.w3.org/2000/svg" xmlns:xlink="http://www.w3.org/1999/xlink">
    <!-- Generator: Sketch 3.8.3 (29802) - http://www.bohemiancoding.com/sketch -->
    <title>Group 4</title>
    <desc>Created with Sketch.</desc>
    <defs></defs>
    <g id="SPデザイン" stroke="none" stroke-width="1" fill="none" fill-rule="evenodd">
        <g id="1IW_LP" transform="translate(-27.000000, -178.000000)">
            <g id="Group-4" transform="translate(27.000000, 178.000000)">
                <polygon id="Fill-1-Copy-6" fill="#E4E700" points="20.8170165 84 13 97.4255636 19.7014825 103.296868 27.5184989 89.8713043"></polygon>
                <polygon id="Fill-1-Copy-7" fill="#E4E700" points="318.817016 44 311 57.4255636 317.701482 63.2968679 325.518499 49.8713043"></polygon>
                <polygon id="Fill-2-Copy-7" fill="#45FFC0" points="318 101.021197 327.348547 112.885648 333.271847 105.864452 323.923299 94"></polygon>
                <polygon id="Fill-2-Copy-9" fill="#45FFC0" points="0 139.021197 9.34854736 150.885648 15.2718466 143.864452 5.92329921 132"></polygon>
                <polygon id="Fill-2-Copy-8" fill="#45FFC0" points="28 7.02119662 37.3485474 18.8856482 43.2718466 11.8644515 33.9232992 0"></polygon>
                <polygon id="Fill-3-Copy-6" fill="#8BA5FF" points="303 152.219445 315.279152 158.966496 318.644381 149.744512 306.367298 143"></polygon>
                <polygon id="Fill-3-Copy" fill="#8BA5FF" points="7 41.3814081 15.611451 49.5112407 17.9715082 38.399246 9.36150864 30.2724719"></polygon>
                <polygon id="Fill-3-Copy-2" fill="#8BA5FF" points="293 22.1089361 301.611451 30.2387688 303.971508 19.126774 295.361509 11"></polygon>
            </g>
        </g>
    </g>
</svg>