<?xml version="1.0" encoding="UTF-8" standalone="no"?>
<svg width="375px" height="353px" viewBox="0 0 375 353" version="1.1" xmlns="http://www.w3.org/2000/svg" xmlns:xlink="http://www.w3.org/1999/xlink">
    <!-- Generator: Sketch 3.6.1 (26313) - http://www.bohemiancoding.com/sketch -->
    <title>3IW_Win</title>
    <desc>Created with Sketch.</desc>
    <defs></defs>
    <g id="キャンペーン(instantWin)" stroke="none" stroke-width="1" fill="none" fill-rule="evenodd">
        <g id="3IW_Lose" transform="translate(0.000000, -178.000000)">
            <g id="Page-1" transform="translate(0.000000, 165.000000)" fill="#075A9F">
                <rect id="Rectangle-44" x="0" y="0" width="375" height="374.360643"></rect>
            </g>
            <g id="Group-3" transform="translate(0.000000, 150.000000)" fill-opacity="0.0700000003" fill="#FFFFFF">
                <path d="M23.6209417,0.449502238 C22.7707906,1.43257172 15.2965453,10.1735992 15.2965453,14.6388666 C15.2965453,19.4476161 19.441032,23.3562056 24.5301311,23.3562056 C29.6192301,23.3562056 33.7637168,19.4476161 33.7637168,14.6388666 C33.7637168,10.1676771 26.2894716,1.42664962 25.4393205,0.449502238 C24.9847258,-0.0775651356 24.0814402,-0.0775651356 23.6209417,0.449502238 L23.6209417,0.449502238 L23.6209417,0.449502238 Z M24.5301311,20.9340646 C20.7693931,20.9340646 17.7053068,18.1092203 17.7053068,14.6388666 C17.7053068,12.2108034 21.5782175,6.69732336 24.5301311,3.11444964 C27.4820447,6.69732336 31.3549553,12.2108034 31.3549553,14.6388666 C31.3549553,18.1151424 28.290869,20.9340646 24.5301311,20.9340646 Z M212.083355,0.395300531 C211.233204,1.37837001 203.758958,10.1193975 203.758958,14.5846649 C203.758958,19.3934144 207.903445,23.3020039 212.992544,23.3020039 C218.081643,23.3020039 222.22613,19.3934144 222.22613,14.5846649 C222.22613,10.1134754 214.751885,1.37244791 213.901734,0.395300531 C213.447139,-0.131766844 212.543853,-0.131766844 212.083355,0.395300531 Z M86.441746,0.395300531 C85.5915949,1.37837001 78.1173496,10.1193975 78.1173496,14.5846649 C78.1173496,19.3934144 82.2618364,23.3020039 87.3509354,23.3020039 C92.4400345,23.3020039 96.5845212,19.3934144 96.5845212,14.5846649 C96.5845212,10.1134754 89.1102759,1.37244791 88.2601248,0.395300531 C87.8055301,-0.131766844 86.9022446,-0.131766844 86.441746,0.395300531 Z M274.904159,0.395300531 C274.054008,1.37837001 266.579763,10.1193975 266.579763,14.5846649 C266.579763,19.3934144 270.724249,23.3020039 275.813349,23.3020039 C280.902448,23.3020039 285.046934,19.3934144 285.046934,14.5846649 C285.046934,10.1134754 277.572689,1.37244791 276.722538,0.395300531 C276.267943,-0.131766844 275.364658,-0.131766844 274.904159,0.395300531 Z M149.26255,0.395300531 C148.412399,1.37837001 140.938154,10.1193975 140.938154,14.5846649 C140.938154,19.3934144 145.082641,23.3020039 150.17174,23.3020039 C155.260839,23.3020039 159.405326,19.3934144 159.405326,14.5846649 C159.405326,10.1134754 151.93108,1.37244791 151.080929,0.395300531 C150.626334,-0.131766844 149.723049,-0.131766844 149.26255,0.395300531 Z M337.724963,0.395300531 C336.874812,1.37837001 329.400567,10.1193975 329.400567,14.5846649 C329.400567,19.3934144 333.545054,23.3020039 338.634153,23.3020039 C343.723252,23.3020039 347.867739,19.3934144 347.867739,14.5846649 C347.867739,10.1134754 340.393493,1.37244791 339.543342,0.395300531 C339.088748,-0.131766844 338.185462,-0.131766844 337.724963,0.395300531 Z M55.0313439,0.449502238 C54.1811927,1.43257172 46.7069475,10.1735992 46.7069475,14.6388666 C46.7069475,19.4476161 50.8514342,23.3562056 55.9405332,23.3562056 C61.0296323,23.3562056 65.174119,19.4476161 65.174119,14.6388666 C65.174119,10.1676771 57.6998738,1.42664962 56.8497226,0.449502238 C56.3951279,-0.0775651356 55.4918424,-0.0775651356 55.0313439,0.449502238 Z M243.493757,0.395300531 C242.643606,1.37837001 235.169361,10.1193975 235.169361,14.5846649 C235.169361,19.3934144 239.313847,23.3020039 244.402946,23.3020039 C249.492045,23.3020039 253.636532,19.3934144 253.636532,14.5846649 C253.636532,10.1134754 246.162287,1.37244791 245.312136,0.395300531 C244.857541,-0.131766844 243.954255,-0.131766844 243.493757,0.395300531 Z M117.852148,0.395300531 C117.001997,1.37837001 109.527752,10.1193975 109.527752,14.5846649 C109.527752,19.3934144 113.672239,23.3020039 118.761338,23.3020039 C123.850437,23.3020039 127.994923,19.3934144 127.994923,14.5846649 C127.994923,10.1134754 120.520678,1.37244791 119.670527,0.395300531 C119.215932,-0.131766844 118.312647,-0.131766844 117.852148,0.395300531 Z M306.314561,0.395300531 C305.46441,1.37837001 297.990165,10.1193975 297.990165,14.5846649 C297.990165,19.3934144 302.134652,23.3020039 307.223751,23.3020039 C312.31285,23.3020039 316.457336,19.3934144 316.457336,14.5846649 C316.457336,10.1134754 308.983091,1.37244791 308.13294,0.395300531 C307.678345,-0.131766844 306.77506,-0.131766844 306.314561,0.395300531 Z M180.672953,0.395300531 C179.822801,1.37837001 172.348556,10.1193975 172.348556,14.5846649 C172.348556,19.3934144 176.493043,23.3020039 181.582142,23.3020039 C186.671241,23.3020039 190.815728,19.3934144 190.815728,14.5846649 C190.815728,10.1134754 183.341482,1.37244791 182.491331,0.395300531 C182.036737,-0.131766844 181.133451,-0.131766844 180.672953,0.395300531 Z M371.857225,0.395300531 C371.007074,1.37837001 363.532828,10.1193975 363.532828,14.5846649 C363.532828,19.3934144 367.677315,23.3020039 372.766414,23.3020039 C377.855513,23.3020039 382,19.3934144 382,14.5846649 C382,10.1134754 374.525755,1.37244791 373.675604,0.395300531 C373.221009,-0.131766844 372.317723,-0.131766844 371.857225,0.395300531 Z M23.6209417,118.115235 C22.7707906,119.098305 15.2965453,127.839332 15.2965453,132.3046 C15.2965453,137.113349 19.441032,141.021939 24.5301311,141.021939 C29.6192301,141.021939 33.7637168,137.113349 33.7637168,132.3046 C33.7637168,127.83341 26.2894716,119.092383 25.4393205,118.115235 C24.9847258,117.588168 24.0814402,117.588168 23.6209417,118.115235 Z M212.083355,118.061033 C211.233204,119.044103 203.758958,127.78513 203.758958,132.250398 C203.758958,137.059147 207.903445,140.967737 212.992544,140.967737 C218.081643,140.967737 222.22613,137.059147 222.22613,132.250398 C222.22613,127.779208 214.751885,119.038181 213.901734,118.061033 C213.447139,117.533966 212.543853,117.533966 212.083355,118.061033 Z M86.441746,118.061033 C85.5915949,119.044103 78.1173496,127.78513 78.1173496,132.250398 C78.1173496,137.059147 82.2618364,140.967737 87.3509354,140.967737 C92.4400345,140.967737 96.5845212,137.059147 96.5845212,132.250398 C96.5845212,127.779208 89.1102759,119.038181 88.2601248,118.061033 C87.8055301,117.533966 86.9022446,117.533966 86.441746,118.061033 Z M274.904159,118.061033 C274.054008,119.044103 266.579763,127.78513 266.579763,132.250398 C266.579763,137.059147 270.724249,140.967737 275.813349,140.967737 C280.902448,140.967737 285.046934,137.059147 285.046934,132.250398 C285.046934,127.779208 277.572689,119.038181 276.722538,118.061033 C276.267943,117.533966 275.364658,117.533966 274.904159,118.061033 Z M149.26255,118.061033 C148.412399,119.044103 140.938154,127.78513 140.938154,132.250398 C140.938154,137.059147 145.082641,140.967737 150.17174,140.967737 C155.260839,140.967737 159.405326,137.059147 159.405326,132.250398 C159.405326,127.779208 151.93108,119.038181 151.080929,118.061033 C150.626334,117.533966 149.723049,117.533966 149.26255,118.061033 Z M337.724963,118.061033 C336.874812,119.044103 329.400567,127.78513 329.400567,132.250398 C329.400567,137.059147 333.545054,140.967737 338.634153,140.967737 C343.723252,140.967737 347.867739,137.059147 347.867739,132.250398 C347.867739,127.779208 340.393493,119.038181 339.543342,118.061033 C339.088748,117.533966 338.185462,117.533966 337.724963,118.061033 Z M55.0313439,118.115235 C54.1811927,119.098305 46.7069475,127.839332 46.7069475,132.3046 C46.7069475,137.113349 50.8514342,141.021939 55.9405332,141.021939 C61.0296323,141.021939 65.174119,137.113349 65.174119,132.3046 C65.174119,127.83341 57.6998738,119.092383 56.8497226,118.115235 C56.3951279,117.588168 55.4918424,117.588168 55.0313439,118.115235 Z M243.493757,118.061033 C242.643606,119.044103 235.169361,127.78513 235.169361,132.250398 C235.169361,137.059147 239.313847,140.967737 244.402946,140.967737 C249.492045,140.967737 253.636532,137.059147 253.636532,132.250398 C253.636532,127.779208 246.162287,119.038181 245.312136,118.061033 C244.857541,117.533966 243.954255,117.533966 243.493757,118.061033 Z M117.852148,118.061033 C117.001997,119.044103 109.527752,127.78513 109.527752,132.250398 C109.527752,137.059147 113.672239,140.967737 118.761338,140.967737 C123.850437,140.967737 127.994923,137.059147 127.994923,132.250398 C127.994923,127.779208 120.520678,119.038181 119.670527,118.061033 C119.215932,117.533966 118.312647,117.533966 117.852148,118.061033 Z M306.314561,118.061033 C305.46441,119.044103 297.990165,127.78513 297.990165,132.250398 C297.990165,137.059147 302.134652,140.967737 307.223751,140.967737 C312.31285,140.967737 316.457336,137.059147 316.457336,132.250398 C316.457336,127.779208 308.983091,119.038181 308.13294,118.061033 C307.678345,117.533966 306.77506,117.533966 306.314561,118.061033 Z M180.672953,118.061033 C179.822801,119.044103 172.348556,127.78513 172.348556,132.250398 C172.348556,137.059147 176.493043,140.967737 181.582142,140.967737 C186.671241,140.967737 190.815728,137.059147 190.815728,132.250398 C190.815728,127.779208 183.341482,119.038181 182.491331,118.061033 C182.036737,117.533966 181.133451,117.533966 180.672953,118.061033 Z M371.857225,118.061033 C371.007074,119.044103 363.532828,127.78513 363.532828,132.250398 C363.532828,137.059147 367.677315,140.967737 372.766414,140.967737 C377.855513,140.967737 382,137.059147 382,132.250398 C382,127.779208 374.525755,119.038181 373.675604,118.061033 C373.221009,117.533966 372.317723,117.533966 371.857225,118.061033 Z M23.6209417,60.459026 C22.7707906,61.4420955 15.2965453,70.183123 15.2965453,74.6483904 C15.2965453,79.4571399 19.441032,83.3657295 24.5301311,83.3657295 C29.6192301,83.3657295 33.7637168,79.4571399 33.7637168,74.6483904 C33.7637168,70.1772009 26.2894716,61.4361734 25.4393205,60.459026 C24.9847258,59.9319587 24.0814402,59.9319587 23.6209417,60.459026 Z M212.083355,60.4048243 C211.233204,61.3878938 203.758958,70.1289213 203.758958,74.5941887 C203.758958,79.4029382 207.903445,83.3115277 212.992544,83.3115277 C218.081643,83.3115277 222.22613,79.4029382 222.22613,74.5941887 C222.22613,70.1229992 214.751885,61.3819717 213.901734,60.4048243 C213.447139,59.877757 212.543853,59.877757 212.083355,60.4048243 Z M86.441746,60.4048243 C85.5915949,61.3878938 78.1173496,70.1289213 78.1173496,74.5941887 C78.1173496,79.4029382 82.2618364,83.3115277 87.3509354,83.3115277 C92.4400345,83.3115277 96.5845212,79.4029382 96.5845212,74.5941887 C96.5845212,70.1229992 89.1102759,61.3819717 88.2601248,60.4048243 C87.8055301,59.877757 86.9022446,59.877757 86.441746,60.4048243 Z M274.904159,60.4048243 C274.054008,61.3878938 266.579763,70.1289213 266.579763,74.5941887 C266.579763,79.4029382 270.724249,83.3115277 275.813349,83.3115277 C280.902448,83.3115277 285.046934,79.4029382 285.046934,74.5941887 C285.046934,70.1229992 277.572689,61.3819717 276.722538,60.4048243 C276.267943,59.877757 275.364658,59.877757 274.904159,60.4048243 Z M149.26255,60.4048243 C148.412399,61.3878938 140.938154,70.1289213 140.938154,74.5941887 C140.938154,79.4029382 145.082641,83.3115277 150.17174,83.3115277 C155.260839,83.3115277 159.405326,79.4029382 159.405326,74.5941887 C159.405326,70.1229992 151.93108,61.3819717 151.080929,60.4048243 C150.626334,59.877757 149.723049,59.877757 149.26255,60.4048243 Z M337.724963,60.4048243 C336.874812,61.3878938 329.400567,70.1289213 329.400567,74.5941887 C329.400567,79.4029382 333.545054,83.3115277 338.634153,83.3115277 C343.723252,83.3115277 347.867739,79.4029382 347.867739,74.5941887 C347.867739,70.1229992 340.393493,61.3819717 339.543342,60.4048243 C339.088748,59.877757 338.185462,59.877757 337.724963,60.4048243 Z M55.0313439,60.459026 C54.1811927,61.4420955 46.7069475,70.183123 46.7069475,74.6483904 C46.7069475,79.4571399 50.8514342,83.3657295 55.9405332,83.3657295 C61.0296323,83.3657295 65.174119,79.4571399 65.174119,74.6483904 C65.174119,70.1772009 57.6998738,61.4361734 56.8497226,60.459026 C56.3951279,59.9319587 55.4918424,59.9319587 55.0313439,60.459026 Z M243.493757,60.4048243 C242.643606,61.3878938 235.169361,70.1289213 235.169361,74.5941887 C235.169361,79.4029382 239.313847,83.3115277 244.402946,83.3115277 C249.492045,83.3115277 253.636532,79.4029382 253.636532,74.5941887 C253.636532,70.1229992 246.162287,61.3819717 245.312136,60.4048243 C244.857541,59.877757 243.954255,59.877757 243.493757,60.4048243 Z M117.852148,60.4048243 C117.001997,61.3878938 109.527752,70.1289213 109.527752,74.5941887 C109.527752,79.4029382 113.672239,83.3115277 118.761338,83.3115277 C123.850437,83.3115277 127.994923,79.4029382 127.994923,74.5941887 C127.994923,70.1229992 120.520678,61.3819717 119.670527,60.4048243 C119.215932,59.877757 118.312647,59.877757 117.852148,60.4048243 Z M306.314561,60.4048243 C305.46441,61.3878938 297.990165,70.1289213 297.990165,74.5941887 C297.990165,79.4029382 302.134652,83.3115277 307.223751,83.3115277 C312.31285,83.3115277 316.457336,79.4029382 316.457336,74.5941887 C316.457336,70.1229992 308.983091,61.3819717 308.13294,60.4048243 C307.678345,59.877757 306.77506,59.877757 306.314561,60.4048243 Z M180.672953,60.4048243 C179.822801,61.3878938 172.348556,70.1289213 172.348556,74.5941887 C172.348556,79.4029382 176.493043,83.3115277 181.582142,83.3115277 C186.671241,83.3115277 190.815728,79.4029382 190.815728,74.5941887 C190.815728,70.1229992 183.341482,61.3819717 182.491331,60.4048243 C182.036737,59.877757 181.133451,59.877757 180.672953,60.4048243 Z M371.857225,60.4048243 C371.007074,61.3878938 363.532828,70.1289213 363.532828,74.5941887 C363.532828,79.4029382 367.677315,83.3115277 372.766414,83.3115277 C377.855513,83.3115277 382,79.4029382 382,74.5941887 C382,70.1229992 374.525755,61.3819717 373.675604,60.4048243 C373.221009,59.877757 372.317723,59.877757 371.857225,60.4048243 Z M23.6209417,178.124759 C22.7707906,179.107828 15.2965453,187.848856 15.2965453,192.314123 C15.2965453,197.122873 19.441032,201.031462 24.5301311,201.031462 C29.6192301,201.031462 33.7637168,197.122873 33.7637168,192.314123 C33.7637168,187.842934 26.2894716,179.101906 25.4393205,178.124759 C24.9847258,177.597692 24.0814402,177.597692 23.6209417,178.124759 Z M212.083355,178.070557 C211.233204,179.053627 203.758958,187.794654 203.758958,192.259922 C203.758958,197.068671 207.903445,200.977261 212.992544,200.977261 C218.081643,200.977261 222.22613,197.068671 222.22613,192.259922 C222.22613,187.788732 214.751885,179.047705 213.901734,178.070557 C213.447139,177.54349 212.543853,177.54349 212.083355,178.070557 Z M86.441746,178.070557 C85.5915949,179.053627 78.1173496,187.794654 78.1173496,192.259922 C78.1173496,197.068671 82.2618364,200.977261 87.3509354,200.977261 C92.4400345,200.977261 96.5845212,197.068671 96.5845212,192.259922 C96.5845212,187.788732 89.1102759,179.047705 88.2601248,178.070557 C87.8055301,177.54349 86.9022446,177.54349 86.441746,178.070557 Z M274.904159,178.070557 C274.054008,179.053627 266.579763,187.794654 266.579763,192.259922 C266.579763,197.068671 270.724249,200.977261 275.813349,200.977261 C280.902448,200.977261 285.046934,197.068671 285.046934,192.259922 C285.046934,187.788732 277.572689,179.047705 276.722538,178.070557 C276.267943,177.54349 275.364658,177.54349 274.904159,178.070557 Z M149.26255,178.070557 C148.412399,179.053627 140.938154,187.794654 140.938154,192.259922 C140.938154,197.068671 145.082641,200.977261 150.17174,200.977261 C155.260839,200.977261 159.405326,197.068671 159.405326,192.259922 C159.405326,187.788732 151.93108,179.047705 151.080929,178.070557 C150.626334,177.54349 149.723049,177.54349 149.26255,178.070557 Z M337.724963,178.070557 C336.874812,179.053627 329.400567,187.794654 329.400567,192.259922 C329.400567,197.068671 333.545054,200.977261 338.634153,200.977261 C343.723252,200.977261 347.867739,197.068671 347.867739,192.259922 C347.867739,187.788732 340.393493,179.047705 339.543342,178.070557 C339.088748,177.54349 338.185462,177.54349 337.724963,178.070557 Z M55.0313439,178.124759 C54.1811927,179.107828 46.7069475,187.848856 46.7069475,192.314123 C46.7069475,197.122873 50.8514342,201.031462 55.9405332,201.031462 C61.0296323,201.031462 65.174119,197.122873 65.174119,192.314123 C65.174119,187.842934 57.6998738,179.101906 56.8497226,178.124759 C56.3951279,177.597692 55.4918424,177.597692 55.0313439,178.124759 Z M243.493757,178.070557 C242.643606,179.053627 235.169361,187.794654 235.169361,192.259922 C235.169361,197.068671 239.313847,200.977261 244.402946,200.977261 C249.492045,200.977261 253.636532,197.068671 253.636532,192.259922 C253.636532,187.788732 246.162287,179.047705 245.312136,178.070557 C244.857541,177.54349 243.954255,177.54349 243.493757,178.070557 Z M117.852148,178.070557 C117.001997,179.053627 109.527752,187.794654 109.527752,192.259922 C109.527752,197.068671 113.672239,200.977261 118.761338,200.977261 C123.850437,200.977261 127.994923,197.068671 127.994923,192.259922 C127.994923,187.788732 120.520678,179.047705 119.670527,178.070557 C119.215932,177.54349 118.312647,177.54349 117.852148,178.070557 Z M306.314561,178.070557 C305.46441,179.053627 297.990165,187.794654 297.990165,192.259922 C297.990165,197.068671 302.134652,200.977261 307.223751,200.977261 C312.31285,200.977261 316.457336,197.068671 316.457336,192.259922 C316.457336,187.788732 308.983091,179.047705 308.13294,178.070557 C307.678345,177.54349 306.77506,177.54349 306.314561,178.070557 Z M180.672953,178.070557 C179.822801,179.053627 172.348556,187.794654 172.348556,192.259922 C172.348556,197.068671 176.493043,200.977261 181.582142,200.977261 C186.671241,200.977261 190.815728,197.068671 190.815728,192.259922 C190.815728,187.788732 183.341482,179.047705 182.491331,178.070557 C182.036737,177.54349 181.133451,177.54349 180.672953,178.070557 Z M371.857225,178.070557 C371.007074,179.053627 363.532828,187.794654 363.532828,192.259922 C363.532828,197.068671 367.677315,200.977261 372.766414,200.977261 C377.855513,200.977261 382,197.068671 382,192.259922 C382,187.788732 374.525755,179.047705 373.675604,178.070557 C373.221009,177.54349 372.317723,177.54349 371.857225,178.070557 Z M8.32439639,31.0425928 C7.47424526,32.0256623 0,40.7666898 0,45.2319572 C0,50.0407067 4.14448671,53.9492962 9.23358578,53.9492962 C14.3226848,53.9492962 18.4671716,50.0407067 18.4671716,45.2319572 C18.4671716,40.7607676 10.9929263,32.0197402 10.1427752,31.0425928 C9.68818047,30.5155254 8.78489491,30.5155254 8.32439639,31.0425928 Z M196.786809,30.9883911 C195.936658,31.9714606 188.462413,40.712488 188.462413,45.1777555 C188.462413,49.986505 192.6069,53.8950945 197.695999,53.8950945 C202.785098,53.8950945 206.929585,49.986505 206.929585,45.1777555 C206.929585,40.7065659 199.455339,31.9655385 198.605188,30.9883911 C198.150594,30.4613237 197.247308,30.4613237 196.786809,30.9883911 Z M71.1452007,30.9883911 C70.2950496,31.9714606 62.8208044,40.712488 62.8208044,45.1777555 C62.8208044,49.986505 66.9652911,53.8950945 72.0543901,53.8950945 C77.1434892,53.8950945 81.2879759,49.986505 81.2879759,45.1777555 C81.2879759,40.7065659 73.8137307,31.9655385 72.9635795,30.9883911 C72.5089848,30.4613237 71.6056993,30.4613237 71.1452007,30.9883911 Z M259.607614,30.9883911 C258.757463,31.9714606 251.283217,40.712488 251.283217,45.1777555 C251.283217,49.986505 255.427704,53.8950945 260.516803,53.8950945 C265.605902,53.8950945 269.750389,49.986505 269.750389,45.1777555 C269.750389,40.7065659 262.276144,31.9655385 261.425993,30.9883911 C260.971398,30.4613237 260.068112,30.4613237 259.607614,30.9883911 Z M133.966005,30.9883911 C133.115854,31.9714606 125.641609,40.712488 125.641609,45.1777555 C125.641609,49.986505 129.786095,53.8950945 134.875195,53.8950945 C139.964294,53.8950945 144.10878,49.986505 144.10878,45.1777555 C144.10878,40.7065659 136.634535,31.9655385 135.784384,30.9883911 C135.329789,30.4613237 134.426504,30.4613237 133.966005,30.9883911 Z M322.428418,30.9883911 C321.578267,31.9714606 314.104022,40.712488 314.104022,45.1777555 C314.104022,49.986505 318.248509,53.8950945 323.337608,53.8950945 C328.426707,53.8950945 332.571193,49.986505 332.571193,45.1777555 C332.571193,40.7065659 325.096948,31.9655385 324.246797,30.9883911 C323.792202,30.4613237 322.888917,30.4613237 322.428418,30.9883911 Z M39.7347986,31.0425928 C38.8846474,32.0256623 31.4104022,40.7666898 31.4104022,45.2319572 C31.4104022,50.0407067 35.5548889,53.9492962 40.643988,53.9492962 C45.733087,53.9492962 49.8775737,50.0407067 49.8775737,45.2319572 C49.8775737,40.7607676 42.4033285,32.0197402 41.5531774,31.0425928 C41.0985827,30.5155254 40.1952971,30.5155254 39.7347986,31.0425928 Z M228.197212,30.9883911 C227.347061,31.9714606 219.872815,40.712488 219.872815,45.1777555 C219.872815,49.986505 224.017302,53.8950945 229.106401,53.8950945 C234.1955,53.8950945 238.339987,49.986505 238.339987,45.1777555 C238.339987,40.7065659 230.865742,31.9655385 230.01559,30.9883911 C229.560996,30.4613237 228.65771,30.4613237 228.197212,30.9883911 Z M102.555603,30.9883911 C101.705452,31.9714606 94.2312065,40.712488 94.2312065,45.1777555 C94.2312065,49.986505 98.3756933,53.8950945 103.464792,53.8950945 C108.553891,53.8950945 112.698378,49.986505 112.698378,45.1777555 C112.698378,40.7065659 105.224133,31.9655385 104.373982,30.9883911 C103.919387,30.4613237 103.016101,30.4613237 102.555603,30.9883911 Z M291.018016,30.9883911 C290.167865,31.9714606 282.69362,40.712488 282.69362,45.1777555 C282.69362,49.986505 286.838106,53.8950945 291.927205,53.8950945 C297.016304,53.8950945 301.160791,49.986505 301.160791,45.1777555 C301.160791,40.7065659 293.686546,31.9655385 292.836395,30.9883911 C292.3818,30.4613237 291.478515,30.4613237 291.018016,30.9883911 Z M165.376407,30.9883911 C164.526256,31.9714606 157.052011,40.712488 157.052011,45.1777555 C157.052011,49.986505 161.196498,53.8950945 166.285597,53.8950945 C171.374696,53.8950945 175.519182,49.986505 175.519182,45.1777555 C175.519182,40.7065659 168.044937,31.9655385 167.194786,30.9883911 C166.740191,30.4613237 165.836906,30.4613237 165.376407,30.9883911 Z M356.56068,30.9883911 C355.710528,31.9714606 348.236283,40.712488 348.236283,45.1777555 C348.236283,49.986505 352.38077,53.8950945 357.469869,53.8950945 C362.558968,53.8950945 366.703455,49.986505 366.703455,45.1777555 C366.703455,40.7065659 359.229209,31.9655385 358.379058,30.9883911 C357.924464,30.4613237 357.021178,30.4613237 356.56068,30.9883911 Z M8.32439639,148.708326 C7.47424526,149.691395 0,158.432423 0,162.89769 C0,167.70644 4.14448671,171.615029 9.23358578,171.615029 C14.3226848,171.615029 18.4671716,167.70644 18.4671716,162.89769 C18.4671716,158.426501 10.9929263,149.685473 10.1427752,148.708326 C9.68818047,148.181258 8.78489491,148.181258 8.32439639,148.708326 Z M196.786809,148.654124 C195.936658,149.637194 188.462413,158.378221 188.462413,162.843488 C188.462413,167.652238 192.6069,171.560827 197.695999,171.560827 C202.785098,171.560827 206.929585,167.652238 206.929585,162.843488 C206.929585,158.372299 199.455339,149.631271 198.605188,148.654124 C198.150594,148.127057 197.247308,148.127057 196.786809,148.654124 Z M71.1452007,148.654124 C70.2950496,149.637194 62.8208044,158.378221 62.8208044,162.843488 C62.8208044,167.652238 66.9652911,171.560827 72.0543901,171.560827 C77.1434892,171.560827 81.2879759,167.652238 81.2879759,162.843488 C81.2879759,158.372299 73.8137307,149.631271 72.9635795,148.654124 C72.5089848,148.127057 71.6056993,148.127057 71.1452007,148.654124 Z M259.607614,148.654124 C258.757463,149.637194 251.283217,158.378221 251.283217,162.843488 C251.283217,167.652238 255.427704,171.560827 260.516803,171.560827 C265.605902,171.560827 269.750389,167.652238 269.750389,162.843488 C269.750389,158.372299 262.276144,149.631271 261.425993,148.654124 C260.971398,148.127057 260.068112,148.127057 259.607614,148.654124 Z M133.966005,148.654124 C133.115854,149.637194 125.641609,158.378221 125.641609,162.843488 C125.641609,167.652238 129.786095,171.560827 134.875195,171.560827 C139.964294,171.560827 144.10878,167.652238 144.10878,162.843488 C144.10878,158.372299 136.634535,149.631271 135.784384,148.654124 C135.329789,148.127057 134.426504,148.127057 133.966005,148.654124 Z M322.428418,148.654124 C321.578267,149.637194 314.104022,158.378221 314.104022,162.843488 C314.104022,167.652238 318.248509,171.560827 323.337608,171.560827 C328.426707,171.560827 332.571193,167.652238 332.571193,162.843488 C332.571193,158.372299 325.096948,149.631271 324.246797,148.654124 C323.792202,148.127057 322.888917,148.127057 322.428418,148.654124 Z M39.7347986,148.708326 C38.8846474,149.691395 31.4104022,158.432423 31.4104022,162.89769 C31.4104022,167.70644 35.5548889,171.615029 40.643988,171.615029 C45.733087,171.615029 49.8775737,167.70644 49.8775737,162.89769 C49.8775737,158.426501 42.4033285,149.685473 41.5531774,148.708326 C41.0985827,148.181258 40.1952971,148.181258 39.7347986,148.708326 Z M228.197212,148.654124 C227.347061,149.637194 219.872815,158.378221 219.872815,162.843488 C219.872815,167.652238 224.017302,171.560827 229.106401,171.560827 C234.1955,171.560827 238.339987,167.652238 238.339987,162.843488 C238.339987,158.372299 230.865742,149.631271 230.01559,148.654124 C229.560996,148.127057 228.65771,148.127057 228.197212,148.654124 Z M102.555603,148.654124 C101.705452,149.637194 94.2312065,158.378221 94.2312065,162.843488 C94.2312065,167.652238 98.3756933,171.560827 103.464792,171.560827 C108.553891,171.560827 112.698378,167.652238 112.698378,162.843488 C112.698378,158.372299 105.224133,149.631271 104.373982,148.654124 C103.919387,148.127057 103.016101,148.127057 102.555603,148.654124 Z M291.018016,148.654124 C290.167865,149.637194 282.69362,158.378221 282.69362,162.843488 C282.69362,167.652238 286.838106,171.560827 291.927205,171.560827 C297.016304,171.560827 301.160791,167.652238 301.160791,162.843488 C301.160791,158.372299 293.686546,149.631271 292.836395,148.654124 C292.3818,148.127057 291.478515,148.127057 291.018016,148.654124 Z M165.376407,148.654124 C164.526256,149.637194 157.052011,158.378221 157.052011,162.843488 C157.052011,167.652238 161.196498,171.560827 166.285597,171.560827 C171.374696,171.560827 175.519182,167.652238 175.519182,162.843488 C175.519182,158.372299 168.044937,149.631271 167.194786,148.654124 C166.740191,148.127057 165.836906,148.127057 165.376407,148.654124 Z M356.56068,148.654124 C355.710528,149.637194 348.236283,158.378221 348.236283,162.843488 C348.236283,167.652238 352.38077,171.560827 357.469869,171.560827 C362.558968,171.560827 366.703455,167.652238 366.703455,162.843488 C366.703455,158.372299 359.229209,149.631271 358.379058,148.654124 C357.924464,148.127057 357.021178,148.127057 356.56068,148.654124 Z M8.32439639,91.0521166 C7.47424526,92.0351861 0,100.776214 0,105.241481 C0,110.050231 4.14448671,113.95882 9.23358578,113.95882 C14.3226848,113.95882 18.4671716,110.050231 18.4671716,105.241481 C18.4671716,100.770291 10.9929263,92.029264 10.1427752,91.0521166 C9.68818047,90.5250492 8.78489491,90.5250492 8.32439639,91.0521166 Z M196.786809,90.9979149 C195.936658,91.9809844 188.462413,100.722012 188.462413,105.187279 C188.462413,109.996029 192.6069,113.904618 197.695999,113.904618 C202.785098,113.904618 206.929585,109.996029 206.929585,105.187279 C206.929585,100.71609 199.455339,91.9750623 198.605188,90.9979149 C198.150594,90.4708475 197.247308,90.4708475 196.786809,90.9979149 Z M71.1452007,90.9979149 C70.2950496,91.9809844 62.8208044,100.722012 62.8208044,105.187279 C62.8208044,109.996029 66.9652911,113.904618 72.0543901,113.904618 C77.1434892,113.904618 81.2879759,109.996029 81.2879759,105.187279 C81.2879759,100.71609 73.8137307,91.9750623 72.9635795,90.9979149 C72.5089848,90.4708475 71.6056993,90.4708475 71.1452007,90.9979149 Z M259.607614,90.9979149 C258.757463,91.9809844 251.283217,100.722012 251.283217,105.187279 C251.283217,109.996029 255.427704,113.904618 260.516803,113.904618 C265.605902,113.904618 269.750389,109.996029 269.750389,105.187279 C269.750389,100.71609 262.276144,91.9750623 261.425993,90.9979149 C260.971398,90.4708475 260.068112,90.4708475 259.607614,90.9979149 Z M133.966005,90.9979149 C133.115854,91.9809844 125.641609,100.722012 125.641609,105.187279 C125.641609,109.996029 129.786095,113.904618 134.875195,113.904618 C139.964294,113.904618 144.10878,109.996029 144.10878,105.187279 C144.10878,100.71609 136.634535,91.9750623 135.784384,90.9979149 C135.329789,90.4708475 134.426504,90.4708475 133.966005,90.9979149 Z M322.428418,90.9979149 C321.578267,91.9809844 314.104022,100.722012 314.104022,105.187279 C314.104022,109.996029 318.248509,113.904618 323.337608,113.904618 C328.426707,113.904618 332.571193,109.996029 332.571193,105.187279 C332.571193,100.71609 325.096948,91.9750623 324.246797,90.9979149 C323.792202,90.4708475 322.888917,90.4708475 322.428418,90.9979149 Z M39.7347986,91.0521166 C38.8846474,92.0351861 31.4104022,100.776214 31.4104022,105.241481 C31.4104022,110.050231 35.5548889,113.95882 40.643988,113.95882 C45.733087,113.95882 49.8775737,110.050231 49.8775737,105.241481 C49.8775737,100.770291 42.4033285,92.029264 41.5531774,91.0521166 C41.0985827,90.5250492 40.1952971,90.5250492 39.7347986,91.0521166 Z M228.197212,90.9979149 C227.347061,91.9809844 219.872815,100.722012 219.872815,105.187279 C219.872815,109.996029 224.017302,113.904618 229.106401,113.904618 C234.1955,113.904618 238.339987,109.996029 238.339987,105.187279 C238.339987,100.71609 230.865742,91.9750623 230.01559,90.9979149 C229.560996,90.4708475 228.65771,90.4708475 228.197212,90.9979149 Z M102.555603,90.9979149 C101.705452,91.9809844 94.2312065,100.722012 94.2312065,105.187279 C94.2312065,109.996029 98.3756933,113.904618 103.464792,113.904618 C108.553891,113.904618 112.698378,109.996029 112.698378,105.187279 C112.698378,100.71609 105.224133,91.9750623 104.373982,90.9979149 C103.919387,90.4708475 103.016101,90.4708475 102.555603,90.9979149 Z M291.018016,90.9979149 C290.167865,91.9809844 282.69362,100.722012 282.69362,105.187279 C282.69362,109.996029 286.838106,113.904618 291.927205,113.904618 C297.016304,113.904618 301.160791,109.996029 301.160791,105.187279 C301.160791,100.71609 293.686546,91.9750623 292.836395,90.9979149 C292.3818,90.4708475 291.478515,90.4708475 291.018016,90.9979149 Z M165.376407,90.9979149 C164.526256,91.9809844 157.052011,100.722012 157.052011,105.187279 C157.052011,109.996029 161.196498,113.904618 166.285597,113.904618 C171.374696,113.904618 175.519182,109.996029 175.519182,105.187279 C175.519182,100.71609 168.044937,91.9750623 167.194786,90.9979149 C166.740191,90.4708475 165.836906,90.4708475 165.376407,90.9979149 Z M356.56068,90.9979149 C355.710528,91.9809844 348.236283,100.722012 348.236283,105.187279 C348.236283,109.996029 352.38077,113.904618 357.469869,113.904618 C362.558968,113.904618 366.703455,109.996029 366.703455,105.187279 C366.703455,100.71609 359.229209,91.9750623 358.379058,90.9979149 C357.924464,90.4708475 357.021178,90.4708475 356.56068,90.9979149 Z M8.32439639,208.71785 C7.47424526,209.700919 0,218.441947 0,222.907214 C0,227.715963 4.14448671,231.624553 9.23358578,231.624553 C14.3226848,231.624553 18.4671716,227.715963 18.4671716,222.907214 C18.4671716,218.436024 10.9929263,209.694997 10.1427752,208.71785 C9.68818047,208.190782 8.78489491,208.190782 8.32439639,208.71785 Z M196.786809,208.663648 C195.936658,209.646717 188.462413,218.387745 188.462413,222.853012 C188.462413,227.661762 192.6069,231.570351 197.695999,231.570351 C202.785098,231.570351 206.929585,227.661762 206.929585,222.853012 C206.929585,218.381823 199.455339,209.640795 198.605188,208.663648 C198.150594,208.136581 197.247308,208.136581 196.786809,208.663648 Z M71.1452007,208.663648 C70.2950496,209.646717 62.8208044,218.387745 62.8208044,222.853012 C62.8208044,227.661762 66.9652911,231.570351 72.0543901,231.570351 C77.1434892,231.570351 81.2879759,227.661762 81.2879759,222.853012 C81.2879759,218.381823 73.8137307,209.640795 72.9635795,208.663648 C72.5089848,208.136581 71.6056993,208.136581 71.1452007,208.663648 Z M259.607614,208.663648 C258.757463,209.646717 251.283217,218.387745 251.283217,222.853012 C251.283217,227.661762 255.427704,231.570351 260.516803,231.570351 C265.605902,231.570351 269.750389,227.661762 269.750389,222.853012 C269.750389,218.381823 262.276144,209.640795 261.425993,208.663648 C260.971398,208.136581 260.068112,208.136581 259.607614,208.663648 Z M133.966005,208.663648 C133.115854,209.646717 125.641609,218.387745 125.641609,222.853012 C125.641609,227.661762 129.786095,231.570351 134.875195,231.570351 C139.964294,231.570351 144.10878,227.661762 144.10878,222.853012 C144.10878,218.381823 136.634535,209.640795 135.784384,208.663648 C135.329789,208.136581 134.426504,208.136581 133.966005,208.663648 Z M322.428418,208.663648 C321.578267,209.646717 314.104022,218.387745 314.104022,222.853012 C314.104022,227.661762 318.248509,231.570351 323.337608,231.570351 C328.426707,231.570351 332.571193,227.661762 332.571193,222.853012 C332.571193,218.381823 325.096948,209.640795 324.246797,208.663648 C323.792202,208.136581 322.888917,208.136581 322.428418,208.663648 Z M39.7347986,208.71785 C38.8846474,209.700919 31.4104022,218.441947 31.4104022,222.907214 C31.4104022,227.715963 35.5548889,231.624553 40.643988,231.624553 C45.733087,231.624553 49.8775737,227.715963 49.8775737,222.907214 C49.8775737,218.436024 42.4033285,209.694997 41.5531774,208.71785 C41.0985827,208.190782 40.1952971,208.190782 39.7347986,208.71785 Z M228.197212,208.663648 C227.347061,209.646717 219.872815,218.387745 219.872815,222.853012 C219.872815,227.661762 224.017302,231.570351 229.106401,231.570351 C234.1955,231.570351 238.339987,227.661762 238.339987,222.853012 C238.339987,218.381823 230.865742,209.640795 230.01559,208.663648 C229.560996,208.136581 228.65771,208.136581 228.197212,208.663648 Z M102.555603,208.663648 C101.705452,209.646717 94.2312065,218.387745 94.2312065,222.853012 C94.2312065,227.661762 98.3756933,231.570351 103.464792,231.570351 C108.553891,231.570351 112.698378,227.661762 112.698378,222.853012 C112.698378,218.381823 105.224133,209.640795 104.373982,208.663648 C103.919387,208.136581 103.016101,208.136581 102.555603,208.663648 Z M291.018016,208.663648 C290.167865,209.646717 282.69362,218.387745 282.69362,222.853012 C282.69362,227.661762 286.838106,231.570351 291.927205,231.570351 C297.016304,231.570351 301.160791,227.661762 301.160791,222.853012 C301.160791,218.381823 293.686546,209.640795 292.836395,208.663648 C292.3818,208.136581 291.478515,208.136581 291.018016,208.663648 Z M165.376407,208.663648 C164.526256,209.646717 157.052011,218.387745 157.052011,222.853012 C157.052011,227.661762 161.196498,231.570351 166.285597,231.570351 C171.374696,231.570351 175.519182,227.661762 175.519182,222.853012 C175.519182,218.381823 168.044937,209.640795 167.194786,208.663648 C166.740191,208.136581 165.836906,208.136581 165.376407,208.663648 Z M356.56068,208.663648 C355.710528,209.646717 348.236283,218.387745 348.236283,222.853012 C348.236283,227.661762 352.38077,231.570351 357.469869,231.570351 C362.558968,231.570351 366.703455,227.661762 366.703455,222.853012 C366.703455,218.381823 359.229209,209.640795 358.379058,208.663648 C357.924464,208.136581 357.021178,208.136581 356.56068,208.663648 Z M23.6209417,235.780968 C22.7707906,236.764038 15.2965453,245.505065 15.2965453,249.970333 C15.2965453,254.779082 19.441032,258.687672 24.5301311,258.687672 C29.6192301,258.687672 33.7637168,254.779082 33.7637168,249.970333 C33.7637168,245.499143 26.2894716,236.758116 25.4393205,235.780968 C24.9847258,235.253901 24.0814402,235.253901 23.6209417,235.780968 Z M212.083355,235.726766 C211.233204,236.709836 203.758958,245.450863 203.758958,249.916131 C203.758958,254.72488 207.903445,258.63347 212.992544,258.63347 C218.081643,258.63347 222.22613,254.72488 222.22613,249.916131 C222.22613,245.444941 214.751885,236.703914 213.901734,235.726766 C213.447139,235.199699 212.543853,235.199699 212.083355,235.726766 Z M86.441746,235.726766 C85.5915949,236.709836 78.1173496,245.450863 78.1173496,249.916131 C78.1173496,254.72488 82.2618364,258.63347 87.3509354,258.63347 C92.4400345,258.63347 96.5845212,254.72488 96.5845212,249.916131 C96.5845212,245.444941 89.1102759,236.703914 88.2601248,235.726766 C87.8055301,235.199699 86.9022446,235.199699 86.441746,235.726766 Z M274.904159,235.726766 C274.054008,236.709836 266.579763,245.450863 266.579763,249.916131 C266.579763,254.72488 270.724249,258.63347 275.813349,258.63347 C280.902448,258.63347 285.046934,254.72488 285.046934,249.916131 C285.046934,245.444941 277.572689,236.703914 276.722538,235.726766 C276.267943,235.199699 275.364658,235.199699 274.904159,235.726766 Z M149.26255,235.726766 C148.412399,236.709836 140.938154,245.450863 140.938154,249.916131 C140.938154,254.72488 145.082641,258.63347 150.17174,258.63347 C155.260839,258.63347 159.405326,254.72488 159.405326,249.916131 C159.405326,245.444941 151.93108,236.703914 151.080929,235.726766 C150.626334,235.199699 149.723049,235.199699 149.26255,235.726766 Z M337.724963,235.726766 C336.874812,236.709836 329.400567,245.450863 329.400567,249.916131 C329.400567,254.72488 333.545054,258.63347 338.634153,258.63347 C343.723252,258.63347 347.867739,254.72488 347.867739,249.916131 C347.867739,245.444941 340.393493,236.703914 339.543342,235.726766 C339.088748,235.199699 338.185462,235.199699 337.724963,235.726766 Z M55.0313439,235.780968 C54.1811927,236.764038 46.7069475,245.505065 46.7069475,249.970333 C46.7069475,254.779082 50.8514342,258.687672 55.9405332,258.687672 C61.0296323,258.687672 65.174119,254.779082 65.174119,249.970333 C65.174119,245.499143 57.6998738,236.758116 56.8497226,235.780968 C56.3951279,235.253901 55.4918424,235.253901 55.0313439,235.780968 Z M243.493757,235.726766 C242.643606,236.709836 235.169361,245.450863 235.169361,249.916131 C235.169361,254.72488 239.313847,258.63347 244.402946,258.63347 C249.492045,258.63347 253.636532,254.72488 253.636532,249.916131 C253.636532,245.444941 246.162287,236.703914 245.312136,235.726766 C244.857541,235.199699 243.954255,235.199699 243.493757,235.726766 Z M117.852148,235.726766 C117.001997,236.709836 109.527752,245.450863 109.527752,249.916131 C109.527752,254.72488 113.672239,258.63347 118.761338,258.63347 C123.850437,258.63347 127.994923,254.72488 127.994923,249.916131 C127.994923,245.444941 120.520678,236.703914 119.670527,235.726766 C119.215932,235.199699 118.312647,235.199699 117.852148,235.726766 Z M306.314561,235.726766 C305.46441,236.709836 297.990165,245.450863 297.990165,249.916131 C297.990165,254.72488 302.134652,258.63347 307.223751,258.63347 C312.31285,258.63347 316.457336,254.72488 316.457336,249.916131 C316.457336,245.444941 308.983091,236.703914 308.13294,235.726766 C307.678345,235.199699 306.77506,235.199699 306.314561,235.726766 Z M180.672953,235.726766 C179.822801,236.709836 172.348556,245.450863 172.348556,249.916131 C172.348556,254.72488 176.493043,258.63347 181.582142,258.63347 C186.671241,258.63347 190.815728,254.72488 190.815728,249.916131 C190.815728,245.444941 183.341482,236.703914 182.491331,235.726766 C182.036737,235.199699 181.133451,235.199699 180.672953,235.726766 Z M371.857225,235.726766 C371.007074,236.709836 363.532828,245.450863 363.532828,249.916131 C363.532828,254.72488 367.677315,258.63347 372.766414,258.63347 C377.855513,258.63347 382,254.72488 382,249.916131 C382,245.444941 374.525755,236.703914 373.675604,235.726766 C373.221009,235.199699 372.317723,235.199699 371.857225,235.726766 Z M23.6209417,353.446701 C22.7707906,354.429771 15.2965453,363.170798 15.2965453,367.636065 C15.2965453,372.444815 19.441032,376.353405 24.5301311,376.353405 C29.6192301,376.353405 33.7637168,372.444815 33.7637168,367.636065 C33.7637168,363.164876 26.2894716,354.423849 25.4393205,353.446701 C24.9847258,352.919634 24.0814402,352.919634 23.6209417,353.446701 Z M212.083355,353.392499 C211.233204,354.375569 203.758958,363.116596 203.758958,367.581864 C203.758958,372.390613 207.903445,376.299203 212.992544,376.299203 C218.081643,376.299203 222.22613,372.390613 222.22613,367.581864 C222.22613,363.110674 214.751885,354.369647 213.901734,353.392499 C213.447139,352.865432 212.543853,352.865432 212.083355,353.392499 Z M86.441746,353.392499 C85.5915949,354.375569 78.1173496,363.116596 78.1173496,367.581864 C78.1173496,372.390613 82.2618364,376.299203 87.3509354,376.299203 C92.4400345,376.299203 96.5845212,372.390613 96.5845212,367.581864 C96.5845212,363.110674 89.1102759,354.369647 88.2601248,353.392499 C87.8055301,352.865432 86.9022446,352.865432 86.441746,353.392499 Z M274.904159,353.392499 C274.054008,354.375569 266.579763,363.116596 266.579763,367.581864 C266.579763,372.390613 270.724249,376.299203 275.813349,376.299203 C280.902448,376.299203 285.046934,372.390613 285.046934,367.581864 C285.046934,363.110674 277.572689,354.369647 276.722538,353.392499 C276.267943,352.865432 275.364658,352.865432 274.904159,353.392499 Z M149.26255,353.392499 C148.412399,354.375569 140.938154,363.116596 140.938154,367.581864 C140.938154,372.390613 145.082641,376.299203 150.17174,376.299203 C155.260839,376.299203 159.405326,372.390613 159.405326,367.581864 C159.405326,363.110674 151.93108,354.369647 151.080929,353.392499 C150.626334,352.865432 149.723049,352.865432 149.26255,353.392499 Z M337.724963,353.392499 C336.874812,354.375569 329.400567,363.116596 329.400567,367.581864 C329.400567,372.390613 333.545054,376.299203 338.634153,376.299203 C343.723252,376.299203 347.867739,372.390613 347.867739,367.581864 C347.867739,363.110674 340.393493,354.369647 339.543342,353.392499 C339.088748,352.865432 338.185462,352.865432 337.724963,353.392499 Z M55.0313439,353.446701 C54.1811927,354.429771 46.7069475,363.170798 46.7069475,367.636065 C46.7069475,372.444815 50.8514342,376.353405 55.9405332,376.353405 C61.0296323,376.353405 65.174119,372.444815 65.174119,367.636065 C65.174119,363.164876 57.6998738,354.423849 56.8497226,353.446701 C56.3951279,352.919634 55.4918424,352.919634 55.0313439,353.446701 Z M243.493757,353.392499 C242.643606,354.375569 235.169361,363.116596 235.169361,367.581864 C235.169361,372.390613 239.313847,376.299203 244.402946,376.299203 C249.492045,376.299203 253.636532,372.390613 253.636532,367.581864 C253.636532,363.110674 246.162287,354.369647 245.312136,353.392499 C244.857541,352.865432 243.954255,352.865432 243.493757,353.392499 Z M117.852148,353.392499 C117.001997,354.375569 109.527752,363.116596 109.527752,367.581864 C109.527752,372.390613 113.672239,376.299203 118.761338,376.299203 C123.850437,376.299203 127.994923,372.390613 127.994923,367.581864 C127.994923,363.110674 120.520678,354.369647 119.670527,353.392499 C119.215932,352.865432 118.312647,352.865432 117.852148,353.392499 Z M306.314561,353.392499 C305.46441,354.375569 297.990165,363.116596 297.990165,367.581864 C297.990165,372.390613 302.134652,376.299203 307.223751,376.299203 C312.31285,376.299203 316.457336,372.390613 316.457336,367.581864 C316.457336,363.110674 308.983091,354.369647 308.13294,353.392499 C307.678345,352.865432 306.77506,352.865432 306.314561,353.392499 Z M180.672953,353.392499 C179.822801,354.375569 172.348556,363.116596 172.348556,367.581864 C172.348556,372.390613 176.493043,376.299203 181.582142,376.299203 C186.671241,376.299203 190.815728,372.390613 190.815728,367.581864 C190.815728,363.110674 183.341482,354.369647 182.491331,353.392499 C182.036737,352.865432 181.133451,352.865432 180.672953,353.392499 Z M371.857225,353.392499 C371.007074,354.375569 363.532828,363.116596 363.532828,367.581864 C363.532828,372.390613 367.677315,376.299203 372.766414,376.299203 C377.855513,376.299203 382,372.390613 382,367.581864 C382,363.110674 374.525755,354.369647 373.675604,353.392499 C373.221009,352.865432 372.317723,352.865432 371.857225,353.392499 Z M23.6209417,295.790492 C22.7707906,296.773561 15.2965453,305.514589 15.2965453,309.979856 C15.2965453,314.788606 19.441032,318.697195 24.5301311,318.697195 C29.6192301,318.697195 33.7637168,314.788606 33.7637168,309.979856 C33.7637168,305.508667 26.2894716,296.767639 25.4393205,295.790492 C24.9847258,295.263425 24.0814402,295.263425 23.6209417,295.790492 Z M212.083355,295.73629 C211.233204,296.71936 203.758958,305.460387 203.758958,309.925655 C203.758958,314.734404 207.903445,318.642994 212.992544,318.642994 C218.081643,318.642994 222.22613,314.734404 222.22613,309.925655 C222.22613,305.454465 214.751885,296.713438 213.901734,295.73629 C213.447139,295.209223 212.543853,295.209223 212.083355,295.73629 Z M86.441746,295.73629 C85.5915949,296.71936 78.1173496,305.460387 78.1173496,309.925655 C78.1173496,314.734404 82.2618364,318.642994 87.3509354,318.642994 C92.4400345,318.642994 96.5845212,314.734404 96.5845212,309.925655 C96.5845212,305.454465 89.1102759,296.713438 88.2601248,295.73629 C87.8055301,295.209223 86.9022446,295.209223 86.441746,295.73629 Z M274.904159,295.73629 C274.054008,296.71936 266.579763,305.460387 266.579763,309.925655 C266.579763,314.734404 270.724249,318.642994 275.813349,318.642994 C280.902448,318.642994 285.046934,314.734404 285.046934,309.925655 C285.046934,305.454465 277.572689,296.713438 276.722538,295.73629 C276.267943,295.209223 275.364658,295.209223 274.904159,295.73629 Z M149.26255,295.73629 C148.412399,296.71936 140.938154,305.460387 140.938154,309.925655 C140.938154,314.734404 145.082641,318.642994 150.17174,318.642994 C155.260839,318.642994 159.405326,314.734404 159.405326,309.925655 C159.405326,305.454465 151.93108,296.713438 151.080929,295.73629 C150.626334,295.209223 149.723049,295.209223 149.26255,295.73629 Z M337.724963,295.73629 C336.874812,296.71936 329.400567,305.460387 329.400567,309.925655 C329.400567,314.734404 333.545054,318.642994 338.634153,318.642994 C343.723252,318.642994 347.867739,314.734404 347.867739,309.925655 C347.867739,305.454465 340.393493,296.713438 339.543342,295.73629 C339.088748,295.209223 338.185462,295.209223 337.724963,295.73629 Z M55.0313439,295.790492 C54.1811927,296.773561 46.7069475,305.514589 46.7069475,309.979856 C46.7069475,314.788606 50.8514342,318.697195 55.9405332,318.697195 C61.0296323,318.697195 65.174119,314.788606 65.174119,309.979856 C65.174119,305.508667 57.6998738,296.767639 56.8497226,295.790492 C56.3951279,295.263425 55.4918424,295.263425 55.0313439,295.790492 Z M243.493757,295.73629 C242.643606,296.71936 235.169361,305.460387 235.169361,309.925655 C235.169361,314.734404 239.313847,318.642994 244.402946,318.642994 C249.492045,318.642994 253.636532,314.734404 253.636532,309.925655 C253.636532,305.454465 246.162287,296.713438 245.312136,295.73629 C244.857541,295.209223 243.954255,295.209223 243.493757,295.73629 Z M117.852148,295.73629 C117.001997,296.71936 109.527752,305.460387 109.527752,309.925655 C109.527752,314.734404 113.672239,318.642994 118.761338,318.642994 C123.850437,318.642994 127.994923,314.734404 127.994923,309.925655 C127.994923,305.454465 120.520678,296.713438 119.670527,295.73629 C119.215932,295.209223 118.312647,295.209223 117.852148,295.73629 Z M306.314561,295.73629 C305.46441,296.71936 297.990165,305.460387 297.990165,309.925655 C297.990165,314.734404 302.134652,318.642994 307.223751,318.642994 C312.31285,318.642994 316.457336,314.734404 316.457336,309.925655 C316.457336,305.454465 308.983091,296.713438 308.13294,295.73629 C307.678345,295.209223 306.77506,295.209223 306.314561,295.73629 Z M180.672953,295.73629 C179.822801,296.71936 172.348556,305.460387 172.348556,309.925655 C172.348556,314.734404 176.493043,318.642994 181.582142,318.642994 C186.671241,318.642994 190.815728,314.734404 190.815728,309.925655 C190.815728,305.454465 183.341482,296.713438 182.491331,295.73629 C182.036737,295.209223 181.133451,295.209223 180.672953,295.73629 Z M371.857225,295.73629 C371.007074,296.71936 363.532828,305.460387 363.532828,309.925655 C363.532828,314.734404 367.677315,318.642994 372.766414,318.642994 C377.855513,318.642994 382,314.734404 382,309.925655 C382,305.454465 374.525755,296.713438 373.675604,295.73629 C373.221009,295.209223 372.317723,295.209223 371.857225,295.73629 Z M23.6209417,413.456225 C22.7707906,414.439294 15.2965453,423.180322 15.2965453,427.645589 C15.2965453,432.454339 19.441032,436.362928 24.5301311,436.362928 C29.6192301,436.362928 33.7637168,432.454339 33.7637168,427.645589 C33.7637168,423.1744 26.2894716,414.433372 25.4393205,413.456225 C24.9847258,412.929158 24.0814402,412.929158 23.6209417,413.456225 Z M212.083355,413.402023 C211.233204,414.385093 203.758958,423.12612 203.758958,427.591388 C203.758958,432.400137 207.903445,436.308727 212.992544,436.308727 C218.081643,436.308727 222.22613,432.400137 222.22613,427.591388 C222.22613,423.120198 214.751885,414.379171 213.901734,413.402023 C213.447139,412.874956 212.543853,412.874956 212.083355,413.402023 Z M86.441746,413.402023 C85.5915949,414.385093 78.1173496,423.12612 78.1173496,427.591388 C78.1173496,432.400137 82.2618364,436.308727 87.3509354,436.308727 C92.4400345,436.308727 96.5845212,432.400137 96.5845212,427.591388 C96.5845212,423.120198 89.1102759,414.379171 88.2601248,413.402023 C87.8055301,412.874956 86.9022446,412.874956 86.441746,413.402023 Z M274.904159,413.402023 C274.054008,414.385093 266.579763,423.12612 266.579763,427.591388 C266.579763,432.400137 270.724249,436.308727 275.813349,436.308727 C280.902448,436.308727 285.046934,432.400137 285.046934,427.591388 C285.046934,423.120198 277.572689,414.379171 276.722538,413.402023 C276.267943,412.874956 275.364658,412.874956 274.904159,413.402023 Z M149.26255,413.402023 C148.412399,414.385093 140.938154,423.12612 140.938154,427.591388 C140.938154,432.400137 145.082641,436.308727 150.17174,436.308727 C155.260839,436.308727 159.405326,432.400137 159.405326,427.591388 C159.405326,423.120198 151.93108,414.379171 151.080929,413.402023 C150.626334,412.874956 149.723049,412.874956 149.26255,413.402023 Z M337.724963,413.402023 C336.874812,414.385093 329.400567,423.12612 329.400567,427.591388 C329.400567,432.400137 333.545054,436.308727 338.634153,436.308727 C343.723252,436.308727 347.867739,432.400137 347.867739,427.591388 C347.867739,423.120198 340.393493,414.379171 339.543342,413.402023 C339.088748,412.874956 338.185462,412.874956 337.724963,413.402023 Z M55.0313439,413.456225 C54.1811927,414.439294 46.7069475,423.180322 46.7069475,427.645589 C46.7069475,432.454339 50.8514342,436.362928 55.9405332,436.362928 C61.0296323,436.362928 65.174119,432.454339 65.174119,427.645589 C65.174119,423.1744 57.6998738,414.433372 56.8497226,413.456225 C56.3951279,412.929158 55.4918424,412.929158 55.0313439,413.456225 Z M243.493757,413.402023 C242.643606,414.385093 235.169361,423.12612 235.169361,427.591388 C235.169361,432.400137 239.313847,436.308727 244.402946,436.308727 C249.492045,436.308727 253.636532,432.400137 253.636532,427.591388 C253.636532,423.120198 246.162287,414.379171 245.312136,413.402023 C244.857541,412.874956 243.954255,412.874956 243.493757,413.402023 Z M117.852148,413.402023 C117.001997,414.385093 109.527752,423.12612 109.527752,427.591388 C109.527752,432.400137 113.672239,436.308727 118.761338,436.308727 C123.850437,436.308727 127.994923,432.400137 127.994923,427.591388 C127.994923,423.120198 120.520678,414.379171 119.670527,413.402023 C119.215932,412.874956 118.312647,412.874956 117.852148,413.402023 Z M306.314561,413.402023 C305.46441,414.385093 297.990165,423.12612 297.990165,427.591388 C297.990165,432.400137 302.134652,436.308727 307.223751,436.308727 C312.31285,436.308727 316.457336,432.400137 316.457336,427.591388 C316.457336,423.120198 308.983091,414.379171 308.13294,413.402023 C307.678345,412.874956 306.77506,412.874956 306.314561,413.402023 Z M180.672953,413.402023 C179.822801,414.385093 172.348556,423.12612 172.348556,427.591388 C172.348556,432.400137 176.493043,436.308727 181.582142,436.308727 C186.671241,436.308727 190.815728,432.400137 190.815728,427.591388 C190.815728,423.120198 183.341482,414.379171 182.491331,413.402023 C182.036737,412.874956 181.133451,412.874956 180.672953,413.402023 Z M371.857225,413.402023 C371.007074,414.385093 363.532828,423.12612 363.532828,427.591388 C363.532828,432.400137 367.677315,436.308727 372.766414,436.308727 C377.855513,436.308727 382,432.400137 382,427.591388 C382,423.120198 374.525755,414.379171 373.675604,413.402023 C373.221009,412.874956 372.317723,412.874956 371.857225,413.402023 Z M8.32439639,266.374059 C7.47424526,267.357128 0,276.098156 0,280.563423 C0,285.372173 4.14448671,289.280762 9.23358578,289.280762 C14.3226848,289.280762 18.4671716,285.372173 18.4671716,280.563423 C18.4671716,276.092234 10.9929263,267.351206 10.1427752,266.374059 C9.68818047,265.846991 8.78489491,265.846991 8.32439639,266.374059 Z M196.786809,266.319857 C195.936658,267.302927 188.462413,276.043954 188.462413,280.509221 C188.462413,285.317971 192.6069,289.22656 197.695999,289.22656 C202.785098,289.22656 206.929585,285.317971 206.929585,280.509221 C206.929585,276.038032 199.455339,267.297004 198.605188,266.319857 C198.150594,265.79279 197.247308,265.79279 196.786809,266.319857 Z M71.1452007,266.319857 C70.2950496,267.302927 62.8208044,276.043954 62.8208044,280.509221 C62.8208044,285.317971 66.9652911,289.22656 72.0543901,289.22656 C77.1434892,289.22656 81.2879759,285.317971 81.2879759,280.509221 C81.2879759,276.038032 73.8137307,267.297004 72.9635795,266.319857 C72.5089848,265.79279 71.6056993,265.79279 71.1452007,266.319857 Z M259.607614,266.319857 C258.757463,267.302927 251.283217,276.043954 251.283217,280.509221 C251.283217,285.317971 255.427704,289.22656 260.516803,289.22656 C265.605902,289.22656 269.750389,285.317971 269.750389,280.509221 C269.750389,276.038032 262.276144,267.297004 261.425993,266.319857 C260.971398,265.79279 260.068112,265.79279 259.607614,266.319857 Z M133.966005,266.319857 C133.115854,267.302927 125.641609,276.043954 125.641609,280.509221 C125.641609,285.317971 129.786095,289.22656 134.875195,289.22656 C139.964294,289.22656 144.10878,285.317971 144.10878,280.509221 C144.10878,276.038032 136.634535,267.297004 135.784384,266.319857 C135.329789,265.79279 134.426504,265.79279 133.966005,266.319857 Z M322.428418,266.319857 C321.578267,267.302927 314.104022,276.043954 314.104022,280.509221 C314.104022,285.317971 318.248509,289.22656 323.337608,289.22656 C328.426707,289.22656 332.571193,285.317971 332.571193,280.509221 C332.571193,276.038032 325.096948,267.297004 324.246797,266.319857 C323.792202,265.79279 322.888917,265.79279 322.428418,266.319857 Z M39.7347986,266.374059 C38.8846474,267.357128 31.4104022,276.098156 31.4104022,280.563423 C31.4104022,285.372173 35.5548889,289.280762 40.643988,289.280762 C45.733087,289.280762 49.8775737,285.372173 49.8775737,280.563423 C49.8775737,276.092234 42.4033285,267.351206 41.5531774,266.374059 C41.0985827,265.846991 40.1952971,265.846991 39.7347986,266.374059 Z M228.197212,266.319857 C227.347061,267.302927 219.872815,276.043954 219.872815,280.509221 C219.872815,285.317971 224.017302,289.22656 229.106401,289.22656 C234.1955,289.22656 238.339987,285.317971 238.339987,280.509221 C238.339987,276.038032 230.865742,267.297004 230.01559,266.319857 C229.560996,265.79279 228.65771,265.79279 228.197212,266.319857 Z M102.555603,266.319857 C101.705452,267.302927 94.2312065,276.043954 94.2312065,280.509221 C94.2312065,285.317971 98.3756933,289.22656 103.464792,289.22656 C108.553891,289.22656 112.698378,285.317971 112.698378,280.509221 C112.698378,276.038032 105.224133,267.297004 104.373982,266.319857 C103.919387,265.79279 103.016101,265.79279 102.555603,266.319857 Z M291.018016,266.319857 C290.167865,267.302927 282.69362,276.043954 282.69362,280.509221 C282.69362,285.317971 286.838106,289.22656 291.927205,289.22656 C297.016304,289.22656 301.160791,285.317971 301.160791,280.509221 C301.160791,276.038032 293.686546,267.297004 292.836395,266.319857 C292.3818,265.79279 291.478515,265.79279 291.018016,266.319857 Z M165.376407,266.319857 C164.526256,267.302927 157.052011,276.043954 157.052011,280.509221 C157.052011,285.317971 161.196498,289.22656 166.285597,289.22656 C171.374696,289.22656 175.519182,285.317971 175.519182,280.509221 C175.519182,276.038032 168.044937,267.297004 167.194786,266.319857 C166.740191,265.79279 165.836906,265.79279 165.376407,266.319857 Z M356.56068,266.319857 C355.710528,267.302927 348.236283,276.043954 348.236283,280.509221 C348.236283,285.317971 352.38077,289.22656 357.469869,289.22656 C362.558968,289.22656 366.703455,285.317971 366.703455,280.509221 C366.703455,276.038032 359.229209,267.297004 358.379058,266.319857 C357.924464,265.79279 357.021178,265.79279 356.56068,266.319857 Z M8.32439639,384.039792 C7.47424526,385.022861 0,393.763889 0,398.229156 C0,403.037906 4.14448671,406.946495 9.23358578,406.946495 C14.3226848,406.946495 18.4671716,403.037906 18.4671716,398.229156 C18.4671716,393.757967 10.9929263,385.016939 10.1427752,384.039792 C9.68818047,383.512724 8.78489491,383.512724 8.32439639,384.039792 Z M196.786809,383.98559 C195.936658,384.968659 188.462413,393.709687 188.462413,398.174954 C188.462413,402.983704 192.6069,406.892293 197.695999,406.892293 C202.785098,406.892293 206.929585,402.983704 206.929585,398.174954 C206.929585,393.703765 199.455339,384.962737 198.605188,383.98559 C198.150594,383.458523 197.247308,383.458523 196.786809,383.98559 Z M71.1452007,383.98559 C70.2950496,384.968659 62.8208044,393.709687 62.8208044,398.174954 C62.8208044,402.983704 66.9652911,406.892293 72.0543901,406.892293 C77.1434892,406.892293 81.2879759,402.983704 81.2879759,398.174954 C81.2879759,393.703765 73.8137307,384.962737 72.9635795,383.98559 C72.5089848,383.458523 71.6056993,383.458523 71.1452007,383.98559 Z M259.607614,383.98559 C258.757463,384.968659 251.283217,393.709687 251.283217,398.174954 C251.283217,402.983704 255.427704,406.892293 260.516803,406.892293 C265.605902,406.892293 269.750389,402.983704 269.750389,398.174954 C269.750389,393.703765 262.276144,384.962737 261.425993,383.98559 C260.971398,383.458523 260.068112,383.458523 259.607614,383.98559 Z M133.966005,383.98559 C133.115854,384.968659 125.641609,393.709687 125.641609,398.174954 C125.641609,402.983704 129.786095,406.892293 134.875195,406.892293 C139.964294,406.892293 144.10878,402.983704 144.10878,398.174954 C144.10878,393.703765 136.634535,384.962737 135.784384,383.98559 C135.329789,383.458523 134.426504,383.458523 133.966005,383.98559 Z M322.428418,383.98559 C321.578267,384.968659 314.104022,393.709687 314.104022,398.174954 C314.104022,402.983704 318.248509,406.892293 323.337608,406.892293 C328.426707,406.892293 332.571193,402.983704 332.571193,398.174954 C332.571193,393.703765 325.096948,384.962737 324.246797,383.98559 C323.792202,383.458523 322.888917,383.458523 322.428418,383.98559 Z M39.7347986,384.039792 C38.8846474,385.022861 31.4104022,393.763889 31.4104022,398.229156 C31.4104022,403.037906 35.5548889,406.946495 40.643988,406.946495 C45.733087,406.946495 49.8775737,403.037906 49.8775737,398.229156 C49.8775737,393.757967 42.4033285,385.016939 41.5531774,384.039792 C41.0985827,383.512724 40.1952971,383.512724 39.7347986,384.039792 Z M228.197212,383.98559 C227.347061,384.968659 219.872815,393.709687 219.872815,398.174954 C219.872815,402.983704 224.017302,406.892293 229.106401,406.892293 C234.1955,406.892293 238.339987,402.983704 238.339987,398.174954 C238.339987,393.703765 230.865742,384.962737 230.01559,383.98559 C229.560996,383.458523 228.65771,383.458523 228.197212,383.98559 Z M102.555603,383.98559 C101.705452,384.968659 94.2312065,393.709687 94.2312065,398.174954 C94.2312065,402.983704 98.3756933,406.892293 103.464792,406.892293 C108.553891,406.892293 112.698378,402.983704 112.698378,398.174954 C112.698378,393.703765 105.224133,384.962737 104.373982,383.98559 C103.919387,383.458523 103.016101,383.458523 102.555603,383.98559 Z M291.018016,383.98559 C290.167865,384.968659 282.69362,393.709687 282.69362,398.174954 C282.69362,402.983704 286.838106,406.892293 291.927205,406.892293 C297.016304,406.892293 301.160791,402.983704 301.160791,398.174954 C301.160791,393.703765 293.686546,384.962737 292.836395,383.98559 C292.3818,383.458523 291.478515,383.458523 291.018016,383.98559 Z M165.376407,383.98559 C164.526256,384.968659 157.052011,393.709687 157.052011,398.174954 C157.052011,402.983704 161.196498,406.892293 166.285597,406.892293 C171.374696,406.892293 175.519182,402.983704 175.519182,398.174954 C175.519182,393.703765 168.044937,384.962737 167.194786,383.98559 C166.740191,383.458523 165.836906,383.458523 165.376407,383.98559 Z M356.56068,383.98559 C355.710528,384.968659 348.236283,393.709687 348.236283,398.174954 C348.236283,402.983704 352.38077,406.892293 357.469869,406.892293 C362.558968,406.892293 366.703455,402.983704 366.703455,398.174954 C366.703455,393.703765 359.229209,384.962737 358.379058,383.98559 C357.924464,383.458523 357.021178,383.458523 356.56068,383.98559 Z M8.32439639,326.383583 C7.47424526,327.366652 0,336.107679 0,340.572947 C0,345.381696 4.14448671,349.290286 9.23358578,349.290286 C14.3226848,349.290286 18.4671716,345.381696 18.4671716,340.572947 C18.4671716,336.101757 10.9929263,327.36073 10.1427752,326.383583 C9.68818047,325.856515 8.78489491,325.856515 8.32439639,326.383583 Z M196.786809,326.329381 C195.936658,327.31245 188.462413,336.053478 188.462413,340.518745 C188.462413,345.327495 192.6069,349.236084 197.695999,349.236084 C202.785098,349.236084 206.929585,345.327495 206.929585,340.518745 C206.929585,336.047556 199.455339,327.306528 198.605188,326.329381 C198.150594,325.802313 197.247308,325.802313 196.786809,326.329381 Z M71.1452007,326.329381 C70.2950496,327.31245 62.8208044,336.053478 62.8208044,340.518745 C62.8208044,345.327495 66.9652911,349.236084 72.0543901,349.236084 C77.1434892,349.236084 81.2879759,345.327495 81.2879759,340.518745 C81.2879759,336.047556 73.8137307,327.306528 72.9635795,326.329381 C72.5089848,325.802313 71.6056993,325.802313 71.1452007,326.329381 Z M259.607614,326.329381 C258.757463,327.31245 251.283217,336.053478 251.283217,340.518745 C251.283217,345.327495 255.427704,349.236084 260.516803,349.236084 C265.605902,349.236084 269.750389,345.327495 269.750389,340.518745 C269.750389,336.047556 262.276144,327.306528 261.425993,326.329381 C260.971398,325.802313 260.068112,325.802313 259.607614,326.329381 Z M133.966005,326.329381 C133.115854,327.31245 125.641609,336.053478 125.641609,340.518745 C125.641609,345.327495 129.786095,349.236084 134.875195,349.236084 C139.964294,349.236084 144.10878,345.327495 144.10878,340.518745 C144.10878,336.047556 136.634535,327.306528 135.784384,326.329381 C135.329789,325.802313 134.426504,325.802313 133.966005,326.329381 Z M322.428418,326.329381 C321.578267,327.31245 314.104022,336.053478 314.104022,340.518745 C314.104022,345.327495 318.248509,349.236084 323.337608,349.236084 C328.426707,349.236084 332.571193,345.327495 332.571193,340.518745 C332.571193,336.047556 325.096948,327.306528 324.246797,326.329381 C323.792202,325.802313 322.888917,325.802313 322.428418,326.329381 Z M39.7347986,326.383583 C38.8846474,327.366652 31.4104022,336.107679 31.4104022,340.572947 C31.4104022,345.381696 35.5548889,349.290286 40.643988,349.290286 C45.733087,349.290286 49.8775737,345.381696 49.8775737,340.572947 C49.8775737,336.101757 42.4033285,327.36073 41.5531774,326.383583 C41.0985827,325.856515 40.1952971,325.856515 39.7347986,326.383583 Z M228.197212,326.329381 C227.347061,327.31245 219.872815,336.053478 219.872815,340.518745 C219.872815,345.327495 224.017302,349.236084 229.106401,349.236084 C234.1955,349.236084 238.339987,345.327495 238.339987,340.518745 C238.339987,336.047556 230.865742,327.306528 230.01559,326.329381 C229.560996,325.802313 228.65771,325.802313 228.197212,326.329381 Z M102.555603,326.329381 C101.705452,327.31245 94.2312065,336.053478 94.2312065,340.518745 C94.2312065,345.327495 98.3756933,349.236084 103.464792,349.236084 C108.553891,349.236084 112.698378,345.327495 112.698378,340.518745 C112.698378,336.047556 105.224133,327.306528 104.373982,326.329381 C103.919387,325.802313 103.016101,325.802313 102.555603,326.329381 Z M291.018016,326.329381 C290.167865,327.31245 282.69362,336.053478 282.69362,340.518745 C282.69362,345.327495 286.838106,349.236084 291.927205,349.236084 C297.016304,349.236084 301.160791,345.327495 301.160791,340.518745 C301.160791,336.047556 293.686546,327.306528 292.836395,326.329381 C292.3818,325.802313 291.478515,325.802313 291.018016,326.329381 Z M165.376407,326.329381 C164.526256,327.31245 157.052011,336.053478 157.052011,340.518745 C157.052011,345.327495 161.196498,349.236084 166.285597,349.236084 C171.374696,349.236084 175.519182,345.327495 175.519182,340.518745 C175.519182,336.047556 168.044937,327.306528 167.194786,326.329381 C166.740191,325.802313 165.836906,325.802313 165.376407,326.329381 Z M356.56068,326.329381 C355.710528,327.31245 348.236283,336.053478 348.236283,340.518745 C348.236283,345.327495 352.38077,349.236084 357.469869,349.236084 C362.558968,349.236084 366.703455,345.327495 366.703455,340.518745 C366.703455,336.047556 359.229209,327.306528 358.379058,326.329381 C357.924464,325.802313 357.021178,325.802313 356.56068,326.329381 Z M8.32439639,444.049316 C7.47424526,445.032385 0,453.773412 0,458.23868 C0,463.047429 4.14448671,466.956019 9.23358578,466.956019 C14.3226848,466.956019 18.4671716,463.047429 18.4671716,458.23868 C18.4671716,453.76749 10.9929263,445.026463 10.1427752,444.049316 C9.68818047,443.522248 8.78489491,443.522248 8.32439639,444.049316 Z M196.786809,443.995114 C195.936658,444.978183 188.462413,453.719211 188.462413,458.184478 C188.462413,462.993228 192.6069,466.901817 197.695999,466.901817 C202.785098,466.901817 206.929585,462.993228 206.929585,458.184478 C206.929585,453.713289 199.455339,444.972261 198.605188,443.995114 C198.150594,443.468046 197.247308,443.468046 196.786809,443.995114 Z M71.1452007,443.995114 C70.2950496,444.978183 62.8208044,453.719211 62.8208044,458.184478 C62.8208044,462.993228 66.9652911,466.901817 72.0543901,466.901817 C77.1434892,466.901817 81.2879759,462.993228 81.2879759,458.184478 C81.2879759,453.713289 73.8137307,444.972261 72.9635795,443.995114 C72.5089848,443.468046 71.6056993,443.468046 71.1452007,443.995114 Z M259.607614,443.995114 C258.757463,444.978183 251.283217,453.719211 251.283217,458.184478 C251.283217,462.993228 255.427704,466.901817 260.516803,466.901817 C265.605902,466.901817 269.750389,462.993228 269.750389,458.184478 C269.750389,453.713289 262.276144,444.972261 261.425993,443.995114 C260.971398,443.468046 260.068112,443.468046 259.607614,443.995114 Z M133.966005,443.995114 C133.115854,444.978183 125.641609,453.719211 125.641609,458.184478 C125.641609,462.993228 129.786095,466.901817 134.875195,466.901817 C139.964294,466.901817 144.10878,462.993228 144.10878,458.184478 C144.10878,453.713289 136.634535,444.972261 135.784384,443.995114 C135.329789,443.468046 134.426504,443.468046 133.966005,443.995114 Z M322.428418,443.995114 C321.578267,444.978183 314.104022,453.719211 314.104022,458.184478 C314.104022,462.993228 318.248509,466.901817 323.337608,466.901817 C328.426707,466.901817 332.571193,462.993228 332.571193,458.184478 C332.571193,453.713289 325.096948,444.972261 324.246797,443.995114 C323.792202,443.468046 322.888917,443.468046 322.428418,443.995114 Z M39.7347986,444.049316 C38.8846474,445.032385 31.4104022,453.773412 31.4104022,458.23868 C31.4104022,463.047429 35.5548889,466.956019 40.643988,466.956019 C45.733087,466.956019 49.8775737,463.047429 49.8775737,458.23868 C49.8775737,453.76749 42.4033285,445.026463 41.5531774,444.049316 C41.0985827,443.522248 40.1952971,443.522248 39.7347986,444.049316 Z M228.197212,443.995114 C227.347061,444.978183 219.872815,453.719211 219.872815,458.184478 C219.872815,462.993228 224.017302,466.901817 229.106401,466.901817 C234.1955,466.901817 238.339987,462.993228 238.339987,458.184478 C238.339987,453.713289 230.865742,444.972261 230.01559,443.995114 C229.560996,443.468046 228.65771,443.468046 228.197212,443.995114 Z M102.555603,443.995114 C101.705452,444.978183 94.2312065,453.719211 94.2312065,458.184478 C94.2312065,462.993228 98.3756933,466.901817 103.464792,466.901817 C108.553891,466.901817 112.698378,462.993228 112.698378,458.184478 C112.698378,453.713289 105.224133,444.972261 104.373982,443.995114 C103.919387,443.468046 103.016101,443.468046 102.555603,443.995114 Z M291.018016,443.995114 C290.167865,444.978183 282.69362,453.719211 282.69362,458.184478 C282.69362,462.993228 286.838106,466.901817 291.927205,466.901817 C297.016304,466.901817 301.160791,462.993228 301.160791,458.184478 C301.160791,453.713289 293.686546,444.972261 292.836395,443.995114 C292.3818,443.468046 291.478515,443.468046 291.018016,443.995114 Z M165.376407,443.995114 C164.526256,444.978183 157.052011,453.719211 157.052011,458.184478 C157.052011,462.993228 161.196498,466.901817 166.285597,466.901817 C171.374696,466.901817 175.519182,462.993228 175.519182,458.184478 C175.519182,453.713289 168.044937,444.972261 167.194786,443.995114 C166.740191,443.468046 165.836906,443.468046 165.376407,443.995114 Z M356.56068,443.995114 C355.710528,444.978183 348.236283,453.719211 348.236283,458.184478 C348.236283,462.993228 352.38077,466.901817 357.469869,466.901817 C362.558968,466.901817 366.703455,462.993228 366.703455,458.184478 C366.703455,453.713289 359.229209,444.972261 358.379058,443.995114 C357.924464,443.468046 357.021178,443.468046 356.56068,443.995114 Z" id="Combined-Shape"></path>
            </g>
        </g>
    </g>
</svg>