<?xml version="1.0" encoding="UTF-8" standalone="no"?>
<svg width="681px" height="349px" viewBox="0 0 681 349" version="1.1" xmlns="http://www.w3.org/2000/svg" xmlns:xlink="http://www.w3.org/1999/xlink">
    <!-- Generator: Sketch 3.8.3 (29802) - http://www.bohemiancoding.com/sketch -->
    <title>Group 3</title>
    <desc>Created with Sketch.</desc>
    <defs></defs>
    <g id="PCデザイン" stroke="none" stroke-width="1" fill="none" fill-rule="evenodd">
        <g id="1IW_LP_未ログイン" transform="translate(-258.000000, -241.000000)">
            <g id="Page-1" transform="translate(258.000000, 241.000000)">
                <g transform="translate(-14.000000, -7.000000)" id="Group-3">
                    <g>
                        <rect id="Rectangle-44" fill="#F95061" x="5.5408971" y="0" width="692.612137" height="355.453461"></rect>
                        <polygon id="Fill-1" fill="#FF5D6C" points="543.035294 355.453461 592.611765 355.453461 698.529657 281.213367 698.529657 218.579289"></polygon>
                        <polygon id="Fill-2" fill="#FF5D6C" points="695.702206 4.18110288 462.50098 355.452758 487.170833 355.452758 698.529657 94.0363923 698.529657 4.18110288"></polygon>
                        <polygon id="Fill-3" fill="#FF5D6C" points="545.593897 4.18110288 413.438015 355.452758 429.853701 355.452758 595.822328 4.18110288"></polygon>
                        <polygon id="Fill-4" fill="#FF5D6C" points="431.798603 4.18110288 376.24125 355.452758 389.431446 355.452758 472.149828 4.18110288"></polygon>
                        <polygon id="Fill-5" fill="#FF5D6C" points="330.444265 4.18110288 343.112892 355.452758 355.416078 355.452758 368.084706 4.18110288"></polygon>
                        <polygon id="Fill-6" fill="#FF5D6C" points="226.38 4.18110288 309.096667 355.452758 322.288578 355.452758 266.734657 4.18110288"></polygon>
                        <polygon id="Fill-7" fill="#FF5D6C" points="102.705441 4.18110288 268.674069 355.452758 285.091471 355.452758 152.937304 4.18110288"></polygon>
                        <polygon id="Fill-8" fill="#FF5D6C" points="0 4.18110288 0 94.0317086 211.358824 355.452758 236.025245 355.452758 2.82401961 4.18110288"></polygon>
                        <polygon id="Fill-9" fill="#FF5D6C" points="0 281.210089 105.919608 355.452524 155.494363 355.452524 0 218.576011"></polygon>
                    </g>
                </g>
            </g>
        </g>
    </g>
</svg>