<?xml version="1.0" encoding="UTF-8" standalone="no"?>
<svg width="33px" height="33px" viewBox="0 0 33 33" version="1.1" xmlns="http://www.w3.org/2000/svg" xmlns:xlink="http://www.w3.org/1999/xlink">
    <!-- Generator: Sketch 3.6.1 (26313) - http://www.bohemiancoding.com/sketch -->
    <title>Group</title>
    <desc>Created with Sketch.</desc>
    <defs></defs>
    <g id="キャンペーン(InstantWin)" stroke="none" stroke-width="1" fill="none" fill-rule="evenodd">
        <g id="1IW_LP_未ログイン" transform="translate(-519.000000, -517.000000)" fill="#FFFFFF">
            <g id="Group" transform="translate(519.000000, 517.000000)">
                <path d="M22.2931837,14.2698061 C23.3033204,15.9134082 23.8975898,17.839598 23.8975898,19.9061388 C23.8975898,25.8627061 19.0521796,30.7084531 13.0947367,30.7084531 C7.13722653,30.7084531 2.29181633,25.8627061 2.29181633,19.9061388 C2.29181633,13.949302 7.13722653,9.10294898 13.0947367,9.10294898 C15.160402,9.10294898 17.0874673,9.69661224 18.7305306,10.706749 L20.3806653,9.05627755 C18.2961429,7.65249796 15.7902306,6.83207755 13.0947367,6.83207755 C5.88659388,6.83207755 0.0211469388,12.6971204 0.0211469388,19.9061388 C0.0211469388,27.1148878 5.88659388,32.9791224 13.0947367,32.9791224 C20.3028122,32.9791224 26.1682592,27.1148878 26.1682592,19.9061388 C26.1682592,17.2103755 25.3477041,14.7031837 23.9442612,12.6199408 L22.2931837,14.2698061 L22.2931837,14.2698061 Z" id="Shape"></path>
                <path d="M16.7614408,12.6742224 C15.6593082,12.1126837 14.4154102,11.7888796 13.0947367,11.7888796 C8.61852245,11.7888796 4.97862245,15.4299245 4.97862245,19.9061388 C4.97862245,24.3811408 8.61852245,28.0219163 13.0947367,28.0219163 C17.570951,28.0219163 21.2119959,24.3811408 21.2119959,19.9061388 C21.2119959,18.5851286 20.8881245,17.3409612 20.3250367,16.2372122 L18.5866102,17.9756388 C18.8014469,18.5829061 18.9413939,19.2265408 18.9413939,19.9060714 C18.9413939,23.1288918 16.3178265,25.7511796 13.0948041,25.7511796 C9.87171429,25.7511796 7.24935918,23.1288245 7.24935918,19.9060714 C7.24935918,16.6823755 9.87171429,14.0594816 13.0948041,14.0594816 C13.7746041,14.0594816 14.4177,14.1986878 15.0240245,14.412649 L16.7614408,12.6742224 L16.7614408,12.6742224 Z" id="Shape"></path>
                <path d="M13.8100286,16.6052633 C13.8109714,16.5533388 13.8232959,16.5033673 13.8276061,16.4518469 C13.5902755,16.4018082 13.3463449,16.3737245 13.0947367,16.3737245 C11.1445041,16.3737245 9.56319796,17.9559061 9.56319796,19.9061388 C9.56319796,21.8560347 11.1444367,23.4370714 13.0947367,23.4370714 C15.044902,23.4370714 16.6262755,21.8560347 16.6262755,19.9061388 C16.6262755,19.6539245 16.5975184,19.4084449 16.5484898,19.1711143 C16.4965653,19.1753571 16.4465939,19.187749 16.3956122,19.1890286 L14.5703755,21.0144673 C14.2246163,21.3581388 13.7667918,21.5473163 13.2799408,21.5473163 C12.794302,21.5473163 12.3352653,21.3580714 11.9870143,21.0117061 C11.2750898,20.2997816 11.2750898,19.1405388 11.9870143,18.4270653 L13.8100286,16.6052633 L13.8100286,16.6052633 Z" id="Shape"></path>
                <path d="M32.9562245,4.9643449 C32.9053102,4.80816735 32.7700776,4.69542857 32.6079735,4.67104898 L28.8915,4.15119796 L28.3292878,0.392430612 C28.3036959,0.229855102 28.1916306,0.0950938776 28.0354531,0.0430346939 C27.9910041,0.0280836735 27.944602,0.0208102041 27.9002204,0.0208102041 C27.786,0.0208102041 27.6739347,0.0664040816 27.5917714,0.148904082 L23.5869857,4.15261224 C23.4894673,4.24965918 23.4450184,4.38772041 23.4650204,4.52295306 L23.8552286,7.18679388 L15.3323388,15.7100204 C14.9741878,16.0681041 14.8753898,16.5701082 14.9930449,17.0285388 L12.7896551,19.2297735 C12.5191898,19.5011816 12.5191898,19.9383306 12.7896551,20.2090653 C12.9261,20.344298 13.1036265,20.4119143 13.2798735,20.4119143 C13.4570633,20.4119143 13.6346571,20.344298 13.7698224,20.2090653 L15.9719327,18.006349 C16.093898,18.0381367 16.217951,18.0541653 16.3420714,18.0541653 C16.6859449,18.0541653 17.0274612,17.9309878 17.2892388,17.6676612 L25.8121959,9.14517551 L28.4765082,9.5359898 C28.4966449,9.53861633 28.5188694,9.5403 28.5389388,9.5403 C28.654102,9.5403 28.7648878,9.49490816 28.8469837,9.4127449 L32.8496816,5.40735306 C32.9673367,5.29138163 33.0093612,5.12065714 32.9562245,4.9643449 L32.9562245,4.9643449 Z" id="Shape"></path>
            </g>
        </g>
    </g>
</svg>