<?xml version="1.0" encoding="UTF-8" standalone="no"?>
<svg width="12px" height="14px" viewBox="0 0 12 14" version="1.1" xmlns="http://www.w3.org/2000/svg" xmlns:xlink="http://www.w3.org/1999/xlink">
    <!-- Generator: Sketch 3.7.1 (28215) - http://www.bohemiancoding.com/sketch -->
    <title>Page 1</title>
    <desc>Created with Sketch.</desc>
    <defs></defs>
    <g id="モジュールリスト・アイコン" stroke="none" stroke-width="1" fill="none" fill-rule="evenodd">
        <g id="トップ（ログイン後）" transform="translate(-581.000000, -607.000000)" stroke="#FFFFFF">
            <g id="Talk" transform="translate(50.000000, 383.000000)">
                <g id="CP1" transform="translate(509.000000, 107.000000)">
                    <g id="アンケート" transform="translate(11.000000, 114.000000)">
                        <g id="Page-1" transform="translate(12.000000, 4.000000)">
                            <path d="M3.27108333,3.34308333 C3.27108333,3.34308333 3.2015,0.000166666667 4.97733333,0.000166666667 C6.75316667,0.000166666667 6.649,3.34308333 6.649,3.34308333 L3.27108333,3.34308333 L3.27108333,3.34308333 Z" id="Stroke-1"></path>
                            <path d="M2.81841667,6.92307692 L7.17133333,6.92307692" id="Stroke-3" stroke-linecap="round" stroke-linejoin="round"></path>
                            <path d="M2.81841667,9.23076923 L7.17133333,9.23076923" id="Stroke-5" stroke-linecap="round" stroke-linejoin="round"></path>
                            <path d="M6.864,12.3400833 L9.03025,12.3400833 C9.52691667,12.3400833 9.92983333,11.9375833 9.92983333,11.4409167 L9.92983333,2.6355 C9.92983333,2.13883333 9.52691667,1.73633333 9.03025,1.73633333 L0.899833333,1.73633333 C0.40275,1.73633333 -0.000166666667,2.13883333 -0.000166666667,2.6355 L-0.000166666667,11.4409167 C-0.000166666667,11.9375833 0.40275,12.3400833 0.899833333,12.3400833 L3.049,12.3400833" id="Stroke-7" stroke-linecap="round" stroke-linejoin="round"></path>
                        </g>
                    </g>
                </g>
            </g>
        </g>
    </g>
</svg>