<?xml version="1.0" encoding="UTF-8" standalone="no"?>
<svg width="16px" height="16px" viewBox="0 0 16 16" version="1.1" xmlns="http://www.w3.org/2000/svg" xmlns:xlink="http://www.w3.org/1999/xlink">
    <!-- Generator: Sketch 3.7.1 (28215) - http://www.bohemiancoding.com/sketch -->
    <title>cart</title>
    <desc>Created with Sketch.</desc>
    <defs></defs>
    <g id="モジュールリスト・アイコン" stroke="none" stroke-width="1" fill="none" fill-rule="evenodd">
        <g id="トップ（ログイン後）" transform="translate(-99.000000, -607.000000)" fill="#FFFFFF">
            <g id="Talk" transform="translate(50.000000, 383.000000)">
                <g id="CP1" transform="translate(19.000000, 107.000000)">
                    <g id="mustbuy" transform="translate(11.000000, 114.000000)">
                        <g id="cart" transform="translate(19.000000, 3.000000)">
                            <path d="M10.6122249,13.2132244 C9.86995257,13.2132244 9.29298983,13.8241654 9.29298983,14.5683436 C9.29298983,15.3125217 9.90236621,15.9234628 10.6122249,15.9234628 C11.3220835,15.9234628 11.9314599,15.3125217 11.9314599,14.5683436 C11.9314599,13.8241654 11.3220835,13.2132244 10.6122249,13.2132244 L10.6122249,13.2132244 Z M10.6122249,15.2442783 C10.239468,15.2442783 9.97043485,14.9388078 9.97043485,14.5650939 C9.97043485,14.19138 10.275123,13.8859095 10.6122249,13.8859095 C10.9493267,13.8859095 11.2540149,14.19138 11.2540149,14.5650939 C11.2540149,14.9388078 10.9493267,15.2442783 10.6122249,15.2442783 L10.6122249,15.2442783 Z" id="Shape"></path>
                            <path d="M3.41315601,13.2132244 C2.67088372,13.2132244 2.09392097,13.8241654 2.09392097,14.5683436 C2.09392097,15.3125217 2.70329735,15.9234628 3.41315601,15.9234628 C4.15542831,15.9234628 4.73239105,15.3125217 4.73239105,14.5683436 C4.73239105,13.8241654 4.12301467,13.2132244 3.41315601,13.2132244 L3.41315601,13.2132244 Z M3.41315601,15.2442783 C3.04039918,15.2442783 2.77136599,14.9388078 2.77136599,14.5650939 C2.77136599,14.19138 3.07605418,13.8859095 3.41315601,13.8859095 C3.78591284,13.8859095 4.05494603,14.19138 4.05494603,14.5650939 C4.05494603,14.9420575 3.7534992,15.2442783 3.41315601,15.2442783 L3.41315601,15.2442783 Z" id="Shape"></path>
                            <path d="M13.7887613,0 L13.2636604,2.06680047 L0,2.06680047 L2.44722962,9.33634868 C1.62716459,9.45658707 1.01454685,10.1520199 1.01454685,11.0456837 C1.01454685,12.0270889 1.75681914,12.8070136 2.70329735,12.8070136 L11.8958049,12.8070136 L11.8958049,12.1635757 L2.70329735,12.1635757 C2.12957597,12.1635757 1.68875051,11.6891215 1.68875051,11.0781805 C1.68875051,10.4672395 2.16198961,9.99278531 2.70329735,9.99278531 L11.8958049,9.99278531 L11.9282185,9.99278531 L14.3268277,0.675934746 L15.6784764,0.675934746 L15.6784764,3.46356147e-16 L13.7887613,3.46356147e-16 L13.7887613,0 Z M11.4225658,9.31685056 L3.14412282,9.31685056 L0.94647821,2.74273522 L13.0789027,2.74273522 L11.4225658,9.31685056 L11.4225658,9.31685056 Z" id="Shape"></path>
                            <rect id="Rectangle-path" x="4.29156558" y="4.3350815" width="0.67744502" height="3.82813044"></rect>
                            <rect id="Rectangle-path" x="6.69341611" y="4.3350815" width="0.67744502" height="3.82813044"></rect>
                            <rect id="Rectangle-path" x="9.09202527" y="4.3350815" width="0.67744502" height="3.82813044"></rect>
                        </g>
                    </g>
                </g>
            </g>
        </g>
    </g>
</svg>