<?xml version="1.0" encoding="UTF-8" standalone="no"?>
<svg width="15px" height="15px" viewBox="0 0 15 15" version="1.1" xmlns="http://www.w3.org/2000/svg" xmlns:xlink="http://www.w3.org/1999/xlink">
    <!-- Generator: Sketch 3.7.1 (28215) - http://www.bohemiancoding.com/sketch -->
    <title>icon</title>
    <desc>Created with Sketch.</desc>
    <defs></defs>
    <g id="モジュールリスト・アイコン" stroke="none" stroke-width="1" fill="none" fill-rule="evenodd">
        <g id="トップ（ログイン後）" transform="translate(-348.000000, -607.000000)" fill="#FFFFFF">
            <g id="Talk" transform="translate(50.000000, 383.000000)">
                <g id="CP2" transform="translate(204.000000, 0.000000)">
                    <g id="mustbuy" transform="translate(71.000000, 221.000000)">
                        <g id="icon" transform="translate(23.000000, 3.000000)">
                            <path d="M10.1332653,6.48627551 C10.5924184,7.23336735 10.8625408,8.10890816 10.8625408,9.0482449 C10.8625408,11.7557755 8.66008163,13.9583878 5.95215306,13.9583878 C3.24419388,13.9583878 1.04173469,11.7557755 1.04173469,9.0482449 C1.04173469,6.34059184 3.24419388,4.13770408 5.95215306,4.13770408 C6.89109184,4.13770408 7.76703061,4.40755102 8.51387755,4.86670408 L9.26393878,4.1164898 C8.31642857,3.47840816 7.17737755,3.1054898 5.95215306,3.1054898 C2.67572449,3.1054898 0.0096122449,5.77141837 0.0096122449,9.0482449 C0.0096122449,12.324949 2.67572449,14.9905102 5.95215306,14.9905102 C9.22855102,14.9905102 11.8946633,12.324949 11.8946633,9.0482449 C11.8946633,7.82289796 11.5216837,6.68326531 10.8837551,5.73633673 L10.1332653,6.48627551 L10.1332653,6.48627551 Z" id="Shape"></path>
                            <path d="M7.61883673,5.7610102 C7.11786735,5.50576531 6.55245918,5.35858163 5.95215306,5.35858163 C3.9175102,5.35858163 2.2630102,7.01360204 2.2630102,9.0482449 C2.2630102,11.0823367 3.9175102,12.7372347 5.95215306,12.7372347 C7.98679592,12.7372347 9.64181633,11.0823367 9.64181633,9.0482449 C9.64181633,8.44778571 9.49460204,7.8822551 9.23865306,7.38055102 L8.44845918,8.1707449 C8.54611224,8.44677551 8.60972449,8.73933673 8.60972449,9.04821429 C8.60972449,10.5131327 7.41719388,11.7050816 5.95218367,11.7050816 C4.48714286,11.7050816 3.29516327,10.513102 3.29516327,9.04821429 C3.29516327,7.58289796 4.48714286,6.39067347 5.95218367,6.39067347 C6.26118367,6.39067347 6.5535,6.45394898 6.82910204,6.55120408 L7.61883673,5.7610102 L7.61883673,5.7610102 Z" id="Shape"></path>
                            <path d="M6.27728571,7.54784694 C6.27771429,7.5242449 6.28331633,7.50153061 6.28527551,7.47811224 C6.17739796,7.45536735 6.06652041,7.44260204 5.95215306,7.44260204 C5.06568367,7.44260204 4.34690816,8.16177551 4.34690816,9.0482449 C4.34690816,9.93456122 5.06565306,10.6532143 5.95215306,10.6532143 C6.83859184,10.6532143 7.55739796,9.93456122 7.55739796,9.0482449 C7.55739796,8.93360204 7.54432653,8.82202041 7.52204082,8.71414286 C7.49843878,8.71607143 7.47572449,8.72170408 7.45255102,8.72228571 L6.62289796,9.55203061 C6.46573469,9.7082449 6.25763265,9.79423469 6.03633673,9.79423469 C5.81559184,9.79423469 5.60693878,9.70821429 5.44864286,9.55077551 C5.12504082,9.22717347 5.12504082,8.7002449 5.44864286,8.37593878 L6.27728571,7.54784694 L6.27728571,7.54784694 Z" id="Shape"></path>
                            <path d="M14.980102,2.25652041 C14.9569592,2.18553061 14.8954898,2.13428571 14.8218061,2.12320408 L13.1325,1.88690816 L12.876949,0.178377551 C12.8653163,0.104479592 12.8143776,0.0432244898 12.7433878,0.0195612245 C12.7231837,0.0127653061 12.7020918,0.00945918367 12.6819184,0.00945918367 C12.63,0.00945918367 12.5790612,0.0301836735 12.5417143,0.0676836735 L10.7213571,1.88755102 C10.6770306,1.93166327 10.6568265,1.99441837 10.6659184,2.05588776 L10.8432857,3.26672449 L6.9692449,7.14091837 C6.80644898,7.30368367 6.76154082,7.53186735 6.81502041,7.7402449 L5.81347959,8.74080612 C5.69054082,8.86417347 5.69054082,9.06287755 5.81347959,9.18593878 C5.8755,9.24740816 5.95619388,9.27814286 6.03630612,9.27814286 C6.11684694,9.27814286 6.19757143,9.24740816 6.2590102,9.18593878 L7.25996939,8.18470408 C7.31540816,8.19915306 7.37179592,8.20643878 7.42821429,8.20643878 C7.58452041,8.20643878 7.7397551,8.15044898 7.8587449,8.0307551 L11.7328163,4.15689796 L12.9438673,4.33454082 C12.9530204,4.33573469 12.9631224,4.3365 12.9722449,4.3365 C13.0245918,4.3365 13.074949,4.31586735 13.1122653,4.27852041 L14.9316735,2.45788776 C14.9851531,2.40517347 15.0042551,2.32757143 14.980102,2.25652041 L14.980102,2.25652041 Z" id="Shape"></path>
                        </g>
                    </g>
                </g>
            </g>
        </g>
    </g>
</svg>