<?xml version="1.0" encoding="UTF-8"?>
<svg width="112px" height="27px" viewBox="0 0 112 27" version="1.1" xmlns="http://www.w3.org/2000/svg" xmlns:xlink="http://www.w3.org/1999/xlink">
    <!-- Generator: Sketch 55.1 (78136) - https://sketchapp.com -->
    <title>list-pickup__end-text</title>
    <desc>Created with Sketch.</desc>
    <g id="Page-1" stroke="none" stroke-width="1" fill="none" fill-rule="evenodd">
        <g id="Artboard-Copy" transform="translate(-320.000000, -976.000000)" fill="#FFFFFF" fill-rule="nonzero">
            <path d="M342.316,983.424 L333.02,983.424 C332.46,984.46 331.816,985.58 331.004,986.7 C330.024,988.044 329.38,988.604 328.568,988.604 C327.84,988.604 326.72,987.82 326.72,986.756 C326.72,986.196 326.832,986.056 327.812,984.824 C329.884,982.248 331.144,979.476 331.592,978.216 C332.152,976.564 332.32,976.116 333.384,976.116 C334,976.116 335.372,976.368 335.372,977.572 C335.372,978.216 334.84,979.532 334.616,980.12 L343.576,980.12 C344.36,980.12 345.172,980.12 345.816,980.512 C346.852,981.184 346.908,982.192 346.908,982.556 C346.908,983.956 346.096,986.084 345.508,987.344 C344.332,989.892 343.8,990.032 343.212,990.032 C342.176,990.032 341.252,989.36 341.252,988.492 C341.252,988.044 341.336,987.876 342.26,986.308 C342.428,986 343.24,984.46 343.24,983.928 C343.24,983.424 342.764,983.424 342.316,983.424 Z M322.968,977.123899 C323.36,977.123899 323.5,977.096 325.152,978.356 C325.376,978.524 327.168,979.98 327.56,980.4 C327.812,980.68 327.952,980.96 327.952,981.408 C327.952,982.36 327.028,983.228 326.188,983.228 C325.684,983.228 325.404,983.004 324.956,982.556 C324.088,981.632 323.08,980.848 322.072,980.092 C321.372,979.56 321.26,979.308 321.26,978.86 C321.26,978.104 321.848,977.123899 322.968,977.123899 Z M325.768,990.06 C326.384,990.06 327.56,990.48 327.56,991.432 C327.56,992.86 325.18,998.012 324.984,998.376 C323.64,1000.812 323.556,1001.008 322.632,1001.008 C321.708,1001.008 320.7,1000.308 320.7,999.384 C320.7,998.796 320.784,998.628 321.848,996.808 C322.548,995.576 323.416,993.476 324.256,991.404 C324.648,990.396 325.068,990.06 325.768,990.06 Z M334.868,987.904 L334.868,986.448 C334.868,985.72 335.036,984.712 336.52,984.712 C337.892,984.712 338.48,985.132 338.48,986.448 L338.48,987.736 C338.48,987.82 338.76,991.124 340.216,993.644 C342.064,996.808 344.528,998.124 345.928,998.88 C346.628,999.244 347.104,999.58 347.104,1000.392 C347.104,1001.288 346.432,1002.408 345.368,1002.408 C344.472,1002.408 342.54,1001.232 341.252,1000.056 C338.396,997.48 337.5,994.988 336.996,993.504 C336.576,994.848 335.764,997.592 332.74,1000.028 C331.032,1001.4 328.736,1002.492 328.008,1002.492 C327.14,1002.492 326.244,1001.512 326.244,1000.42 C326.244,999.58 326.776,999.272 327.476,998.964 C329.128,998.236 331.704,997.116 333.412,993.98 C334.364,992.244 334.868,988.716 334.868,987.904 Z M374.04,981.1 L374.04,997.984 C374.04,1000.952 372.724,1001.736 370.288,1001.736 L353.712,1001.736 C351.276,1001.736 349.96,1000.952 349.96,997.984 L349.96,981.1 C349.96,978.216 351.192,977.348 353.712,977.348 L370.288,977.348 C372.808,977.348 374.04,978.216 374.04,981.1 Z M370.484,997.34 L370.484,981.744 C370.484,980.904 370.036,980.54 369.28,980.54 L354.72,980.54 C353.768,980.54 353.516,981.1 353.516,981.744 L353.516,997.34 C353.516,998.096 353.852,998.544 354.72,998.544 L369.28,998.544 C370.064,998.544 370.484,998.152 370.484,997.34 Z M368.048,986.224 L368.048,992.804 C368.048,995.296 366.956,996.052 364.8,996.052 L359.144,996.052 C356.988,996.052 355.896,995.324 355.896,992.804 L355.896,986.224 C355.896,983.704 356.96,982.976 359.144,982.976 L364.8,982.976 C366.956,982.976 368.048,983.704 368.048,986.224 Z M364.884,992.188 L364.884,986.812 C364.884,986.196 364.604,985.86 363.96,985.86 L360.012,985.86 C359.34,985.86 359.06,986.224 359.06,986.812 L359.06,992.188 C359.06,992.804 359.368,993.168 360.012,993.168 L363.96,993.168 C364.604,993.168 364.884,992.804 364.884,992.188 Z M388.152,997.732 L388.152,989.388 L378.464,989.388 C377.848,989.388 376.756,989.304 376.756,987.764 C376.756,986.14 378.044,986.14 378.464,986.14 L389.16,986.14 C388.46,985.552 387.088,984.432 386.192,983.844 C384.456,982.752 384.148,982.528 384.148,981.94 C384.148,981.184 384.792,980.232 385.884,980.232 C386.332,980.232 386.78,980.428 386.976,980.512 C387.648,980.848 388.432,981.324 390.532,982.892 C391.148,982.612 392.24,982.108 393.416,981.352 C393.836,981.1 394.48,980.68 394.48,980.456 C394.48,980.148 394.088,980.148 393.892,980.148 L380.564,980.148 C379.752,980.148 378.856,979.924 378.856,978.552 C378.856,976.956 380.116,976.956 380.564,976.956 L397.644,976.956 C398.512,976.956 400.36,976.956 400.36,979.196 C400.36,980.4 399.632,981.044 399.016,981.548 C398.008,982.332 395.012,984.012 392.968,984.88 C393.696,985.58 393.836,985.748 394.004,986.14 L399.996,986.14 C400.976,986.14 402.796,986.14 402.796,988.464 C402.796,989.416 402.46,990.088 402.124,990.62 C401.452,991.684 399.996,993.364 398.316,994.876 C396.664,996.36 396.44,996.36 395.992,996.36 C394.928,996.36 394.004,995.352 394.004,994.428 C394.004,993.784 394.088,993.728 395.628,992.524 C397.252,991.236 398.204,989.92 398.204,989.724 C398.204,989.388 397.812,989.388 397.616,989.388 L391.932,989.388 L391.932,998.908 C391.932,999.664 391.904,1001.4 390.392,1002.072 C389.58,1002.436 387.284,1002.436 386.136,1002.436 C385.408,1002.436 383.84,1002.436 383.336,1002.24 C382.832,1002.044 382.328,1001.4 382.328,1000.532 C382.328,998.768 383.896,998.768 384.288,998.768 C384.456,998.768 386.22,998.824 386.584,998.824 C387.48,998.824 388.152,998.796 388.152,997.732 Z M412.596,979.784 L416.432,979.784 L416.432,977.824 C416.432,977.18 416.544,976.088 418.112,976.088 C419.512,976.088 420.072,976.536 420.072,977.824 L420.072,979.784 L427.744,979.784 C428.164,979.784 429.452,979.784 429.452,981.352 C429.452,982.752 428.472,982.92 427.744,982.92 L420.072,982.92 L420.072,986.392 L429.508,986.392 C430.208,986.392 431.188,986.532 431.188,987.96 C431.188,989.136 430.544,989.528 429.508,989.528 L406.492,989.528 C406.1,989.528 404.784,989.528 404.784,988.016 C404.784,986.812 405.4,986.392 406.492,986.392 L416.432,986.392 L416.432,982.92 L410.692,982.92 C410.384,983.396 409.796,984.208 409.096,984.992 C408.816,985.328 408.452,985.664 407.78,985.664 C406.716,985.664 405.708,984.824 405.708,983.928 C405.708,983.312 405.848,983.172 407.304,981.436 C408.648,979.84 409.46,978.132 409.74,977.544 C410.104,976.816 410.356,976.396 411.224,976.396 C411.728,976.396 413.24,976.62 413.24,977.852 C413.24,978.16 413.212,978.58 412.596,979.784 Z M428.528,994.736 L428.528,998.74 C428.528,1001.204 427.464,1001.988 425.28,1001.988 L410.748,1001.988 C408.564,1001.988 407.5,1001.232 407.5,998.74 L407.5,994.736 C407.5,992.3 408.536,991.488 410.748,991.488 L425.28,991.488 C427.492,991.488 428.528,992.3 428.528,994.736 Z M424.916,997.956 L424.916,995.52 C424.916,994.876 424.608,994.54 423.964,994.54 L412.064,994.54 C411.392,994.54 411.084,994.876 411.084,995.52 L411.084,997.956 C411.084,998.656 411.476,998.908 412.064,998.908 L423.964,998.908 C424.58,998.908 424.916,998.628 424.916,997.956 Z" id="list-pickup__end-text"></path>
        </g>
    </g>
</svg>