<?xml version="1.0" encoding="UTF-8"?>
<svg width="25px" height="21px" viewBox="0 0 25 21" version="1.1" xmlns="http://www.w3.org/2000/svg" xmlns:xlink="http://www.w3.org/1999/xlink">
    <!-- Generator: Sketch 55.1 (78136) - https://sketchapp.com -->
    <title>list-pickup-a__quote</title>
    <desc>Created with Sketch.</desc>
    <defs>
        <polygon id="path-1" points="0.000202702703 0 24.7008784 0 24.7008784 20.9241667 0.000202702703 20.9241667"></polygon>
    </defs>
    <g id="Page-1" stroke="none" stroke-width="1" fill="none" fill-rule="evenodd">
        <g id="list-pickup-a__quote">
            <mask id="mask-2" fill="white">
                <use xlink:href="#path-1"></use>
            </mask>
            <g id="Clip-2"></g>
            <path d="M19.3035811,7.60908333 C22.2846622,7.60908333 24.7008784,10.5899167 24.7008784,14.2665833 C24.7008784,17.94325 22.2846622,20.9249167 19.3035811,20.9249167 C16.3225,20.9249167 13.9056081,17.94325 13.9056081,14.2665833 L13.8812838,13.31575 C13.8812838,5.96158333 18.7150676,-8.33333333e-05 24.6779054,-8.33333333e-05 L24.6779054,3.80408333 C22.6312838,3.79741667 20.6684459,4.80075 19.2252027,6.58991667 C18.9475,6.93241667 18.6914189,7.29991667 18.4583108,7.68991667 C18.7373649,7.63575 19.020473,7.60908333 19.3035811,7.60908333 M5.4225,7.60908333 C8.40358108,7.60908333 10.820473,10.5899167 10.820473,14.2665833 C10.820473,17.94325 8.40358108,20.9249167 5.4225,20.9249167 C2.44074324,20.9249167 0.024527027,17.94325 0.024527027,14.2665833 L0.000202702703,13.31575 C0.000202702703,5.96158333 4.83331081,-8.33333333e-05 10.7968243,-8.33333333e-05 L10.7968243,3.80408333 C8.7502027,3.79741667 6.78668919,4.80075 5.34412162,6.58991667 C5.06641892,6.93241667 4.80966216,7.29991667 4.57722973,7.68991667 C4.85695946,7.63575 5.13939189,7.60908333 5.4225,7.60908333" id="Fill-1" fill="#EEEEEE" mask="url(#mask-2)"></path>
        </g>
    </g>
</svg>