<svg xmlns="http://www.w3.org/2000/svg" xmlns:xlink="http://www.w3.org/1999/xlink" preserveAspectRatio="xMidYMid" width="120" height="120" viewBox="0 0 508 508">
  <defs>
    <style>
      .cls-1 {
        fill: #d5d5d5;
        fill-rule: evenodd;
      }
    </style>
  </defs>
  <path d="M253.999,507.998 C113.941,507.998 -0.002,394.054 -0.002,253.997 C-0.002,113.940 113.941,-0.003 253.999,-0.003 C394.056,-0.003 508.000,113.940 508.000,253.997 C508.000,394.054 394.056,507.998 253.999,507.998 ZM253.999,8.325 C118.536,8.325 8.326,118.533 8.326,253.997 C8.326,389.462 118.536,499.670 253.999,499.670 C389.461,499.670 499.672,389.462 499.672,253.997 C499.672,118.533 389.461,8.325 253.999,8.325 ZM145.232,267.928 L162.896,250.259 L214.112,301.473 L337.042,178.542 L354.706,196.206 L214.112,336.805 L145.232,267.928 Z" class="cls-1"/>
</svg>
