<svg width="24" height="24" viewBox="0 0 24 24" xmlns="http://www.w3.org/2000/svg"><title>account--black</title><path d="M20.24 13.993c.13-.45.225-.912.28-1.387.242-.38.642-.892 1.07-.968l2.016-.355-.287-1.63-.014-.074-.287-1.63-2.017.356c-.4.07-.908-.226-1.264-.488-.203-.428-.44-.836-.707-1.222-.027-.408 0-.884.226-1.153l1.315-1.567-1.266-1.063-.06-.05L17.983 1.7l-1.315 1.57c-.214.253-.638.364-1.026.412-.487-.236-.997-.426-1.527-.57-.295-.3-.604-.7-.604-1.065V0h-3.383v2.047c0 .366-.31.766-.605 1.065-.35.095-.693.21-1.025.347-.45-.018-1.125-.102-1.413-.445L5.768 1.447 4.5 2.51l-.057.05-1.266 1.06 1.315 1.57c.247.292.258.83.217 1.26-.144.197-.28.4-.407.61-.016.016-1.015.97-1.7.85L.586 7.556.3 9.183l-.013.076L0 10.886l2.016.355c.424.075.82.58 1.064.958.025.362.072.72.14 1.068-.09.44-.293 1.113-.69 1.343L.76 15.634l.827 1.432.038.067.827 1.43 1.773-1.022c.3-.173.763-.122 1.156-.026.29.314.602.607.935.876.202.398.423.97.28 1.362l-.702 1.924 1.555.565.072.027 1.554.565.7-1.923c.1-.277.394-.505.704-.677.437.067.885.102 1.34.102.248 0 .493-.013.734-.033.402.178.9.465 1.035.84l.7 1.924 1.553-.565.072-.026 1.554-.565-.7-1.924c-.147-.403.087-.99.292-1.39.325-.242.632-.507.92-.792.39-.094.85-.143 1.148.03l1.774 1.022.826-1.43.037-.068.828-1.43L20.82 14.9c-.28-.16-.46-.543-.577-.91zM5.823 11.57c0-3.31 2.684-5.996 5.996-5.996 3.312 0 5.998 2.685 5.998 5.996 0 3.312-2.686 5.997-5.998 5.997-3.312 0-5.996-2.685-5.996-5.997z" fill="#444" fill-rule="evenodd"/></svg>