<svg width="24" height="24" viewBox="0 0 24 24" xmlns="http://www.w3.org/2000/svg"><title>activity--pink</title><g stroke-linecap="round" stroke="#ff5998" stroke-linejoin="round" fill="none" fill-rule="evenodd"><path d="M2.334 17.372C1.474 15.804.98 14 .98 12.082c0-6.074 4.924-11 11-11 6.074 0 11 4.926 11 11 0 6.076-4.926 11-11 11-2.313 0-4.458-.715-6.23-1.933m6.326-15.07v5.996m5.65-2.134l-5.59 2.175" stroke-width="2"/><path d="M12.786 18.05c0 .39-.318.71-.71.71-.394 0-.71-.32-.71-.71 0-.394.316-.712.71-.712.392 0 .71.318.71.71z" stroke-width="1.375"/></g></svg>