<svg width="24" height="24" viewBox="0 0 24 24" xmlns="http://www.w3.org/2000/svg"><title>activity--black</title><g stroke-linecap="round" stroke-linejoin="round" fill="none" fill-rule="evenodd"><path d="M2.33 17.344c-.86-1.566-1.35-3.367-1.35-5.28 0-6.065 4.914-10.98 10.98-10.98 6.063 0 10.98 4.915 10.98 10.98 0 6.064-4.917 10.98-10.98 10.98-2.31 0-4.45-.714-6.22-1.93m6.315-15.038v5.987m5.64-2.13l-5.58 2.17" stroke="#444" stroke-width="2"/><path d="M12.764 18.02c0 .39-.318.708-.71.708-.392 0-.71-.317-.71-.71 0-.39.318-.708.71-.708.392 0 .71.317.71.71z" stroke="#000" stroke-width="1.375"/></g></svg>