<?xml version="1.0" encoding="utf-8"?>
<!-- Generator: Adobe Illustrator 23.0.4, SVG Export Plug-In . SVG Version: 6.00 Build 0)  -->
<svg version="1.1" id="レイヤー_1" xmlns="http://www.w3.org/2000/svg" xmlns:xlink="http://www.w3.org/1999/xlink" x="0px"
	 y="0px" viewBox="0 0 24 24" style="enable-background:new 0 0 24 24;" xml:space="preserve">
<style type="text/css">
	.st0{fill:#A0001B;}
	.st1{fill:#C80019;}
	.st2{fill:#EF1111;}
	.st3{fill:#FFFFFF;}
</style>
<title>icon_07</title>
<g id="ライン">
	<polygon class="st0" points="17,23.2 17,14.9 7,14.9 7,23.2 12,20.8 	"/>
	<circle class="st1" cx="12" cy="9.5" r="8.8"/>
	<circle class="st2" cx="12" cy="9.5" r="6.2"/>
	<path class="st3" d="M16.5,8.1c-0.4-0.8-1.2-0.6-1.9-0.4l-2,0.9l-1.8-1.2c-0.1-0.1-0.4-0.1-0.5,0L9.6,7.6c-0.1,0-0.1,0.1-0.1,0.2
		c0,0,0,0,0,0.1l1.2,1.4l-1.6,0.8L8.4,9.6C8.2,9.5,8,9.5,7.9,9.5L7.1,9.8c0,0-0.2,0.1-0.1,0.2l0.6,1c0.6,0.9,1.8,1.1,2.6,0.6l5-2.1
		C16.1,9.5,16.9,8.9,16.5,8.1z"/>
</g>
</svg>
