<?xml version="1.0" encoding="UTF-8"?>
<svg width="80px" height="80px" viewBox="0 0 80 80" version="1.1" xmlns="http://www.w3.org/2000/svg" xmlns:xlink="http://www.w3.org/1999/xlink">
    <!-- Generator: Sketch 42 (36781) - http://www.bohemiancoding.com/sketch -->
    <title>コンテンツアイコン</title>
    <desc>Created with Sketch.</desc>
    <defs>
        <polygon id="path-1" points="62.6837647 79.9378824 0 79.9378824 0 0.00062745098 62.6837647 0.00062745098 62.6837647 79.9378824"></polygon>
    </defs>
    <g id="Page-1" stroke="none" stroke-width="1" fill="none" fill-rule="evenodd">
        <g id="コンテンツアイコン">
            <g id="Page-1" transform="translate(8.000000, 0.000000)">
                <mask id="mask-2" fill="white">
                    <use xlink:href="#path-1"></use>
                </mask>
                <g id="Clip-2"></g>
                <path d="M34.4484706,71.8051765 L34.4484706,56.1612549 L46.8484706,49.9620392 L56.4704314,45.1510588 L56.4704314,60.7934118 L34.4484706,71.8051765 Z M6.21317647,45.1510588 L15.8351373,49.9620392 L28.2351373,56.1612549 L28.2351373,71.8051765 L6.21317647,60.7934118 L6.21317647,45.1510588 Z M16.4986667,36.9016471 C16.5018039,36.9032157 16.5065098,36.9047843 16.5080784,36.9079216 C17.3159216,37.4004706 18.1708235,37.8522353 19.0821961,38.2538039 C19.124549,38.2741961 19.1716078,38.2898824 19.2155294,38.3087059 C20.1096471,38.6977255 21.044549,39.0506667 22.0359216,39.3471373 C22.1974902,39.6436078 22.3825882,39.9432157 22.5629804,40.2412549 C23.0147451,40.9879216 23.5182745,41.7267451 24.0641569,42.4467451 C24.5974902,43.1510588 25.1574902,43.836549 25.7457255,44.4687059 C27.2500392,46.1267451 29.0523922,47.6436078 30.6382745,48.598902 C31.4680784,49.1196863 32.2053333,49.4616471 32.7182745,49.6749804 L33.1747451,49.8538039 L31.3425882,50.7698824 L10.0516078,40.1251765 L16.4986667,36.9016471 Z M17.377098,10.9361569 C20.4437647,7.83968627 25.5637647,6.21145098 32.299451,6.21145098 C32.5159216,6.21145098 32.7355294,6.21301961 32.9567059,6.21615686 C39.9072941,6.10007843 45.272,7.74086275 48.4390588,10.9361569 C50.7386667,13.2592941 51.8555294,16.4028235 51.7567059,20.2820392 C51.7551373,20.3338039 51.7551373,20.3871373 51.7567059,20.438902 C51.8555294,24.3181176 50.7386667,27.4616471 48.4390588,29.7847843 C47.7033725,30.5267451 46.8359216,31.1761569 45.8696471,31.7471373 C45.6892549,31.8538039 45.5025882,31.9541961 45.3143529,32.0545882 C45.0100392,32.2192941 44.6931765,32.371451 44.3684706,32.5204706 C44.1504314,32.6192941 43.9323922,32.7196863 43.7033725,32.8122353 C43.3739608,32.944 43.0288627,33.0616471 42.6806275,33.1792941 C42.3182745,33.3032157 41.9480784,33.4192941 41.566902,33.5243922 C41.1527843,33.638902 40.7386667,33.7502745 40.3041569,33.8443922 C39.9747451,33.916549 39.6312157,33.971451 39.2892549,34.0326275 C38.9723922,34.0875294 38.6555294,34.144 38.3276863,34.1894902 C37.9810196,34.2381176 37.6265098,34.278902 37.2688627,34.316549 C36.8955294,34.3541961 36.5127843,34.3871373 36.126902,34.4122353 C35.8053333,34.4341961 35.4853333,34.4577255 35.1574902,34.4718431 C34.4751373,34.4985098 33.7802353,34.5141961 33.0649412,34.5032157 C32.9959216,34.5016471 32.9300392,34.5063529 32.859451,34.5047843 L32.1802353,34.4938039 C30.5143529,34.4938039 29.1465098,35.8067451 29.0759216,37.4694902 C29.057098,37.9071373 29.0539608,38.3432157 29.0602353,38.7730196 C28.4014118,37.9118431 27.819451,37.0145882 27.3912157,36.1910588 C27.2657255,35.9369412 27.1621961,35.7032157 27.0586667,35.4663529 C26.6696471,34.5832157 25.8900392,33.929098 24.9488627,33.7016471 C24.3543529,33.5573333 23.7849412,33.3894902 23.2343529,33.2059608 C23.192,33.1918431 23.1512157,33.1792941 23.1088627,33.1667451 C22.5959216,32.9910588 22.1065098,32.7934118 21.6312157,32.5847843 C21.5433725,32.5455686 21.457098,32.5079216 21.3708235,32.4671373 C20.9080784,32.2538039 20.4657255,32.0263529 20.0437647,31.7800784 C19.9621961,31.731451 19.8806275,31.676549 19.7974902,31.6263529 C19.4853333,31.4349804 19.1872941,31.2310588 18.897098,31.0208627 C16.0657255,28.9518431 13.9261176,25.6341961 14.059451,20.2820392 C13.9606275,16.4028235 15.0774902,13.2592941 17.377098,10.9361569 L17.377098,10.9361569 Z M37.5057255,47.6875294 C37.5308235,47.5745882 37.5355294,47.4585098 37.5480784,47.3424314 C37.5527843,47.2906667 37.5621961,47.2420392 37.5653333,47.1902745 C37.5810196,46.9141961 37.5543529,46.6381176 37.4947451,46.3651765 C37.4837647,46.3071373 37.4649412,46.2522353 37.4492549,46.1941961 C37.3708235,45.9149804 37.2672941,45.6404706 37.1072941,45.3847843 L36.7872941,44.8781176 C36.5927843,44.5534118 36.4249412,44.211451 36.2633725,43.8020392 C35.9465098,43.0443922 35.6798431,42.0373333 35.5041569,41.0036078 C35.4853333,40.8969412 35.4633725,40.7918431 35.4476863,40.6851765 C35.5088627,40.6820392 35.5637647,40.6726275 35.6233725,40.6694902 C36.6210196,40.624 37.5857255,40.5377255 38.526902,40.4247843 C38.9410196,40.3745882 39.339451,40.3055686 39.7441569,40.2428235 C40.3276863,40.1518431 40.9033725,40.0483137 41.4649412,39.9306667 C41.8853333,39.8412549 42.3025882,39.7471373 42.7104314,39.6436078 C43.284549,39.4945882 43.8367059,39.3251765 44.3841569,39.1479216 C44.7057255,39.0412549 45.0398431,38.9502745 45.3504314,38.8341961 C46.1802353,38.5298824 46.9708235,38.1847843 47.7284706,37.8083137 C47.7739608,37.7847843 47.8257255,37.769098 47.8727843,37.7455686 L52.632,40.1251765 L37.5057255,47.6875294 Z M62.5692549,39.3032157 C62.5441569,39.2138039 62.4986667,39.1338039 62.4641569,39.0475294 C62.4014118,38.8781176 62.3386667,38.7087059 62.2476863,38.5534118 C62.1927843,38.4592941 62.1190588,38.3792941 62.0547451,38.291451 C61.9559216,38.1596863 61.8618039,38.0310588 61.7425882,37.916549 C61.659451,37.8334118 61.5621961,37.7659608 61.4696471,37.6922353 C61.3802353,37.6247843 61.3065098,37.5432157 61.2108235,37.4836078 C61.1684706,37.4585098 61.1198431,37.4475294 61.0774902,37.424 C61.0367059,37.4004706 61.006902,37.3675294 60.9661176,37.3471373 L53.3849412,33.5573333 C56.4908235,30.1141961 58.084549,25.5824314 57.9684706,20.3604706 C58.0908235,14.838902 56.3214118,10.0702745 52.8516078,6.56596078 C48.4672941,2.13772549 41.4837647,-0.122666667 32.9567059,0.00596078431 C24.1912157,-0.130509804 17.3472941,2.13929412 12.964549,6.56596078 C9.4774902,10.0859608 7.70964706,14.8828235 7.8492549,20.2820392 C7.72847059,25.0647843 9.00376471,29.1887059 11.499451,32.4561569 L1.7174902,37.3471373 C1.67513725,37.3675294 1.64690196,37.4020392 1.60611765,37.424 C1.56376471,37.4475294 1.51513725,37.4585098 1.47435294,37.4836078 C1.37709804,37.5432157 1.30337255,37.6247843 1.21552941,37.6922353 C1.12141176,37.7659608 1.02415686,37.8334118 0.941019608,37.916549 C0.821803922,38.0310588 0.727686275,38.1596863 0.628862745,38.291451 C0.56454902,38.3792941 0.492392157,38.4592941 0.435921569,38.5534118 C0.344941176,38.7087059 0.282196078,38.876549 0.21945098,39.0459608 C0.186509804,39.1322353 0.141019608,39.2138039 0.114352941,39.3032157 C0.0421960784,39.5683137 -0.000156862745,39.8443922 -0.000156862745,40.1251765 L-0.000156862745,62.7134118 C-0.000156862745,63.8898824 0.664941176,64.9659608 1.7174902,65.491451 L29.9527843,79.609098 C30.0688627,79.6687059 30.1943529,79.6969412 30.3167059,79.7408627 C30.3998431,79.769098 30.4782745,79.8083137 30.5614118,79.8302745 C30.8186667,79.8961569 31.0806275,79.9385098 31.3425882,79.9385098 C31.604549,79.9385098 31.8665098,79.8961569 32.1221961,79.8302745 C32.2053333,79.8083137 32.2837647,79.769098 32.366902,79.7408627 C32.4892549,79.6969412 32.6147451,79.6687059 32.7308235,79.609098 L60.9661176,65.491451 C62.0186667,64.9659608 62.6837647,63.8898824 62.6837647,62.7134118 L62.6837647,40.1251765 C62.6837647,39.8443922 62.6414118,39.5683137 62.5692549,39.3032157 L62.5692549,39.3032157 Z" id="Fill-1" fill="#444" mask="url(#mask-2)"></path>
            </g>
        </g>
    </g>
</svg>