<svg width="24" height="24" viewBox="0 0 24 24" xmlns="http://www.w3.org/2000/svg"><title>clip--pink</title><path d="M14.238 21.377s3.82-5.79 5.54-8.294c2.744-3.99 2.37-7.88-.904-10.32C14.896-.2 10.764.6 7.788 4.943c-1.876 2.737-3.87 5.623-4.767 6.993-1.87 2.86-3.32 6.08.03 8.493 2.96 2.13 5.55.8 7.17-1.57.95-1.378 3.23-5.057 4.36-6.7 1.11-1.6 2.728-4.06.73-5.44-2.144-1.487-3.75 1.05-4.74 2.56-1.37 2.083-4.55 7.02-4.55 7.02" stroke="#ff5998" stroke-width="2" stroke-linecap="round" stroke-linejoin="round" fill="none"/></svg>