<svg width="24" height="24" viewBox="0 0 24 24" xmlns="http://www.w3.org/2000/svg"><title>clip-b--gray</title><path d="M18.346 16.788L12.394 5.74l-.006.003c-.713-1.262-2.305-1.73-3.59-1.04-1.262.68-1.754 2.227-1.14 3.507l5.027 9.376s.45.662 1.246.216c.857-.478.48-1.142.48-1.142L9.43 7.354c-.157-.335-.028-.74.302-.916.33-.177.744-.087.937.23h-.006l5.95 11.05c.508.947.152 2.13-.796 2.64-.913.49-2.31.323-2.85-.546L6.54 7.784c-.75-1.394.177-3.35 1.73-4.183 1.556-.83 3.423-.38 4.172 1.018l5.446 9.624s.65.685 1.386.26c.736-.427.44-1.24.44-1.24l-5.59-9.9C12.89 1.062 9.81.314 7.247 1.69c-2.563 1.376-4.16 4.13-2.678 6.8l6.23 11.603c1.484 3.1 4.3 2.878 5.95 1.992 1.9-1.022 2.614-3.393 1.592-5.297" fill="#B4B4B4" fill-rule="evenodd"/></svg>