<svg width="24" height="24" viewBox="0 0 24 24" xmlns="http://www.w3.org/2000/svg"><title>clip--black</title><path d="M14.238 21.377s3.82-5.79 5.54-8.294c2.744-3.99 2.37-7.88-.904-10.32C14.896-.2 10.764.6 7.788 4.944c-1.876 2.736-3.87 5.622-4.767 6.992-1.87 2.86-3.32 6.08.03 8.493 2.96 2.133 5.544.8 7.17-1.568.946-1.375 3.23-5.054 4.36-6.702 1.104-1.6 2.723-4.055.726-5.438-2.145-1.484-3.752 1.053-4.738 2.56C9.2 11.365 6.022 16.3 6.022 16.3" stroke="#444" stroke-width="2" stroke-linecap="round" stroke-linejoin="round" fill="none" fill-rule="evenodd"/></svg>