<?xml version="1.0" encoding="UTF-8"?>
<svg width="20px" height="20px" viewBox="0 0 20 20" version="1.1" xmlns="http://www.w3.org/2000/svg" xmlns:xlink="http://www.w3.org/1999/xlink">
    <!-- Generator: Sketch 61.2 (89653) - https://sketch.com -->
    <title>clip--maincolor-active</title>
    <desc>Created with Sketch.</desc>
    <g id="Page-1" stroke="none" stroke-width="1" fill="none" fill-rule="evenodd">
        <g id="favorite--maincolor-active" fill="#009488" fill-rule="nonzero">
            <polygon id="Path" points="15.4229462 18.9204693 10.2694981 15.6149397 9.99954816 15.4417801 9.72959824 15.6149397 4.57615014 18.9204693 5.98270818 12.7050104 6.04733821 12.4194098 5.82986804 12.22332 1.19056197 8.04001808 7.25789805 7.52498007 7.56640836 7.49878979 7.68045827 7.21093988 9.99954816 1.35746896 12.318638 7.21093988 12.432688 7.49878979 12.7411978 7.52498007 18.8085348 8.04001808 14.1692278 12.22332 13.9517586 12.4194098 14.0163881 12.7050104"></polygon>
            <path d="M14.6660015,17.8409271 L13.5287182,12.8153696 C13.448888,12.4625902 13.565778,12.0942001 13.834388,11.8519897 L17.6175119,8.44071579 L12.6989081,8.02318954 C12.3208677,7.99109983 11.9935381,7.74782991 11.8537981,7.39511013 L9.99954816,2.71491265 L8.1452982,7.39511013 C8.00555821,7.74782991 7.67822858,7.99109983 7.30018826,8.02318954 L2.38158484,8.44071579 L6.16470834,11.8519897 C6.43331834,12.0942001 6.55020829,12.4625902 6.47037812,12.8153696 L5.3330948,17.8409271 L9.45964833,15.1940699 C9.62414857,15.0885553 9.81184789,15.0357971 9.99954816,15.0357971 C10.1872484,15.0357971 10.3749477,15.0885553 10.539448,15.1940699 L14.6660015,17.8409271 M16.179888,20 L9.99954816,16.0358009 L3.81920834,20 L5.49503823,12.5946503 L-0.000451843262,7.6393199 L7.21560832,7.02677011 L9.99954816,0 L12.7834885,7.02677011 L19.9995482,7.6393199 L14.5040581,12.5946503 L16.179888,20 Z" id="Shape"></path>
        </g>
    </g>
</svg>
