<?xml version="1.0" encoding="utf-8"?>
<!-- Generator: Adobe Illustrator 22.1.0, SVG Export Plug-In . SVG Version: 6.00 Build 0)  -->
<svg version="1.1" id="レイヤー_1" xmlns="http://www.w3.org/2000/svg" xmlns:xlink="http://www.w3.org/1999/xlink" x="0px"
	 y="0px" viewBox="0 0 24 24" style="enable-background:new 0 0 24 24;" xml:space="preserve">
<style type="text/css">
	.st0{fill:#FFFFFF;}
	.st1{fill:#c0c0c0;}
</style>
<title>icon_01</title>
<g id="ライン">
	<path class="st0" d="M8.2,20.3c-3.8,0-6.8-3-6.8-6.8v-3.1c0-3.8,3-6.8,6.8-6.8h5.2c3.8,0,6.8,3,6.8,6.8v5.2
		c0.1,2.1,0.1,3.4,2.5,4.7L8.2,20.3z"/>
	<path class="st1" d="M13.4,4.4c3.3,0,6,2.7,6,6.1v5.2c-0.1,1.4,0.3,2.8,1.1,3.9H8.2c-3.3,0-6-2.7-6-6v-3.1c0-3.3,2.7-6,6-6
		L13.4,4.4 M13.4,2.9H8.2c-4.1,0-7.5,3.4-7.5,7.5v3.1c0,4.1,3.4,7.5,7.5,7.5h14.5c0.5,0,0.9-0.1,0.9-0.6s-0.6-0.8-0.6-0.8
		c-2.1-1.1-2-2.1-2.1-4.3v-2.2l0,0v-2.7C21,6.3,17.6,2.9,13.4,2.9L13.4,2.9z"/>
</g>
</svg>
