<?xml version="1.0" encoding="UTF-8"?>
<svg width="20px" height="20px" viewBox="0 0 20 20" version="1.1" xmlns="http://www.w3.org/2000/svg" xmlns:xlink="http://www.w3.org/1999/xlink">
    <!-- Generator: Sketch 61.2 (89653) - https://sketch.com -->
    <title>comment--maincolor</title>
    <desc>Created with Sketch.</desc>
    <g id="Page-1" stroke="none" stroke-width="1" fill="none" fill-rule="evenodd">
        <g id="comment--maincolor" transform="translate(2.000000, 2.000000)" fill="#c0c0c0" fill-rule="nonzero">
            <path d="M8.38095284,1 C4.31108284,1 1.00000286,3.80210972 1.00000286,7.24635983 C1.00000286,8.89048004 1.75161266,10.4438896 3.11637306,11.6204205 L3.59865284,12.03619 L3.42594242,12.6490698 L3.01080894,14.1222162 L5.02334309,13.1402702 L5.38481331,12.9638996 L5.76773262,13.0869303 C6.60589314,13.3562298 7.48511314,13.4927702 8.38095284,13.4927702 C12.4508228,13.4927702 15.7619028,10.6906395 15.7619028,7.24635983 C15.7619028,3.80210972 12.4508228,1 8.38095284,1 M8.38095284,0 C13.0065031,0 16.7619038,3.24701977 16.7619038,7.24635983 C16.7619038,11.2457504 13.0065031,14.4927702 8.38095284,14.4927702 C7.38443279,14.4927702 6.39595318,14.3391199 5.46184254,14.0389996 L1.44270325,16 L2.46343327,12.3778305 C0.886383057,11.0182896 1.90734863e-06,9.17191982 1.90734863e-06,7.24635983 C1.90734863e-06,3.24701977 3.75540257,0 8.38095284,0 Z" id="Shape"></path>
        </g>
    </g>
</svg>
