<?xml version="1.0" encoding="UTF-8"?>
<svg width="22px" height="22px" viewBox="0 0 22 22" version="1.1" xmlns="http://www.w3.org/2000/svg" xmlns:xlink="http://www.w3.org/1999/xlink">
    <!-- Generator: Sketch 54.1 (76490) - https://sketchapp.com -->
    <title>facebook--color</title>
    <desc>Created with Sketch.</desc>
    <g id="facebook--color" stroke="none" stroke-width="1" fill="none" fill-rule="evenodd">
        <g id="f_logo_RGB-Blue_1024-Copy" fill-rule="nonzero">
            <path d="M22,11 C22,4.92486328 17.0751367,0 11,0 C4.92486328,0 0,4.92486328 0,11 C0,16.490418 4.02254102,21.0411523 9.28125,21.8663242 L9.28125,14.1796875 L6.48828125,14.1796875 L6.48828125,11 L9.28125,11 L9.28125,8.5765625 C9.28125,5.8196875 10.9234941,4.296875 13.4360918,4.296875 C14.639625,4.296875 15.8984375,4.51171875 15.8984375,4.51171875 L15.8984375,7.21875 L14.5113418,7.21875 C13.1448926,7.21875 12.71875,8.06667383 12.71875,8.93657617 L12.71875,11 L15.7695312,11 L15.2818359,14.1796875 L12.71875,14.1796875 L12.71875,21.8663242 C17.977459,21.0411523 22,16.490418 22,11 Z" id="Path" fill="#1877F2"></path>
            <path d="M15.2818359,14.1796875 L15.7695312,11 L12.71875,11 L12.71875,8.93657617 C12.71875,8.06667383 13.1448926,7.21875 14.5113418,7.21875 L15.8984375,7.21875 L15.8984375,4.51171875 C15.8984375,4.51171875 14.639625,4.296875 13.4360918,4.296875 C10.9234941,4.296875 9.28125,5.8196875 9.28125,8.5765625 L9.28125,11 L6.48828125,11 L6.48828125,14.1796875 L9.28125,14.1796875 L9.28125,21.8663242 C9.8412832,21.9541953 10.4152812,22 11,22 C11.5847188,22 12.1587168,21.9541953 12.71875,21.8663242 L12.71875,14.1796875 L15.2818359,14.1796875 Z" id="Path" fill="#FFFFFF"></path>
        </g>
    </g>
</svg>