<?xml version="1.0" encoding="UTF-8"?>
<svg width="1000px" height="1000px" viewBox="0 0 1000 1000" version="1.1" xmlns="http://www.w3.org/2000/svg" xmlns:xlink="http://www.w3.org/1999/xlink">
    <!-- Generator: Sketch 54.1 (76490) - https://sketchapp.com -->
    <title>facebook-logo--circle</title>
    <desc>Created with Sketch.</desc>
    <g id="facebook-logo--circle" stroke="none" stroke-width="1" fill="none" fill-rule="evenodd">
        <g id="f_logo_RGB-Blue_1024" fill-rule="nonzero">
            <path d="M1000,500 C1000,223.857422 776.142578,0 500,0 C223.857422,0 0,223.857422 0,500 C0,749.564453 182.842773,956.416016 421.875,993.923828 L421.875,644.53125 L294.921875,644.53125 L294.921875,500 L421.875,500 L421.875,389.84375 C421.875,264.53125 496.522461,195.3125 610.731445,195.3125 C665.4375,195.3125 722.65625,205.078125 722.65625,205.078125 L722.65625,328.125 L659.606445,328.125 C597.495117,328.125 578.125,366.666992 578.125,406.208008 L578.125,500 L716.796875,500 L694.628906,644.53125 L578.125,644.53125 L578.125,993.923828 C817.157227,956.416016 1000,749.564453 1000,500 Z" id="Path" fill="#1877F2"></path>
            <path d="M694.628906,644.53125 L716.796875,500 L578.125,500 L578.125,406.208008 C578.125,366.666992 597.495117,328.125 659.606445,328.125 L722.65625,328.125 L722.65625,205.078125 C722.65625,205.078125 665.4375,195.3125 610.731445,195.3125 C496.522461,195.3125 421.875,264.53125 421.875,389.84375 L421.875,500 L294.921875,500 L294.921875,644.53125 L421.875,644.53125 L421.875,993.923828 C447.331055,997.917969 473.421875,1000 500,1000 C526.578125,1000 552.668945,997.917969 578.125,993.923828 L578.125,644.53125 L694.628906,644.53125 Z" id="Path" fill="#FFFFFF"></path>
        </g>
    </g>
</svg>