<?xml version="1.0" encoding="utf-8"?>
<!-- Generator: Adobe Illustrator 19.2.1, SVG Export Plug-In . SVG Version: 6.00 Build 0)  -->
<svg version="1.1" id="レイヤー_1" xmlns="http://www.w3.org/2000/svg" xmlns:xlink="http://www.w3.org/1999/xlink" x="0px"
	 y="0px" viewBox="0 0 30 30" style="enable-background:new 0 0 30 30;" xml:space="preserve">
<style type="text/css">
	.st0{fill:#7F7F7F;}
	.st1{fill:#7F7F7F;stroke:#7F7F7F;}
</style>
<title>mark_refine</title>
<desc>Created with Sketch.</desc>
<g id="clipboard">
	<g id="iPhone-6" transform="translate(-338.000000, -65.000000)">
		<g id="mark_refine" transform="translate(332.000000, 58.000000)">
			<rect id="Rectangle-1" x="12" y="16.5" class="st0" width="18" height="1"/>
			<rect id="Rectangle-1-Copy" x="12" y="26.5" class="st0" width="18" height="1"/>
			<path id="Rectangle-3" class="st1" d="M15,15.5h3c0.6,0,1,0.4,1,1v1c0,0.6-0.4,1-1,1h-3c-0.6,0-1-0.4-1-1v-1
				C14,15.9,14.4,15.5,15,15.5z"/>
			<path id="Rectangle-3_1_" class="st1" d="M22,25.5h3c0.6,0,1,0.4,1,1v1c0,0.6-0.4,1-1,1h-3c-0.6,0-1-0.4-1-1v-1
				C21,25.9,21.4,25.5,22,25.5z"/>
		</g>
	</g>
</g>
</svg>
