<?xml version="1.0" encoding="UTF-8" standalone="no"?>
<svg width="33px" height="24px" viewBox="0 0 33 24" version="1.1" xmlns="http://www.w3.org/2000/svg" xmlns:xlink="http://www.w3.org/1999/xlink" xmlns:sketch="http://www.bohemiancoding.com/sketch/ns">
    <!-- Generator: Sketch 3.4.4 (17249) - http://www.bohemiancoding.com/sketch -->
    <title>アイコン</title>
    <desc>Created with Sketch.</desc>
    <defs>
        <path id="path-1" d="M0,0.754 L32.853,0.754 L32.853,24 L0,24"></path>
        <path id="path-3" d="M0,0.754 L32.853,0.754 L32.853,24 L0,24"></path>
    </defs>
    <g id="アカウント" stroke="none" stroke-width="1" fill="none" fill-rule="evenodd" sketch:type="MSPage">
        <g sketch:type="MSArtboardGroup" transform="translate(-723.000000, -581.000000)" id="アイコン">
            <g sketch:type="MSLayerGroup" transform="translate(723.000000, 581.000000)">
                <path d="M31.9092,14.832 C31.9092,15.089 31.7022,15.298 31.4432,15.298 L16.7942,15.298 C16.5412,15.298 16.3332,15.089 16.3332,14.832 L16.3332,2.161 C16.3332,1.903 16.5412,1.697 16.7942,1.697 L31.4432,1.697 C31.7022,1.697 31.9092,1.903 31.9092,2.161 L31.9092,14.832 L31.9092,14.832 Z" id="Stroke-1" stroke="#030000" stroke-width="1.887" stroke-linecap="round" stroke-linejoin="round" sketch:type="MSShapeGroup"></path>
                <g id="Group-5">
                    <mask id="mask-2" sketch:name="Clip 4" fill="white">
                        <use xlink:href="#path-1"></use>
                    </mask>
                    <g id="Clip-4"></g>
                    <path d="M11.3359,20.5332 C11.3359,21.4782 10.5679,22.2472 9.6259,22.2472 C8.6779,22.2472 7.9059,21.4782 7.9059,20.5332 C7.9059,20.5142 7.9069,20.5012 7.9089,20.4802 L6.1569,20.4802 C6.1569,20.5012 6.1559,20.5142 6.1559,20.5332 C6.1559,22.4442 7.7099,24.0002 9.6259,24.0002 C11.5339,24.0002 13.0869,22.4442 13.0869,20.5332 L13.0869,20.4802 L11.3339,20.4802 C11.3359,20.5012 11.3359,20.5142 11.3359,20.5332" id="Fill-3" fill="#000000" sketch:type="MSShapeGroup" mask="url(#mask-2)"></path>
                </g>
                <g id="Group-8">
                    <mask id="mask-4" sketch:name="Clip 7" fill="white">
                        <use xlink:href="#path-3"></use>
                    </mask>
                    <g id="Clip-7"></g>
                    <path d="M24.1543,20.5332 C24.1543,21.4782 23.3873,22.2472 22.4393,22.2472 C21.4963,22.2472 20.7253,21.4782 20.7253,20.5332 C20.7253,20.5142 20.7283,20.5012 20.7283,20.4802 L18.9763,20.4802 L18.9763,20.5332 C18.9763,22.4442 20.5303,24.0002 22.4393,24.0002 C24.3513,24.0002 25.9083,22.4442 25.9083,20.5332 C25.9083,20.5142 25.9053,20.5012 25.9033,20.4802 L24.1523,20.4802 C24.1543,20.5012 24.1543,20.5142 24.1543,20.5332" id="Fill-6" fill="#000000" sketch:type="MSShapeGroup" mask="url(#mask-4)"></path>
                </g>
                <path d="M30.4473,18.5605 C30.4473,18.5605 31.3333,18.6005 31.3333,19.4145 C31.3333,20.2255 30.7333,20.4045 30.4143,20.4045 C30.0933,20.4045 1.5293,20.3835 1.9583,20.4045 C2.3763,20.4235 0.8403,20.4685 0.4723,20.2075 C0.0723,19.9245 0.0593,19.3485 0.0443,18.7405 C0.0333,18.1395 0.0003,14.3365 0.0003,14.3365 C0.0003,14.3365 0.0283,13.6285 0.1933,13.3325 C0.3713,13.0055 0.5313,12.8915 0.6813,12.7945 C0.9803,12.6015 5.4263,10.3495 5.4263,10.3495 C5.4263,10.3495 6.5733,5.8835 6.6493,5.6085 C6.7663,5.1805 6.8493,4.7835 7.2683,4.3445 C7.5333,4.0625 8.0203,3.8685 8.5753,3.8745 C8.9293,3.8805 11.5483,3.9095 11.5483,3.9095 C11.5483,3.9095 12.6483,3.9485 12.9993,4.2985 C13.3543,4.6535 13.6003,5.0095 13.6373,5.9635 C13.6723,6.9195 13.7083,16.2635 13.7083,16.2635 C13.7083,16.2635 13.6003,17.2875 12.7183,17.2875 C11.9023,17.2875 11.8523,16.2635 11.8523,16.2635 L11.8323,6.4945 C11.8323,6.4945 11.8713,6.1835 11.7223,5.9935 C11.5573,5.7845 11.1933,5.7845 11.1933,5.7845 L9.1063,5.7845 C9.1063,5.7845 8.7453,5.7575 8.4763,6.0225 C8.3013,6.2035 8.2113,6.4395 8.1723,6.6865 C8.1353,6.8965 7.2653,10.7435 7.2653,10.7435 C7.2653,10.7435 7.1573,11.1305 6.9093,11.4495 C6.6643,11.7685 6.2763,12.0175 6.2763,12.0175 L2.5933,13.7915 C2.5933,13.7915 2.0333,14.0335 1.9213,14.2085 C1.8293,14.3535 1.8593,14.9145 1.8593,14.9145 L1.8523,18.5275 L30.4473,18.5605 Z" id="Fill-9" fill="#000000" sketch:type="MSShapeGroup"></path>
            </g>
        </g>
    </g>
</svg>