<?xml version="1.0" encoding="UTF-8"?>
<svg width="1000px" height="1000px" viewBox="0 0 1000 1000" version="1.1" xmlns="http://www.w3.org/2000/svg" xmlns:xlink="http://www.w3.org/1999/xlink">
    <!-- Generator: Sketch 51.1 (57501) - http://www.bohemiancoding.com/sketch -->
    <title>hatena-logo--circle</title>
    <desc>Created with Sketch.</desc>
    <defs></defs>
    <g id="hatena-logo--circle" stroke="none" stroke-width="1" fill="none" fill-rule="evenodd">
        <circle id="Oval-2" fill="#00A4DE" fill-rule="nonzero" cx="500" cy="500" r="500"></circle>
        <g id="hatenabookmark-logomark" transform="translate(229.000000, 272.000000)" fill="#FFFFFF" fill-rule="nonzero">
            <g id="Group">
                <path d="M328.212723,243.128947 C310.139602,222.95117 285.023279,211.667544 252.863754,209.27807 C281.568123,201.512281 302.299057,190.162281 315.455226,174.829825 C328.611395,159.497368 334.990144,139.385965 334.990144,113.699123 C335.319311,94.8812634 330.788219,76.2962137 321.833975,59.7368421 C312.776139,44.0733788 299.521286,31.2464664 283.561482,22.7 C269.009962,14.7350877 251.667738,8.96052632 231.335477,5.5754386 C211.003215,2.19035088 175.322089,0.796491228 124.2921,0.796491228 L0.105835028,0.796491228 L0.105835028,453.203509 L128.079482,453.203509 C179.508143,453.203509 216.58462,451.477778 239.308913,448.026316 C262.033205,444.442105 280.970115,438.468421 296.31898,430.304386 C314.785938,420.748939 329.983988,405.913753 339.973541,387.692105 C350.139672,369.372807 355.322405,348.066667 355.322405,323.773684 C355.322405,290.12193 346.35229,263.240351 328.212723,243.128947 Z M114.923312,100.955263 L141.434987,100.955263 C172.132715,100.955263 192.730758,104.406725 203.229115,111.309649 C213.793918,118.278947 218.976651,130.226316 218.976651,147.151754 C218.976651,164.077193 213.19591,175.028947 202.0331,181.799123 C190.870289,188.569298 169.94002,191.755263 139.441628,191.755263 L114.923312,191.755263 L114.923312,100.955263 Z M220.172667,360.412281 C208.013177,367.779825 187.282243,371.364035 158.179202,371.364035 L114.923312,371.364035 L114.923312,272.798246 L159.973225,272.798246 C189.87361,272.798246 210.604543,276.581579 221.568018,284.148246 C232.531492,291.714912 238.312233,304.857018 238.312233,323.972807 C238.312233,343.088596 232.332156,353.24386 219.973331,360.611404 L220.172667,360.412281 Z" id="Shape"></path>
                <path d="M486.485426,338.707895 C454.779455,338.707895 429.076688,364.383186 429.076688,396.055263 C429.076688,427.72734 454.779455,453.402632 486.485426,453.402632 C518.191397,453.402632 543.894165,427.72734 543.894165,396.055263 C543.894165,364.383186 518.191397,338.707895 486.485426,338.707895 Z" id="Shape"></path>
                <rect id="Rectangle-path" x="436.651452" y="0.796491228" width="99.667949" height="301.710877"></rect>
            </g>
        </g>
    </g>
</svg>