<?xml version="1.0" encoding="utf-8"?>
<!-- Generator: Adobe Illustrator 16.0.4, SVG Export Plug-In . SVG Version: 6.00 Build 0)  -->
<!DOCTYPE svg PUBLIC "-//W3C//DTD SVG 1.1//EN" "http://www.w3.org/Graphics/SVG/1.1/DTD/svg11.dtd">
<svg version="1.1" id="レイヤー_1" xmlns="http://www.w3.org/2000/svg" xmlns:xlink="http://www.w3.org/1999/xlink" x="0px"
	 y="0px" width="142.224px" height="118.502px" viewBox="215.028 343.363 142.224 118.502"
	 enable-background="new 215.028 343.363 142.224 118.502" xml:space="preserve">
<g>
	<path fill="#FFFFFF" d="M300.843,406.812c-4.728-5.281-11.296-8.237-19.708-8.862c7.508-2.033,12.929-5.004,16.371-9.02
		c3.44-4.014,5.109-9.28,5.109-16.005c0.085-4.926-1.099-9.792-3.441-14.128c-2.369-4.1-5.836-7.458-10.01-9.697
		c-3.806-2.085-8.341-3.597-13.659-4.483s-14.649-1.252-27.997-1.252h-32.48v118.45h33.471c13.451,0,23.148-0.45,29.092-1.354
		c5.943-0.938,10.895-2.505,14.91-4.642c4.831-2.502,8.806-6.386,11.418-11.156c2.659-4.797,4.015-10.374,4.015-16.734
		C307.932,419.115,305.587,412.078,300.843,406.812z M245.058,369.589h6.934c8.028,0,13.416,0.904,16.162,2.71
		c2.764,1.825,4.119,4.955,4.119,9.386c0,4.429-1.512,7.299-4.432,9.07c-2.919,1.773-8.393,2.608-16.37,2.608h-6.413
		L245.058,369.589L245.058,369.589z M272.585,437.521c-3.18,1.927-8.603,2.868-16.213,2.868h-11.314V414.58h11.783
		c7.819,0,13.242,0.992,16.109,2.974c2.867,1.98,4.379,5.422,4.379,10.426c0,5.007-1.564,7.664-4.796,9.593L272.585,437.521z"/>
	<path fill="#FFFFFF" d="M342.237,431.838c-8.293,0-15.016,6.721-15.016,15.015c0,8.291,6.723,15.013,15.016,15.013
		s15.015-6.722,15.015-15.013l0,0C357.252,438.559,350.53,431.838,342.237,431.838z"/>
	<rect x="329.204" y="343.363" fill="#FFFFFF" width="26.067" height="78.995"/>
</g>
</svg>
