<?xml version="1.0" encoding="UTF-8"?>
<svg width="24px" height="24px" viewBox="0 0 24 24" version="1.1" xmlns="http://www.w3.org/2000/svg" xmlns:xlink="http://www.w3.org/1999/xlink">
    <!-- Generator: Sketch 61.2 (89653) - https://sketch.com -->
    <title>header-icon-tips</title>
    <desc>Created with Sketch.</desc>
    <g id="Page-1" stroke="none" stroke-width="1" fill="none" fill-rule="evenodd" stroke-linecap="round">
        <g id="ss" transform="translate(0.200000, 0.300000)" stroke="#175807" stroke-width="1.5">
            <path d="M10.084,17.76 L13.004,17.76 C13.1366738,16.7191189 13.5214832,15.7263724 14.125,14.868 C14.962,14.009 16.38,13.102 16.38,10.688 C16.3419883,8.04509132 14.188682,5.92253237 11.5455,5.92253237 C8.90231798,5.92253237 6.74901173,8.04509132 6.711,10.688 C6.81356699,12.3131441 7.57979891,13.824635 8.83,14.868 C9.23997188,15.270447 9.54104528,15.7704009 9.705,16.321 C9.87449617,16.7882477 10.0013471,17.2698797 10.084,17.76 L10.084,17.76 Z" id="パス_10" fill="#50B541" fill-rule="nonzero"></path>
            <line x1="10.015" y1="19.721" x2="13.022" y2="19.721" id="線_40"></line>
            <line x1="10.015" y1="21.848" x2="13.022" y2="21.848" id="線_41"></line>
            <line x1="10.602" y1="22.655" x2="12.436" y2="22.655" id="線_42"></line>
            <line x1="11.482" y1="0.75" x2="11.482" y2="3.464" id="線_43"></line>
            <line x1="16.397" y1="5.858" x2="18.891" y2="3.364" id="線_44"></line>
            <line x1="6.751" y1="5.858" x2="4.257" y2="3.364" id="線_47"></line>
            <line x1="18.791" y1="10.699" x2="22.75" y2="10.699" id="線_45"></line>
            <line x1="4.358" y1="10.699" x2="0.75" y2="10.699" id="線_48"></line>
            <line x1="16.397" y1="15.613" x2="18.891" y2="18.107" id="線_46"></line>
            <line x1="6.751" y1="15.613" x2="4.257" y2="18.107" id="線_49"></line>
        </g>
    </g>
</svg>