<svg xmlns="http://www.w3.org/2000/svg" width="45.104" height="36.174" viewBox="0 0 45.104 36.174">
  <g id="グループ_679" data-name="グループ 679" transform="translate(-16 -249.5)">
    <path id="合体_2" data-name="合体 2" d="M7.163,23.256C2.875,21.08,0,17.075,0,12.5,0,5.595,6.527,0,14.578,0S29.156,5.595,29.156,12.5s-6.527,12.5-14.578,12.5a17.015,17.015,0,0,1-2.823-.234,5.89,5.89,0,0,0,1.018,2.906c.5.723.463,1.038.115,1.038C11.91,28.7,8.433,26.2,7.163,23.256Z" transform="translate(16 249.5)" fill="#009488"/>
    <path id="合体_3" data-name="合体 3" d="M0,12.718A10.008,10.008,0,0,1,6.156,3.781C7.256.954,9.777-1.285,9.056.844a4.787,4.787,0,0,0-.227,2.063,12.99,12.99,0,0,1,2.625-.266c6.326,0,11.454,4.511,11.454,10.078S17.78,22.8,11.454,22.8,0,18.284,0,12.718Z" transform="translate(57.366 285.111) rotate(-172)" fill="#009488" stroke="#fff" stroke-width="1"/>
    <path id="パス_13" data-name="パス 13" d="M6.868,10.969c0-1.21.431-1.579,1.558-2.522,2.091-1.763,2.768-2.337,2.768-4.1C11.194,2.378,9.821,0,5.8,0,.923,0,0,3.465,0,4.654,0,5.9,1.23,5.946,1.5,5.946c.718,0,1.394-.226,1.517-.964C3.26,3.649,3.444,2.6,5.7,2.6c.861,0,2.46.205,2.46,1.784,0,1.046-.759,1.62-2.276,2.747A4.187,4.187,0,0,0,4,10.846c0,.779.041,1.62,1.476,1.62C6.868,12.465,6.868,11.44,6.868,10.969ZM5.433,14a1.722,1.722,0,1,0,1.722,1.722A1.719,1.719,0,0,0,5.433,14Z" transform="matrix(0.996, -0.087, 0.087, 0.996, 24.267, 254.383)" fill="#fff"/>
    <path id="パス_14" data-name="パス 14" d="M2.426,4.34V1.058C2.426.389,2.084,0,1.291,0A.974.974,0,0,0,.171,1.058V4.34L.622,8.648c.047.513.218.762.7.762s.622-.342.669-.778Zm-1.12,6.284A1.307,1.307,0,1,0,2.6,11.93,1.3,1.3,0,0,0,1.307,10.624Z" transform="translate(48.039 264.399) rotate(13)" fill="#fff"/>
  </g>
</svg>
