<svg width="24" height="24" viewBox="0 0 24 24" xmlns="http://www.w3.org/2000/svg" xmlns:sketch="http://www.bohemiancoding.com/sketch/ns"><title>info--red</title><desc>Created with Sketch.</desc><g sketch:type="MSLayerGroup" fill="none"><path d="M2.321 17.425c-.84-1.53-1.321-3.292-1.321-5.164 0-5.933 4.807-10.74 10.74-10.74 5.932 0 10.737 4.807 10.737 10.74s-4.806 10.739-10.737 10.739c-2.259 0-4.354-.697-6.083-1.888" stroke="#f00" stroke-width="2" stroke-linecap="round" stroke-linejoin="round" sketch:type="MSShapeGroup"/><path d="M12.717 17.322c0 .601-.463 1.001-1.017 1.001-.616 0-.939-.585-.939-1.001v-7.482c0-.616.462-1.017 1-1.017.632 0 .956.586.956 1.017v7.482zm.261-10.454c0 .678-.554 1.232-1.247 1.232-.693 0-1.231-.571-1.231-1.232 0-.693.569-1.232 1.231-1.232.662 0 1.247.524 1.247 1.232z" fill="#f00" sketch:type="MSShapeGroup"/></g></svg>