<?xml version="1.0" encoding="UTF-8"?>
<svg width="20px" height="20px" viewBox="0 0 20 20" version="1.1" xmlns="http://www.w3.org/2000/svg" xmlns:xlink="http://www.w3.org/1999/xlink">
    <!-- Generator: Sketch 61.2 (89653) - https://sketch.com -->
    <title>like--maincolor</title>
    <desc>Created with Sketch.</desc>
    <g id="Page-1" stroke="none" stroke-width="1" fill="none" fill-rule="evenodd">
        <g id="like--maincolor" transform="translate(0.500000, 2.300000)" fill="#c0c0c0" fill-rule="nonzero">
            <path d="M4.76731396,0.999998093 C3.7660141,0.999998093 2.81014442,1.3141489 2.14481354,1.86189842 C0.538833618,3.18407822 0.626893997,5.99404812 2.36393356,8.8541584 C2.3691349,8.86273861 2.37421417,8.87139893 2.37916374,8.88012886 C3.39985657,10.6807537 6.00225735,12.8430691 9.55839443,14.8552332 C13.1145411,12.8430691 15.7169409,10.6807537 16.7376347,8.88012886 C16.7425842,8.87138844 16.7476635,8.86273861 16.7528744,8.8541584 C18.4899445,5.99404812 18.5780048,3.18407822 16.9719944,1.86190891 C16.3066139,1.31411839 15.3507538,0.999998093 14.349514,0.999998093 C12.7194138,0.999998093 11.2840443,1.81824875 10.4114637,3.24477863 C10.2297544,3.54183865 9.9066143,3.72297859 9.55839443,3.72297859 C9.21017361,3.72297859 8.88703442,3.54183865 8.70532417,3.24477863 C7.83271408,1.81818867 6.39736366,0.999998093 4.76731396,0.999998093 M4.76731205,0 C6.5159893,0 8.38128853,0.798585892 9.55839443,2.72297859 C10.7353821,0.798786163 12.6009617,0 14.3494806,0 C15.590395,0 16.7722607,0.402190208 17.607584,1.08987808 C19.6199131,2.74656868 19.6199131,6.05993843 17.607584,9.37325859 C16.1989441,11.8582888 12.5768442,14.3433189 9.55839443,16 C6.5399437,14.3433189 2.91785431,11.8582888 1.5092144,9.37325859 C-0.503076553,6.05993843 -0.503076553,2.74656868 1.5092144,1.08987808 C2.34440994,0.402291298 3.52659798,0 4.76731205,0 Z" id="Shape"></path>
        </g>
    </g>
</svg>
