<?xml version="1.0" encoding="utf-8"?>
<!-- Generator: Adobe Illustrator 16.0.4, SVG Export Plug-In . SVG Version: 6.00 Build 0)  -->
<!DOCTYPE svg PUBLIC "-//W3C//DTD SVG 1.1//EN" "http://www.w3.org/Graphics/SVG/1.1/DTD/svg11.dtd">
<svg version="1.1" id="レイヤー_1" xmlns="http://www.w3.org/2000/svg" xmlns:xlink="http://www.w3.org/1999/xlink" x="0px"
	 y="0px" width="24px" height="24px" viewBox="0 0 24 24" enable-background="new 0 0 24 24" xml:space="preserve">
<title>like--gray</title>
<path fill="none" stroke="#777777" d="M22.087,12.49c-0.958,1.384-2.769,3.266-5.433,5.646c-1.573,1.367-3.143,3.08-4.706,4.447
	c-1.564-1.368-3.128-3.08-4.693-4.447c-2.683-2.388-4.5-4.27-5.446-5.645C1,11.32,0.6,10.1,0.6,8.82c0-1.368,0.517-2.512,1.55-3.433
	C3.183,4.465,4.506,4,6.118,4c2.968,0,4.03,1.225,5.83,3.162C13.788,5.225,14.836,4,17.809,4c1.609,0,2.928,0.46,3.951,1.382
	c1.024,0.92,1.536,2.065,1.536,3.433C23.296,10.095,22.893,11.321,22.087,12.49L22.087,12.49z"/>
</svg>
