<svg width="24" height="24" viewBox="0 0 24 24" xmlns="http://www.w3.org/2000/svg"><title>like--pink</title><path d="M22.087 12.49c-.958 1.384-2.768 3.266-5.432 5.646-1.574 1.367-3.143 3.08-4.707 4.447-1.564-1.368-3.128-3.08-4.693-4.447-2.683-2.388-4.5-4.27-5.446-5.645C1 11.32.6 10.1.6 8.82c0-1.368.517-2.512 1.55-3.433C3.183 4.465 4.506 4 6.118 4c2.968 0 4.03 1.225 5.83 3.162C13.788 5.225 14.836 4 17.808 4c1.61 0 2.928.46 3.952 1.382 1.024.92 1.536 2.065 1.536 3.433 0 1.28-.403 2.506-1.21 3.676z" stroke="#ff5998" fill="none"/></svg>