<svg width="24" height="24" viewBox="0 0 24 24" xmlns="http://www.w3.org/2000/svg"><title>line--white</title><path d="M12.017.832C5.55.832.307 5.072.307 10.302c0 4.75 4.327 8.684 9.97 9.364.488.134 1.02.434.868 1.1 0 0-.07.927-.195 1.585 0 0-.34 1.39 1.412.436 0 0 4.715-2.673 8.17-5.984 1.797-2.036 3.126-3.84 3.198-6.5.14-5.226-5.244-9.467-11.713-9.467zm-4.12 12.022c-.088.08-.216.122-.383.122H5.046c-.222 0-.382-.052-.48-.157-.097-.11-.146-.278-.146-.51V8.165c0-.22.047-.385.14-.495.092-.11.214-.164.365-.164.155 0 .28.054.374.163.092.11.14.275.14.497v3.913H7.51c.165 0 .292.045.38.13.09.086.133.194.133.323 0 .132-.044.24-.13.322zm1.758-.45c0 .223-.048.39-.143.5-.095.11-.22.164-.373.164-.15 0-.27-.055-.366-.167-.095-.11-.143-.274-.143-.494V8.168c0-.22.05-.385.143-.495.094-.11.215-.165.364-.165.153 0 .277.054.372.163.094.11.142.278.142.5v4.236zm5.416-.044c0 .472-.18.708-.55.708-.09 0-.172-.014-.245-.042-.074-.028-.142-.072-.206-.134-.066-.06-.126-.133-.18-.214-.056-.082-.11-.166-.166-.252L11.52 9.294v3.15c0 .206-.044.362-.134.466-.09.106-.204.158-.344.158-.144 0-.26-.053-.348-.16-.087-.106-.13-.26-.13-.463V8.297c0-.176.018-.315.055-.415.04-.11.113-.2.213-.27.1-.07.21-.104.328-.104.093 0 .17.016.236.048.066.032.123.074.173.128.05.054.1.123.15.21l.16.267 2.25 3.17v-3.2c0-.204.04-.36.127-.464.083-.104.196-.156.338-.156.147 0 .263.05.35.155.083.104.125.26.125.467v4.23zm4.356.497c-.082.08-.203.12-.363.12H16.57c-.223 0-.382-.053-.48-.158-.098-.11-.146-.278-.146-.51V8.264c0-.157.022-.284.065-.383.042-.1.11-.17.203-.216.093-.045.212-.068.356-.068h2.413c.163 0 .284.037.363.114.08.077.118.178.118.303 0 .127-.04.23-.118.306-.08.078-.2.117-.363.117h-2.018v1.32h1.978c.156 0 .272.036.35.11.076.075.114.174.114.296s-.038.222-.113.3c-.076.076-.193.114-.35.114h-1.98v1.53h2.098c.16 0 .282.04.364.12.08.08.122.185.122.318 0 .127-.04.23-.123.31z" fill="#FFF" fill-rule="evenodd"/></svg>