<?xml version="1.0" encoding="UTF-8"?>
<svg width="1000px" height="1000px" viewBox="0 0 1000 1000" version="1.1" xmlns="http://www.w3.org/2000/svg" xmlns:xlink="http://www.w3.org/1999/xlink">
    <!-- Generator: Sketch 51.1 (57501) - http://www.bohemiancoding.com/sketch -->
    <title>line-logo--circle</title>
    <desc>Created with Sketch.</desc>
    <defs></defs>
    <g id="line-logo--circle" stroke="none" stroke-width="1" fill="none" fill-rule="evenodd">
        <g id="名称未設定-1" fill-rule="nonzero">
            <path d="M998.884298,497.066116 C998.884298,770.92562 776.876033,992.933884 503.016529,992.933884 C229.157025,992.933884 7.14876033,770.92562 7.14876033,497.066116 C7.14876033,223.206612 229.157025,1.19834711 503.016529,1.19834711 C776.876033,1.19834711 998.884298,223.198347 998.884298,497.066116" id="Shape" fill="#00B900"></path>
            <path d="M832.842975,467.289256 C832.842975,319.702479 684.884298,199.628099 503.008264,199.628099 C321.157025,199.628099 173.181818,319.702479 173.181818,467.289256 C173.181818,599.603306 290.520661,710.404959 449.024793,731.363636 C459.760331,733.677686 474.380165,738.446281 478.082645,747.628099 C481.413223,755.975207 480.256198,769.041322 479.14876,777.454545 C479.14876,777.454545 475.280992,800.727273 474.438017,805.68595 C473,814.024793 467.818182,838.305785 503.008264,823.471074 C538.22314,808.636364 692.958678,711.619835 762.14876,631.975207 L762.132231,631.975207 C809.950413,579.545455 832.842975,526.347107 832.842975,467.289256" id="Shape" fill="#FFFFFF"></path>
            <path d="M436,395.966942 L412.859504,395.966942 C409.31405,395.966942 406.438017,398.842975 406.438017,402.380165 L406.438017,546.099174 C406.438017,549.636364 409.31405,552.495868 412.859504,552.495868 L436,552.495868 C439.545455,552.495868 442.421488,549.628099 442.421488,546.099174 L442.421488,402.380165 C442.421488,398.842975 439.545455,395.966942 436,395.966942" id="Shape" fill="#00B900"></path>
            <path d="M595.239669,395.966942 L572.107438,395.966942 C568.545455,395.966942 565.677686,398.842975 565.677686,402.380165 L565.677686,487.760331 L499.818182,398.818182 C499.669421,398.586777 499.495868,398.380165 499.322314,398.173554 C499.305785,398.157025 499.289256,398.140496 499.280992,398.123967 C499.157025,397.983471 499.016529,397.859504 498.892562,397.727273 C498.85124,397.694215 498.818182,397.661157 498.768595,397.619835 C498.661157,397.520661 498.545455,397.421488 498.429752,397.338843 C498.371901,397.289256 498.31405,397.247934 498.264463,397.206612 C498.14876,397.132231 498.041322,397.049587 497.92562,396.975207 C497.867769,396.933884 497.801653,396.900826 497.735537,396.859504 C497.619835,396.793388 497.504132,396.727273 497.38843,396.669421 C497.322314,396.636364 497.256198,396.603306 497.190083,396.570248 C497.066116,396.520661 496.950413,396.46281 496.818182,396.413223 C496.743802,396.38843 496.68595,396.363636 496.61157,396.338843 C496.487603,396.297521 496.363636,396.256198 496.231405,396.214876 C496.157025,396.198347 496.082645,396.181818 496.008264,396.157025 C495.884298,396.132231 495.760331,396.099174 495.636364,396.07438 C495.545455,396.057851 495.454545,396.049587 495.371901,396.041322 C495.256198,396.016529 495.140496,396.008264 495.033058,396 C494.917355,395.983471 494.809917,395.983471 494.694215,395.975207 C494.619835,395.975207 494.545455,395.966942 494.471074,395.966942 L471.338843,395.966942 C467.793388,395.966942 464.909091,398.842975 464.909091,402.380165 L464.909091,546.099174 C464.909091,549.636364 467.793388,552.495868 471.338843,552.495868 L494.471074,552.495868 C498.024793,552.495868 500.900826,549.628099 500.900826,546.099174 L500.900826,460.735537 L566.842975,549.801653 C567.305785,550.429752 567.859504,550.958678 568.471074,551.371901 C568.504132,551.38843 568.520661,551.404959 568.53719,551.421488 C568.677686,551.520661 568.801653,551.595041 568.942149,551.661157 C569.008264,551.702479 569.066116,551.727273 569.115702,551.760331 C569.214876,551.818182 569.322314,551.876033 569.421488,551.92562 C569.53719,551.958678 569.628099,552.008264 569.735537,552.049587 C569.801653,552.07438 569.859504,552.107438 569.917355,552.123967 C570.082645,552.181818 570.22314,552.231405 570.355372,552.280992 C570.396694,552.280992 570.429752,552.297521 570.454545,552.297521 C570.966942,552.438017 571.528926,552.504132 572.107438,552.504132 L595.239669,552.504132 C598.785124,552.504132 601.652893,549.636364 601.652893,546.107438 L601.652893,402.38843 C601.661157,398.842975 598.785124,395.966942 595.239669,395.966942" id="Shape" fill="#00B900"></path>
            <path d="M380.231405,516.520661 L317.371901,516.520661 L317.371901,402.380165 C317.371901,398.834711 314.495868,395.958678 310.950413,395.958678 L287.809917,395.958678 C284.264463,395.958678 281.38843,398.834711 281.38843,402.380165 L281.38843,546.082645 L281.38843,546.090909 C281.38843,547.809917 282.07438,549.380165 283.181818,550.520661 C283.206612,550.553719 283.231405,550.595041 283.272727,550.628099 C283.297521,550.661157 283.330579,550.694215 283.363636,550.727273 C284.520661,551.826446 286.07438,552.512397 287.801653,552.512397 L287.809917,552.512397 L380.231405,552.512397 C383.77686,552.512397 386.644628,549.628099 386.644628,546.090909 L386.644628,522.950413 C386.644628,519.404959 383.77686,516.520661 380.231405,516.520661" id="Shape" fill="#00B900"></path>
            <path d="M723,431.958678 C726.545455,431.958678 729.413223,429.082645 729.413223,425.528926 L729.413223,402.396694 C729.413223,398.85124 726.53719,395.975207 723,395.975207 L630.578512,395.975207 L630.561983,395.975207 C628.834711,395.975207 627.272727,396.661157 626.107438,397.785124 C626.090909,397.809917 626.057851,397.826446 626.041322,397.85124 C625.991736,397.892562 625.958678,397.92562 625.92562,397.966942 C624.826446,399.115702 624.14876,400.669421 624.14876,402.38843 L624.14876,402.396694 L624.14876,546.090909 L624.14876,546.099174 C624.14876,547.826446 624.834711,549.380165 625.942149,550.53719 C625.966942,550.561983 626.008264,550.603306 626.041322,550.636364 C626.057851,550.669421 626.090909,550.702479 626.123967,550.727273 C627.280992,551.834711 628.834711,552.520661 630.561983,552.520661 L630.578512,552.520661 L723,552.520661 C726.545455,552.520661 729.413223,549.644628 729.413223,546.099174 L729.413223,522.958678 C729.413223,519.421488 726.53719,516.53719 723,516.53719 L660.140496,516.53719 L660.140496,492.247934 L723,492.247934 C726.545455,492.247934 729.413223,489.371901 729.413223,485.826446 L729.413223,462.694215 C729.413223,459.140496 726.53719,456.256198 723,456.256198 L660.140496,456.256198 L660.140496,431.975207 L723,431.975207 L723,431.958678 Z" id="Shape" fill="#00B900"></path>
        </g>
    </g>
</svg>