<svg xmlns="http://www.w3.org/2000/svg" viewBox="0 0 34.36 18"><defs><style>.cls-1{fill:#868686;}</style></defs><g id="レイヤー_2" data-name="レイヤー 2"><g id="レイヤー_1-2" data-name="レイヤー 1"><path id="パス_312" data-name="パス 312" class="cls-1" d="M30.27,0H4.09A4.09,4.09,0,0,0,0,4.09H0v9.82A4.09,4.09,0,0,0,4.09,18H30.27a4.09,4.09,0,0,0,4.09-4.09h0V4.09A4.09,4.09,0,0,0,30.27,0ZM11.15,12.64H5.89L7,5.27h1.9L8,11.32h3.36Zm2.8,0H12.06l1.09-7.37h1.9Zm3.71.1L16.11,5.27H17.9l.75,4.22,2-4.22h1.93l-3.76,7.47ZM28.28,6.58h-3l-.23,1.6h2.59L27.48,9.5H24.86l-.25,1.82h3.63l-.19,1.32H22.53L23.6,5.27h4.87Z"/></g></g></svg>