<svg xmlns="http://www.w3.org/2000/svg" width="23" height="16" viewBox="0 0 23 16"><g transform="translate(-115 -89)"><path d="M0-15a1,1,0,0,1,1-1H16a1,1,0,0,1,1,1V-1a1,1,0,0,1-1,1H1A1,1,0,0,1,0-1Z" transform="translate(115 105)" fill="#006ceb" fill-rule="evenodd"/><path d="M7.811-8.6h.827a1.166,1.166,0,0,0,.875-.3A1.082,1.082,0,0,0,9.8-9.677a.957.957,0,0,0-.282-.736,1.093,1.093,0,0,0-.776-.263,1.145,1.145,0,0,0-.747.244.781.781,0,0,0-.3.636H6.14a1.909,1.909,0,0,1,.33-1.1,2.2,2.2,0,0,1,.924-.76A3.083,3.083,0,0,1,8.7-11.928a2.924,2.924,0,0,1,1.944.593,2.025,2.025,0,0,1,.7,1.635,1.646,1.646,0,0,1-.328.988,2.129,2.129,0,0,1-.859.693,1.943,1.943,0,0,1,.986.709,1.923,1.923,0,0,1,.325,1.117,2.059,2.059,0,0,1-.76,1.67A3.056,3.056,0,0,1,8.7-3.893,2.9,2.9,0,0,1,6.788-4.51a2.017,2.017,0,0,1-.744-1.633H7.6a.9.9,0,0,0,.33.72,1.217,1.217,0,0,0,.814.279,1.223,1.223,0,0,0,.867-.293,1.01,1.01,0,0,0,.314-.776q0-1.171-1.289-1.171H7.811Z" transform="translate(115 105)" fill="#fff" fill-rule="evenodd"/><path d="M12.2-8l11-6V-2Z" transform="translate(114.8 105)" fill="#006ceb"/></g></svg>