<svg xmlns="http://www.w3.org/2000/svg" width="23" height="16" viewBox="0 0 23 16"><g transform="translate(-68 -89)"><path d="M0-15a1,1,0,0,1,1-1H16a1,1,0,0,1,1,1V-1a1,1,0,0,1-1,1H1A1,1,0,0,1,0-1Z" transform="translate(68 105)" fill="#006ceb" fill-rule="evenodd"/><path d="M11.492-4H6.132V-5.063l2.53-2.7a6.241,6.241,0,0,0,.771-.994,1.6,1.6,0,0,0,.25-.806,1.2,1.2,0,0,0-.263-.819.95.95,0,0,0-.752-.3,1.025,1.025,0,0,0-.83.363,1.436,1.436,0,0,0-.3.953H5.976a2.564,2.564,0,0,1,.341-1.305,2.4,2.4,0,0,1,.964-.927,2.93,2.93,0,0,1,1.413-.336,2.775,2.775,0,0,1,1.877.58,2.052,2.052,0,0,1,.669,1.638,2.629,2.629,0,0,1-.3,1.182,6.566,6.566,0,0,1-1.031,1.4L8.13-5.251h3.362Z" transform="translate(68 105)" fill="#fff" fill-rule="evenodd"/><path d="M12.2-8l11-6V-2Z" transform="translate(67.8 105)" fill="#006ceb"/></g></svg>