<svg xmlns="http://www.w3.org/2000/svg" viewBox="0 0 34.36 18"><defs><style>.cls-1{fill:#868686;}</style></defs><g id="レイヤー_2" data-name="レイヤー 2"><g id="レイヤー_1-2" data-name="レイヤー 1"><path class="cls-1" d="M13.18,12.29a3,3,0,0,0,.44,0c.41,0,.49-.12.59-.88a34,34,0,0,0,.21-3.7H14A12.77,12.77,0,0,1,13.18,12.29Z"/><path class="cls-1" d="M10,12v.34c.72,0,.72,0,1.52-.09l.14-.22a3,3,0,0,0-.48,0Z"/><path class="cls-1" d="M11.91,7.2a2.9,2.9,0,0,0-.63,0H10v.29h1a7.59,7.59,0,0,0,.8,0,6,6,0,0,0,0,.87V9.75c0,.37,0,.63,0,.87H10v.3h.78c.51,0,.7,0,1,0v1a9.33,9.33,0,0,0,.8-4.09,5.92,5.92,0,0,0-.63,0Z"/><rect class="cls-1" x="9.99" y="9.41" width="0.53" height="0.36"/><rect class="cls-1" x="8.16" y="8.31" width="0.53" height="0.34"/><rect class="cls-1" x="9.99" y="8.31" width="0.53" height="0.34"/><rect class="cls-1" x="8.16" y="9.41" width="0.53" height="0.36"/><rect class="cls-1" x="24.23" y="9.77" width="0.6" height="0.69"/><rect class="cls-1" x="22.39" y="7.93" width="0.57" height="0.6"/><rect class="cls-1" x="24.23" y="7.93" width="0.6" height="0.6"/><path class="cls-1" d="M30.27,0H4.09A4.09,4.09,0,0,0,0,4.09v9.82A4.09,4.09,0,0,0,4.09,18H30.27a4.09,4.09,0,0,0,4.09-4.09V4.09A4.09,4.09,0,0,0,30.27,0ZM15.77,8.27c0,3-.18,4.44-.47,4.94s-.62.55-1.79.55H13.2A4.54,4.54,0,0,0,13,12.64a7.21,7.21,0,0,1-.8,1.31,5.25,5.25,0,0,0-.53-.62c-2,.2-2.31.22-4.29.35l-.66.06-.22-1.4a8.28,8.28,0,0,0,.83,0c.41,0,.69,0,1.33,0V12h-1c-.35,0-.65,0-1,0V10.87a8.33,8.33,0,0,0,1,0h.95v-.3h-.8c-.49,0-.71,0-1,0a7.67,7.67,0,0,0,0-1V8.36a7.61,7.61,0,0,0,0-.93c.3,0,.56,0,1,0h.8V7.17H7.58a8.7,8.7,0,0,0-1,0V6a8.58,8.58,0,0,0,1,0H8.69V5.78l-1.61,0a5,5,0,0,0-.46-1,17.82,17.82,0,0,0,4.54-.41l.75,1.13-.14,0h-.15l-.31,0L10,5.7v.37h1a7.34,7.34,0,0,0,1,0V6.3a3.51,3.51,0,0,0,.53,0h.13V5.39a4.13,4.13,0,0,0-.06-.91H14.1A10.58,10.58,0,0,0,14,6.33h.82a8.44,8.44,0,0,0,1,0C15.79,6.73,15.79,6.73,15.77,8.27Zm10.65,5.57v-.38H20.77v.38H19.22a13.55,13.55,0,0,0,.07-1.45V7.86c0-.37,0-.76-.06-1.18h1.54a5,5,0,0,0,0,.82v4.59h5.74V7.46a5.39,5.39,0,0,0,0-.78H28c0,.4-.06.86-.06,1.22v4.46c0,.5,0,.94.07,1.48Zm1.81-7.72c-.44,0-.91-.06-1.39-.06h-2.5v.57h1a5.5,5.5,0,0,0,.81,0,5.39,5.39,0,0,0,0,.78V11a4.63,4.63,0,0,0,0,.77l-.47,0H21.58l-.48,0a5.12,5.12,0,0,0,0-.77V7.37a5.66,5.66,0,0,0,0-.78,5.5,5.5,0,0,0,.81,0h1V6.06H20.39c-.48,0-.95,0-1.4.06V4.62c.45,0,.86.06,1.38.06h6.46c.49,0,.93,0,1.4-.06Z"/><rect class="cls-1" x="22.39" y="9.77" width="0.57" height="0.69"/></g></g></svg>