<svg xmlns="http://www.w3.org/2000/svg" viewBox="0 0 47.59 18"><defs><style>.cls-1{fill:#e60312;}</style></defs><g id="レイヤー_2" data-name="レイヤー 2"><g id="レイヤー_1-2" data-name="レイヤー 1"><path id="パス_309" data-name="パス 309" class="cls-1" d="M42.8,1.06a11.22,11.22,0,0,1,0,15.88h0L43.86,18h0a12.73,12.73,0,0,0,0-18h0Z"/><path id="パス_310" data-name="パス 310" class="cls-1" d="M37.28,6.92a3,3,0,0,1,0,4.16h0l1.17,1.17h0a4.59,4.59,0,0,0,0-6.5h0Z"/><path id="パス_311" data-name="パス 311" class="cls-1" d="M40,3.87a7.25,7.25,0,0,1,0,10.26h0l1.24,1.23a9,9,0,0,0,0-12.72Z"/><path id="パス_312" data-name="パス 312" class="cls-1" d="M30.27,0H4.09A4.09,4.09,0,0,0,0,4.09H0v9.82A4.09,4.09,0,0,0,4.09,18H30.27a4.09,4.09,0,0,0,4.09-4.09h0V4.09A4.09,4.09,0,0,0,30.27,0ZM11.15,12.64H5.89L7,5.27h1.9L8,11.32h3.36Zm2.8,0H12.06l1.09-7.37h1.9Zm3.71.1L16.11,5.27H17.9l.75,4.22,2-4.22h1.93l-3.76,7.47ZM28.28,6.58h-3l-.23,1.6h2.59L27.48,9.5H24.86l-.25,1.82h3.63l-.19,1.32H22.53L23.6,5.27h4.87Z"/></g></g></svg>