<svg xmlns="http://www.w3.org/2000/svg" width="22" height="18" viewBox="0 0 22 18"><g transform="translate(-23 -191)"><path d="M18-12.5H9.507a1.009,1.009,0,0,0-1.007,1V-5H.993A1,1,0,0,1,0-6V-17a1,1,0,0,1,.993-1H17.007A1,1,0,0,1,18-17Z" transform="translate(23 209)" fill="#bfbfbf" fill-rule="evenodd"/><path d="M3-6H8.5L3-.5Z" transform="translate(23 209)" fill="#bfbfbf"/><path d="M22-10a1,1,0,0,0-1-1H11a1,1,0,0,0-1,1V-4a1,1,0,0,0,1,1H21a1,1,0,0,0,1-1Z" transform="translate(23 209)" fill="#bfbfbf" fill-rule="evenodd"/><path d="M20-5H15l5,5Z" transform="translate(23 209)" fill="#bfbfbf"/></g></svg>