<svg id="レイヤー_1" data-name="レイヤー 1" xmlns="http://www.w3.org/2000/svg" viewBox="0 0 21.55 21"><defs><style>.cls-1{fill:#fff;}</style></defs><g id="グループ_461" data-name="グループ 461"><g id="グループ_444" data-name="グループ 444"><path id="パス_309" data-name="パス 309" class="cls-1" d="M20.29,15.27a13.46,13.46,0,0,1-19,0h0L0,16.54H0a15.24,15.24,0,0,0,21.55,0h0Z" transform="translate(0)"/><path id="パス_310" data-name="パス 310" class="cls-1" d="M13.27,8.67a3.51,3.51,0,0,1-5,0h0l-1.39,1.4h0a5.5,5.5,0,0,0,7.77,0Z" transform="translate(0)"/><path id="パス_311" data-name="パス 311" class="cls-1" d="M16.91,11.9a8.67,8.67,0,0,1-12.27,0h0L3.16,13.38a10.77,10.77,0,0,0,15.24,0Z" transform="translate(0)"/></g><circle id="楕円形_64" data-name="楕円形 64" class="cls-1" cx="10.95" cy="3.36" r="3.36"/></g></svg>