<?xml version="1.0" encoding="UTF-8"?>
<svg width="14px" height="18px" viewBox="0 0 14 18" version="1.1" xmlns="http://www.w3.org/2000/svg" xmlns:xlink="http://www.w3.org/1999/xlink">
    <!-- Generator: Sketch 52.5 (67469) - http://www.bohemiancoding.com/sketch -->
    <title>location-spot</title>
    <desc>Created with Sketch.</desc>
    <g id="location-spot" stroke="none" stroke-width="1" fill="none" fill-rule="evenodd">
        <g fill="#000000">
            <path d="M13.9,10.4 C14,10.5 13.9,10.7 13.8,10.8 C13.7,10.8 13.7,10.9 13.6,10.8 L1,10.8 C0.7,10.8 0.5,10.6 0.5,10.3 L0.5,1.9 C0.5,1.6 0.7,1.4 1,1.4 L13.6,1.4 C13.8,1.4 13.9,1.5 13.9,1.7 C13.9,1.8 13.9,1.8 13.9,1.9 L12.2,5.7 C12.1,6 12.1,6.3 12.2,6.6 L13.9,10.4 Z" id="Path"></path>
            <path d="M1,3.2 L2.5,3.2 C2.8,3.2 3,3.5 3,3.7 L3,17.5 C3,17.8 2.8,18 2.5,18 L1,18 C0.7,18 0.5,17.8 0.5,17.5 L0.5,3.7 C0.5,3.5 0.7,3.2 1,3.2 Z" id="Path"></path>
            <circle id="Oval" cx="1.5" cy="1.5" r="1.5"></circle>
        </g>
    </g>
</svg>