<svg xmlns="http://www.w3.org/2000/svg" xmlns:xlink="http://www.w3.org/1999/xlink" viewBox="0 0 20 20"><defs><style>.a{clip-path:url(#b);}.b{fill:#fff;}</style><clipPath id="b"><rect width="20" height="20"/></clipPath></defs><g id="a" class="a"><g transform="translate(-215 -287)"><circle cx="9" cy="9" r="9" transform="translate(216 288)"/><path class="b" d="M14.59,8,12,10.59,9.41,8,8,9.41,10.59,12,8,14.59,9.41,16,12,13.41,14.59,16,16,14.59,13.41,12,16,9.41ZM12,2A10,10,0,1,0,22,12,9.991,9.991,0,0,0,12,2Zm0,18a8,8,0,1,1,8-8A8.011,8.011,0,0,1,12,20Z" transform="translate(212.976 285)"/></g></g></svg>