<svg xmlns="http://www.w3.org/2000/svg" viewBox="0 0 24 24"><defs><style>.cls-1,.cls-4{fill:#fff;}.cls-1,.cls-2{stroke:#c80019;}.cls-1{stroke-linecap:round;stroke-linejoin:round;stroke-width:1.3px;}.cls-2,.cls-3{fill:#c80019;}.cls-2{stroke-miterlimit:10;stroke-width:0.5px;}</style></defs><title>icon_09</title><g id="ライン"><path class="cls-1" d="M20.19,6.72h.42a1,1,0,0,1,1,1V18.39a1,1,0,0,1-1,1H3.45a1,1,0,0,1-1-1V7.71a1,1,0,0,1,1-1H7.89L8.22,5a.5.5,0,0,1,.47-.39h6.68a.5.5,0,0,1,.47.39l.33,1.71h4Z"/><path class="cls-2" d="M12,12a3,3,0,1,0,3.05,3.05A3,3,0,0,0,12,12Zm2.26,3.05A2.26,2.26,0,1,1,12,12.79,2.26,2.26,0,0,1,14.29,15.05Z"/><path class="cls-3" d="M6.57,9.47H5A.65.65,0,1,1,5,8.18H6.57a.65.65,0,1,1,0,1.29Z"/><line class="cls-1" x1="2.46" y1="10.63" x2="21.6" y2="10.63"/><circle class="cls-3" cx="20.46" cy="18.25" r="3.5"/><rect class="cls-4" x="18.37" y="17.83" width="4.17" height="0.84"/><rect class="cls-4" x="18.37" y="17.83" width="4.17" height="0.84" transform="translate(2.21 38.71) rotate(-90)"/></g></svg>