<?xml version="1.0" encoding="UTF-8"?>
<svg width="260px" height="260px" viewBox="0 0 260 260" version="1.1" xmlns="http://www.w3.org/2000/svg" xmlns:xlink="http://www.w3.org/1999/xlink">
    <!-- Generator: Sketch 51.3 (57544) - http://www.bohemiancoding.com/sketch -->
    <title>mute--white</title>
    <desc>Created with Sketch.</desc>
    <defs></defs>
    <g id="mute--white" stroke="none" stroke-width="1" fill="none" fill-rule="evenodd">
        <path d="M120,45 L120,215 C120,217.708347 119.010427,220.052073 117.03125,222.03125 C115.052073,224.010427 112.708347,225 110,225 C107.291653,225 104.947927,224.010427 102.96875,222.03125 L50.9375,170 L10,170 C7.29165313,170 4.94792656,169.010427 2.96875,167.03125 C0.989573437,165.052073 0,162.708347 0,160 L0,100 C0,97.2916531 0.989573437,94.9479266 2.96875,92.96875 C4.94792656,90.9895734 7.29165313,90 10,90 L50.9375,90 L102.96875,37.96875 C104.947927,35.9895734 107.291653,35 110,35 C112.708347,35 115.052073,35.9895734 117.03125,37.96875 C119.010427,39.9479266 120,42.2916531 120,45 Z" id="" fill="#FFFFFF"></path>
    </g>
</svg>