<svg width="24" height="24" viewBox="0 0 24 24" xmlns="http://www.w3.org/2000/svg"><title>photo-upload--blue</title><g fill="#40B0E8" fill-rule="evenodd"><path d="M12 6.388c-3.125 0-5.658 2.533-5.658 5.657 0 3.125 2.533 5.657 5.657 5.657 3.122 0 5.655-2.532 5.655-5.657 0-3.124-2.533-5.657-5.657-5.657zm0 9.28c-2.003 0-3.625-1.62-3.625-3.623 0-2 1.622-3.624 3.624-3.624 2 0 3.622 1.625 3.622 3.626 0 2.002-1.622 3.624-3.624 3.624z"/><path d="M22.222 4.076H7.22V2.6H2.713v1.476h-.938c-.71 0-1.288.577-1.288 1.288v13.362c0 .712.577 1.288 1.288 1.288H22.22c.71 0 1.29-.576 1.29-1.288V5.364c0-.71-.578-1.288-1.29-1.288zm-.564 13.282c0 .533-.432.966-.966.966H3.305c-.533 0-.965-.433-.965-.966V6.733c0-.534.432-.966.965-.966h17.387c.534 0 .966.432.966.966v10.625z"/><path d="M18.638 17.266c-.636 0-1.152-.515-1.152-1.152 0-.636.516-1.152 1.152-1.152.636 0 1.152.516 1.152 1.152 0 .637-.516 1.152-1.152 1.152z"/></g></svg>