<?xml version="1.0" encoding="UTF-8"?>
<svg width="24px" height="24px" viewBox="0 0 24 24" version="1.1" xmlns="http://www.w3.org/2000/svg" xmlns:xlink="http://www.w3.org/1999/xlink">
    <!-- Generator: Sketch 61.2 (89653) - https://sketch.com -->
    <title>photo-upload--maincolor</title>
    <desc>Created with Sketch.</desc>
    <g id="Page-1" stroke="none" stroke-width="1" fill="none" fill-rule="evenodd">
        <g id="photo-upload--maincolor" transform="translate(0.000000, 2.100000)" fill="#009488" fill-rule="nonzero">
            <path d="M12,4.388 C8.875,4.388 6.342,6.921 6.342,10.045 C6.342,13.17 8.875,15.702 11.999,15.702 C15.121,15.702 17.654,13.17 17.654,10.045 C17.654,6.921 15.121,4.388 11.997,4.388 L12,4.388 Z M12,13.668 C9.997,13.668 8.375,12.048 8.375,10.045 C8.375,8.045 9.997,6.421 11.999,6.421 C13.999,6.421 15.621,8.046 15.621,10.047 C15.621,12.049 13.999,13.671 11.997,13.671 L12,13.668 Z" id="Shape"></path>
            <path d="M22.222,2.076 L7.22,2.076 L7.22,0.6 L2.713,0.6 L2.713,2.076 L1.775,2.076 C1.065,2.076 0.487,2.653 0.487,3.364 L0.487,16.726 C0.487,17.438 1.064,18.014 1.775,18.014 L22.22,18.014 C22.93,18.014 23.51,17.438 23.51,16.726 L23.51,3.364 C23.51,2.654 22.932,2.076 22.22,2.076 L22.222,2.076 Z M21.658,15.358 C21.658,15.891 21.226,16.324 20.692,16.324 L3.305,16.324 C2.772,16.324 2.34,15.891 2.34,15.358 L2.34,4.733 C2.34,4.199 2.772,3.767 3.305,3.767 L20.692,3.767 C21.226,3.767 21.658,4.199 21.658,4.733 L21.658,15.358 Z" id="Shape"></path>
            <path d="M18.638,15.266 C18.002,15.266 17.486,14.751 17.486,14.114 C17.486,13.478 18.002,12.962 18.638,12.962 C19.274,12.962 19.79,13.478 19.79,14.114 C19.79,14.751 19.274,15.266 18.638,15.266 Z" id="Path"></path>
        </g>
    </g>
</svg>
