<?xml version="1.0" encoding="utf-8"?>
<!-- Generator: Adobe Illustrator 22.1.0, SVG Export Plug-In . SVG Version: 6.00 Build 0)  -->
<svg version="1.1" id="レイヤー_1" xmlns="http://www.w3.org/2000/svg" xmlns:xlink="http://www.w3.org/1999/xlink" x="0px"
	 y="0px" viewBox="0 0 24 24" style="enable-background:new 0 0 24 24;" xml:space="preserve">
<style type="text/css">
	.st0{fill:#FFFFFF;stroke:#C80019;stroke-width:1.3;stroke-linecap:round;stroke-linejoin:round;}
	.st1{fill:#C80019;stroke:#C80019;stroke-width:0.5;stroke-miterlimit:10;}
	.st2{fill:#C80019;}
	.st3{fill:none;stroke:#C80019;stroke-width:1.3;stroke-linecap:round;stroke-linejoin:round;}
</style>
<title>icon_05</title>
<g id="ライン">
	<path class="st0" d="M20.2,6.7h0.4c0.6,0,1,0.4,1,1v10.7c0,0.6-0.4,1-1,1H3.5c-0.6,0-1-0.4-1-1V7.7c0-0.6,0.4-1,1-1h4.4L8.2,5
		c0-0.2,0.2-0.4,0.5-0.4h6.7c0.2,0,0.4,0.2,0.5,0.4l0.3,1.7L20.2,6.7L20.2,6.7z"/>
	<path class="st1" d="M12,12c-1.7,0-3,1.4-2.9,3.1s1.4,3,3.1,2.9c1.6,0,2.9-1.3,2.9-2.9c0-1.7-1.3-3-2.9-3.1C12.1,12,12,12,12,12z
		 M14.3,15.1c0,1.2-1,2.3-2.3,2.3s-2.3-1-2.3-2.3c0-1.2,1-2.3,2.3-2.3C13.2,12.8,14.3,13.8,14.3,15.1C14.3,15,14.3,15,14.3,15.1
		L14.3,15.1z"/>
	<path class="st2" d="M6.6,9.5H5c-0.4,0-0.7-0.2-0.7-0.6c0-0.4,0.2-0.7,0.6-0.7c0.1,0,0.1,0,0.2,0h1.6c0.4,0,0.7,0.2,0.7,0.6
		c0,0.4-0.2,0.7-0.6,0.7C6.7,9.5,6.6,9.5,6.6,9.5z"/>
	<line class="st3" x1="2.5" y1="10.6" x2="21.6" y2="10.6"/>
</g>
</svg>
