<?xml version="1.0" encoding="UTF-8"?>
<svg width="20px" height="20px" viewBox="0 0 20 20" version="1.1" xmlns="http://www.w3.org/2000/svg" xmlns:xlink="http://www.w3.org/1999/xlink">
    <!-- Generator: Sketch 61.2 (89653) - https://sketch.com -->
    <title>reply--maincolor</title>
    <desc>Created with Sketch.</desc>
    <g id="Page-1" stroke="none" stroke-width="1" fill="none" fill-rule="evenodd">
        <g id="ic_reply_24px" transform="translate(0.000000, 2.000000)" fill="#c0c0c0" fill-rule="nonzero">
            <path d="M6.46667004,2.41422081 L1.41422081,7.46666908 L6.46667004,12.5191116 L6.46667004,10.5600004 L6.46667004,9.56000042 L7.46667004,9.56000042 C10.3129005,9.56000042 12.6962099,10.0219402 14.7527905,10.97223 C15.5420055,11.3368988 16.2781296,11.770668 16.9666023,12.2781143 C15.4530449,9.01725197 12.6122818,6.01190472 7.32525063,5.25662041 L6.46667004,5.13397026 L6.46667004,4.26667023 L6.46667004,2.41422081 M7.46667004,0 L7.46667004,4.26667023 C14.9333305,5.33333015 18.1333313,10.6666698 19.2000008,16 C16.5333309,12.2666702 12.8000002,10.5600004 7.46667004,10.5600004 L7.46667004,14.9333305 L0,7.46667004 L7.46667004,0 Z" id="Shape"></path>
        </g>
    </g>
</svg>
