<svg width="24" height="24" viewBox="0 0 24 24" xmlns="http://www.w3.org/2000/svg"><title>resign--black</title><path d="M13.822 22.87H9.804s-.815-1.744-2.37-3.36c-1.714-1.78-3.295-2.833-3.887-3.294-.593-.46-1.915-1.6-1.45-2.634.593-1.318 3.03-.79 5.6.658 0-1.844-.155-7.643-.053-9.432.112-1.96.112-3.303 1.68-3.303 1.623 0 1.567 2.407 1.623 3.303.056.895.39 6.605.39 6.605s.373-5.77.56-8.23c.057-.726.115-2.237 1.457-2.182 1.175.05 1.23 1.345 1.287 2.184.17 2.52.337 7.613.337 7.613s.273-3.258.448-5.71c.056-.783.224-2.295 1.294-2.26 1.11.038 1.336 1.253 1.336 2.15 0 2.292-.18 6.593-.078 7.556.28-.952.466-1.966.725-2.846.315-1.072.755-2.322 1.69-2.226 2.032.21 1.086 6.25.706 8.6-.423 2.62-1.093 4.637-1.68 6.94" stroke="#444" stroke-width="2" fill="none" fill-rule="evenodd"/></svg>