<svg width="24" height="24" viewBox="0 0 24 24" xmlns="http://www.w3.org/2000/svg"><title>search--white</title><path d="M13.83 15.88c-.87.314-1.807.485-2.785.485-4.52 0-8.182-3.663-8.182-8.182C2.863 3.663 6.526 0 11.045 0c4.52 0 8.183 3.663 8.183 8.183 0 2.29-.94 4.36-2.458 5.846.065.07.124.16.176.25l4.094 7.09c.484.834.2 1.902-.643 2.39-.84.484-1.91.196-2.394-.64l-4.094-7.09c-.03-.05-.06-.103-.08-.156zm-2.785-1.853c3.228 0 5.845-2.616 5.845-5.844s-2.617-5.845-5.845-5.845C7.817 2.338 5.2 4.955 5.2 8.183c0 3.228 2.617 5.844 5.845 5.844z" fill="#FFF" fill-rule="evenodd"/></svg>