<svg xmlns="http://www.w3.org/2000/svg" xmlns:xlink="http://www.w3.org/1999/xlink" viewBox="0 0 20 20">
  <defs>
    <style>
      .cls-1 {
        clip-path: url(#clip-setting);
      }
    </style>
    <clipPath id="clip-setting">
      <rect width="20" height="20"/>
    </clipPath>
  </defs>
  <g id="setting" class="cls-1">
    <path id="パス_69" data-name="パス 69" d="M20.006,7.486a10.281,10.281,0,0,0-1.15-2.774,2.649,2.649,0,0,1-3.56-3.56A10.231,10.231,0,0,0,12.52,0,2.653,2.653,0,0,1,10,1.825,2.651,2.651,0,0,1,7.486,0,10.281,10.281,0,0,0,4.712,1.15a2.649,2.649,0,0,1-3.56,3.56A10.231,10.231,0,0,0,0,7.486,2.653,2.653,0,0,1,1.825,10,2.649,2.649,0,0,1,0,12.52a10.281,10.281,0,0,0,1.15,2.774,2.649,2.649,0,0,1,3.56,3.56A10.241,10.241,0,0,0,7.484,20a2.648,2.648,0,0,1,5.034,0,10.281,10.281,0,0,0,2.774-1.15,2.649,2.649,0,0,1,3.56-3.56A10.241,10.241,0,0,0,20,12.52a2.647,2.647,0,0,1,0-5.034ZM10,14.967A4.964,4.964,0,1,1,14.967,10,4.965,4.965,0,0,1,10,14.967Z" transform="translate(0 -0.004)"/>
  </g>
</svg>
