<?xml version="1.0" encoding="UTF-8"?>
<svg width="20px" height="20px" viewBox="0 0 20 20" version="1.1" xmlns="http://www.w3.org/2000/svg" xmlns:xlink="http://www.w3.org/1999/xlink">
    <g id="setting--green-1" stroke="none" stroke-width="1" fill="none" fill-rule="evenodd">
        <g id="setting--green" fill="#009488" fill-rule="nonzero">
            <path d="M20.006,7.482 C19.7605013,6.50603232 19.3730358,5.57139822 18.856,4.708 C17.8343414,5.22535687 16.595908,5.02762553 15.7861412,4.21785877 C14.9763745,3.40809201 14.7786431,2.16965859 15.296,1.148 C14.4324233,0.629436014 13.4969988,0.241248331 12.52,-0.004 C12.1623332,1.0847589 11.1460024,1.82079217 10,1.821 C8.85600543,1.81882761 7.84244502,1.08304887 7.486,-0.004 C6.51003232,0.241498708 5.57539822,0.628964177 4.712,1.146 C5.22935687,2.16765859 5.03162553,3.40609201 4.22185877,4.21585877 C3.41209201,5.02562553 2.17365859,5.22335687 1.152,4.706 C0.633436014,5.56957673 0.245248331,6.50500121 -1.77635684e-15,7.482 C1.08666287,7.83897443 1.82220466,8.85220845 1.825,9.996 C1.82604578,11.1424084 1.08953569,12.1593976 -1.77635684e-15,12.516 C0.245498708,13.4919677 0.632964177,14.4266018 1.15,15.29 C2.17165859,14.7726431 3.41009201,14.9703745 4.21985877,15.7801412 C5.02962553,16.589908 5.22735687,17.8283414 4.71,18.85 C5.57336726,19.3661614 6.50806988,19.7523075 7.484,19.996 C7.83984089,18.9071495 8.85547907,18.1705661 10.001,18.1705661 C11.1465209,18.1705661 12.1621591,18.9071495 12.518,19.996 C13.4939677,19.7505013 14.4286018,19.3630358 15.292,18.846 C14.7746431,17.8243414 14.9723745,16.585908 15.7821412,15.7761412 C16.591908,14.9663745 17.8303414,14.7686431 18.852,15.286 C19.3684978,14.4239915 19.7553096,13.4906565 20,12.516 C18.9100755,12.1612046 18.1723412,11.1452178 18.1723412,9.999 C18.1723412,8.85278222 18.9100755,7.83679541 20,7.482 L20.006,7.482 Z M10,14.9630004 C7.25924025,14.9613431 5.03844871,12.7387608 5.0390009,9.9980006 C5.0395533,7.25724041 7.26124041,5.0355533 10.0020006,5.0350009 C12.7427608,5.03444871 14.9653431,7.25524025 14.9670004,9.996 C14.9675308,11.313493 14.4443939,12.5771773 13.5127856,13.5087856 C12.5811773,14.4403939 11.317493,14.9635308 10,14.9630004 Z" id="パス_69"></path>
        </g>
    </g>
</svg>
