<svg xmlns="http://www.w3.org/2000/svg" xmlns:xlink="http://www.w3.org/1999/xlink" viewBox="0 0 16 16">
  <defs>
    <style>
      .cls-1 {
        clip-path: url(#clip-tag-mileage);
      }
    </style>
    <clipPath id="clip-tag-mileage">
      <rect width="16" height="16"/>
    </clipPath>
  </defs>
  <g id="tag-mileage" class="cls-1">
    <path id="ic_monetization_on_24px" d="M8.5,2A6.5,6.5,0,1,0,15,8.5,6.5,6.5,0,0,0,8.5,2Zm.917,10.459V13.7H7.681V12.445a2.418,2.418,0,0,1-2.126-2.21H6.829c.065.682.533,1.215,1.723,1.215,1.274,0,1.56-.637,1.56-1.033,0-.539-.286-1.046-1.736-1.391-1.612-.39-2.717-1.053-2.717-2.386A2.253,2.253,0,0,1,7.681,4.554V3.3H9.417V4.567a2.3,2.3,0,0,1,1.852,2.2H10c-.033-.721-.416-1.216-1.443-1.216-.975,0-1.56.442-1.56,1.066,0,.546.423.9,1.736,1.241s2.717.9,2.717,2.542C11.438,11.594,10.548,12.244,9.417,12.459Z" transform="translate(-0.5 -0.5)"/>
  </g>
</svg>
