<svg width="24" height="24" viewBox="0 0 24 24" xmlns="http://www.w3.org/2000/svg"><title>tag--gray</title><g fill="#969696" fill-rule="evenodd"><path d="M6.788 3.474s-.404-.226-.935.08c-.463.268-.513.756-.513.756s-1.017 7.415-.845 7.714l6.65 11.518c.173.3.556.402.855.23l8.22-4.747c.3-.173.402-.556.23-.855L13.8 6.653c-.173-.3-7.012-3.18-7.012-3.18zm1.5 4.374c-.774.446-1.763.182-2.21-.592-.446-.773-.18-1.762.592-2.208.774-.447 1.762-.182 2.21.59.445.775.18 1.764-.593 2.21z"/><path d="M9.135 2.966C7.622 4.508 6.962 6.314 7.66 7c.7.686 2.493-.008 4.006-1.55 1.513-1.542 2.174-3.348 1.474-4.034-.7-.686-2.492.008-4.005 1.55zm2.085 2.046c-1.21 1.233-2.56 1.874-3.01 1.43-.453-.444.16-1.804 1.372-3.037 1.21-1.234 2.558-1.874 3.01-1.43.453.443-.162 1.803-1.372 3.037z"/></g></svg>