<?xml version="1.0" encoding="UTF-8"?>
<svg width="1000px" height="1000px" viewBox="0 0 1000 1000" version="1.1" xmlns="http://www.w3.org/2000/svg" xmlns:xlink="http://www.w3.org/1999/xlink">
    <!-- Generator: Sketch 51.1 (57501) - http://www.bohemiancoding.com/sketch -->
    <title>twitter-logo--circle</title>
    <desc>Created with Sketch.</desc>
    <defs></defs>
    <g id="twitter-logo--circle" stroke="none" stroke-width="1" fill="none" fill-rule="evenodd">
        <g id="Twitter_Social_Icon_Circle_Color" fill-rule="nonzero">
            <g id="Dark_Blue" fill="#1DA1F2">
                <circle id="Oval" cx="500" cy="500" r="500"></circle>
            </g>
            <g id="Logo__x2014__FIXED" transform="translate(222.500000, 285.000000)" fill="#FFFFFF">
                <path d="M186,478.75 C407.75,478.75 529,295 529,135.75 C529,130.5 529,125.25 528.75,120.25 C552.25,103.25 572.75,82 589,57.75 C567.5,67.25 544.25,73.75 519.75,76.75 C544.75,61.75 563.75,38.25 572.75,10 C549.5,23.75 523.75,33.75 496.25,39.25 C474.25,15.75 443,1.25 408.25,1.25 C341.75,1.25 287.75,55.25 287.75,121.75 C287.75,131.25 288.75,140.5 291,149.25 C190.75,144.25 102,96.25 42.5,23.25 C32.25,41 26.25,61.75 26.25,83.75 C26.25,125.5 47.5,162.5 80,184 C60.25,183.5 41.75,178 25.5,169 C25.5,169.5 25.5,170 25.5,170.5 C25.5,229 67,277.5 122.25,288.75 C112.25,291.5 101.5,293 90.5,293 C82.75,293 75.25,292.25 67.75,290.75 C83,338.75 127.5,373.5 180.25,374.5 C139,406.75 87,426 30.5,426 C20.75,426 11.25,425.5 1.75,424.25 C54.5,458.75 118,478.75 186,478.75" id="Shape"></path>
            </g>
        </g>
    </g>
</svg>