<?xml version="1.0" encoding="UTF-8" standalone="no"?>
<svg width="26px" height="26px" viewBox="0 0 26 26" version="1.1" xmlns="http://www.w3.org/2000/svg" xmlns:xlink="http://www.w3.org/1999/xlink">
    <!-- Generator: Sketch 3.7.1 (28215) - http://www.bohemiancoding.com/sketch -->
    <title>mark_twitter_color</title>
    <desc>Created with Sketch.</desc>
    <defs></defs>
    <g id="profile_edit" stroke="none" stroke-width="1" fill="none" fill-rule="evenodd">
        <g id="iPhone-6" transform="translate(-179.000000, -310.000000)" fill="#00AEE8">
            <path d="M200.407623,316.827192 C201.339559,316.268561 202.055189,315.384023 202.392202,314.330093 C201.520136,314.84728 200.554161,315.22292 199.526062,315.425385 C198.702681,314.548169 197.529654,314 196.231493,314 C193.73874,314 191.717788,316.020871 191.717788,318.513464 C191.717788,318.867215 191.757782,319.211712 191.834712,319.542046 C188.083471,319.353824 184.75768,317.556904 182.531526,314.826197 C182.143012,315.49282 181.920429,316.268159 181.920429,317.095322 C181.920429,318.661209 182.717334,320.042737 183.928425,320.852116 C183.188493,320.828699 182.492578,320.62567 181.883975,320.287611 C181.883653,320.306441 181.883653,320.325352 181.883653,320.344343 C181.883653,322.531226 183.439482,324.355507 185.504291,324.770094 C185.125513,324.873258 184.726779,324.928381 184.315088,324.928381 C184.024266,324.928381 183.74149,324.900135 183.465957,324.847427 C184.040279,326.640645 185.707158,327.945565 187.682241,327.982018 C186.137518,329.192545 184.191324,329.91413 182.076704,329.91413 C181.712411,329.91413 181.353107,329.892805 181,329.851121 C182.997454,331.131739 185.369984,331.878913 187.918907,331.878913 C196.220952,331.878913 200.760811,325.001288 200.760811,319.036848 C200.760811,318.841143 200.756465,318.646483 200.747774,318.45295 C201.629577,317.816584 202.394857,317.02161 203,316.116471 C202.190541,316.475453 201.320648,316.718073 200.407623,316.827192 Z" id="Fill-1"></path>
        </g>
    </g>
</svg>