<?xml version="1.0" encoding="UTF-8"?>
<svg width="260px" height="260px" viewBox="0 0 260 260" version="1.1" xmlns="http://www.w3.org/2000/svg" xmlns:xlink="http://www.w3.org/1999/xlink">
    <!-- Generator: Sketch 51.3 (57544) - http://www.bohemiancoding.com/sketch -->
    <title>volume--white</title>
    <desc>Created with Sketch.</desc>
    <defs></defs>
    <g id="volume--white" stroke="none" stroke-width="1" fill="none" fill-rule="evenodd">
        <path d="M120,45.09375 L120,215.09375 C120,217.802097 119.010427,220.145823 117.03125,222.125 C115.052073,224.104177 112.708347,225.09375 110,225.09375 C107.291653,225.09375 104.947927,224.104177 102.96875,222.125 L50.9375,170.09375 L10,170.09375 C7.29165313,170.09375 4.94792656,169.104177 2.96875,167.125 C0.989573437,165.145823 0,162.802097 0,160.09375 L0,100.09375 C0,97.3854031 0.989573437,95.0416766 2.96875,93.0625 C4.94792656,91.0833234 7.29165313,90.09375 10,90.09375 L50.9375,90.09375 L102.96875,38.0625 C104.947927,36.0833234 107.291653,35.09375 110,35.09375 C112.708347,35.09375 115.052073,36.0833234 117.03125,38.0625 C119.010427,40.0416766 120,42.3854031 120,45.09375 Z M173.28125,107.90625 C177.760439,114.781284 180,122.177044 180,130.09375 C180,138.010456 177.78648,145.380174 173.359375,152.203125 C168.93227,159.026076 163.072953,163.895819 155.78125,166.8125 C154.739578,167.333336 153.437508,167.59375 151.875,167.59375 C149.166653,167.59375 146.822927,166.630218 144.84375,164.703125 C142.864573,162.776032 141.875,160.406264 141.875,157.59375 C141.875,155.406239 142.499994,153.557299 143.75,152.046875 C145.000006,150.536451 146.510408,149.23438 148.28125,148.140625 C150.052092,147.04687 151.822908,145.848965 153.59375,144.546875 C155.364592,143.244785 156.874994,141.369804 158.125,138.921875 C159.375006,136.473946 160,133.531267 160,130.09375 C160,126.656233 159.375006,123.713554 158.125,121.265625 C156.874994,118.817696 155.364592,116.942715 153.59375,115.640625 C151.822908,114.338535 150.052092,113.14063 148.28125,112.046875 C146.510408,110.95312 145.000006,109.651049 143.75,108.140625 C142.499994,106.630201 141.875,104.781261 141.875,102.59375 C141.875,99.7812359 142.864573,97.411468 144.84375,95.484375 C146.822927,93.557282 149.166653,92.59375 151.875,92.59375 C153.437508,92.59375 154.739578,92.8541641 155.78125,93.375 C163.072953,96.1875141 168.906228,101.031216 173.28125,107.90625 Z M206.71875,86.03125 C215.572961,99.4688172 220,114.15617 220,130.09375 C220,146.03133 215.572961,160.744724 206.71875,174.234375 C197.864539,187.724026 186.145906,197.541636 171.5625,203.6875 C170.208327,204.208336 168.906256,204.46875 167.65625,204.46875 C164.843736,204.46875 162.447927,203.479177 160.46875,201.5 C158.489573,199.520823 157.5,197.177097 157.5,194.46875 C157.5,190.40623 159.53123,187.333344 163.59375,185.25 C169.427113,182.229152 173.385406,179.937508 175.46875,178.375 C183.177122,172.749972 189.192687,165.692751 193.515625,157.203125 C197.838563,148.713499 200,139.677131 200,130.09375 C200,120.510369 197.838563,111.474001 193.515625,102.984375 C189.192687,94.4947492 183.177122,87.4375281 175.46875,81.8125 C173.385406,80.2499922 169.427113,77.9583484 163.59375,74.9375 C159.53123,72.8541562 157.5,69.7812703 157.5,65.71875 C157.5,63.0104031 158.489573,60.6666766 160.46875,58.6875 C162.447927,56.7083234 164.791653,55.71875 167.5,55.71875 C168.854173,55.71875 170.208327,55.9791641 171.5625,56.5 C186.145906,62.6458641 197.864539,72.4895156 206.71875,86.03125 Z M240.15625,64.15625 C253.385483,84.15635 260,106.135297 260,130.09375 C260,154.052203 253.385483,176.057191 240.15625,196.109375 C226.927017,216.161559 209.323027,230.927036 187.34375,240.40625 C185.989577,240.927086 184.635423,241.1875 183.28125,241.1875 C180.572903,241.1875 178.229177,240.197927 176.25,238.21875 C174.270823,236.239573 173.28125,233.895847 173.28125,231.1875 C173.28125,227.437481 175.31248,224.364595 179.375,221.96875 C180.10417,221.552081 181.276034,221.005212 182.890625,220.328125 C184.505216,219.651038 185.67708,219.104169 186.40625,218.6875 C191.197941,216.08332 195.468731,213.427097 199.21875,210.71875 C212.031314,201.239536 222.031214,189.416737 229.21875,175.25 C236.406286,161.083263 240,146.03133 240,130.09375 C240,114.15617 236.406286,99.1042375 229.21875,84.9375 C222.031214,70.7707625 212.031314,58.9479641 199.21875,49.46875 C195.468731,46.7604031 191.197941,44.1041797 186.40625,41.5 C185.67708,41.0833313 184.505216,40.5364617 182.890625,39.859375 C181.276034,39.1822883 180.10417,38.6354187 179.375,38.21875 C175.31248,35.8229047 173.28125,32.7500187 173.28125,29 C173.28125,26.2916531 174.270823,23.9479266 176.25,21.96875 C178.229177,19.9895734 180.572903,19 183.28125,19 C184.635423,19 185.989577,19.2604141 187.34375,19.78125 C209.323027,29.2604641 226.927017,44.0519828 240.15625,64.15625 Z" id="" fill="#FFFFFF"></path>
    </g>
</svg>