<?xml version="1.0" encoding="UTF-8"?>
<svg width="292px" height="100px" viewBox="0 0 292 100" version="1.1" xmlns="http://www.w3.org/2000/svg" xmlns:xlink="http://www.w3.org/1999/xlink">
    <!-- Generator: Sketch 52.3 (67297) - http://www.bohemiancoding.com/sketch -->
    <title>promote-button-b</title>
    <desc>Created with Sketch.</desc>
    <g id="promote-button-b" stroke="none" stroke-width="1" fill="none" fill-rule="evenodd">
        <g transform="translate(0.000000, 25.000000)" fill="#FFFFFF">
            <path d="M14.14,30.35 C12.6538083,30.3500221 11.3143452,31.2463683 10.7474907,32.6202103 C10.1806363,33.9940523 10.4983091,35.5741415 11.5520727,36.6221626 C12.6058363,37.6701836 14.1876378,37.9792173 15.5583618,37.404864 C16.9290857,36.8305108 17.8180991,35.4861696 17.81,34 C17.7989967,31.9809298 16.1591002,30.34997 14.14,30.35 Z" id="Path"></path>
            <path d="M0.25,38.14 C0.266452432,42.6232425 3.89675749,46.2535476 8.38,46.27 L52.87,46.27 C57.3532425,46.2535476 60.9835476,42.6232425 61,38.14 L61,22.46 L0.25,22.46 L0.25,38.14 Z M14.14,27.64 C16.7222864,27.6400127 19.0499212,29.1966227 20.0362407,31.5831216 C21.0225601,33.9696205 20.4730387,36.7153344 18.6442222,38.5384179 C16.8154057,40.3615014 14.0679801,40.9023993 11.6845897,39.9085919 C9.30119927,38.9147844 7.75190506,36.5822737 7.76,34 C7.77102126,30.4842363 10.624219,27.6399827 14.14,27.64 Z" id="Shape" fill-rule="nonzero"></path>
            <path d="M52.87,4.91 L8.38,4.91 C3.91225162,4.92626151 0.288296933,8.53238616 0.25,13 L0.25,15.72 L61,15.72 L61,13 C60.9617031,8.53238616 57.3377484,4.92626151 52.87,4.91 Z M50.32,14.41 L50.32,7.52 L56.32,10.96 L50.32,14.41 Z" id="Shape" fill-rule="nonzero"></path>
            <rect id="Rectangle" x="71.66" y="43.74" width="67.43" height="6.2"></rect>
            <polyline id="Path" points="139.09 43.74 139.09 49.95 71.66 49.95 71.66 43.74 139.09 43.74"></polyline>
            <path d="M80.73,41.06 L83,32.31 L83.58,41.06 L101.15,41.06 L101.73,32.31 L104.04,41.06 L110.04,41.06 C109.18,37.33 108.12,32.67 107.13,28.31 C105.2,19.8 95.07,19.31 92.75,19.31 L92,19.31 C89.68,19.31 79.55,19.8 77.62,28.31 C76.62,32.67 75.56,37.31 74.71,41.06 L80.73,41.06 Z" id="Path"></path>
            <path d="M92.4,1.64 C95.4235393,1.61568379 98.1627249,3.41884009 99.3357374,6.2056704 C100.50875,8.9925007 99.8835647,12.2117636 97.7527412,14.3569845 C95.6219177,16.5022055 92.4069377,17.1490548 89.6122716,15.9948352 C86.8176056,14.8406157 84.9960446,12.1136345 85,9.09 C85.0055087,4.97776255 88.3377626,1.6455087 92.45,1.64" id="Path"></path>
            <path d="M128.61,3.58 L122.61,3.58 C117.797007,3.59097291 113.896489,7.48702249 113.88,12.3 L113.88,15.41 L113.88,18 C113.8,20.48 113.88,21.66 111.44,22.94 C111.44,22.94 110.76,23.27 110.76,23.85 C110.76,24.43 111.2,24.57 111.84,24.57 L128.63,24.57 C133.442978,24.5535108 137.339027,20.6529932 137.35,15.84 L137.35,12.3 C137.338972,7.48084362 133.429169,3.57998738 128.61,3.58 Z" id="Path"></path>
            <path d="M213.24,9.18 L211.72,2.82 L198.1,6.06 L198.29,6.84 C198.370724,7.18486237 198.310559,7.54767877 198.122842,7.84802635 C197.935125,8.14837393 197.635362,8.36144153 197.29,8.44 L196.99,8.44 C196.380746,8.44432343 195.847686,8.03109844 195.7,7.44 L195.51,6.67 L152.66,16.87 L153.09,18.65 C153.430092,17.5594032 154.437617,16.8148866 155.58,16.81 L212.16,16.81 C211.507364,14.2233481 211.895122,11.4839108 213.24,9.18 Z M198.94,15.3 C198.83714,15.3139914 198.73286,15.3139914 198.63,15.3 C198.020746,15.3043234 197.487686,14.8910984 197.34,14.3 L197,12.73 C196.831553,12.0147912 197.274791,11.2984468 197.99,11.13 C198.705209,10.9615532 199.421553,11.4047912 199.59,12.12 L199.96,13.71 C200.040035,14.0564586 199.976906,14.4205541 199.784907,14.719846 C199.592908,15.0191379 199.288281,15.2283099 198.94,15.3 Z" id="Shape" fill-rule="nonzero"></path>
            <path d="M216.55,30.66 L218.25,30.26 L217.79,28.32 C217.217798,29.0048523 216.795395,29.8019681 216.55,30.66 Z" id="Path"></path>
            <path d="M216.29,19.47 L202.29,19.47 L202.29,20.27 C202.29,21.0045387 201.694539,21.6 200.96,21.6 C200.225461,21.6 199.63,21.0045387 199.63,20.27 L199.63,19.47 L155.63,19.47 L155.63,47.67 L199.63,47.67 L199.63,46.87 C199.63,46.1354613 200.225461,45.54 200.96,45.54 C201.694539,45.54 202.29,46.1354613 202.29,46.87 L202.29,47.67 L216.29,47.67 L216.29,41.13 C214.352052,39.1020463 213.323094,36.3726008 213.44,33.57 C213.320341,30.763981 214.349497,28.0303967 216.29,26 L216.29,19.47 Z M185.59,34.11 L170.86,40.33 C168.192934,41.6351508 164.97421,40.8483517 163.21,38.46 L161.27,35.7 C160.77,35.02 161.47,34.8 161.47,34.8 L163.6,33.9 C164.096472,33.7043147 164.658523,33.7759856 165.09,34.09 L167.3,35.62 L172.06,33.46 L168.47,29.23 C168.325435,29.0800735 168.267354,28.8667508 168.315959,28.6642301 C168.364564,28.4617094 168.513136,28.2979836 168.71,28.23 L170.83,27.34 C171.335746,27.159009 171.896735,27.2217512 172.35,27.51 L177.35,31.08 L183.21,28.42 C184.79,27.76 187.63,27.23 188.6,29.51 C189.41,31.49 187.16,33.45 185.59,34.11 Z M202.29,41.44 C202.29,42.1745387 201.694539,42.77 200.96,42.77 C200.225461,42.77 199.63,42.1745387 199.63,41.44 L199.63,39.81 C199.63,39.0754613 200.225461,38.48 200.96,38.48 C201.694539,38.48 202.29,39.0754613 202.29,39.81 L202.29,41.44 Z M202.29,34.38 C202.29,35.1145387 201.694539,35.71 200.96,35.71 C200.225461,35.71 199.63,35.1145387 199.63,34.38 L199.63,32.76 C199.63,32.0254613 200.225461,31.43 200.96,31.43 C201.694539,31.43 202.29,32.0254613 202.29,32.76 L202.29,34.38 Z M202.29,27.32 C202.29,28.0545387 201.694539,28.65 200.96,28.65 C200.225461,28.65 199.63,28.0545387 199.63,27.32 L199.63,25.7 C199.63,24.9654613 200.225461,24.37 200.96,24.37 C201.694539,24.37 202.29,24.9654613 202.29,25.7 L202.29,27.32 Z" id="Shape" fill-rule="nonzero"></path>
            <path d="M288.65,12.35 C285.8,9.56 281.65,8.62 278.46,8.35 C278.46,9.7 278.35,12.17 278.1,15.28 C280.19,15.46 282.51,15.99 283.81,17.28 C284.39,17.84 285.12,18.87 284.88,21.22 C284.1,28.93 279.7,32.83 274.65,34.22 C273.84199,36.7917304 272.70597,39.2486262 271.27,41.53 L271.39,41.73 C282.54,41.08 290.58,33.42 291.75,21.88 C292.25,17 290.34,14 288.65,12.35 Z" id="Path"></path>
            <path d="M275.9,7.25 C275.9,3.53 265.96,0.51 253.7,0.51 L252.21,0.51 C239.94,0.51 230,3.51 230,7.25 C230,7.25 230,32.04 237.71,41.42 L235.9,44.5 C235.9,47.83 243.2,50.5 252.21,50.5 L253.7,50.5 C262.7,50.5 270,47.79 270,44.5 L268.2,41.42 C275.9,32 275.9,7.25 275.9,7.25 Z M253,12.83 C243.75,12.83 236.25,11.13 236.25,9.02 C236.25,6.91 243.75,5.21 253,5.21 C262.25,5.21 269.76,6.92 269.76,9.02 C269.76,11.12 262.21,12.83 253,12.83 Z" id="Shape" fill-rule="nonzero"></path>
        </g>
    </g>
</svg>