<?xml version="1.0" encoding="UTF-8"?>
<svg width="292px" height="100px" viewBox="0 0 292 100" version="1.1" xmlns="http://www.w3.org/2000/svg" xmlns:xlink="http://www.w3.org/1999/xlink">
    <!-- Generator: Sketch 52.3 (67297) - http://www.bohemiancoding.com/sketch -->
    <title>promote-button-a</title>
    <desc>Created with Sketch.</desc>
    <g id="promote-button-a" stroke="none" stroke-width="1" fill="none" fill-rule="evenodd">
        <g transform="translate(14.000000, 0.000000)" fill="#FFFFFF" id="Path">
            <path d="M40.33,40.69 C46.6812746,40.69 51.83,35.5412746 51.83,29.19 C51.83,24.55 49.08,18.3 45.12,16.48 C45.6,15.08 45.86,15.83 45.86,14.26 C45.864289,8.15120858 41.8630129,2.76210993 36.0141388,0.99915142 C30.1652647,-0.763807086 23.8523198,1.51639515 20.48,6.61 C19.720985,6.4453502 18.9466665,6.3615495 18.17,6.36 C12.4650272,6.35419536 7.82033814,10.9453433 7.76,16.65 C2.46245564,19.1890806 -0.382490994,25.0477013 0.897958222,30.781056 C2.17840744,36.5144107 7.24556642,40.6059945 13.12,40.65 L40.33,40.69 Z"></path>
            <path d="M249.62,99.3 C257.61156,99.3 264.09,92.8215603 264.09,84.83 C264.09,78.99 260.62,71.12 255.64,68.83 C256.24,67.07 256.57,68.01 256.57,66.04 C256.56813,58.3557832 251.531535,51.5804504 244.173804,49.3643773 C236.816072,47.1483041 228.875393,50.0150152 224.63,56.42 C223.679412,56.1978534 222.706196,56.0871083 221.73,56.09 C214.533943,56.0897903 208.684932,61.8941526 208.63,69.09 C201.902391,72.2541334 198.270549,79.6623255 199.889678,86.918419 C201.508806,94.1745126 207.945455,99.3360167 215.38,99.34 L249.62,99.3 Z"></path>
            <path d="M40.48,40.2 C46.7484319,40.2 51.83,35.1184319 51.83,28.85 C51.83,24.27 49.12,18.1 45.21,16.31 C45.68,14.92 45.93,15.66 45.93,14.12 C45.9340676,8.0906985 41.9847371,2.77182339 36.211937,1.03191758 C30.4391369,-0.70798824 24.2083802,1.54263701 20.88,6.57 C20.1357519,6.3968909 19.3741151,6.30965496 18.61,6.31 C12.9790474,6.30961634 8.39573095,10.8394311 8.33,16.47 C3.05869442,18.9554884 0.214427744,24.7628509 1.48248168,30.4511155 C2.75053562,36.1393802 7.79211962,40.1887928 13.62,40.2 L40.48,40.2 Z"></path>
            <polygon points="149.03 29.34 118.53 13.23 101 16.39 124.23 37.57"></polygon>
            <polygon points="157.65 39.8 127.19 46.94 114.03 89.72 130.74 83.53"></polygon>
            <path d="M206.68,23.42 L196.14,26.91 L195,23.54 L202.26,21.14 L201.76,20.9 C196.39,18.29 181.76,21.56 176.63,23.04 L114.49,43.66 L108.29,45.51 C107.998302,45.6098099 107.681698,45.6098099 107.39,45.51 L77.85,33.55 L69.85,36.21 L84.08,50.65 C84.4103303,50.9922258 84.539517,51.4812967 84.4212808,51.9420101 C84.3030446,52.4027235 83.9543077,52.7691414 83.5,52.91 L68.86,57.27 L70.55,62.34 L120.27,60.34 L124.62,46.19 C124.90753,45.2598374 125.670286,44.5542882 126.62,44.34 L157,37.17 C157.162808,37.1231675 157.330707,37.0963037 157.5,37.09 L157.71,37.09 C158.72072,37.0922229 159.646215,37.6567211 160.110792,38.554344 C160.57537,39.451967 160.50182,40.533535 159.92,41.36 L154.33,50.44 C172.41,44.15 193.95,36.44 202.12,32.62 C209.12,29.37 209.86,27.35 209.86,26.62 C209.84,25.58 208.44,24.46 206.68,23.42 Z"></path>
        </g>
    </g>
</svg>