<svg xmlns="http://www.w3.org/2000/svg" viewBox="0 0 28 28"><defs><style>.cls-1{fill:#fff;stroke:#c80019;stroke-linecap:round;stroke-linejoin:round;}</style></defs><title>taiken_icon_04</title><g id="レイヤー_1" data-name="レイヤー 1"><path class="cls-1" d="M14.1,23.48a34.14,34.14,0,0,0-10-3.95V4.86a60.55,60.55,0,0,1,10,4.75Z"/><path class="cls-1" d="M14.1,23.48a34.14,34.14,0,0,1,10-3.95V4.86a60.55,60.55,0,0,0-10,4.75Z"/><path class="cls-1" d="M14.1,23.87C9,20.87,3.09,22,3.09,22V7.78S9,6.61,14.1,9.61Z"/><path class="cls-1" d="M14.1,23.87c5.06-3,11-1.83,11-1.83V7.78s-5.95-1.17-11,1.83Z"/></g></svg>