<svg xmlns="http://www.w3.org/2000/svg" viewBox="0 0 28 28"><defs><style>.cls-1,.cls-2{fill:#fff;}.cls-1,.cls-3,.cls-4{stroke:#c80019;stroke-linecap:round;stroke-linejoin:round;}.cls-3,.cls-4{fill:none;}.cls-4{stroke-dasharray:0.61 2.04;}.cls-5{fill:#c80019;}</style></defs><title>taiken_icon_07</title><g id="レイヤー_1" data-name="レイヤー 1"><path class="cls-1" d="M23.93,10.47a3.93,3.93,0,0,1,.38-3l-.57-2.39L1.51,10.35,4,20.68,26.2,15.39,25.63,13A3.87,3.87,0,0,1,23.93,10.47Z"/><line class="cls-2" x1="18.13" y1="6.39" x2="20.59" y2="16.72"/><line class="cls-3" x1="18.13" y1="6.39" x2="18.2" y2="6.69"/><line class="cls-4" x1="18.67" y1="8.67" x2="20.28" y2="15.44"/><line class="cls-3" x1="20.52" y1="16.43" x2="20.59" y2="16.72"/><path class="cls-1" d="M24.39,16.63a3.87,3.87,0,0,1,1.07-2.84V11.33H2.61V21.94H25.46V19.48A3.87,3.87,0,0,1,24.39,16.63Z"/><line class="cls-3" x1="19.69" y1="11.33" x2="19.69" y2="11.63"/><line class="cls-4" x1="19.69" y1="13.67" x2="19.69" y2="20.62"/><line class="cls-3" x1="19.69" y1="21.64" x2="19.69" y2="21.94"/><path class="cls-5" d="M15,15.1c-.37-.86-1.44-.66-2-.41l-2.21,1L8.92,14.35a.64.64,0,0,0-.57-.07l-.8.34a.23.23,0,0,0-.09.38l1.35,1.59L7,17.4l-.83-.57a.58.58,0,0,0-.56-.07l-.8.34s-.27.08-.08.34l.73,1a2.32,2.32,0,0,0,2.88.7l5.55-2.34C14.5,16.59,15.34,15.85,15,15.1Z"/></g></svg>