<svg xmlns="http://www.w3.org/2000/svg" viewBox="0 0 28 28"><defs><style>.cls-1{fill:#fff;stroke:#c80019;stroke-linecap:round;stroke-linejoin:round;}.cls-2{fill:#c80019;}</style></defs><title>taiken_icon_03</title><g id="レイヤー_1" data-name="レイヤー 1"><polygon class="cls-1" points="18.56 13.34 13.01 15.07 6.86 9.47 10.12 8.88 18.56 13.34"/><path class="cls-1" d="M25.7,10.08c-1.3-.63-4.85.38-4.85.38L9.29,14.3l-1.14.34L2.57,12.39.6,13l2.93,3-3,.89L1,18.27l10.57-.44S22.91,14,25.75,12.71,27,10.71,25.7,10.08Z"/><polygon class="cls-2" points="25.96 10.26 26.72 10.7 24.54 11.42 24.33 10.8 25.96 10.26"/><polygon class="cls-1" points="17.39 13.82 11.73 15.14 9.29 23.09 12.39 21.94 17.39 13.82"/></g></svg>