<svg xmlns="http://www.w3.org/2000/svg" viewBox="0 0 28 28"><defs><style>.cls-1,.cls-2,.cls-3{fill:#fff;}.cls-1,.cls-2,.cls-4{stroke:#c80019;}.cls-1,.cls-4{stroke-linecap:round;stroke-linejoin:round;}.cls-2{stroke-miterlimit:10;}.cls-4{fill:none;}</style></defs><title>taiken_icon_01</title><g id="レイヤー_1" data-name="レイヤー 1"><path class="cls-1" d="M24.75,18.2c0,1.16-1.14,2.11-4.22,2.11s-4.22-.95-4.22-2.11L15,6.93H26.1Z"/><ellipse class="cls-1" cx="20.53" cy="6.67" rx="6.26" ry="2.37"/><path class="cls-1" d="M16.83,6.62a9.8,9.8,0,0,0,4.45.57"/><path class="cls-2" d="M3,19.89,3.88,21a4.23,4.23,0,0,0,2.87,1.58h9A4.23,4.23,0,0,0,18.63,21l.83-1.08"/><path class="cls-3" d="M18.93,15.3a4.08,4.08,0,0,0-3.25-1.94H6.82A4,4,0,0,0,3.58,15.3L2.15,18a1.21,1.21,0,0,0,1.16,1.94H19.19A1.21,1.21,0,0,0,20.35,18Z"/><path class="cls-2" d="M18.93,15.3a4.08,4.08,0,0,0-3.25-1.94H6.82A4,4,0,0,0,3.58,15.3L2.15,18a1.21,1.21,0,0,0,1.16,1.94H19.19A1.21,1.21,0,0,0,20.35,18Z"/><polyline class="cls-4" points="5.06 16.63 4.33 18.04 17.89 18.04"/></g></svg>