<svg xmlns="http://www.w3.org/2000/svg" viewBox="0 0 28 28"><defs><style>.cls-1{fill:#fff;stroke:#c80019;stroke-linecap:round;stroke-linejoin:round;}</style></defs><title>taiken_icon_06</title><g id="レイヤー_1" data-name="レイヤー 1"><path class="cls-1" d="M14.87,14.7c-.78-3.41-5.11-3.35-5.5-3.34s-4.72-.07-5.5,3.34-1.69,7.4-1.69,7.4H4.33l1.55-5.91.39,5.91h6.19l.39-5.91,1.56,5.91h2.15S15.64,18.13,14.87,14.7Z"/><circle class="cls-1" cx="9.37" cy="7.55" r="2.77"/><rect class="cls-1" x="1.65" y="20.45" width="25.09" height="2.31"/><path class="cls-1" d="M22.84,5.5H20.6a3.26,3.26,0,0,0-3.25,3.25V9.91h0v1c0,.92,0,1.36-.91,1.84,0,0-.25.12-.25.34s.17.26.4.26h6.25a3.25,3.25,0,0,0,3.25-3.24V8.75A3.26,3.26,0,0,0,22.84,5.5Z"/></g></svg>