<svg xmlns="http://www.w3.org/2000/svg" viewBox="0 0 28 28"><defs><style>.cls-1,.cls-4{fill:none;}.cls-1,.cls-2,.cls-4{stroke:#c80019;}.cls-1{stroke-miterlimit:10;stroke-width:1.5px;}.cls-2,.cls-3{fill:#fff;}.cls-2,.cls-4{stroke-linecap:round;stroke-linejoin:round;}</style></defs><title>taiken_icon_02</title><g id="レイヤー_1" data-name="レイヤー 1"><rect class="cls-1" x="7.02" y="20.32" width="10.8" height="5.27" rx="1.86" ry="1.86"/><path class="cls-2" d="M14.9,17.39s-6.31-.18-8.68,0-2,1.67-1.86,2.5A3.12,3.12,0,0,0,7.05,22.7c1.83.17,10.72,0,10.72,0s1.66.21,2.12-2,2.53-11,2.53-11,.29-2.41.29-3.07V2.47s0-.83-.71-.83H20.09S17.82,2,18.81,8.16A23.47,23.47,0,0,0,14.9,17.39Z"/><rect class="cls-3" x="8.28" y="12.02" width="9.56" height="3.12" rx="1" ry="1"/><rect class="cls-4" x="8.28" y="12.02" width="9.56" height="3.12" rx="1" ry="1"/></g></svg>