<?xml version="1.0" encoding="UTF-8" standalone="no"?>
<svg width="17px" height="11px" viewBox="0 0 17 11" version="1.1" xmlns="http://www.w3.org/2000/svg" xmlns:xlink="http://www.w3.org/1999/xlink" xmlns:sketch="http://www.bohemiancoding.com/sketch/ns">
    <!-- Generator: Sketch 3.4.1 (15681) - http://www.bohemiancoding.com/sketch -->
    <title>Imported Layers Copy 4</title>
    <desc>Created with Sketch.</desc>
    <defs></defs>
    <g id="キャンペーン" stroke="none" stroke-width="1" fill="none" fill-rule="evenodd" sketch:type="MSPage">
        <g id="CPトップ（リスト）" sketch:type="MSArtboardGroup" transform="translate(-23.000000, -430.000000)" fill="#FFFFFF">
            <g id="CP一覧" sketch:type="MSLayerGroup" transform="translate(0.000000, 149.000000)">
                <g id="File002" transform="translate(0.000000, 258.000000)" sketch:type="MSShapeGroup">
                    <g id="Picture-Copy" transform="translate(21.000000, 18.000000)">
                        <g id="l_55e52f59c90b5">
                            <g id="Imported-Layers-Copy-4" transform="translate(2.000000, 5.000000)">
                                <path d="M9.64790476,7.80873077 L9.65114286,7.81042308 L9.65114286,3.37234615 L8.6157619,4.01669231 L8.48016667,4.12034615 L8.313,4.01669231 L2.37028571,1.01157692 C1.89590476,0.847846154 1.37254762,0.919769231 0.957666667,1.21042308 C0.541571429,1.5015 0.269571429,1.97576923 0.233952381,2.49615385 L0.221809524,4.01669231 L0.208452381,6.12107692 L0.205214286,6.12107692 L0.184166667,8.81353846 C0.147738095,9.33392308 0.353357143,9.84584615 0.723309524,10.1957308 C1.09488095,10.5439231 1.60407143,10.6932692 2.09828571,10.6018846 L8.46761905,7.13857692 L9.64790476,7.80873077" id="Fill-1"></path>
                                <path d="M14.5649524,10.6014615 C15.0385238,10.7660385 15.5683571,10.6932692 15.9824286,10.4034615 C16.3977143,10.1106923 16.6713333,9.63896154 16.7069524,9.11857692 L16.6300476,6.12107692 L16.6207381,6.12107692 L16.5762143,4.01669231 L16.5264286,2.07180769 C16.5571905,1.61446154 16.3944762,1.17276923 16.1054762,0.831769231 C16.0654048,0.783961538 16.031,0.732346154 15.9856667,0.690038462 C15.6145,0.341423077 15.1049048,0.191653846 14.6119048,0.283461538 L9.65114286,3.37234615 L9.65114286,7.81042308 L14.5649524,10.6014615" id="Fill-2"></path>
                            </g>
                        </g>
                    </g>
                </g>
            </g>
        </g>
    </g>
</svg>