<svg xmlns="http://www.w3.org/2000/svg" viewBox="0 0 53.4 48" enable-background="new 0 0 53.4 48"><style type="text/css">.st0{fill-rule:evenodd;clip-rule:evenodd;fill:#333333;}</style><path class="st0" d="M26.7 40c-1.8 0-3.6-.3-5.2-1s-3-1.6-4.3-2.8c-1.2-1.2-2.2-2.6-2.8-4.2-.7-1.6-1-3.4-1-5.2s.3-3.6 1-5.2 1.6-3 2.8-4.2c1.2-1.2 2.6-2.2 4.3-2.8 1.6-.7 3.4-1 5.2-1s3.6.3 5.2 1 3 1.6 4.3 2.8c1.2 1.2 2.2 2.6 2.8 4.2.7 1.6 1 3.4 1 5.2s-.3 3.6-1 5.2-1.6 3-2.8 4.2c-1.2 1.2-2.6 2.2-4.3 2.8-1.6.7-3.4 1-5.2 1zm-8-40l-4.9 5.4h-8.4c-.8 0-1.4.1-2.1.4-.7.3-1.2.6-1.7 1.1-.5.5-.8 1-1.1 1.7-.4.6-.5 1.3-.5 2.1v32c0 .8.1 1.4.4 2.1.3.6.7 1.2 1.1 1.7.5.5 1.1.9 1.7 1.2.7.2 1.4.3 2.2.3h42.6c.8 0 1.4-.1 2.1-.4.6-.3 1.2-.7 1.7-1.2s.8-1 1.1-1.7c.3-.6.4-1.3.4-2.1v-32c0-.8-.1-1.4-.4-2.1-.3-.6-.7-1.2-1.1-1.7-.5-.5-1.1-.9-1.7-1.2-.6-.3-1.3-.4-2.1-.4h-8.4l-4.9-5.2h-16zm16.6 26.7c0-1.2-.2-2.3-.7-3.3-.5-1-1.1-2-1.8-2.8-.8-.7-1.8-1.3-2.8-1.8-1-.5-2.1-.7-3.3-.7s-2.3.2-3.3.7c-1 .5-2 1.1-2.8 1.8-.8.8-1.4 1.7-1.8 2.8-.5 1-.7 2.1-.7 3.3s.2 2.3.7 3.3c.5 1 1.1 2 1.8 2.8.8.7 1.7 1.4 2.8 1.8 1 .5 2.1.7 3.3.7s2.3-.3 3.3-.7c1-.5 2-1.1 2.8-1.8.8-.8 1.4-1.7 1.8-2.8.4-1 .7-2.1.7-3.3z"/></svg>