<svg xmlns="http://www.w3.org/2000/svg" viewBox="0 0 50 50" enable-background="new 0 0 50 50"><style type="text/css">.st0{fill-rule:evenodd;clip-rule:evenodd;fill:#333333;}</style><path class="st0" d="M26.3 12.5h-3.8v15l13.1 7.9 1.9-3-11.3-6.7v-13.2zm-1.3 32.5c-2.8 0-5.4-.5-7.8-1.6-2.4-1-4.5-2.5-6.3-4.3-1.8-1.8-3.3-3.9-4.3-6.3s-1.6-5-1.6-7.8.5-5.4 1.6-7.8c1-2.4 2.5-4.5 4.3-6.3 1.8-1.8 3.9-3.3 6.3-4.3s5-1.6 7.8-1.6 5.4.5 7.8 1.6c2.4 1 4.5 2.5 6.3 4.3 1.8 1.8 3.3 3.9 4.3 6.3s1.6 5 1.6 7.8-.5 5.4-1.6 7.8c-1 2.4-2.5 4.5-4.3 6.3-1.8 1.8-3.9 3.3-6.3 4.3-2.4 1.1-5 1.6-7.8 1.6zm0-45c-3.5 0-6.7.7-9.8 2-3 1.3-5.7 3.1-7.9 5.4-2.3 2.3-4.1 4.9-5.4 8s-1.9 6.2-1.9 9.6c0 3.4.7 6.7 2 9.7s3.1 5.7 5.4 8c2.3 2.3 4.9 4.1 7.9 5.4 3 1.3 6.3 2 9.8 2 3.4 0 6.7-.7 9.7-2s5.7-3.1 8-5.4c2.3-2.3 4.1-4.9 5.4-8 1.3-3 2-6.3 2-9.7 0-3.4-.7-6.7-2-9.7-1.3-3-3.1-5.7-5.4-8-2.3-2.3-4.9-4.1-8-5.4s-6.3-1.9-9.8-1.9z"/></svg>