<?xml version="1.0" encoding="utf-8"?>
<!-- Generator: Adobe Illustrator 19.1.1, SVG Export Plug-In . SVG Version: 6.00 Build 0)  -->
<!DOCTYPE svg PUBLIC "-//W3C//DTD SVG 1.1//EN" "http://www.w3.org/Graphics/SVG/1.1/DTD/svg11.dtd">
<svg version="1.1" id="レイヤー_1" xmlns="http://www.w3.org/2000/svg" xmlns:xlink="http://www.w3.org/1999/xlink" x="0px"
	 y="0px" viewBox="0 0 53.4 48" style="enable-background:new 0 0 53.4 48;" xml:space="preserve">
<style type="text/css">
	.st0{fill-rule:evenodd;clip-rule:evenodd;fill:#333333;}
</style>
<path class="st0" d="M26.7,40c-1.8,0-3.6-0.3-5.2-1c-1.6-0.7-3-1.6-4.3-2.8c-1.2-1.2-2.2-2.6-2.8-4.2c-0.7-1.6-1-3.4-1-5.2
	s0.3-3.6,1-5.2c0.7-1.6,1.6-3,2.8-4.2c1.2-1.2,2.6-2.2,4.3-2.8c1.6-0.7,3.4-1,5.2-1s3.6,0.3,5.2,1c1.6,0.7,3,1.6,4.3,2.8
	c1.2,1.2,2.2,2.6,2.8,4.2c0.7,1.6,1,3.4,1,5.2s-0.3,3.6-1,5.2c-0.7,1.6-1.6,3-2.8,4.2c-1.2,1.2-2.6,2.2-4.3,2.8
	C30.3,39.7,28.5,40,26.7,40z M18.7,0l-4.9,5.4H5.4c-0.8,0-1.4,0.1-2.1,0.4C2.6,6.1,2.1,6.4,1.6,6.9c-0.5,0.5-0.8,1-1.1,1.7
	C0.1,9.2,0,9.9,0,10.7v32c0,0.8,0.1,1.4,0.4,2.1c0.3,0.6,0.7,1.2,1.1,1.7c0.5,0.5,1.1,0.9,1.7,1.2C3.9,47.9,4.6,48,5.4,48H48
	c0.8,0,1.4-0.1,2.1-0.4c0.6-0.3,1.2-0.7,1.7-1.2c0.5-0.5,0.8-1,1.1-1.7c0.3-0.6,0.4-1.3,0.4-2.1v-32c0-0.8-0.1-1.4-0.4-2.1
	c-0.3-0.6-0.7-1.2-1.1-1.7c-0.5-0.5-1.1-0.9-1.7-1.2c-0.6-0.3-1.3-0.4-2.1-0.4h-8.4L34.7,0H18.7z M35.3,26.7c0-1.2-0.2-2.3-0.7-3.3
	c-0.5-1-1.1-2-1.8-2.8C32,19.9,31,19.3,30,18.8c-1-0.5-2.1-0.7-3.3-0.7s-2.3,0.2-3.3,0.7c-1,0.5-2,1.1-2.8,1.8
	c-0.8,0.8-1.4,1.7-1.8,2.8c-0.5,1-0.7,2.1-0.7,3.3s0.2,2.3,0.7,3.3c0.5,1,1.1,2,1.8,2.8c0.8,0.7,1.7,1.4,2.8,1.8
	c1,0.5,2.1,0.7,3.3,0.7S29,35,30,34.6c1-0.5,2-1.1,2.8-1.8c0.8-0.8,1.4-1.7,1.8-2.8C35,29,35.3,27.9,35.3,26.7z"/>
</svg>
