<?xml version="1.0" encoding="utf-8"?>
<!-- Generator: Adobe Illustrator 19.1.1, SVG Export Plug-In . SVG Version: 6.00 Build 0)  -->
<!DOCTYPE svg PUBLIC "-//W3C//DTD SVG 1.1//EN" "http://www.w3.org/Graphics/SVG/1.1/DTD/svg11.dtd">
<svg version="1.1" id="レイヤー_1" xmlns="http://www.w3.org/2000/svg" xmlns:xlink="http://www.w3.org/1999/xlink" x="0px"
	 y="0px" viewBox="0 0 50 50" style="enable-background:new 0 0 50 50;" xml:space="preserve">
<style type="text/css">
	.st0{fill-rule:evenodd;clip-rule:evenodd;fill:#333333;}
</style>
<path class="st0" d="M26.3,12.5h-3.8v15l13.1,7.9l1.9-3l-11.3-6.7V12.5z M25,45c-2.8,0-5.4-0.5-7.8-1.6c-2.4-1-4.5-2.5-6.3-4.3
	c-1.8-1.8-3.3-3.9-4.3-6.3c-1-2.4-1.6-5-1.6-7.8c0-2.8,0.5-5.4,1.6-7.8c1-2.4,2.5-4.5,4.3-6.3c1.8-1.8,3.9-3.3,6.3-4.3
	c2.4-1,5-1.6,7.8-1.6s5.4,0.5,7.8,1.6c2.4,1,4.5,2.5,6.3,4.3c1.8,1.8,3.3,3.9,4.3,6.3c1,2.4,1.6,5,1.6,7.8c0,2.8-0.5,5.4-1.6,7.8
	c-1,2.4-2.5,4.5-4.3,6.3c-1.8,1.8-3.9,3.3-6.3,4.3C30.4,44.5,27.8,45,25,45z M25,0c-3.5,0-6.7,0.7-9.8,2c-3,1.3-5.7,3.1-7.9,5.4
	c-2.3,2.3-4.1,4.9-5.4,8S0,21.6,0,25c0,3.4,0.7,6.7,2,9.7s3.1,5.7,5.4,8c2.3,2.3,4.9,4.1,7.9,5.4c3,1.3,6.3,2,9.8,2
	c3.4,0,6.7-0.7,9.7-2s5.7-3.1,8-5.4c2.3-2.3,4.1-4.9,5.4-8c1.3-3,2-6.3,2-9.7c0-3.4-0.7-6.7-2-9.7c-1.3-3-3.1-5.7-5.4-8
	c-2.3-2.3-4.9-4.1-8-5.4S28.5,0,25,0z"/>
</svg>
