<?xml version="1.0" encoding="UTF-8" standalone="no"?>
<svg width="491px" height="428px" viewBox="0 0 491 428" version="1.1" xmlns="http://www.w3.org/2000/svg" xmlns:xlink="http://www.w3.org/1999/xlink">
    <!-- Generator: Sketch 41.2 (35397) - http://www.bohemiancoding.com/sketch -->
    <title>Slice 1</title>
    <desc>Created with Sketch.</desc>
    <defs></defs>
    <g id="Page-1" stroke="none" stroke-width="1" fill="none" fill-rule="evenodd">
        <g id="shop" transform="translate(1.000000, 0.000000)" fill="#696969">
            <g id="Group">
                <path d="M347.7,232.75 L281.2,232.75 C263,232.75 248.2,247.55 248.2,265.75 L248.2,316.75 C248.2,334.95 263,349.75 281.2,349.75 L347.7,349.75 C365.9,349.75 380.7,334.95 380.7,316.75 L380.7,265.75 C380.7,247.55 365.9,232.75 347.7,232.75 Z M356.7,316.75 C356.7,321.75 352.6,325.75 347.7,325.75 L281.2,325.75 C276.2,325.75 272.2,321.65 272.2,316.75 L272.2,265.75 C272.2,260.75 276.3,256.75 281.2,256.75 L347.7,256.75 C352.7,256.75 356.7,260.85 356.7,265.75 L356.7,316.75 Z" id="Shape"></path>
                <path d="M489.4,140.05 C489.4,137.95 488.9,135.95 487.8,134.15 L415,6.15 C412.9,2.45 408.9,0.05 404.6,0.05 L84.7,0.05 C80.4,0.05 76.4,2.35 74.3,6.15 L1.6,134.15 C0.6,135.95 -5.77315973e-15,137.95 -5.77315973e-15,140.05 C-5.77315973e-15,168.75 17.3,193.35 42,204.25 L42,415.35 C42,421.95 47.4,427.35 54,427.35 L120.3,427.35 L120.6,427.35 L213.6,427.35 L213.9,427.35 L435.3,427.35 C441.9,427.35 447.3,421.95 447.3,415.35 L447.3,205.75 C447.3,205.25 447.3,204.85 447.2,204.45 C472,193.55 489.4,168.85 489.4,140.05 Z M91.7,24.15 L397.6,24.15 L454.5,124.25 L34.9,124.25 L91.7,24.15 Z M348.3,148.15 C344.5,169.75 325.6,186.15 302.9,186.15 C280.2,186.15 261.3,169.75 257.5,148.15 L348.3,148.15 Z M232,148.15 C228.2,169.75 209.3,186.15 186.6,186.15 C163.9,186.15 145,169.75 141.1,148.15 L232,148.15 Z M24.8,148.15 L115.7,148.15 C111.9,169.75 92.9,186.15 70.2,186.15 C47.5,186.25 28.6,169.75 24.8,148.15 Z M201.6,403.35 L132.6,403.35 L132.6,273.85 C132.6,264.45 140.2,256.75 149.7,256.75 L184.6,256.75 C194,256.75 201.7,264.35 201.7,273.85 L201.7,403.35 L201.6,403.35 Z M423.3,403.35 L225.6,403.35 L225.6,273.85 C225.6,251.25 207.2,232.75 184.5,232.75 L149.6,232.75 C127,232.75 108.5,251.15 108.5,273.85 L108.5,403.45 L66,403.45 L66,210.15 C67.4,210.25 68.8,210.25 70.2,210.25 C94.4,210.25 115.8,197.95 128.4,179.25 C141,197.95 162.4,210.25 186.6,210.25 C210.8,210.25 232.1,197.95 244.8,179.25 C257.4,197.95 278.8,210.25 302.9,210.25 C327.1,210.25 348.4,197.95 361,179.25 C373.6,197.95 395,210.25 419.2,210.25 C420.6,210.25 421.9,210.15 423.3,210.15 L423.3,403.35 L423.3,403.35 Z M419.2,186.25 C396.5,186.25 377.6,169.85 373.8,148.25 L464.7,148.25 C460.8,169.75 441.9,186.25 419.2,186.25 Z" id="Shape"></path>
            </g>
        </g>
    </g>
</svg>