<?xml version="1.0" encoding="UTF-8" standalone="no"?>
<svg width="334px" height="264px" viewBox="0 0 334 264" version="1.1" xmlns="http://www.w3.org/2000/svg" xmlns:xlink="http://www.w3.org/1999/xlink">
    <!-- Generator: Sketch 41.2 (35397) - http://www.bohemiancoding.com/sketch -->
    <title>Slice 1</title>
    <desc>Created with Sketch.</desc>
    <defs></defs>
    <g id="Page-1" stroke="none" stroke-width="1" fill="none" fill-rule="evenodd">
        <g id="photo-camera" fill="#FFFFFF">
            <path d="M295.101,263.649 L38.561,263.649 C17.295,263.649 0,246.354 0,225.088 L0,68.703 C0,47.437 17.295,30.142 38.561,30.142 L90.908,30.142 L95.49,14.685 C97.36,6.227 105.092,0.019 114.186,0.019 L219.483,0.019 C228.32,0.019 236.141,6.195 238.211,14.762 L238.333,15.289 L242.51,30.141 L295.107,30.141 C316.373,30.141 333.668,47.436 333.668,68.702 L333.668,225.086 C333.662,246.354 316.361,263.649 295.101,263.649 Z M38.561,42.996 C24.383,42.996 12.854,54.526 12.854,68.703 L12.854,225.087 C12.854,239.265 24.384,250.794 38.561,250.794 L295.101,250.794 C309.279,250.794 320.808,239.264 320.808,225.087 L320.808,68.703 C320.808,54.525 309.278,42.996 295.101,42.996 L232.774,42.996 L225.737,17.899 C225.088,14.981 222.459,12.867 219.477,12.867 L114.179,12.867 C111.152,12.867 108.581,14.936 107.919,17.906 L100.49,42.996 L38.561,42.996 L38.561,42.996 Z M166.841,224.798 C121.86,224.798 85.265,188.21 85.265,143.235 C85.265,98.254 121.859,61.666 166.841,61.666 C211.81,61.666 248.398,98.26 248.398,143.235 C248.397,188.204 211.809,224.798 166.841,224.798 Z M166.841,74.513 C128.948,74.513 98.119,105.336 98.119,143.229 C98.119,181.122 128.949,211.938 166.841,211.938 C204.727,211.938 235.544,181.115 235.544,143.229 C235.543,105.336 204.72,74.513 166.841,74.513 Z M286.804,66.852 C280.249,66.852 274.946,72.167 274.946,78.71 C274.946,85.259 280.248,90.567 286.804,90.567 C293.353,90.567 298.655,85.258 298.655,78.71 C298.649,72.167 293.346,66.852 286.804,66.852 Z" id="Shape"></path>
        </g>
    </g>
</svg>