<?xml version="1.0" encoding="UTF-8" standalone="no"?>
<svg width="501px" height="304px" viewBox="0 0 501 304" version="1.1" xmlns="http://www.w3.org/2000/svg" xmlns:xlink="http://www.w3.org/1999/xlink">
    <!-- Generator: Sketch 41.2 (35397) - http://www.bohemiancoding.com/sketch -->
    <title>Slice 1</title>
    <desc>Created with Sketch.</desc>
    <defs></defs>
    <g id="Page-1" stroke="none" stroke-width="1" fill="none" fill-rule="evenodd">
        <g id="img_pm-mby-icon__step2" fill="#696969">
            <g id="Group">
                <path d="M196.3,0.1 L18.3,0.1 C8.2,0.1 0,8.3 0,18.4 L0,285.6 C0,295.7 8.2,303.9 18.3,303.9 L163.7,303.9 C165.4,303.9 167,303.2 168.2,302 L212.7,257.6 C213.9,256.4 214.6,254.8 214.6,253.1 L214.6,18.4 C214.6,8.3 206.4,0.1 196.3,0.1 Z M170.1,282.1 L170.1,265 C170.1,261.9 172.6,259.4 175.7,259.4 L192.8,259.4 L170.1,282.1 Z M201.8,246.7 L175.7,246.7 C165.6,246.7 157.4,254.9 157.4,265 L157.4,291.1 L18.4,291.1 C15.3,291.1 12.8,288.6 12.8,285.5 L12.8,50.9 L201.9,50.9 L201.9,246.7 L201.8,246.7 Z M201.8,38.1 L12.8,38.1 L12.8,18.4 C12.8,15.3 15.3,12.8 18.4,12.8 L196.3,12.8 C199.4,12.8 201.9,15.3 201.9,18.4 L201.9,38.1 L201.8,38.1 Z" id="Shape"></path>
                <path d="M39.1,98.1 L122.7,98.1 C126.2,98.1 129.1,95.2 129.1,91.7 C129.1,88.2 126.2,85.3 122.7,85.3 L39.1,85.3 C35.6,85.3 32.7,88.2 32.7,91.7 C32.7,95.2 35.5,98.1 39.1,98.1 Z" id="Shape"></path>
                <path d="M148.3,98.1 L169.9,98.1 C173.4,98.1 176.3,95.2 176.3,91.7 C176.3,88.2 173.4,85.3 169.9,85.3 L148.3,85.3 C144.8,85.3 141.9,88.2 141.9,91.7 C141.9,95.2 144.7,98.1 148.3,98.1 Z" id="Shape"></path>
                <path d="M39.1,148.7 L122.7,148.7 C126.2,148.7 129.1,145.8 129.1,142.3 C129.1,138.8 126.2,135.9 122.7,135.9 L39.1,135.9 C35.6,135.9 32.7,138.8 32.7,142.3 C32.7,145.9 35.5,148.7 39.1,148.7 Z" id="Shape"></path>
                <path d="M148.3,148.7 L169.9,148.7 C173.4,148.7 176.3,145.8 176.3,142.3 C176.3,138.8 173.4,135.9 169.9,135.9 L148.3,135.9 C144.8,135.9 141.9,138.8 141.9,142.3 C141.9,145.9 144.7,148.7 148.3,148.7 Z" id="Shape"></path>
                <path d="M39.1,199.4 L122.7,199.4 C126.2,199.4 129.1,196.5 129.1,193 C129.1,189.5 126.2,186.6 122.7,186.6 L39.1,186.6 C35.6,186.6 32.7,189.5 32.7,193 C32.7,196.5 35.5,199.4 39.1,199.4 Z" id="Shape"></path>
                <path d="M148.3,199.4 L169.9,199.4 C173.4,199.4 176.3,196.5 176.3,193 C176.3,189.5 173.4,186.6 169.9,186.6 L148.3,186.6 C144.8,186.6 141.9,189.5 141.9,193 C141.9,196.5 144.7,199.4 148.3,199.4 Z" id="Shape"></path>
                <path d="M169.9,223.1 L109,223.1 C105.5,223.1 102.6,226 102.6,229.5 C102.6,233 105.5,235.9 109,235.9 L169.8,235.9 C173.3,235.9 176.2,233 176.2,229.5 C176.3,225.9 173.4,223.1 169.9,223.1 Z" id="Shape"></path>
                <path d="M469.163723,264.836512 L258.49935,264.836512 C241.036231,264.836512 226.834,250.634281 226.834,233.171162 L226.834,104.751626 C226.834,87.2885066 241.036231,73.0862756 258.49935,73.0862756 L301.485426,73.0862756 L305.248052,60.3933653 C306.783651,53.4478626 313.13298,48.3500049 320.60075,48.3500049 L407.068071,48.3500049 C414.324799,48.3500049 420.747213,53.421585 422.447047,60.4565958 L422.54723,60.8893553 L425.97728,73.0854545 L469.16865,73.0854545 C486.631769,73.0854545 500.834,87.2876854 500.834,104.750804 L500.834,233.16952 C500.829073,250.634281 486.621915,264.836512 469.163723,264.836512 Z M258.49935,83.641666 C246.856723,83.641666 237.38939,93.10982 237.38939,104.751626 L237.38939,233.170341 C237.38939,244.812968 246.857544,254.280301 258.49935,254.280301 L469.163723,254.280301 C480.80635,254.280301 490.273683,244.812147 490.273683,233.170341 L490.273683,104.751626 C490.273683,93.1089988 480.805529,83.641666 469.163723,83.641666 L417.982315,83.641666 L412.203703,63.0326235 C411.67076,60.6364333 409.511889,58.9004682 407.063144,58.9004682 L320.595002,58.9004682 C318.109304,58.9004682 315.998061,60.5994804 315.454443,63.0383717 L309.35393,83.641666 L258.49935,83.641666 L258.49935,83.641666 Z M363.839748,232.933022 C326.902451,232.933022 296.851532,202.887851 296.851532,165.955481 C296.851532,129.018184 326.90163,98.9730134 363.839748,98.9730134 C400.767191,98.9730134 430.812362,129.023111 430.812362,165.955481 C430.811541,202.882924 400.76637,232.933022 363.839748,232.933022 Z M363.839748,109.522656 C332.722944,109.522656 307.406923,134.833749 307.406923,165.950554 C307.406923,197.067359 332.723765,222.372704 363.839748,222.372704 C394.950805,222.372704 420.256971,197.06161 420.256971,165.950554 C420.25615,134.833749 394.945056,109.522656 363.839748,109.522656 Z M462.35043,103.23163 C456.967624,103.23163 452.61293,107.596178 452.61293,112.969129 C452.61293,118.347008 456.966803,122.705808 462.35043,122.705808 C467.728308,122.705808 472.082181,118.346187 472.082181,112.969129 C472.077254,107.596178 467.72256,103.23163 462.35043,103.23163 Z" id="Shape"></path>
            </g>
        </g>
    </g>
</svg>