<?xml version="1.0" encoding="utf-8"?>
<!-- Generator: Adobe Illustrator 19.2.1, SVG Export Plug-In . SVG Version: 6.00 Build 0)  -->
<svg version="1.1" id="レイヤー_1" xmlns="http://www.w3.org/2000/svg" xmlns:xlink="http://www.w3.org/1999/xlink" x="0px"
	 y="0px" viewBox="0 0 500 500" style="enable-background:new 0 0 500 500;" xml:space="preserve">
<style type="text/css">
	.st0{fill-rule:evenodd;clip-rule:evenodd;fill:#FFFFFF;}
	.st1{fill:#FFFFFF;}
	.st2{fill-rule:evenodd;clip-rule:evenodd;fill:#696969;}
	.st3{fill-rule:evenodd;clip-rule:evenodd;}
</style>
<g>
	<path class="st0" d="M413.8,211.1V53.5c0-18.1-14.5-32.9-32.3-32.9H103.8c-17.8,0-32.3,14.7-32.3,32.9v393.1
		c0,18.1,14.5,32.9,32.3,32.9h277.7c17.8,0,32.3-14.7,32.3-32.9V288.9c9.3-3.8,15.4-12.9,15.4-23.2v-31.4
		C429.2,224,423,214.9,413.8,211.1z M290.3,39.1h43.4v90.1l-16.2-12.4c-3.2-2.5-7.8-2.5-11,0l-16.2,12.4V39.1z M395.5,446.6
		c0,7.9-6.3,14.3-14,14.3H103.8c-7.7,0-14-6.4-14-14.3V53.5c0-7.9,6.3-14.3,14-14.3h168.3v92.9c0,6.5,3.6,12.4,9.3,15.3
		c5.7,2.9,12.6,2.2,17.7-1.6l13-10l13,10c5.2,3.9,11.9,4.5,17.7,1.6c5.7-2.9,9.3-8.8,9.3-15.3V39.1h29.4c7.7,0,14,6.4,14,14.3v155.8
		h-37.2c-22.1,0-40,18.3-40,40.7c0,22.5,17.9,40.7,40,40.7h37.2V446.6z M410.9,265.7c0,3.5-2.8,6.4-6.3,6.5h-46.2
		c-12,0-21.7-10-21.7-22.2c0-12.2,9.7-22.2,21.7-22.2h46.3c3.5,0,6.3,2.9,6.3,6.5V265.7z"/>
	<path class="st0" d="M111.9,53.9c-4,0-7.2,3.3-7.2,7.4v377.4c0,4.1,3.2,7.4,7.2,7.4c4,0,7.2-3.3,7.2-7.4V61.3
		C119.1,57.2,115.8,53.9,111.9,53.9z"/>
</g>
</svg>
