<?xml version="1.0" encoding="utf-8"?>
<!-- Generator: Adobe Illustrator 19.2.1, SVG Export Plug-In . SVG Version: 6.00 Build 0)  -->
<svg version="1.1" id="レイヤー_1" xmlns="http://www.w3.org/2000/svg" xmlns:xlink="http://www.w3.org/1999/xlink" x="0px"
	 y="0px" viewBox="0 0 500 500" style="enable-background:new 0 0 500 500;" xml:space="preserve">
<style type="text/css">
	.st0{fill-rule:evenodd;clip-rule:evenodd;fill:#FFFFFF;}
	.st1{fill:#FFFFFF;}
	.st2{fill-rule:evenodd;clip-rule:evenodd;fill:#696969;}
	.st3{fill-rule:evenodd;clip-rule:evenodd;}
</style>
<g>
	<path class="st2" d="M304.4,352.9c-14.5,0-25.9,12-25.9,26.6c0,14.6,11.9,26.6,25.9,26.6c13.9,0,25.9-12,25.9-26.6
		C330.2,364.9,318.3,352.9,304.4,352.9z M304.4,392.7c-7.3,0-12.6-6-12.6-13.3c0-7.3,6-13.3,12.6-13.3c6.6,0,12.6,6,12.6,13.3
		C316.9,386.8,311,392.7,304.4,392.7z"/>
	<path class="st2" d="M163.2,352.9c-14.5,0-25.9,12-25.9,26.6c0,14.6,11.9,26.6,25.9,26.6c14.5,0,25.9-12,25.9-26.6
		C189.1,364.9,177.2,352.9,163.2,352.9z M163.2,392.7c-7.3,0-12.6-6-12.6-13.3c0-7.3,6-13.3,12.6-13.3c7.3,0,12.6,6,12.6,13.3
		C175.8,386.8,169.9,392.7,163.2,392.7z"/>
	<path class="st2" d="M366.6,93.9l-10.3,40.5h-260l48,142.5c-16.1,2.4-28.1,16-28.1,33.5c0,19.2,14.5,34.5,33.1,34.5h180.2v-12.6
		H149.3c-11.2,0-19.9-9.3-19.9-21.3c0-12,9.3-21.3,19.9-21.3h180.2h0.6l47-182.6h26.5V93.9H366.6z M320.2,276.6H158l-43.1-128.9
		h237.8L320.2,276.6z"/>
	<rect x="180.5" y="178.9" class="st2" width="13.3" height="75"/>
	<rect x="227.5" y="178.9" class="st2" width="13.3" height="75"/>
	<rect x="274.6" y="178.9" class="st2" width="13.3" height="75"/>
</g>
</svg>
