<?xml version="1.0" encoding="utf-8"?>
<!-- Generator: Adobe Illustrator 19.2.1, SVG Export Plug-In . SVG Version: 6.00 Build 0)  -->
<svg version="1.1" id="レイヤー_1" xmlns="http://www.w3.org/2000/svg" xmlns:xlink="http://www.w3.org/1999/xlink" x="0px"
	 y="0px" viewBox="0 0 86 142" style="enable-background:new 0 0 86 142;" xml:space="preserve">
<style type="text/css">
	.st0{fill-rule:evenodd;clip-rule:evenodd;fill:#FFFFFF;}
	.st1{fill:#FFFFFF;}
	.st2{fill-rule:evenodd;clip-rule:evenodd;fill:#696969;}
	.st3{fill-rule:evenodd;clip-rule:evenodd;}
</style>
<g>
	<path class="st3" d="M71.1,0H14.9C6.7,0,0,6.7,0,14.8v112.4c0,8.2,6.7,14.8,14.9,14.8h56.3c8.2,0,14.9-6.7,14.9-14.8V14.8
		C86,6.7,79.3,0,71.1,0z M81.3,127.2c0,5.6-4.6,10.1-10.2,10.1H14.9c-5.6,0-10.2-4.5-10.2-10.1v-13.3h76.6V127.2z M81.3,109.2H4.7
		V32.8h76.6V109.2z M81.3,28.1H4.7V14.8c0-5.6,4.6-10.1,10.2-10.1h56.3c5.6,0,10.2,4.5,10.2,10.1V28.1z"/>
	<ellipse class="st3" cx="43" cy="125.6" rx="4.7" ry="4.7"/>
	<path class="st3" d="M52.7,14H33.3c-1.3,0-2.3,1-2.3,2.3c0,1.3,1.1,2.3,2.3,2.3h19.3c1.3,0,2.3-1,2.3-2.3C55,15.1,54,14,52.7,14z"
		/>
	<path class="st3" d="M48.3,87.4h8.8c1.3,0,2.3-1,2.3-2.3v-8.7c0-1.3-1.1-2.3-2.3-2.3s-2.3,1-2.3,2.3v6.4h-6.4c-1.3,0-2.3,1-2.3,2.3
		C45.9,86.3,47,87.4,48.3,87.4z"/>
	<path class="st3" d="M48.3,59.3h6.4v6.5c0,1.3,1.1,2.3,2.3,2.3s2.3-1,2.3-2.3V57c0-1.3-1.1-2.3-2.3-2.3h-8.8c-1.3,0-2.3,1-2.3,2.3
		C45.9,58.2,47,59.3,48.3,59.3z"/>
	<path class="st3" d="M28.9,68.1c1.3,0,2.3-1,2.3-2.3v-6.5h6.4c1.3,0,2.3-1,2.3-2.3c0-1.3-1.1-2.3-2.3-2.3h-8.8
		c-1.3,0-2.3,1-2.3,2.3v8.8C26.6,67.1,27.6,68.1,28.9,68.1z"/>
	<path class="st3" d="M28.9,87.4h8.8c1.3,0,2.3-1,2.3-2.3c0-1.3-1.1-2.3-2.3-2.3h-6.4v-6.4c0-1.3-1.1-2.3-2.3-2.3s-2.3,1-2.3,2.3V85
		C26.6,86.3,27.6,87.4,28.9,87.4z"/>
</g>
</svg>
