<?xml version="1.0" encoding="utf-8"?>
<!-- Generator: Adobe Illustrator 19.2.1, SVG Export Plug-In . SVG Version: 6.00 Build 0)  -->
<svg version="1.1" id="レイヤー_1" xmlns="http://www.w3.org/2000/svg" xmlns:xlink="http://www.w3.org/1999/xlink" x="0px"
	 y="0px" viewBox="0 0 120 120.9" style="enable-background:new 0 0 120 120.9;" xml:space="preserve">
<style type="text/css">
	.st0{clip-path:url(#SVGID_2_);}
	.st1{clip-path:url(#SVGID_4_);fill:#FFFFFF;}
	.st2{clip-path:url(#SVGID_6_);}
	.st3{clip-path:url(#SVGID_8_);fill:#FFFFFF;}
	.st4{clip-path:url(#SVGID_10_);}
	.st5{clip-path:url(#SVGID_12_);fill:#FFFFFF;}
	.st6{clip-path:url(#SVGID_14_);}
	.st7{clip-path:url(#SVGID_16_);fill:#FFFFFF;}
	.st8{clip-path:url(#SVGID_18_);}
	.st9{clip-path:url(#SVGID_20_);fill:#FFFFFF;}
	.st10{clip-path:url(#SVGID_22_);}
	.st11{clip-path:url(#SVGID_24_);fill:#FFFFFF;}
	.st12{clip-path:url(#SVGID_26_);}
	.st13{clip-path:url(#SVGID_28_);fill:#FFFFFF;}
	.st14{clip-path:url(#SVGID_30_);}
	.st15{clip-path:url(#SVGID_32_);fill:#FFFFFF;}
</style>
<g>
	<g>
		<defs>
			<path id="SVGID_1_" d="M22.2,113.6V20.2h75.9v77.9H87.6c-4.1,0-7.4,3.3-7.4,7.3v10.4H24.5C23.2,115.8,22.2,114.8,22.2,113.6z
				 M24.5,5.1h71.4c1.2,0,2.2,1,2.2,2.2v7.8H22.2V7.3C22.2,6.1,23.2,5.1,24.5,5.1z M85.4,112.2v-6.8c0-1.2,1-2.2,2.2-2.2h6.9
				L85.4,112.2z M95.9,0H24.5c-4.1,0-7.4,3.3-7.4,7.3v106.3c0,4,3.3,7.3,7.4,7.3h58.4c0.7,0,1.3-0.3,1.8-0.7l17.9-17.7
				c0.5-0.5,0.8-1.1,0.8-1.8V7.3C103.2,3.3,99.9,0,95.9,0z"/>
		</defs>
		<use xlink:href="#SVGID_1_"  style="overflow:visible;fill:#FFFFFF;"/>
		<clipPath id="SVGID_2_">
			<use xlink:href="#SVGID_1_"  style="overflow:visible;"/>
		</clipPath>
		<g class="st0">
			<defs>
				<rect id="SVGID_3_" x="-369.1" y="-4594.4" width="1573.4" height="8223.7"/>
			</defs>
			<use xlink:href="#SVGID_3_"  style="overflow:visible;fill:#FFFFFF;"/>
			<clipPath id="SVGID_4_">
				<use xlink:href="#SVGID_3_"  style="overflow:visible;"/>
			</clipPath>
			<rect x="-3.9" y="-21" class="st1" width="128.1" height="162.8"/>
		</g>
	</g>
	<g>
		<defs>
			<path id="SVGID_5_" d="M32.8,39h33.6c1.4,0,2.6-1.1,2.6-2.5c0-1.4-1.1-2.5-2.6-2.5H32.8c-1.4,0-2.6,1.1-2.6,2.5
				C30.2,37.9,31.4,39,32.8,39z"/>
		</defs>
		<clipPath id="SVGID_6_">
			<use xlink:href="#SVGID_5_"  style="overflow:visible;"/>
		</clipPath>
		<g class="st2">
			<defs>
				<rect id="SVGID_7_" x="-369.1" y="-4594.4" width="1573.4" height="8223.7"/>
			</defs>
			<clipPath id="SVGID_8_">
				<use xlink:href="#SVGID_7_"  style="overflow:visible;"/>
			</clipPath>
			<rect x="9.2" y="12.9" class="st3" width="80.7" height="47"/>
		</g>
	</g>
	<g>
		<defs>
			<path id="SVGID_9_" d="M76.6,39h8.7c1.4,0,2.6-1.1,2.6-2.5c0-1.4-1.1-2.5-2.6-2.5h-8.7c-1.4,0-2.6,1.1-2.6,2.5
				C74,37.9,75.2,39,76.6,39z"/>
		</defs>
		<clipPath id="SVGID_10_">
			<use xlink:href="#SVGID_9_"  style="overflow:visible;"/>
		</clipPath>
		<g class="st4">
			<defs>
				<rect id="SVGID_11_" x="-369.1" y="-4594.4" width="1573.4" height="8223.7"/>
			</defs>
			<clipPath id="SVGID_12_">
				<use xlink:href="#SVGID_11_"  style="overflow:visible;"/>
			</clipPath>
			<rect x="53.1" y="12.9" class="st5" width="55.8" height="47"/>
		</g>
	</g>
	<g>
		<defs>
			<path id="SVGID_13_" d="M32.8,59.1h33.6c1.4,0,2.6-1.1,2.6-2.5c0-1.4-1.1-2.5-2.6-2.5H32.8c-1.4,0-2.6,1.1-2.6,2.5
				C30.2,58,31.4,59.1,32.8,59.1z"/>
		</defs>
		<clipPath id="SVGID_14_">
			<use xlink:href="#SVGID_13_"  style="overflow:visible;"/>
		</clipPath>
		<g class="st6">
			<defs>
				<rect id="SVGID_15_" x="-369.1" y="-4594.4" width="1573.4" height="8223.7"/>
			</defs>
			<clipPath id="SVGID_16_">
				<use xlink:href="#SVGID_15_"  style="overflow:visible;"/>
			</clipPath>
			<rect x="9.2" y="33.1" class="st7" width="80.7" height="47"/>
		</g>
	</g>
	<g>
		<defs>
			<path id="SVGID_17_" d="M76.6,59.1h8.7c1.4,0,2.6-1.1,2.6-2.5c0-1.4-1.1-2.5-2.6-2.5h-8.7c-1.4,0-2.6,1.1-2.6,2.5
				C74,58,75.2,59.1,76.6,59.1z"/>
		</defs>
		<clipPath id="SVGID_18_">
			<use xlink:href="#SVGID_17_"  style="overflow:visible;"/>
		</clipPath>
		<g class="st8">
			<defs>
				<rect id="SVGID_19_" x="-369.1" y="-4594.4" width="1573.4" height="8223.7"/>
			</defs>
			<clipPath id="SVGID_20_">
				<use xlink:href="#SVGID_19_"  style="overflow:visible;"/>
			</clipPath>
			<rect x="53.1" y="33.1" class="st9" width="55.8" height="47"/>
		</g>
	</g>
	<g>
		<defs>
			<path id="SVGID_21_" d="M68.9,76.8c0-1.4-1.1-2.5-2.6-2.5H32.8c-1.4,0-2.6,1.1-2.6,2.5s1.1,2.5,2.6,2.5h33.6
				C67.8,79.3,68.9,78.2,68.9,76.8z"/>
		</defs>
		<clipPath id="SVGID_22_">
			<use xlink:href="#SVGID_21_"  style="overflow:visible;"/>
		</clipPath>
		<g class="st10">
			<defs>
				<rect id="SVGID_23_" x="-369.1" y="-4594.4" width="1573.4" height="8223.7"/>
			</defs>
			<clipPath id="SVGID_24_">
				<use xlink:href="#SVGID_23_"  style="overflow:visible;"/>
			</clipPath>
			<rect x="9.2" y="53.2" class="st11" width="80.7" height="47"/>
		</g>
	</g>
	<g>
		<defs>
			<path id="SVGID_25_" d="M76.6,79.3h8.7c1.4,0,2.6-1.1,2.6-2.5s-1.1-2.5-2.6-2.5h-8.7c-1.4,0-2.6,1.1-2.6,2.5S75.2,79.3,76.6,79.3
				z"/>
		</defs>
		<clipPath id="SVGID_26_">
			<use xlink:href="#SVGID_25_"  style="overflow:visible;"/>
		</clipPath>
		<g class="st12">
			<defs>
				<rect id="SVGID_27_" x="-369.1" y="-4594.4" width="1573.4" height="8223.7"/>
			</defs>
			<clipPath id="SVGID_28_">
				<use xlink:href="#SVGID_27_"  style="overflow:visible;"/>
			</clipPath>
			<rect x="53.1" y="53.2" class="st13" width="55.8" height="47"/>
		</g>
	</g>
	<g>
		<defs>
			<path id="SVGID_29_" d="M85.3,93.8c1.4,0,2.6-1.1,2.6-2.5c0-1.4-1.1-2.5-2.6-2.5H60.9c-1.4,0-2.6,1.1-2.6,2.5
				c0,1.4,1.1,2.5,2.6,2.5H85.3z"/>
		</defs>
		<clipPath id="SVGID_30_">
			<use xlink:href="#SVGID_29_"  style="overflow:visible;"/>
		</clipPath>
		<g class="st14">
			<defs>
				<rect id="SVGID_31_" x="-369.1" y="-4594.4" width="1573.4" height="8223.7"/>
			</defs>
			<clipPath id="SVGID_32_">
				<use xlink:href="#SVGID_31_"  style="overflow:visible;"/>
			</clipPath>
			<rect x="37.3" y="67.7" class="st15" width="71.5" height="47"/>
		</g>
	</g>
</g>
</svg>
