<?xml version="1.0" encoding="utf-8"?>
<!-- Generator: Adobe Illustrator 19.2.1, SVG Export Plug-In . SVG Version: 6.00 Build 0)  -->
<svg version="1.1" id="レイヤー_1" xmlns="http://www.w3.org/2000/svg" xmlns:xlink="http://www.w3.org/1999/xlink" x="0px"
	 y="0px" viewBox="0 0 500 500" style="enable-background:new 0 0 500 500;" xml:space="preserve">
<style type="text/css">
	.st0{fill-rule:evenodd;clip-rule:evenodd;fill:#FF00FF;}
	.st1{fill:#FF00FF;}
	.st2{fill-rule:evenodd;clip-rule:evenodd;fill:#696969;}
	.st3{fill-rule:evenodd;clip-rule:evenodd;}
</style>
<path class="st2" d="M382.1,170.3h-13.3c9.5-8,15.6-20.1,15.6-33.5c0-24-19.3-43.5-43.1-43.5c-11.4,0-22.1,4.4-30.2,12.5l-37.3,37.3
	c-3.9-9.5-13.1-16.2-23.9-16.2s-20,6.7-23.9,16.2l-37.3-37.3c-8.1-8.1-18.8-12.5-30.2-12.5c-23.7,0-43.1,19.5-43.1,43.5
	c0,13.5,6.1,25.5,15.6,33.5h-13.3c-2.7,0-4.9,2.2-4.9,5V242c0,2.8,2.2,5,4.9,5h8.2v154.7c0,2.8,2.2,5,4.9,5h237.9
	c2.7,0,4.9-2.2,4.9-5V247h8.2c2.7,0,4.9-2.2,4.9-5v-66.7C387.1,172.6,384.9,170.3,382.1,170.3z M275.9,155.2l42.3-42.2
	c6.2-6.2,14.5-9.6,23.3-9.6c18.3,0,33.2,15,33.2,33.5c0,18.5-14.9,33.5-33.2,33.5h-65.5V155.2z M234,153.1c0-8.9,7.2-16.2,16-16.2
	c8.8,0,16,7.3,16,16.2v17.3h-32V153.1z M245.1,180.3v115c0,2.8,2.2,5,4.9,5s4.9-2.2,4.9-5v-115H278v146.2l-25.5-15.5
	c-1.6-0.9-3.5-0.9-5.1,0L222,326.6V180.3H245.1z M125.4,136.8c0-18.5,14.9-33.5,33.2-33.5c8.8,0,17,3.4,23.2,9.6l42.3,42.3v15.2
	h-65.5C140.3,170.3,125.4,155.3,125.4,136.8z M377.2,237h-74.4c-2.7,0-4.9,2.2-4.9,5c0,2.8,2.2,5,4.9,5H364v149.7H136V247h61.2
	c2.7,0,4.9-2.2,4.9-5c0-2.8-2.2-5-4.9-5h-74.4v-56.7h89.3v155c0,1.8,1,3.5,2.5,4.4c1.6,0.9,3.5,0.9,5-0.1l30.4-18.5l30.4,18.5
	c0.8,0.5,1.7,0.7,2.5,0.7c0.8,0,1.7-0.2,2.4-0.7c1.6-0.9,2.5-2.6,2.5-4.4v-155h89.3V237z"/>
</svg>
