<?xml version="1.0" encoding="utf-8"?>
<!-- Generator: Adobe Illustrator 19.2.1, SVG Export Plug-In . SVG Version: 6.00 Build 0)  -->
<svg version="1.1" id="レイヤー_1" xmlns="http://www.w3.org/2000/svg" xmlns:xlink="http://www.w3.org/1999/xlink" x="0px"
	 y="0px" viewBox="0 0 500 500" style="enable-background:new 0 0 500 500;" xml:space="preserve">
<style type="text/css">
	.st0{fill-rule:evenodd;clip-rule:evenodd;fill:#FFFFFF;}
	.st1{fill:#FFFFFF;}
	.st2{fill-rule:evenodd;clip-rule:evenodd;fill:#696969;}
	.st3{fill-rule:evenodd;clip-rule:evenodd;}
</style>
<path class="st1" d="M447.7,132.5h-14.8c12.9-12.2,20.2-29,20.2-46.7c0-35.9-29.8-65.1-66.3-65.1c-17.5,0-34,6.6-46.5,18.7
	l-53.9,52.2c-6.9-13.5-20.8-22.1-36.4-22.1c-15.5,0-29.5,8.6-36.4,22.1l-53.9-52.2c-12.5-12-29-18.7-46.5-18.7
	c-36.6,0-66.3,29.2-66.3,65c0,17.7,7.3,34.5,20.2,46.7H52.3c-5.1,0-9.3,4.1-9.3,9.2v96.8c0,5,4.2,9.2,9.3,9.2h10.4v222.5
	c0,5,4.2,9.2,9.3,9.2h356c5.1,0,9.3-4.1,9.3-9.2V247.6h10.4c5.1,0,9.3-4.1,9.3-9.2v-96.8C457,136.6,452.8,132.5,447.7,132.5z
	 M209.4,132.5h-96.2c-26.3,0-47.7-21-47.7-46.7S86.9,39,113.2,39c12.6,0,24.5,4.8,33.5,13.4l62.7,60.7V132.5z M228,132.5v-23.1
	c0-11.9,9.9-21.6,22-21.6c12.1,0,22,9.7,22,21.6v23.1H228z M290.6,132.5v-19.3l62.7-60.7c9-8.7,20.9-13.4,33.5-13.4
	c26.3,0,47.7,21,47.7,46.7s-21.4,46.7-47.7,46.7H290.6z M319.7,238.4c0,5,4.2,9.2,9.3,9.2h89.7V461H81.3V247.6H171
	c5.1,0,9.3-4.1,9.3-9.2s-4.2-9.2-9.3-9.2H61.6v-78.4h129.8v223.1c0,3.3,1.8,6.4,4.7,8c2.9,1.6,6.5,1.6,9.3-0.1l44.6-26.2l44.6,26.2
	c2.8,1.7,6.5,1.7,9.3,0.1c2.9-1.6,4.7-4.7,4.7-8V150.8h129.8v78.4H329C323.8,229.3,319.7,233.4,319.7,238.4z M250,325
	c5.1,0,9.3-4.1,9.3-9.2v-165h30.7v206.9L254.8,337c-3-1.7-6.6-1.7-9.5,0l-35.3,20.7V150.8h30.7v165C240.7,320.9,244.9,325,250,325z"
	/>
</svg>
