<?xml version="1.0" encoding="utf-8"?>
<!-- Generator: Adobe Illustrator 19.2.1, SVG Export Plug-In . SVG Version: 6.00 Build 0)  -->
<svg version="1.1" id="レイヤー_1" xmlns="http://www.w3.org/2000/svg" xmlns:xlink="http://www.w3.org/1999/xlink" x="0px"
	 y="0px" viewBox="0 0 500 500" style="enable-background:new 0 0 500 500;" xml:space="preserve">
<style type="text/css">
	.st0{fill-rule:evenodd;clip-rule:evenodd;fill:#FFFFFF;}
	.st1{fill:#FFFFFF;}
	.st2{fill-rule:evenodd;clip-rule:evenodd;fill:#696969;}
	.st3{fill-rule:evenodd;clip-rule:evenodd;}
</style>
<g>
	<path class="st2" d="M436.1,246.7l-13-19.4l7.6-22.1c0.8-2.3,0.1-4.8-1.7-6.4l-17.7-15.4l1.5-23.3c0.2-2.4-1.2-4.7-3.3-5.7
		l-21-10.3l-4.5-22.9c-0.5-2.4-2.3-4.2-4.7-4.7l-23-4.5l-10.3-21c-1.1-2.2-3.3-3.5-5.8-3.3l-23.4,1.5l-15.4-17.6
		c-1.6-1.8-4.1-2.5-6.4-1.7l-22.2,7.6l-19.5-13c-2-1.3-4.6-1.3-6.6,0l-19.5,13l-22.2-7.6c-2.3-0.8-4.8-0.1-6.4,1.7l-15.4,17.6
		l-23.4-1.5c-2.4-0.2-4.7,1.2-5.8,3.3l-10.3,21l-23,4.5c-2.4,0.5-4.2,2.3-4.7,4.7l-4.5,22.9l-21,10.3c-2.2,1.1-3.5,3.3-3.3,5.7
		l1.5,23.3l-17.6,15.4c-1.8,1.6-2.5,4.1-1.7,6.4l7.6,22.1l-13,19.4c-1.3,2-1.3,4.6,0,6.6l13,19.4l-7.6,22.1
		c-0.8,2.3-0.1,4.8,1.7,6.4l17.7,15.4l-1.5,23.3c-0.2,2.4,1.2,4.7,3.3,5.7l21,10.3l4.5,22.9c0.5,2.4,2.3,4.2,4.7,4.7l23,4.5l10.3,21
		c1.1,2.2,3.3,3.5,5.8,3.3l23.4-1.5l15.4,17.6c1.6,1.8,4.1,2.5,6.4,1.7l22.2-7.6l19.5,13c1,0.7,2.2,1,3.3,1c1.2,0,2.3-0.3,3.3-1
		l19.5-13l22.2,7.6c2.3,0.8,4.8,0.1,6.4-1.7l15.4-17.6l23.4,1.5c2.4,0.2,4.7-1.2,5.8-3.3l10.3-21l23-4.5c2.4-0.5,4.2-2.3,4.7-4.7
		l4.5-22.9l21-10.3c2.2-1.1,3.5-3.3,3.3-5.7l-1.5-23.3l17.7-15.4c1.8-1.6,2.5-4.1,1.7-6.4l-7.6-22.1l13-19.4
		C437.4,251.3,437.4,248.7,436.1,246.7z M411.5,268.5c-1,1.5-1.3,3.5-0.7,5.2l7.2,21.1l-16.9,14.7c-1.4,1.2-2.2,3-2,4.9l1.5,22.3
		l-20.1,9.8c-1.7,0.8-2.9,2.4-3.2,4.2l-4.3,21.9l-22,4.3c-1.8,0.4-3.4,1.6-4.2,3.2l-9.8,20.1l-22.3-1.5c-1.9-0.1-3.7,0.6-4.9,2
		L295,417.6l-21.2-7.2c-1.8-0.6-3.7-0.3-5.3,0.7L250,423.5l-18.6-12.4c-1-0.7-2.2-1-3.3-1c-0.7,0-1.3,0.1-1.9,0.3l-21.2,7.2
		l-14.7-16.8c-1.2-1.4-3-2.1-4.9-2l-22.3,1.5l-9.8-20.1c-0.8-1.7-2.4-2.9-4.2-3.2l-22-4.3l-4.3-21.9c-0.4-1.8-1.6-3.4-3.2-4.2
		l-20.1-9.8l1.5-22.3c0.1-1.9-0.6-3.7-2-4.9L82,294.9l7.2-21.1c0.6-1.8,0.3-3.7-0.7-5.2L76.1,250l12.5-18.6c1-1.5,1.3-3.5,0.7-5.2
		L82,205.1l16.9-14.7c1.4-1.2,2.2-3,2-4.9l-1.5-22.3l20.1-9.8c1.7-0.8,2.9-2.4,3.2-4.2l4.3-21.9l22-4.3c1.8-0.4,3.4-1.6,4.2-3.2
		l9.8-20.1l22.3,1.5c1.9,0.1,3.7-0.6,4.9-2L205,82.4l21.2,7.2c1.8,0.6,3.7,0.3,5.3-0.7L250,76.5l18.6,12.4c1.5,1,3.5,1.3,5.3,0.7
		l21.2-7.2l14.7,16.8c1.2,1.4,3,2.1,4.9,2l22.3-1.5l9.8,20.1c0.8,1.7,2.4,2.9,4.2,3.2l22,4.3l4.3,21.9c0.4,1.8,1.6,3.4,3.2,4.2
		l20.1,9.8l-1.5,22.3c-0.1,1.9,0.6,3.7,2,4.9l16.9,14.7l-7.2,21.1c-0.6,1.8-0.3,3.7,0.7,5.2l12.5,18.5L411.5,268.5z"/>
	<path class="st2" d="M250,101.8c-81.9,0-148.5,66.5-148.5,148.2S168.1,398.2,250,398.2c81.9,0,148.5-66.5,148.5-148.2
		S331.9,101.8,250,101.8z M250,386.3c-75.3,0-136.6-61.1-136.6-136.3S174.7,113.7,250,113.7c75.3,0,136.6,61.1,136.6,136.3
		S325.3,386.3,250,386.3z"/>
	<path class="st2" d="M368.6,256c-3.3-0.3-6.2,2.1-6.5,5.3c-5.3,52.9-47.7,95.2-100.8,100.6c-3.3,0.3-5.7,3.2-5.3,6.5
		c0.3,3.1,2.9,5.4,5.9,5.4c0.2,0,0.4,0,0.6,0c58.7-5.9,105.6-52.7,111.5-111.2C374.3,259.2,371.9,256.3,368.6,256z"/>
	<path class="st2" d="M333.8,158c-23-20.9-52.8-32.4-83.8-32.4c-68.7,0-124.6,55.8-124.6,124.4c0,31,11.5,60.7,32.5,83.6
		c20.8,22.8,49.1,37,79.6,40.1c0.2,0,0.4,0,0.6,0c3,0,5.6-2.3,5.9-5.4c0.3-3.3-2.1-6.2-5.3-6.5C180.9,356.1,137.3,308,137.3,250
		c0-62,50.5-112.4,112.7-112.4c58.1,0,106.3,43.5,112.1,101.1c0.3,3.3,3.3,5.7,6.5,5.3c3.3-0.3,5.7-3.2,5.3-6.5
		C370.9,207,356.7,178.8,333.8,158z"/>
</g>
</svg>
