<?xml version="1.0" encoding="UTF-8"?>
<svg width="299px" height="145px" viewBox="0 0 299 145" version="1.1" xmlns="http://www.w3.org/2000/svg" xmlns:xlink="http://www.w3.org/1999/xlink">
    <!-- Generator: Sketch 61.2 (89653) - https://sketch.com -->
    <title>new_logo</title>
    <desc>Created with Sketch.</desc>
    <defs>
        <polygon id="path-1" points="0.0001 0.538 58.2221 0.538 58.2221 103.1576 0.0001 103.1576"></polygon>
        <polygon id="path-3" points="0.8834 0.2878 64.848 0.2878 64.848 75.9438 0.8834 75.9438"></polygon>
    </defs>
    <g id="new_logo" stroke="none" stroke-width="1" fill="none" fill-rule="evenodd">
        <g id="Group-39">
            <path d="M292.8564,71.667 C291.7894,64.172 284.8474,58.962 277.3524,60.03 C272.9464,60.658 269.3424,63.323 267.3274,66.931 C264.7274,65.375 261.6004,64.663 258.3674,65.124 C250.8724,66.191 245.6624,73.133 246.7294,80.627 C247.7974,88.122 254.7394,93.332 262.2334,92.265 C266.6394,91.637 270.2444,88.971 272.2584,85.364 C274.8594,86.919 277.9864,87.631 281.2184,87.171 C288.7134,86.103 293.9234,79.162 292.8564,71.667" id="Fill-1" fill="#E2E2E2"></path>
            <path d="M116.0479,30.2368 L113.6709,29.3548 C110.1999,27.9578 106.5749,27.2498 102.8959,27.2498 C96.2019,27.2498 90.0319,29.2088 84.5599,33.0718 C75.5319,39.3818 70.9549,48.2038 70.9549,59.2938 L70.9549,94.5748 C70.9549,97.1378 71.8489,99.3118 73.6099,101.0348 C75.3599,102.7498 77.4769,103.6198 79.9019,103.6198 C82.4229,103.6198 84.5879,102.7498 86.3359,101.0348 C88.0999,99.3068 88.9939,97.1318 88.9939,94.5708 L88.9939,59.2558 C88.9939,54.4308 90.8919,50.7278 94.7959,47.9318 C97.2559,46.1538 99.8439,45.2888 102.7049,45.2888 C104.3299,45.2888 105.8939,45.6258 107.3939,46.3068 L109.9679,47.2218 C110.9369,47.5548 111.9279,47.7238 112.9129,47.7238 C115.4619,47.7238 117.6499,46.8288 119.4159,45.0638 C121.1889,43.2978 122.0869,41.1578 122.0869,38.7048 C122.0869,34.4858 119.9989,31.5578 116.0479,30.2368" id="Fill-3" fill="#000000"></path>
            <path d="M148.3115,29.6343 C146.5425,27.8623 144.4045,26.9633 141.9535,26.9633 C139.5015,26.9633 137.3625,27.8623 135.5935,29.6353 C133.8295,31.4063 132.9335,33.5513 132.9335,36.0073 L132.9335,94.5743 C132.9335,97.1413 133.8365,99.3173 135.6175,101.0423 C137.3805,102.7523 139.5115,103.6193 141.9535,103.6193 C144.3925,103.6193 146.5245,102.7533 148.2875,101.0433 C150.0705,99.3163 150.9735,97.1393 150.9735,94.5743 L150.9735,36.0073 C150.9735,33.5523 150.0785,31.4083 148.3115,29.6343" id="Fill-5" fill="#000000"></path>
            <g id="Group-9" transform="translate(0.000000, 0.462000)">
                <mask id="mask-2" fill="white">
                    <use xlink:href="#path-1"></use>
                </mask>
                <g id="Clip-8"></g>
                <path d="M49.2021,85.1176 L45.4771,85.1176 C42.4691,85.1176 39.9571,84.0616 37.7981,81.8906 C35.6351,79.7186 34.5841,77.1886 34.5841,74.1576 L34.5841,44.5406 L49.1771,44.5406 C51.7441,44.5406 53.9201,43.6376 55.6441,41.8566 C57.3541,40.0946 58.2221,37.9626 58.2221,35.5216 C58.2221,33.0816 57.3541,30.9506 55.6451,29.1876 C53.9191,27.4046 51.7421,26.5006 49.1771,26.5006 L34.5841,26.5006 L34.5841,9.5566 C34.5841,7.1096 33.6871,4.9706 31.9201,3.1996 C30.1501,1.4326 28.0131,0.5376 25.5641,0.5376 C23.1121,0.5376 20.9731,1.4366 19.2061,3.2086 C17.4401,4.9776 16.5441,7.1196 16.5441,9.5756 L16.5441,26.5006 L9.0441,26.5006 C6.5891,26.5006 4.4451,27.3966 2.6711,29.1636 C0.8991,30.9316 0.0001,33.0706 0.0001,35.5216 C0.0001,37.9726 0.8991,40.1126 2.6721,41.8806 C4.4441,43.6456 6.5881,44.5406 9.0441,44.5406 L16.5441,44.5406 L16.5441,74.1556 C16.5441,82.1416 19.3921,89.0436 25.0081,94.6706 C30.6231,100.3026 37.5101,103.1576 45.4771,103.1576 L49.2021,103.1576 C51.6401,103.1576 53.7701,102.2936 55.5341,100.5906 C57.3171,98.8686 58.2221,96.6986 58.2221,94.1386 C58.2221,91.6896 57.3251,89.5506 55.5571,87.7786 C53.7871,86.0136 51.6491,85.1176 49.2021,85.1176" id="Fill-7" fill="#C80019" mask="url(#mask-2)"></path>
            </g>
            <path d="M221.6396,77.9243 C219.8666,76.1593 217.6746,75.2653 215.1256,75.2653 C211.6176,75.2653 208.8706,76.9143 207.1866,80.0343 C205.0516,83.9593 201.9106,85.8663 197.5816,85.8663 L197.0066,85.8663 C193.9806,85.8663 191.4546,84.8153 189.2856,82.6523 C187.1186,80.4943 186.0646,77.9823 186.0646,74.9733 L186.0646,56.0383 C186.0646,52.9353 187.1186,50.3763 189.2856,48.2163 C191.4566,46.0533 193.9836,45.0023 197.0066,45.0023 L197.5816,45.0023 C201.9176,45.0023 205.0596,46.8633 207.1826,50.6853 C208.8686,53.8093 211.6166,55.4603 215.1256,55.4603 C217.5826,55.4603 219.7266,54.5653 221.4956,52.8013 C223.2716,51.0343 224.1716,48.8943 224.1716,46.4413 C224.1716,44.8673 223.7986,43.3853 223.0616,42.0313 C220.5106,37.4433 216.9166,33.7453 212.3786,31.0403 C207.8316,28.3353 202.8846,26.9633 197.6736,26.9633 L197.1006,26.9633 C189.1366,26.9633 182.2256,29.8353 176.5616,35.4993 C170.8976,41.1633 168.0256,48.0733 168.0256,56.0383 L168.0256,74.9733 C168.0256,82.9433 170.8996,89.8313 176.5686,95.4473 C182.2316,101.0603 189.1396,103.9053 197.1006,103.9053 L197.6736,103.9053 C202.9836,103.9053 207.9796,102.5333 212.5226,99.8283 C217.0656,97.1233 220.6616,93.3713 223.2136,88.6783 C223.9446,87.3373 224.3156,85.9073 224.3156,84.4283 C224.3156,81.8833 223.4146,79.6953 221.6396,77.9243" id="Fill-10" fill="#000000"></path>
            <g id="Group-14" transform="translate(234.000000, 27.462000)">
                <mask id="mask-4" fill="white">
                    <use xlink:href="#path-3"></use>
                </mask>
                <g id="Clip-13"></g>
                <path d="M19.8604,32.1098 C19.8604,28.4958 21.0824,25.5168 23.5964,23.0008 C26.1124,20.4858 29.0404,19.2628 32.5474,19.2628 L33.1844,19.2628 C36.6894,19.2628 39.6174,20.4858 42.1334,23.0008 C44.6494,25.5198 45.8734,28.4998 45.8734,32.1098 L45.8734,44.2808 C45.8734,47.7868 44.6494,50.7138 42.1344,53.2308 C39.6194,55.7458 36.6914,56.9688 33.1844,56.9688 L32.5474,56.9688 C29.0374,56.9688 26.1104,55.7458 23.5964,53.2298 C21.0824,50.7178 19.8604,47.7908 19.8604,44.2808 L19.8604,32.1098 Z M55.5894,9.6358 C49.4414,3.4328 41.9024,0.2878 33.1844,0.2878 L32.5474,0.2878 C23.8254,0.2878 16.2874,3.4338 10.1434,9.6358 C4.0004,15.8348 0.8834,23.3968 0.8834,32.1098 L0.8834,44.2808 C0.8834,52.9988 4.0014,60.5358 10.1484,66.6808 C16.2924,72.8268 23.8274,75.9438 32.5474,75.9438 L33.1844,75.9438 C41.9004,75.9438 49.4374,72.8268 55.5854,66.6808 C61.7314,60.5318 64.8484,52.9948 64.8484,44.2808 L64.8484,32.1098 C64.8484,23.3998 61.7334,15.8388 55.5894,9.6358 L55.5894,9.6358 Z" id="Fill-12" fill="#000000" mask="url(#mask-4)"></path>
            </g>
            <path d="M164.541,9.7481 C163.448,5.5501 158.377,5.7481 155.478,6.5031 L144.648,9.6311 L136.926,2.1801 C136.316,1.5921 135.149,1.2871 134.331,1.4991 L130.441,2.5121 C129.623,2.7251 129.32,3.4851 129.768,4.2021 L134.912,12.4431 L126.121,14.9821 L122.67,11.7701 C122.67,11.7701 121.641,10.6851 120.132,11.0771 C118.995,11.3731 116.218,12.0961 116.218,12.0961 C116.218,12.0961 114.943,12.2881 115.644,13.5991 L118.303,18.8821 C119.656,21.5891 123.924,25.9191 131.096,24.0531 L158.209,16.9981 C161.107,16.2441 165.496,13.4211 164.541,9.7481" id="Fill-15" fill="#C80019"></path>
            <path d="M17.6465,133.7583 C17.6465,136.9043 17.0295,138.4633 15.7055,139.8453 C14.2645,141.3453 12.1765,142.1983 9.4425,142.1983 C8.8245,142.1983 8.1185,142.1393 7.4135,141.9913 C6.4725,141.8163 6.0315,141.3743 6.0315,140.3753 C6.0315,139.3453 6.5895,138.8443 7.5315,138.8443 C7.8835,138.8443 8.5015,139.1103 9.5315,139.1103 C11.1775,139.1103 12.5595,138.4633 13.1475,137.4923 C13.8235,136.3463 13.9415,135.3763 13.9415,133.1393 L13.9415,120.9663 C13.9415,119.8773 14.7655,119.2893 15.8235,119.2893 C16.8825,119.2893 17.6465,119.8773 17.6465,120.9663 L17.6465,133.7583 Z" id="Fill-17" fill="#000000"></path>
            <path d="M33.043,122.6714 C32.631,124.2304 32.19,125.9074 31.75,127.2884 L30.426,131.4054 L35.896,131.4054 L34.572,127.2304 C34.131,125.8174 33.66,124.2304 33.25,122.6714 L33.043,122.6714 Z M30.515,121.3784 C31.043,119.9064 31.867,119.2894 33.22,119.2894 C34.631,119.2894 35.455,119.9064 35.954,121.3474 L42.336,139.5814 C42.425,139.8454 42.483,140.1394 42.483,140.3754 C42.483,141.3454 41.689,141.9914 40.453,141.9914 C39.601,141.9914 39.132,141.5504 38.925,140.8744 L36.808,134.2574 L29.485,134.2574 L27.338,140.8744 C27.103,141.5504 26.604,141.9914 25.78,141.9914 C24.574,141.9914 23.868,141.3454 23.868,140.4634 C23.868,140.1984 23.927,139.8754 24.017,139.6114 L30.515,121.3784 Z" id="Fill-19" fill="#000000"></path>
            <path d="M61.7686,138.7271 C62.7086,138.7271 63.2096,139.4041 63.2096,140.2281 C63.2096,141.0511 62.7086,141.7271 61.7686,141.7271 L53.5936,141.7271 C50.1226,141.7271 49.1536,140.5801 49.1536,137.7581 L49.1536,120.9661 C49.1536,119.8771 49.9476,119.2891 51.0066,119.2891 C52.0646,119.2891 52.7996,119.8771 52.7996,120.9661 L52.7996,137.1691 C52.7996,138.3451 53.0936,138.7271 54.4466,138.7271 L61.7686,138.7271 Z" id="Fill-21" fill="#000000"></path>
            <path d="M71.7754,132.9932 C71.7754,135.6992 72.8334,136.7002 73.8914,136.7002 C74.8024,136.7002 75.5974,136.2292 76.4514,134.7282 C77.9494,132.1122 79.0384,128.3192 79.3904,123.9952 C75.0094,124.8472 71.7754,128.6402 71.7754,132.9932 M68.3924,132.9932 C68.3924,126.2892 73.9504,120.7902 82.0384,120.7902 C89.2124,120.7902 93.3594,125.2892 93.3594,131.1412 C93.3594,136.4642 90.2124,140.3752 85.1544,141.9912 C84.9194,142.0802 84.6834,142.1092 84.4784,142.1092 C83.4774,142.1092 82.8324,141.2862 82.8324,140.4332 C82.8324,139.7862 83.1834,139.1402 84.0664,138.8162 C88.2434,137.3172 89.9184,134.7872 89.9184,131.1412 C89.9184,127.2882 87.3004,124.1132 82.8324,123.7882 C82.5384,128.6702 81.3324,133.0822 79.5084,136.2862 C77.8904,139.1402 76.1564,139.9932 73.8914,139.9932 C70.8924,139.9932 68.3924,137.5812 68.3924,132.9932" id="Fill-23" fill="#000000"></path>
            <path d="M112.7061,132.6699 C112.4711,132.7579 112.2061,132.8759 111.9711,132.9639 C111.7351,133.0519 111.5301,133.0819 111.3231,133.0819 C110.4711,133.0819 109.9121,132.3759 109.9121,131.6409 C109.9121,131.0829 110.2071,130.5239 110.9721,130.2299 C113.8241,129.0829 116.5591,127.5239 118.6461,125.8469 C119.0281,125.5239 119.4401,125.4079 119.8221,125.4079 C120.6751,125.4079 121.3811,126.1119 121.3811,126.8779 C121.3811,127.2589 121.2051,127.6699 120.7641,128.0229 C120.3521,128.3479 119.8811,128.6699 119.4111,128.9939 C119.5871,129.9939 119.8521,131.0239 120.1751,131.9939 C120.8221,131.4339 121.4401,130.8769 122.1161,130.1419 C122.4391,129.7889 122.8521,129.6109 123.2341,129.6109 C123.9981,129.6109 124.7041,130.2579 124.7041,131.0239 C124.7041,131.3469 124.5871,131.6999 124.2631,132.0229 C123.4091,132.9639 122.2931,133.8759 121.1761,134.6409 C122.1161,136.7879 123.3221,138.6409 124.7041,140.1109 C125.1161,140.5509 125.2921,141.0209 125.2921,141.4349 C125.2921,142.3159 124.5571,142.9919 123.6751,142.9919 C123.2041,142.9919 122.6751,142.7559 122.2341,142.2269 C119.8221,139.2579 117.8521,135.0809 116.8821,130.5819 C116.5291,130.7879 116.1761,130.9949 115.8221,131.1699 L115.8221,143.1969 C115.8221,144.0499 115.0591,144.4619 114.2651,144.4619 C113.5001,144.4619 112.7061,144.0499 112.7061,143.1969 L112.7061,132.6699 Z M123.5271,122.0539 C124.3521,122.0539 124.7331,122.7599 124.7331,123.4669 C124.7331,124.1709 124.3521,124.8769 123.5271,124.8769 L113.9401,124.8769 C113.4411,125.6109 112.9411,126.3479 112.3831,127.0529 C111.9711,127.5829 111.4411,127.8179 110.9721,127.8179 C110.1771,127.8179 109.4721,127.1699 109.4721,126.4069 C109.4721,126.0819 109.5891,125.7289 109.8841,125.3779 C111.4721,123.4949 112.9701,120.7609 113.7661,118.4659 C114.0291,117.7009 114.6771,117.3779 115.3231,117.3779 C116.1171,117.3779 116.9111,117.8789 116.9111,118.7019 C116.9111,118.8779 116.8521,119.0539 116.7931,119.2319 C116.4701,120.1129 116.0291,121.0839 115.5291,122.0539 L123.5271,122.0539 Z M99.1491,125.1419 C98.3851,125.1419 97.9731,124.4369 97.9731,123.7009 C97.9731,122.9959 98.3851,122.2899 99.1491,122.2899 L102.0311,122.2899 L102.0311,118.5839 C102.0311,117.7319 102.8251,117.2909 103.5901,117.2909 C104.3841,117.2909 105.1491,117.7319 105.1491,118.5839 L105.1491,122.2899 L108.7661,122.2899 C109.5601,122.2899 109.9711,122.9959 109.9711,123.7009 C109.9711,124.4369 109.5601,125.1419 108.7661,125.1419 L104.3551,125.1419 L104.3551,127.9659 L105.9431,127.9659 C108.2661,127.9659 109.1781,128.9059 109.1781,130.9949 C109.1781,134.8159 108.9721,138.0809 108.5891,140.5219 C108.2071,143.0799 106.9731,143.9319 105.2961,143.9319 C104.7071,143.9319 104.2071,143.8749 103.7081,143.7859 C102.8251,143.6679 102.4141,142.9329 102.4141,142.2269 C102.4141,141.4349 102.9141,140.6099 103.7951,140.6099 C103.8851,140.6099 104.0021,140.6099 104.0901,140.6389 C104.3251,140.6679 104.5601,140.6979 104.8541,140.6979 C105.1781,140.6979 105.3541,140.5219 105.4421,140.0219 C105.8531,137.7279 106.0601,134.7879 106.0601,131.3769 C106.0601,130.8469 105.9131,130.6699 105.3851,130.6699 L104.2371,130.6699 C103.8851,135.5509 102.6481,139.8759 100.9731,142.8159 C100.5911,143.4919 99.9731,143.7859 99.4141,143.7859 C98.6201,143.7859 97.8851,143.2279 97.8851,142.3449 C97.8851,142.0519 97.9731,141.7269 98.1801,141.3739 C100.0611,138.1089 101.2371,133.1699 101.2371,127.6129 L101.2371,125.1419 L99.1491,125.1419 Z" id="Fill-25" fill="#C80019"></path>
            <path d="M148.6055,126.6997 C148.6055,125.6117 148.1645,125.3187 146.7235,125.3187 L133.6675,125.3187 C132.6965,125.3187 132.1955,124.4947 132.1955,123.6707 C132.1955,122.8477 132.6965,122.0257 133.6675,122.0257 L147.3705,122.0257 C150.7215,122.0257 152.0165,123.3187 152.0165,125.9647 L152.0165,136.8157 C152.0165,139.4637 150.7215,140.7567 147.3705,140.7567 L133.3145,140.7567 C132.3435,140.7567 131.8435,139.9327 131.8435,139.1107 C131.8435,138.2877 132.3435,137.4637 133.3145,137.4637 L146.7235,137.4637 C148.1645,137.4637 148.6055,137.1697 148.6055,136.0807 L148.6055,126.6997 Z" id="Fill-27" fill="#000000"></path>
            <path d="M176.5361,122.5249 C177.3591,122.9359 177.7121,123.6129 177.7121,124.2589 C177.7121,125.1419 177.0951,125.9639 176.1241,125.9639 C175.8891,125.9639 175.5951,125.9069 175.3011,125.7589 C172.5651,124.5249 169.0371,123.1129 166.1841,122.3179 C165.3601,122.0829 165.0091,121.4649 165.0091,120.8189 C165.0091,119.9669 165.6541,119.0839 166.7141,119.0839 C166.8601,119.0839 167.0091,119.1139 167.1831,119.1429 C170.0361,119.8489 173.9481,121.2599 176.5361,122.5249 M174.3601,130.2579 C175.0951,130.6419 175.4181,131.2289 175.4181,131.8169 C175.4181,132.6699 174.7121,133.5229 173.7131,133.5229 C173.4181,133.5229 173.0961,133.4349 172.7421,133.2569 C170.5651,132.1409 167.9781,131.0519 165.8901,130.3759 C165.1271,130.1419 164.8021,129.5239 164.8021,128.9359 C164.8021,128.0839 165.4191,127.2589 166.4481,127.2589 C166.6551,127.2589 166.8601,127.2879 167.0961,127.3489 C169.1251,127.9359 172.1251,129.1419 174.3601,130.2579 M175.9761,139.7579 C176.8011,140.1679 177.1241,140.8459 177.1241,141.4919 C177.1241,142.3749 176.4471,143.1689 175.4761,143.1689 C175.1821,143.1689 174.8591,143.1099 174.5071,142.9329 C171.1831,141.2559 166.8601,139.5809 163.4501,138.5229 C162.5971,138.2569 162.2151,137.6099 162.2151,136.9639 C162.2151,136.1109 162.8611,135.2579 163.8901,135.2579 C164.0981,135.2579 164.2731,135.2869 164.4791,135.3459 C168.0081,136.2579 172.4191,137.9039 175.9761,139.7579" id="Fill-29" fill="#000000"></path>
            <path d="M207.4717,138.8159 C208.3837,138.8159 208.8247,139.5219 208.8247,140.2569 C208.8247,140.9629 208.3837,141.6979 207.4717,141.6979 L189.3867,141.6979 C188.5037,141.6979 188.0347,140.9629 188.0347,140.2569 C188.0347,139.5219 188.5037,138.8159 189.3867,138.8159 L201.1497,138.8159 L201.5317,130.6699 L201.5317,130.5239 C201.5317,129.7889 201.2957,129.5539 200.3557,129.5539 L192.0337,129.5539 C191.1507,129.5539 190.6797,128.8179 190.6797,128.1119 C190.6797,127.3769 191.1507,126.6709 192.0337,126.6709 L200.7957,126.6709 C203.4127,126.6709 204.5307,127.6999 204.5307,129.9639 L204.5307,130.3169 L204.1487,138.8159 L207.4717,138.8159 Z" id="Fill-31" fill="#000000"></path>
            <path d="M236.5723,122.6426 C237.6313,122.6426 238.1603,123.4666 238.1603,124.3196 C238.1603,125.1426 237.6313,125.9946 236.5723,125.9946 L221.5753,125.9946 C220.5153,125.9946 219.9873,125.1426 219.9873,124.3196 C219.9873,123.4666 220.5153,122.6426 221.5753,122.6426 L236.5723,122.6426 Z M239.8063,136.3756 C240.8653,136.3756 241.3943,137.1996 241.3943,138.0526 C241.3943,138.8746 240.8653,139.7276 239.8063,139.7276 L218.3393,139.7276 C217.2813,139.7276 216.7513,138.8746 216.7513,138.0526 C216.7513,137.1996 217.2813,136.3756 218.3393,136.3756 L239.8063,136.3756 Z" id="Fill-33" fill="#000000"></path>
            <path d="M265.0176,120.1719 C265.8716,120.1719 266.3116,120.9659 266.3116,121.7599 C266.3116,122.5539 265.8716,123.3489 265.0176,123.3489 L251.3146,123.3489 C250.4616,123.3489 250.0496,122.5539 250.0496,121.7599 C250.0496,120.9659 250.4616,120.1719 251.3146,120.1719 L265.0176,120.1719 Z M260.1356,130.2299 C259.6646,135.9939 256.9306,140.4039 252.6976,142.9619 C252.3716,143.1399 252.0786,143.2279 251.7846,143.2279 C250.8436,143.2279 250.1086,142.3749 250.1086,141.4919 C250.1086,140.9919 250.3436,140.4639 250.9906,140.0499 C254.4026,137.8739 256.2846,134.8469 256.7256,130.2299 L247.6976,130.2299 C246.8436,130.2299 246.4316,129.4359 246.4316,128.6709 C246.4316,127.8769 246.8436,127.1129 247.6976,127.1129 L268.7236,127.1129 C269.5766,127.1129 270.0176,127.8769 270.0176,128.6709 C270.0176,129.4359 269.5766,130.2299 268.7236,130.2299 L260.1356,130.2299 Z" id="Fill-35" fill="#000000"></path>
            <path d="M285.125,132.6699 C283.186,134.1989 281.156,135.4939 279.215,136.4929 C278.951,136.6399 278.686,136.6999 278.421,136.6999 C277.597,136.6999 276.979,135.9629 276.979,135.1979 C276.979,134.6989 277.245,134.1699 277.862,133.8459 C282.186,131.6119 286.773,127.8769 289.567,123.9659 C289.859,123.5239 290.302,123.3489 290.714,123.3489 C291.508,123.3489 292.33,124.0239 292.33,124.8479 C292.33,125.1119 292.243,125.4079 292.036,125.6999 C290.684,127.5519 288.979,129.3759 287.097,131.0519 C287.655,131.1699 288.154,131.5819 288.154,132.2579 L288.154,142.8439 C288.154,143.6969 287.391,144.1099 286.655,144.1099 C285.891,144.1099 285.125,143.6969 285.125,142.8439 L285.125,132.6699 Z" id="Fill-37" fill="#000000"></path>
        </g>
    </g>
</svg>