<svg id="レイヤー_1" data-name="レイヤー 1" xmlns="http://www.w3.org/2000/svg" viewBox="0 0 161.39 85.12"><defs><style>.cls-1{fill:#e50012;}.cls-2{fill:#231815;}</style></defs><title>名称未設定-1</title><polygon class="cls-1" points="81.91 50.6 84.31 50.6 84.21 47.75 81.91 50.6"/><path class="cls-1" d="M714.55,376.11a31.58,31.58,0,0,0-.16-6.92s0,0,0,0a18.64,18.64,0,0,1-6.87,10.53s-.08,0,0-.06a22.81,22.81,0,0,0,6.3-14,30.68,30.68,0,0,0-3.17-7.86s-.06,0,0,0a21.46,21.46,0,0,1-5.41,17.34,0,0,0,1,1-.06,0,24.34,24.34,0,0,0,3.52-20.37,31.25,31.25,0,0,0-50.27,0,24.3,24.3,0,0,0,3.51,20.37s0,.09,0,0a21.43,21.43,0,0,1-5.41-17.34s0-.05-.05,0a30.68,30.68,0,0,0-3.17,7.86,22.75,22.75,0,0,0,6.3,14s0,.1,0,.06a18.66,18.66,0,0,1-6.86-10.53,0,0,0,0,0-.06,0,31.57,31.57,0,0,0-.15,6.92,18.91,18.91,0,0,0,5.71,8.22s0,.09,0,.06a17,17,0,0,1-5.09-4.63s0,0,0,0a31.25,31.25,0,0,0,61.17,0s0,0,0,0a17,17,0,0,1-5.09,4.63s-.08,0,0-.06A18.93,18.93,0,0,0,714.55,376.11Zm-42.73,20.38a13.92,13.92,0,0,1-3-.3l.73-1.9c1.95.23,3.62.06,4.27-1.64l2.07-5.4h4.26l-2.28,5.95C676.75,396.23,673.87,396.49,671.82,396.49Zm14.59-.3-.07-1.76H682.5l-1.42,1.76h-3.52l7.14-8.27a1.81,1.81,0,0,1,1.3-.67h3.81l.86,8.94Zm15.08,0h-9.68l3.43-8.94h4.27l-2.72,7h5.42Zm-3.94-18.88c-6.38,6.22-15.94,2.25-15-5.38.75-5.89,8-11.75,13.43-14.94a0,0,0,0,0,0-.06c-.71-.68-2.2-2.22-3.16-3.38a6.28,6.28,0,0,0-10,.17l-15.71,1.47a.05.05,0,0,0,0,.1l16.84,1c3,.17,4,2.88,1.08,5.06-10.69,8.11-12.61,16.69-10.21,23.49,0,0-.06.08-.08,0a13.67,13.67,0,0,1-2.12-4.88,20.13,20.13,0,1,1,24.93-2.66Z" transform="translate(-601.96 -342.11)"/><path class="cls-2" d="M762.19,424.13c-.9,2.34-4,3.07-7.35,3.07s-5.5-.73-5-3.07h4.26c-.11.63.27,1,1.52,1s2.08-.41,2.31-1c.59-1.52-7.84,0-6.49-3.52.75-2,3.7-2.88,7-2.88s5.22.72,4.82,2.87h-4.18c.07-.57-.1-1-1.36-1s-1.93.45-2.15,1C755,422.16,763.53,420.65,762.19,424.13Z" transform="translate(-601.96 -342.11)"/><path class="cls-2" d="M687.68,426.93h-4.26l3.43-8.93h4.26Z" transform="translate(-601.96 -342.11)"/><path class="cls-2" d="M719.88,426.93h-4.26l3.43-8.93h4.26Z" transform="translate(-601.96 -342.11)"/><path class="cls-2" d="M747.31,426.93H737l3.43-8.93h10.35l-.66,1.72H744l-.7,1.8h5.08l-.66,1.71h-5.07L742,425H748Z" transform="translate(-601.96 -342.11)"/><path class="cls-2" d="M662.71,426.93h-3.44l-2.89-5.27-2,5.27h-3.44l3.43-8.93h4l2.54,4.69L662.7,418h3.44Z" transform="translate(-601.96 -342.11)"/><path class="cls-2" d="M734.32,426.93h-3.44L728,421.66l-2,5.27h-3.43L726,418h4l2.54,4.69,1.8-4.69h3.45Z" transform="translate(-601.96 -342.11)"/><path class="cls-2" d="M611,423.94c-1.16,3-4,3.29-6.08,3.29a14,14,0,0,1-3-.3l.73-1.89c1.95.22,3.62,0,4.27-1.65L609,418h4.26Z" transform="translate(-601.96 -342.11)"/><path class="cls-2" d="M635.13,418h-6.61l-3.43,8.93h4.25l1.25-3.24H633c3.93,0,6-1.05,6.74-2.84S639.07,418,635.13,418Zm.31,2.85a2,2,0,0,1-1.83,1.13h-2.36l.87-2.26h2.36C635.26,419.72,635.69,420.2,635.44,420.85Z" transform="translate(-601.96 -342.11)"/><path class="cls-2" d="M700.37,418h-6.62l-3.43,8.93h4.26l1.24-3.24h1.29l.84,3.24h4.65l-1.14-3.57c1.89-.43,3-1.3,3.47-2.51C705.62,419.06,704.31,418,700.37,418Zm.3,2.85a2,2,0,0,1-1.83,1.13h-2.36l.87-2.26h2.37C700.49,419.72,700.92,420.2,700.67,420.85Z" transform="translate(-601.96 -342.11)"/><polygon class="cls-2" points="107.73 82.93 110.44 75.9 106.18 75.9 102.75 84.82 112.41 84.82 113.14 82.93 107.73 82.93"/><path class="cls-2" d="M623.16,418h-3.81a1.83,1.83,0,0,0-1.31.67l-7.13,8.26h3.52l1.41-1.76h3.85l.06,1.76H624Zm-5.93,5.46,2.29-2.86.1,2.86Z" transform="translate(-601.96 -342.11)"/><path class="cls-2" d="M649,418h-3.81a1.81,1.81,0,0,0-1.31.67l-7.13,8.26h3.51l1.42-1.76h3.84l.07,1.76h4.26Zm-5.94,5.46,2.3-2.86.1,2.86Z" transform="translate(-601.96 -342.11)"/><path class="cls-2" d="M681.49,418h-3.81a1.83,1.83,0,0,0-1.31.67l-7.13,8.26h3.52l1.41-1.76H678l.06,1.76h4.26Zm-5.93,5.46,2.29-2.86.11,2.86Z" transform="translate(-601.96 -342.11)"/></svg>