<?xml version="1.0" encoding="utf-8"?>
<!-- Generator: Adobe Illustrator 19.2.0, SVG Export Plug-In . SVG Version: 6.00 Build 0)  -->
<!DOCTYPE svg PUBLIC "-//W3C//DTD SVG 1.1//EN" "http://www.w3.org/Graphics/SVG/1.1/DTD/svg11.dtd">
<svg version="1.1" id="レイヤー_2" xmlns="http://www.w3.org/2000/svg" xmlns:xlink="http://www.w3.org/1999/xlink" x="0px"
	 y="0px" width="19px" height="19px" viewBox="0 0 19 19" enable-background="new 0 0 19 19" xml:space="preserve">
<g>
	<path fill-rule="evenodd" clip-rule="evenodd" fill="#494949" d="M11.6,5.8H3.3C3,5.8,2.8,6,2.8,6.3v6.4c0,0.3,0.2,0.5,0.5,0.5h8.3
		c0.3,0,0.5-0.2,0.5-0.5V6.3C12.1,6,11.9,5.8,11.6,5.8z"/>
	<path fill-rule="evenodd" clip-rule="evenodd" fill="#494949" d="M18.3,3H0.6C0.3,3,0,3.2,0,3.5v11.9C0,15.7,0.3,16,0.6,16h17.7
		c0.3,0,0.6-0.3,0.6-0.6V3.5C18.9,3.2,18.7,3,18.3,3z M14.6,4.8c0-0.2,0.2-0.3,0.5-0.3h2.3c0.3,0,0.5,0.1,0.5,0.3v4
		c0,0.2-0.2,0.3-0.5,0.3H15c-0.3,0-0.5-0.1-0.5-0.3V4.8z M13.3,14.2c0,0.2-0.2,0.4-0.4,0.4H2.3c-0.2,0-0.4-0.2-0.4-0.4V4.9
		c0-0.2,0.2-0.4,0.4-0.4h10.6c0.2,0,0.4,0.2,0.4,0.4V14.2z M16.2,14.7c-1,0-1.7-0.8-1.7-1.7s0.8-1.7,1.7-1.7c1,0,1.7,0.8,1.7,1.7
		S17.2,14.7,16.2,14.7z"/>
</g>
</svg>
